<svg xmlns="http://www.w3.org/2000/svg" xmlns:xlink="http://www.w3.org/1999/xlink" width="200" zoomAndPan="magnify" viewBox="0 0 150 149.999998" height="200" preserveAspectRatio="xMidYMid meet" version="1.0"><path fill="#caddff" d="M 51.628906 5.65625 C 61.175781 0.609375 72.480469 2.902344 79.707031 4.367188 C 108.1875 10.144531 133.035156 30.835938 143.667969 63.417969 C 146.15625 71.042969 157.484375 109.816406 129.890625 132.738281 C 105.5 153.003906 66.566406 147.6875 41.527344 133.292969 C 20.78125 121.367188 0.0078125 97.699219 2.472656 76.78125 C 4.023438 63.628906 13.367188 62.691406 25.089844 38.546875 C 35.238281 17.648438 39.957031 11.824219 51.628906 5.65625 " fill-opacity="1" fill-rule="nonzero"/><path fill="#5479f7" d="M 124.511719 142.40625 L 39.203125 142.40625 C 36.554688 142.40625 34.398438 139.769531 34.824219 137.152344 L 53.167969 23.703125 C 53.507812 21.617188 55.191406 19.871094 57.300781 19.871094 L 142.609375 19.871094 C 145.257812 19.871094 147.390625 22.460938 146.96875 25.082031 L 128.621094 138.53125 C 128.285156 140.617188 126.621094 142.40625 124.511719 142.40625 " fill-opacity="1" fill-rule="nonzero"/><path fill="#99b9ff" d="M 121.105469 142.402344 L 35.796875 142.402344 C 33.148438 142.402344 31.128906 140.035156 31.554688 137.425781 L 49.917969 23.742188 C 50.253906 21.664062 52.050781 20.136719 54.160156 20.136719 L 139.472656 20.136719 C 142.121094 20.136719 144.140625 22.503906 143.714844 25.113281 L 125.351562 138.796875 C 125.011719 140.875 123.214844 142.402344 121.105469 142.402344 " fill-opacity="1" fill-rule="nonzero"/><path fill="#000000" d="M 54.160156 20.402344 C 52.171875 20.402344 50.496094 21.824219 50.179688 23.785156 L 31.8125 137.46875 C 31.625 138.636719 31.957031 139.820312 32.722656 140.722656 C 33.492188 141.621094 34.613281 142.136719 35.796875 142.136719 L 121.105469 142.136719 C 123.097656 142.136719 124.769531 140.714844 125.089844 138.757812 L 143.453125 25.070312 C 143.644531 23.90625 143.3125 22.71875 142.542969 21.820312 C 141.777344 20.917969 140.65625 20.402344 139.472656 20.402344 Z M 121.105469 142.664062 L 35.796875 142.664062 C 34.457031 142.664062 33.191406 142.082031 32.320312 141.0625 C 31.453125 140.042969 31.078125 138.703125 31.292969 137.382812 L 49.65625 23.699219 C 50.015625 21.484375 51.910156 19.875 54.160156 19.875 L 139.472656 19.875 C 140.8125 19.875 142.078125 20.457031 142.949219 21.476562 C 143.816406 22.496094 144.191406 23.835938 143.976562 25.15625 L 125.613281 138.839844 C 125.25 141.054688 123.355469 142.664062 121.105469 142.664062 " fill-opacity="1" fill-rule="nonzero"/><path fill="#ffffff" d="M 119.148438 138.820312 L 38.832031 138.820312 C 36.339844 138.820312 34.4375 136.59375 34.835938 134.136719 L 52.128906 27.109375 C 52.445312 25.15625 54.136719 23.71875 56.121094 23.71875 L 136.433594 23.71875 C 138.929688 23.71875 140.832031 25.945312 140.429688 28.402344 L 123.140625 135.429688 C 122.824219 137.382812 121.132812 138.820312 119.148438 138.820312 " fill-opacity="1" fill-rule="nonzero"/><path fill="#000000" d="M 92.566406 136.597656 L 63.804688 136.597656 C 63.660156 136.597656 63.542969 136.480469 63.542969 136.332031 C 63.542969 136.1875 63.660156 136.070312 63.804688 136.070312 L 92.566406 136.070312 C 92.710938 136.070312 92.832031 136.1875 92.832031 136.332031 C 92.832031 136.480469 92.710938 136.597656 92.566406 136.597656 " fill-opacity="1" fill-rule="nonzero"/><path fill="#99b9ff" d="M 102.164062 26.632812 L 87.882812 26.632812 C 86.121094 26.632812 84.6875 25.203125 84.6875 23.445312 L 105.359375 23.445312 C 105.359375 25.203125 103.929688 26.632812 102.164062 26.632812 " fill-opacity="1" fill-rule="nonzero"/><path fill="#5479f7" d="M 101.148438 61.28125 L 27.796875 61.28125 C 26.464844 61.28125 25.765625 59.847656 25.980469 58.535156 L 28.292969 45.5 C 28.464844 44.453125 29.527344 43.429688 30.589844 43.429688 L 103.941406 43.429688 C 105.277344 43.429688 106.132812 44.878906 105.917969 46.191406 L 103.605469 59.226562 C 103.4375 60.273438 102.210938 61.28125 101.148438 61.28125 " fill-opacity="1" fill-rule="nonzero"/><path fill="#ffffff" d="M 98.988281 61.042969 L 22.742188 61.042969 C 21.40625 61.042969 20.390625 59.847656 20.605469 58.535156 L 22.917969 45.5 C 23.085938 44.453125 23.992188 43.683594 25.054688 43.683594 L 101.300781 43.683594 C 102.636719 43.683594 103.652344 44.878906 103.4375 46.191406 L 101.125 59.226562 C 100.957031 60.273438 100.050781 61.042969 98.988281 61.042969 " fill-opacity="1" fill-rule="nonzero"/><path fill="#000000" d="M 25.054688 43.949219 C 24.117188 43.949219 23.328125 44.621094 23.175781 45.542969 L 20.863281 58.578125 C 20.777344 59.125 20.933594 59.683594 21.292969 60.109375 C 21.65625 60.535156 22.183594 60.777344 22.742188 60.777344 L 98.988281 60.777344 C 99.925781 60.777344 100.714844 60.105469 100.867188 59.183594 L 103.179688 46.144531 C 103.265625 45.601562 103.109375 45.042969 102.75 44.617188 C 102.386719 44.191406 101.859375 43.949219 101.300781 43.949219 Z M 98.988281 61.304688 L 22.742188 61.304688 C 22.027344 61.304688 21.351562 60.996094 20.890625 60.453125 C 20.429688 59.910156 20.226562 59.195312 20.34375 58.492188 L 22.65625 45.453125 C 22.847656 44.277344 23.855469 43.421875 25.054688 43.421875 L 101.300781 43.421875 C 102.015625 43.421875 102.6875 43.730469 103.152344 44.273438 C 103.613281 44.816406 103.8125 45.53125 103.699219 46.234375 L 101.386719 59.273438 C 101.195312 60.449219 100.1875 61.304688 98.988281 61.304688 " fill-opacity="1" fill-rule="nonzero"/><path fill="#5479f7" d="M 30.746094 53.527344 C 29.597656 52.382812 29.597656 50.527344 30.746094 49.386719 C 31.890625 48.242188 33.75 48.242188 34.898438 49.386719 C 36.042969 50.527344 36.042969 52.382812 34.898438 53.527344 C 33.75 54.667969 31.890625 54.667969 30.746094 53.527344 Z M 35.585938 48.699219 C 34.058594 47.175781 31.582031 47.175781 30.058594 48.699219 C 28.53125 50.21875 28.53125 52.691406 30.058594 54.210938 C 31.582031 55.734375 34.058594 55.734375 35.585938 54.210938 C 37.109375 52.691406 37.109375 50.21875 35.585938 48.699219 " fill-opacity="1" fill-rule="nonzero"/><path fill="#5479f7" d="M 27.625 57.121094 L 27.132812 56.632812 C 27.070312 56.570312 27.070312 56.46875 27.132812 56.410156 L 30.03125 53.515625 L 30.746094 54.230469 L 27.847656 57.121094 C 27.785156 57.183594 27.683594 57.183594 27.625 57.121094 " fill-opacity="1" fill-rule="nonzero"/><path fill="#99b9ff" d="M 73.382812 54.175781 L 44.746094 54.175781 C 43.300781 54.175781 42.125 53.007812 42.125 51.566406 C 42.125 50.121094 43.300781 48.953125 44.746094 48.953125 L 73.382812 48.953125 C 74.832031 48.953125 76.003906 50.121094 76.003906 51.566406 C 76.003906 53.007812 74.832031 54.175781 73.382812 54.175781 " fill-opacity="1" fill-rule="nonzero"/><path fill="#99b9ff" d="M 87.355469 54.136719 L 83.019531 54.136719 C 81.574219 54.136719 80.398438 52.96875 80.398438 51.523438 C 80.398438 50.082031 81.574219 48.914062 83.019531 48.914062 L 87.355469 48.914062 C 88.800781 48.914062 89.972656 50.082031 89.972656 51.523438 C 89.972656 52.96875 88.800781 54.136719 87.355469 54.136719 " fill-opacity="1" fill-rule="nonzero"/><path fill="#99b9ff" d="M 85.667969 72.171875 L 57.03125 72.171875 C 55.582031 72.171875 54.410156 71.003906 54.410156 69.5625 C 54.410156 68.117188 55.582031 66.949219 57.03125 66.949219 L 85.667969 66.949219 C 87.113281 66.949219 88.285156 68.117188 88.285156 69.5625 C 88.285156 71.003906 87.113281 72.171875 85.667969 72.171875 " fill-opacity="1" fill-rule="nonzero"/><path fill="#caddff" d="M 91.925781 81.421875 L 79.84375 81.421875 C 78.398438 81.421875 77.226562 80.25 77.226562 78.808594 C 77.226562 77.367188 78.398438 76.195312 79.84375 76.195312 L 91.925781 76.195312 C 93.371094 76.195312 94.542969 77.367188 94.542969 78.808594 C 94.542969 80.25 93.371094 81.421875 91.925781 81.421875 " fill-opacity="1" fill-rule="nonzero"/><path fill="#caddff" d="M 112.582031 81.421875 L 100.503906 81.421875 C 99.058594 81.421875 97.886719 80.253906 97.886719 78.808594 C 97.886719 77.367188 99.058594 76.195312 100.503906 76.195312 L 112.582031 76.195312 C 114.027344 76.195312 115.199219 77.367188 115.199219 78.808594 C 115.199219 80.253906 114.027344 81.421875 112.582031 81.421875 " fill-opacity="1" fill-rule="nonzero"/><path fill="#caddff" d="M 116.878906 101.246094 L 85.578125 101.246094 C 84.132812 101.246094 82.957031 100.074219 82.957031 98.632812 C 82.957031 97.1875 84.132812 96.019531 85.578125 96.019531 L 116.878906 96.019531 C 118.324219 96.019531 119.496094 97.1875 119.496094 98.632812 C 119.496094 100.074219 118.324219 101.246094 116.878906 101.246094 " fill-opacity="1" fill-rule="nonzero"/><path fill="#caddff" d="M 80.539062 111.753906 L 51.800781 111.753906 C 50.355469 111.753906 49.183594 110.582031 49.183594 109.140625 C 49.183594 107.699219 50.355469 106.527344 51.800781 106.527344 L 80.539062 106.527344 C 81.984375 106.527344 83.15625 107.699219 83.15625 109.140625 C 83.15625 110.582031 81.984375 111.753906 80.539062 111.753906 " fill-opacity="1" fill-rule="nonzero"/><path fill="#99b9ff" d="M 107.117188 111.753906 L 89.359375 111.753906 C 87.914062 111.753906 86.742188 110.582031 86.742188 109.140625 C 86.742188 107.699219 87.914062 106.527344 89.359375 106.527344 L 107.117188 106.527344 C 108.5625 106.527344 109.734375 107.699219 109.734375 109.140625 C 109.734375 110.582031 108.5625 111.753906 107.117188 111.753906 " fill-opacity="1" fill-rule="nonzero"/><path fill="#caddff" d="M 95.453125 121.910156 L 77.699219 121.910156 C 76.253906 121.910156 75.082031 120.738281 75.082031 119.296875 C 75.082031 117.851562 76.253906 116.683594 77.699219 116.683594 L 95.453125 116.683594 C 96.902344 116.683594 98.070312 117.851562 98.070312 119.296875 C 98.070312 120.738281 96.902344 121.910156 95.453125 121.910156 " fill-opacity="1" fill-rule="nonzero"/><path fill="#caddff" d="M 77.015625 101.246094 L 67.703125 101.246094 C 66.257812 101.246094 65.085938 100.074219 65.085938 98.632812 C 65.085938 97.1875 66.257812 96.019531 67.703125 96.019531 L 77.015625 96.019531 C 78.460938 96.019531 79.636719 97.1875 79.636719 98.632812 C 79.636719 100.074219 78.460938 101.246094 77.015625 101.246094 " fill-opacity="1" fill-rule="nonzero"/><path fill="#99b9ff" d="M 104.109375 91.121094 L 90.644531 91.121094 C 89.199219 91.121094 88.027344 89.953125 88.027344 88.511719 C 88.027344 87.066406 89.199219 85.898438 90.644531 85.898438 L 104.109375 85.898438 C 105.554688 85.898438 106.726562 87.066406 106.726562 88.511719 C 106.726562 89.953125 105.554688 91.121094 104.109375 91.121094 " fill-opacity="1" fill-rule="nonzero"/><path fill="#ffffff" d="M 124.574219 44.0625 C 122.183594 44.714844 119.71875 43.308594 119.0625 40.921875 C 118.410156 38.535156 119.816406 36.074219 122.203125 35.421875 C 124.59375 34.765625 127.0625 36.171875 127.714844 38.558594 C 128.371094 40.945312 126.964844 43.40625 124.574219 44.0625 Z M 132.316406 38.203125 L 131.855469 36.523438 L 129.953125 36.609375 C 129.777344 36.242188 129.574219 35.890625 129.339844 35.5625 L 130.347656 33.953125 L 129.109375 32.730469 L 127.507812 33.753906 C 127.171875 33.523438 126.820312 33.324219 126.453125 33.152344 L 126.519531 31.253906 L 124.832031 30.8125 L 123.957031 32.5 C 123.558594 32.464844 123.152344 32.46875 122.742188 32.507812 L 121.847656 30.832031 L 120.167969 31.289062 L 120.253906 33.1875 C 119.882812 33.363281 119.535156 33.566406 119.207031 33.796875 L 117.59375 32.792969 L 116.367188 34.027344 L 117.394531 35.628906 C 117.164062 35.964844 116.964844 36.316406 116.792969 36.683594 L 114.890625 36.617188 L 114.449219 38.300781 L 116.136719 39.171875 C 116.105469 39.570312 116.105469 39.976562 116.144531 40.386719 L 114.464844 41.277344 L 114.925781 42.957031 L 116.828125 42.871094 C 117.003906 43.238281 117.207031 43.589844 117.4375 43.917969 L 116.429688 45.527344 L 117.667969 46.75 L 119.273438 45.726562 C 119.609375 45.957031 119.960938 46.15625 120.328125 46.328125 L 120.261719 48.226562 L 121.949219 48.667969 L 122.820312 46.984375 C 123.222656 47.015625 123.628906 47.011719 124.035156 46.972656 L 124.929688 48.652344 L 126.613281 48.191406 L 126.527344 46.292969 C 126.894531 46.117188 127.246094 45.914062 127.574219 45.683594 L 129.1875 46.6875 L 130.414062 45.453125 L 129.386719 43.851562 C 129.617188 43.515625 129.816406 43.164062 129.988281 42.796875 L 131.890625 42.863281 L 132.332031 41.179688 L 130.644531 40.308594 C 130.675781 39.90625 130.671875 39.503906 130.636719 39.09375 L 132.316406 38.203125 " fill-opacity="1" fill-rule="nonzero"/><path fill="#000000" d="M 123.394531 35.523438 C 123.023438 35.523438 122.644531 35.574219 122.273438 35.675781 C 120.03125 36.289062 118.703125 38.613281 119.316406 40.855469 C 119.617188 41.9375 120.320312 42.84375 121.300781 43.402344 C 122.277344 43.960938 123.417969 44.105469 124.503906 43.804688 C 126.75 43.191406 128.078125 40.867188 127.460938 38.625 C 127.164062 37.542969 126.460938 36.636719 125.480469 36.078125 C 124.835938 35.710938 124.121094 35.523438 123.394531 35.523438 Z M 123.382812 44.484375 C 122.566406 44.484375 121.765625 44.273438 121.039062 43.859375 C 119.933594 43.234375 119.144531 42.214844 118.808594 40.992188 C 118.117188 38.46875 119.609375 35.855469 122.136719 35.164062 C 123.359375 34.832031 124.640625 34.992188 125.742188 35.621094 C 126.847656 36.246094 127.636719 37.265625 127.972656 38.488281 C 128.664062 41.011719 127.171875 43.625 124.644531 44.316406 C 124.226562 44.429688 123.804688 44.484375 123.382812 44.484375 Z M 120.53125 48.023438 L 121.808594 48.359375 L 122.667969 46.707031 L 122.84375 46.71875 C 123.222656 46.75 123.617188 46.746094 124.011719 46.710938 L 124.1875 46.695312 L 125.066406 48.339844 L 126.335938 47.992188 L 126.253906 46.128906 L 126.410156 46.054688 C 126.769531 45.886719 127.109375 45.6875 127.421875 45.46875 L 127.566406 45.367188 L 129.144531 46.351562 L 130.074219 45.414062 L 129.070312 43.84375 L 129.167969 43.703125 C 129.386719 43.382812 129.582031 43.039062 129.746094 42.6875 L 129.820312 42.527344 L 131.6875 42.59375 L 132.023438 41.316406 L 130.367188 40.460938 L 130.378906 40.285156 C 130.410156 39.90625 130.40625 39.511719 130.371094 39.121094 L 130.355469 38.945312 L 132.003906 38.070312 L 131.65625 36.796875 L 129.789062 36.882812 L 129.714844 36.722656 C 129.542969 36.367188 129.347656 36.027344 129.125 35.714844 L 129.023438 35.570312 L 130.011719 33.992188 L 129.074219 33.066406 L 127.5 34.070312 L 127.355469 33.972656 C 127.035156 33.75 126.695312 33.558594 126.339844 33.394531 L 126.183594 33.320312 L 126.246094 31.457031 L 124.972656 31.121094 L 124.113281 32.777344 L 123.9375 32.761719 C 123.554688 32.730469 123.160156 32.734375 122.769531 32.769531 L 122.59375 32.785156 L 121.714844 31.140625 L 120.441406 31.488281 L 120.527344 33.351562 L 120.367188 33.425781 C 120.011719 33.59375 119.671875 33.792969 119.359375 34.015625 L 119.214844 34.113281 L 117.632812 33.128906 L 116.703125 34.066406 L 117.710938 35.636719 L 117.613281 35.78125 C 117.390625 36.101562 117.195312 36.441406 117.03125 36.792969 L 116.957031 36.953125 L 115.09375 36.886719 L 114.757812 38.164062 L 116.414062 39.019531 L 116.398438 39.195312 C 116.371094 39.574219 116.371094 39.96875 116.40625 40.363281 L 116.425781 40.535156 L 114.777344 41.410156 L 115.125 42.683594 L 116.992188 42.597656 L 117.066406 42.757812 C 117.234375 43.113281 117.433594 43.453125 117.652344 43.765625 L 117.753906 43.910156 L 116.765625 45.488281 L 117.707031 46.414062 L 119.277344 45.410156 L 119.421875 45.507812 C 119.746094 45.730469 120.085938 45.921875 120.4375 46.085938 L 120.597656 46.160156 Z M 122.085938 48.976562 L 119.988281 48.429688 L 120.054688 46.492188 C 119.785156 46.355469 119.523438 46.207031 119.269531 46.042969 L 117.632812 47.085938 L 116.09375 45.566406 L 117.121094 43.925781 C 116.957031 43.675781 116.804688 43.414062 116.664062 43.140625 L 114.726562 43.230469 L 114.152344 41.144531 L 115.867188 40.234375 C 115.847656 39.929688 115.84375 39.625 115.859375 39.328125 L 114.140625 38.4375 L 114.6875 36.347656 L 116.628906 36.414062 C 116.761719 36.144531 116.914062 35.878906 117.078125 35.628906 L 116.03125 33.992188 L 117.554688 32.457031 L 119.199219 33.484375 C 119.449219 33.316406 119.710938 33.164062 119.984375 33.027344 L 119.894531 31.089844 L 121.984375 30.519531 L 122.894531 32.230469 C 123.199219 32.210938 123.503906 32.207031 123.800781 32.222656 L 124.695312 30.503906 L 126.789062 31.054688 L 126.722656 32.992188 C 126.992188 33.125 127.257812 33.273438 127.507812 33.4375 L 129.144531 32.394531 L 130.683594 33.914062 L 129.660156 35.554688 C 129.824219 35.804688 129.976562 36.066406 130.113281 36.339844 L 132.054688 36.25 L 132.625 38.335938 L 130.914062 39.246094 C 130.933594 39.550781 130.933594 39.855469 130.917969 40.152344 L 132.640625 41.042969 L 132.089844 43.132812 L 130.148438 43.066406 C 130.015625 43.339844 129.867188 43.601562 129.703125 43.855469 L 130.75 45.488281 L 129.226562 47.023438 L 127.578125 46 C 127.332031 46.164062 127.070312 46.316406 126.796875 46.453125 L 126.886719 48.390625 L 124.796875 48.960938 L 123.882812 47.25 C 123.578125 47.269531 123.273438 47.273438 122.976562 47.257812 L 122.085938 48.976562 " fill-opacity="1" fill-rule="nonzero"/><path fill="#000000" d="M 128.796875 12.683594 Z M 130.175781 11.78125 C 129.632812 11.78125 129.148438 12.171875 129.058594 12.726562 C 129.007812 13.023438 129.078125 13.324219 129.253906 13.570312 C 129.433594 13.816406 129.695312 13.976562 129.992188 14.027344 C 130.292969 14.074219 130.589844 14.003906 130.835938 13.828125 C 131.082031 13.652344 131.246094 13.394531 131.296875 13.09375 C 131.34375 12.796875 131.273438 12.496094 131.097656 12.253906 C 130.921875 12.007812 130.660156 11.84375 130.359375 11.796875 C 130.296875 11.785156 130.238281 11.78125 130.175781 11.78125 Z M 130.179688 14.570312 C 130.089844 14.570312 129.996094 14.5625 129.90625 14.546875 C 129.46875 14.476562 129.082031 14.238281 128.824219 13.878906 C 128.566406 13.519531 128.464844 13.078125 128.535156 12.640625 C 128.683594 11.738281 129.542969 11.125 130.445312 11.273438 C 130.886719 11.347656 131.269531 11.582031 131.527344 11.945312 C 131.785156 12.304688 131.890625 12.742188 131.816406 13.179688 C 131.746094 13.617188 131.507812 14 131.144531 14.257812 C 130.859375 14.460938 130.523438 14.570312 130.179688 14.570312 " fill-opacity="1" fill-rule="nonzero"/><path fill="#000000" d="M 8.230469 31.847656 Z M 9.605469 30.941406 C 9.371094 30.941406 9.144531 31.015625 8.949219 31.15625 C 8.703125 31.332031 8.539062 31.589844 8.492188 31.890625 C 8.390625 32.503906 8.808594 33.085938 9.425781 33.1875 C 9.722656 33.238281 10.023438 33.167969 10.269531 32.992188 C 10.515625 32.816406 10.679688 32.554688 10.726562 32.257812 C 10.777344 31.960938 10.707031 31.660156 10.53125 31.414062 C 10.355469 31.167969 10.089844 31.007812 9.792969 30.957031 C 9.730469 30.949219 9.667969 30.941406 9.605469 30.941406 Z M 9.613281 33.730469 C 9.523438 33.730469 9.429688 33.726562 9.339844 33.710938 C 8.433594 33.5625 7.820312 32.707031 7.96875 31.804688 C 8.039062 31.367188 8.277344 30.984375 8.640625 30.726562 C 9 30.46875 9.441406 30.363281 9.878906 30.4375 C 10.316406 30.507812 10.703125 30.746094 10.960938 31.105469 C 11.21875 31.464844 11.320312 31.90625 11.25 32.34375 C 11.175781 32.78125 10.9375 33.164062 10.578125 33.421875 C 10.292969 33.625 9.957031 33.730469 9.613281 33.730469 " fill-opacity="1" fill-rule="nonzero"/><path fill="#caddff" d="M 15.425781 35.507812 C 15.617188 34.34375 16.71875 33.558594 17.886719 33.75 C 19.054688 33.941406 19.84375 35.039062 19.648438 36.203125 C 19.457031 37.367188 18.355469 38.15625 17.191406 37.960938 C 16.023438 37.769531 15.234375 36.671875 15.425781 35.507812 " fill-opacity="1" fill-rule="nonzero"/><path fill="#000000" d="M 119.375 8.984375 C 119.21875 9.929688 119.863281 10.824219 120.8125 10.980469 C 121.269531 11.058594 121.730469 10.949219 122.113281 10.679688 C 122.488281 10.410156 122.742188 10.007812 122.816406 9.546875 C 122.972656 8.601562 122.328125 7.703125 121.378906 7.546875 C 120.917969 7.472656 120.457031 7.582031 120.078125 7.851562 C 119.699219 8.121094 119.449219 8.523438 119.375 8.984375 Z M 121.097656 11.535156 C 120.972656 11.535156 120.847656 11.523438 120.726562 11.503906 C 119.488281 11.300781 118.648438 10.128906 118.851562 8.894531 C 118.949219 8.300781 119.277344 7.773438 119.769531 7.421875 C 120.265625 7.070312 120.863281 6.929688 121.464844 7.027344 C 122.0625 7.125 122.589844 7.453125 122.941406 7.945312 C 123.296875 8.4375 123.4375 9.035156 123.335938 9.632812 C 123.15625 10.746094 122.1875 11.535156 121.097656 11.535156 " fill-opacity="1" fill-rule="nonzero"/><path fill="#000000" d="M 108.617188 6.542969 C 108.53125 6.542969 108.453125 6.503906 108.398438 6.433594 L 107.539062 5.226562 C 107.453125 5.109375 107.480469 4.941406 107.601562 4.859375 C 107.71875 4.773438 107.882812 4.800781 107.96875 4.921875 L 108.832031 6.125 C 108.917969 6.246094 108.890625 6.410156 108.769531 6.496094 C 108.722656 6.527344 108.667969 6.542969 108.617188 6.542969 " fill-opacity="1" fill-rule="nonzero"/><path fill="#000000" d="M 111.632812 10.765625 C 111.550781 10.765625 111.46875 10.726562 111.417969 10.65625 L 110.554688 9.449219 C 110.46875 9.332031 110.496094 9.164062 110.617188 9.082031 C 110.734375 8.996094 110.902344 9.023438 110.984375 9.144531 L 111.847656 10.347656 C 111.933594 10.46875 111.90625 10.632812 111.785156 10.71875 C 111.738281 10.75 111.683594 10.765625 111.632812 10.765625 " fill-opacity="1" fill-rule="nonzero"/><path fill="#000000" d="M 106.984375 10.003906 C 106.902344 10.003906 106.820312 9.964844 106.769531 9.890625 C 106.683594 9.773438 106.710938 9.609375 106.828125 9.523438 L 108.035156 8.65625 C 108.152344 8.570312 108.316406 8.597656 108.402344 8.714844 C 108.488281 8.835938 108.460938 9 108.34375 9.085938 L 107.136719 9.953125 C 107.089844 9.988281 107.035156 10.003906 106.984375 10.003906 " fill-opacity="1" fill-rule="nonzero"/><path fill="#000000" d="M 111.199219 6.96875 C 111.117188 6.96875 111.035156 6.929688 110.984375 6.859375 C 110.898438 6.742188 110.925781 6.574219 111.042969 6.492188 L 112.246094 5.625 C 112.367188 5.539062 112.53125 5.566406 112.617188 5.683594 C 112.703125 5.800781 112.675781 5.964844 112.558594 6.050781 L 111.355469 6.917969 C 111.308594 6.953125 111.253906 6.96875 111.199219 6.96875 " fill-opacity="1" fill-rule="nonzero"/><path fill="#000000" d="M 9.582031 79.035156 C 9.5 79.035156 9.417969 78.996094 9.367188 78.925781 L 8.503906 77.71875 C 8.417969 77.601562 8.445312 77.4375 8.566406 77.351562 C 8.683594 77.265625 8.851562 77.292969 8.933594 77.414062 L 9.796875 78.621094 C 9.882812 78.738281 9.855469 78.902344 9.734375 78.988281 C 9.6875 79.019531 9.632812 79.035156 9.582031 79.035156 " fill-opacity="1" fill-rule="nonzero"/><path fill="#000000" d="M 12.597656 83.257812 C 12.515625 83.257812 12.433594 83.222656 12.382812 83.148438 L 11.519531 81.941406 C 11.4375 81.824219 11.464844 81.660156 11.582031 81.574219 C 11.703125 81.488281 11.867188 81.515625 11.953125 81.636719 L 12.8125 82.84375 C 12.898438 82.960938 12.871094 83.125 12.75 83.210938 C 12.703125 83.242188 12.652344 83.257812 12.597656 83.257812 " fill-opacity="1" fill-rule="nonzero"/><path fill="#000000" d="M 7.949219 82.496094 C 7.867188 82.496094 7.785156 82.457031 7.734375 82.386719 C 7.648438 82.265625 7.675781 82.101562 7.792969 82.015625 L 9 81.148438 C 9.117188 81.066406 9.28125 81.09375 9.367188 81.210938 C 9.453125 81.328125 9.425781 81.492188 9.308594 81.578125 L 8.101562 82.445312 C 8.054688 82.480469 8.003906 82.496094 7.949219 82.496094 " fill-opacity="1" fill-rule="nonzero"/><path fill="#000000" d="M 12.164062 79.460938 C 12.082031 79.460938 12 79.421875 11.949219 79.351562 C 11.863281 79.234375 11.890625 79.070312 12.007812 78.984375 L 13.214844 78.117188 C 13.332031 78.03125 13.496094 78.058594 13.582031 78.175781 C 13.667969 78.292969 13.640625 78.460938 13.523438 78.542969 L 12.320312 79.410156 C 12.273438 79.445312 12.21875 79.460938 12.164062 79.460938 " fill-opacity="1" fill-rule="nonzero"/><path fill="#ffffff" d="M 7.527344 15.800781 C 7.535156 10.515625 11.835938 6.214844 17.132812 6.191406 C 22.429688 6.167969 26.71875 10.433594 26.714844 15.71875 C 26.707031 21 22.40625 25.304688 17.109375 25.328125 C 11.808594 25.351562 7.519531 21.085938 7.527344 15.800781 " fill-opacity="1" fill-rule="nonzero"/><path fill="#000000" d="M 17.175781 6.453125 C 17.164062 6.453125 17.148438 6.453125 17.132812 6.453125 C 11.992188 6.476562 7.800781 10.671875 7.792969 15.800781 C 7.789062 18.285156 8.757812 20.617188 10.515625 22.367188 C 12.265625 24.109375 14.589844 25.0625 17.066406 25.066406 C 17.078125 25.066406 17.09375 25.0625 17.105469 25.0625 C 22.25 25.042969 26.441406 20.847656 26.449219 15.71875 C 26.453125 13.230469 25.484375 10.898438 23.726562 9.152344 C 21.976562 7.410156 19.652344 6.453125 17.175781 6.453125 Z M 17.066406 25.589844 C 14.449219 25.589844 11.992188 24.582031 10.140625 22.742188 C 8.28125 20.894531 7.261719 18.429688 7.265625 15.800781 C 7.269531 10.378906 11.699219 5.949219 17.132812 5.925781 C 17.148438 5.925781 17.160156 5.925781 17.175781 5.925781 C 19.792969 5.925781 22.25 6.9375 24.097656 8.777344 C 25.957031 10.625 26.980469 13.089844 26.976562 15.71875 C 26.96875 21.136719 22.542969 25.570312 17.109375 25.589844 C 17.09375 25.589844 17.078125 25.589844 17.066406 25.589844 " fill-opacity="1" fill-rule="nonzero"/><path fill="#5479f7" d="M 21.988281 11.316406 L 19.0625 13.03125 C 18.914062 13.121094 18.90625 13.335938 19.054688 13.429688 L 19.488281 13.707031 C 19.597656 13.777344 19.628906 13.925781 19.558594 14.03125 L 18.203125 16.140625 C 18.132812 16.25 17.988281 16.28125 17.878906 16.210938 L 15.363281 14.601562 C 15.253906 14.53125 15.109375 14.5625 15.039062 14.675781 L 12.011719 19.351562 C 11.941406 19.460938 11.976562 19.605469 12.085938 19.675781 L 13.003906 20.265625 C 13.113281 20.335938 13.257812 20.304688 13.328125 20.195312 L 15.511719 16.828125 C 15.582031 16.71875 15.726562 16.6875 15.835938 16.757812 L 18.351562 18.367188 C 18.460938 18.4375 18.605469 18.40625 18.675781 18.296875 L 20.871094 14.878906 C 20.941406 14.769531 21.089844 14.738281 21.199219 14.808594 L 21.664062 15.105469 C 21.8125 15.203125 22.011719 15.105469 22.027344 14.929688 L 22.339844 11.542969 C 22.359375 11.351562 22.152344 11.21875 21.988281 11.316406 " fill-opacity="1" fill-rule="nonzero"/><path fill="#5479f7" d="M 61.003906 10.433594 C 66.796875 10.433594 72.273438 13.046875 78.03125 19.859375 L 54.1875 19.890625 C 51.921875 19.890625 50.011719 21.507812 49.65625 23.738281 C 49.238281 26.386719 49.230469 29.703125 49.691406 31.457031 C 50.332031 33.902344 50.949219 35.632812 51.460938 36.832031 C 52.109375 38.34375 51.617188 40.101562 50.285156 41.074219 L 49.242188 41.839844 C 47.746094 42.933594 45.65625 42.699219 44.445312 41.296875 C 42.871094 39.472656 40.828125 36.738281 39.488281 33.542969 C 36.132812 25.53125 38.695312 12.894531 49.851562 10.6875 C 52.230469 10.21875 59.765625 10.433594 61.003906 10.433594 " fill-opacity="1" fill-rule="nonzero"/><path fill="#ffffff" d="M 63.105469 19.679688 C 62.5 18.335938 60.894531 17.769531 59.542969 18.371094 C 58.503906 18.832031 57.152344 19.496094 56.757812 19.980469 C 56.289062 20.558594 55.527344 22.371094 56.164062 23.757812 C 56.730469 25 58.324219 25.328125 59.40625 24.492188 C 59.972656 24.054688 60.5625 23.324219 60.925781 22.101562 C 61.128906 21.421875 61.589844 20.835938 62.238281 20.558594 C 62.414062 20.480469 62.605469 20.421875 62.8125 20.398438 C 63.082031 20.367188 63.257812 20.09375 63.167969 19.835938 C 63.152344 19.789062 63.132812 19.738281 63.105469 19.679688 " fill-opacity="1" fill-rule="nonzero"/><path fill="#000000" d="M 60.664062 18.394531 C 60.328125 18.394531 59.984375 18.464844 59.652344 18.609375 C 57.691406 19.480469 57.125 19.945312 56.964844 20.144531 C 56.558594 20.648438 55.820312 22.371094 56.40625 23.644531 C 56.632812 24.140625 57.066406 24.503906 57.601562 24.632812 C 58.171875 24.773438 58.773438 24.644531 59.246094 24.28125 C 59.894531 23.78125 60.375 23.019531 60.671875 22.027344 C 60.90625 21.238281 61.4375 20.613281 62.132812 20.3125 C 62.347656 20.222656 62.5625 20.160156 62.777344 20.136719 C 62.847656 20.128906 62.886719 20.085938 62.902344 20.058594 C 62.917969 20.035156 62.941406 19.984375 62.917969 19.917969 C 62.90625 19.878906 62.886719 19.835938 62.863281 19.789062 C 62.46875 18.914062 61.589844 18.394531 60.664062 18.394531 Z M 58.0625 25.21875 C 57.867188 25.21875 57.667969 25.195312 57.472656 25.148438 C 56.78125 24.976562 56.21875 24.507812 55.921875 23.867188 C 55.246094 22.390625 56 20.5 56.554688 19.816406 C 56.890625 19.394531 57.863281 18.828125 59.4375 18.128906 C 60.933594 17.464844 62.6875 18.109375 63.347656 19.570312 C 63.378906 19.636719 63.402344 19.695312 63.417969 19.75 C 63.484375 19.949219 63.460938 20.164062 63.351562 20.34375 C 63.238281 20.519531 63.050781 20.636719 62.84375 20.660156 C 62.679688 20.679688 62.511719 20.726562 62.34375 20.796875 C 61.792969 21.035156 61.371094 21.539062 61.179688 22.175781 C 60.851562 23.28125 60.308594 24.128906 59.566406 24.699219 C 59.128906 25.039062 58.597656 25.21875 58.0625 25.21875 " fill-opacity="1" fill-rule="nonzero"/><path fill="#ffffff" d="M 53.027344 44.585938 C 53.203125 44.875 53.40625 45.226562 53.535156 45.859375 L 54.066406 48.796875 L 52.300781 48.800781 C 52.007812 48.800781 51.726562 48.910156 51.507812 49.101562 C 51.507812 49.101562 51.503906 49.105469 51.503906 49.105469 C 51.269531 49.308594 51.160156 49.625 51.21875 49.929688 C 51.339844 50.550781 51.804688 52.355469 51.808594 52.640625 C 51.816406 53.0625 51.882812 53.660156 51.601562 54 L 51.527344 54.089844 C 51.234375 54.441406 50.667969 54.351562 50.503906 53.925781 L 48.925781 49.789062 C 48.71875 49.257812 48.703125 48.675781 48.882812 48.132812 L 49.800781 45.335938 C 50.007812 44.707031 49.828125 44.015625 49.347656 43.5625 L 45.898438 40.699219 C 44.648438 39.542969 46.996094 37.398438 46.996094 37.398438 C 47.769531 36.855469 48.851562 37.066406 49.359375 37.808594 L 53.027344 44.585938 " fill-opacity="1" fill-rule="nonzero"/><path fill="#000000" d="M 47.160156 37.605469 C 46.769531 37.964844 45.800781 39.042969 45.796875 39.867188 C 45.796875 40.121094 45.886719 40.332031 46.078125 40.507812 L 49.515625 43.359375 C 50.082031 43.890625 50.289062 44.695312 50.050781 45.417969 L 49.132812 48.214844 C 48.976562 48.699219 48.988281 49.222656 49.171875 49.691406 L 50.75 53.832031 C 50.792969 53.945312 50.886719 54.019531 51.007812 54.039062 C 51.128906 54.058594 51.246094 54.015625 51.324219 53.921875 L 51.398438 53.832031 C 51.574219 53.617188 51.5625 53.183594 51.546875 52.835938 C 51.546875 52.769531 51.542969 52.703125 51.542969 52.644531 C 51.542969 52.5 51.34375 51.660156 51.214844 51.101562 C 51.109375 50.652344 51.007812 50.230469 50.960938 49.980469 C 50.882812 49.582031 51.023438 49.171875 51.332031 48.90625 C 51.605469 48.667969 51.949219 48.539062 52.300781 48.539062 L 53.75 48.535156 L 53.273438 45.90625 C 53.160156 45.34375 52.984375 45.023438 52.800781 44.722656 C 52.800781 44.71875 52.796875 44.714844 52.792969 44.710938 L 49.136719 37.945312 C 48.929688 37.652344 48.597656 37.449219 48.230469 37.382812 C 47.851562 37.3125 47.472656 37.390625 47.160156 37.605469 Z M 51.066406 54.574219 C 51.019531 54.574219 50.96875 54.566406 50.921875 54.5625 C 50.617188 54.511719 50.367188 54.308594 50.257812 54.023438 L 48.679688 49.882812 C 48.453125 49.300781 48.433594 48.648438 48.628906 48.050781 L 49.546875 45.253906 C 49.722656 44.726562 49.570312 44.136719 49.164062 43.753906 L 45.726562 40.902344 C 45.417969 40.613281 45.265625 40.269531 45.265625 39.863281 C 45.273438 38.628906 46.753906 37.261719 46.816406 37.203125 C 46.824219 37.195312 46.835938 37.1875 46.84375 37.179688 C 47.273438 36.878906 47.796875 36.765625 48.324219 36.859375 C 48.835938 36.953125 49.292969 37.242188 49.578125 37.65625 C 49.585938 37.664062 49.589844 37.671875 49.59375 37.679688 L 53.257812 44.453125 C 53.457031 44.78125 53.664062 45.160156 53.796875 45.808594 L 54.328125 48.75 C 54.34375 48.828125 54.320312 48.90625 54.269531 48.96875 C 54.222656 49.027344 54.148438 49.0625 54.070312 49.0625 L 52.300781 49.066406 C 52.078125 49.066406 51.855469 49.148438 51.679688 49.300781 C 51.515625 49.445312 51.4375 49.667969 51.480469 49.882812 C 51.527344 50.121094 51.625 50.539062 51.730469 50.980469 C 51.941406 51.886719 52.070312 52.449219 52.074219 52.636719 C 52.074219 52.691406 52.074219 52.753906 52.078125 52.816406 C 52.09375 53.253906 52.109375 53.796875 51.808594 54.167969 L 51.730469 54.257812 C 51.5625 54.460938 51.320312 54.574219 51.066406 54.574219 " fill-opacity="1" fill-rule="nonzero"/><path fill="#ffffff" d="M 58.148438 15.253906 C 58.3125 15.210938 58.464844 15.132812 58.597656 15.023438 L 60.617188 13.351562 C 60.835938 13.214844 61.113281 13.238281 61.308594 13.398438 L 62.753906 14.621094 C 62.941406 14.777344 63.207031 14.789062 63.410156 14.652344 L 65.238281 13.402344 L 66.128906 13.6875 C 66.199219 13.710938 66.273438 13.671875 66.300781 13.601562 L 66.886719 11.964844 C 67.136719 11.390625 67.992188 10.457031 67.769531 10.246094 C 67.769531 10.246094 65.148438 4.449219 62.265625 5.804688 C 61.851562 6 61.527344 6.355469 61.34375 6.777344 L 60.957031 7.660156 C 60.566406 8.542969 58.589844 10.570312 56.507812 11.097656 C 56.234375 11.167969 55.515625 11.222656 54.957031 11.257812 C 54.542969 11.285156 54.261719 11.6875 54.375 12.089844 C 54.507812 12.5625 54.757812 13.222656 55.214844 13.980469 C 55.816406 14.980469 56.984375 15.519531 58.125 15.257812 C 58.132812 15.253906 58.140625 15.253906 58.148438 15.253906 " fill-opacity="1" fill-rule="nonzero"/><path fill="#000000" d="M 67.585938 10.4375 Z M 63.160156 5.863281 C 62.894531 5.863281 62.636719 5.925781 62.378906 6.046875 C 62.03125 6.207031 61.75 6.507812 61.582031 6.882812 L 61.195312 7.765625 C 60.792969 8.6875 58.792969 10.792969 56.574219 11.355469 C 56.335938 11.414062 55.796875 11.472656 54.972656 11.523438 C 54.855469 11.53125 54.753906 11.589844 54.683594 11.683594 C 54.617188 11.78125 54.597656 11.902344 54.628906 12.019531 C 54.746094 12.429688 54.980469 13.082031 55.441406 13.847656 C 56 14.769531 57.050781 15.234375 58.0625 15 L 58.085938 14.996094 C 58.207031 14.964844 58.324219 14.90625 58.429688 14.820312 L 60.449219 13.148438 C 60.460938 13.140625 60.46875 13.132812 60.480469 13.128906 C 60.792969 12.933594 61.195312 12.960938 61.476562 13.195312 L 62.925781 14.421875 C 63.015625 14.5 63.15625 14.503906 63.257812 14.433594 L 65.089844 13.183594 C 65.15625 13.136719 65.242188 13.125 65.320312 13.148438 L 66.09375 13.398438 L 66.636719 11.875 C 66.636719 11.871094 66.640625 11.863281 66.644531 11.859375 C 66.746094 11.621094 66.9375 11.339844 67.121094 11.070312 C 67.273438 10.84375 67.5 10.511719 67.535156 10.371094 C 67.535156 10.367188 67.53125 10.359375 67.527344 10.355469 C 67.511719 10.320312 65.871094 6.734375 63.855469 5.996094 C 63.617188 5.90625 63.386719 5.863281 63.160156 5.863281 Z M 57.542969 15.589844 C 56.523438 15.589844 55.546875 15.042969 54.988281 14.117188 C 54.59375 13.464844 54.300781 12.808594 54.117188 12.164062 C 54.042969 11.890625 54.089844 11.605469 54.253906 11.378906 C 54.414062 11.152344 54.664062 11.011719 54.941406 10.996094 C 55.710938 10.949219 56.242188 10.890625 56.445312 10.84375 C 58.382812 10.351562 60.339844 8.40625 60.710938 7.554688 L 61.097656 6.671875 C 61.316406 6.179688 61.691406 5.785156 62.152344 5.566406 C 62.753906 5.285156 63.390625 5.261719 64.039062 5.5 C 66.167969 6.28125 67.800781 9.679688 67.992188 10.101562 C 68.222656 10.386719 67.925781 10.824219 67.558594 11.367188 C 67.390625 11.613281 67.21875 11.867188 67.132812 12.0625 L 66.550781 13.691406 C 66.476562 13.898438 66.257812 14.003906 66.050781 13.9375 L 65.28125 13.691406 L 63.558594 14.871094 C 63.261719 15.074219 62.859375 15.054688 62.582031 14.824219 L 61.136719 13.601562 C 61.035156 13.515625 60.890625 13.503906 60.773438 13.570312 L 58.765625 15.226562 C 58.601562 15.363281 58.40625 15.460938 58.207031 15.507812 L 58.183594 15.515625 C 57.96875 15.566406 57.753906 15.589844 57.542969 15.589844 " fill-opacity="1" fill-rule="nonzero"/><path fill="#000000" d="M 72.023438 7.957031 C 71.347656 6.683594 70.234375 7.257812 69.585938 3.640625 C 69.199219 1.46875 67.445312 3.714844 67.296875 3.160156 C 66.746094 1.117188 66.769531 1.183594 66.027344 0.472656 C 65.539062 0 64.277344 0.265625 63.5625 0.84375 C 62.621094 1.601562 61.679688 3.738281 60.570312 5.808594 C 59.996094 6.878906 60.480469 8.566406 62.507812 8.238281 C 63.144531 8.136719 63.183594 7.152344 63.742188 7.265625 C 65.183594 7.558594 63.996094 8.78125 64.84375 9.207031 C 65.65625 9.617188 66.09375 9.726562 67.140625 10.046875 C 68.414062 10.433594 68.367188 11.925781 70.386719 11.386719 C 71.4375 11.105469 72.949219 9.703125 72.023438 7.957031 " fill-opacity="1" fill-rule="nonzero"/><path fill="#ffffff" d="M 128.003906 127.867188 C 128.105469 128.027344 132.015625 133.605469 132.015625 133.605469 C 132.015625 133.605469 131.46875 135.542969 130.457031 135.820312 L 125.804688 130.796875 L 128.003906 127.867188 " fill-opacity="1" fill-rule="nonzero"/><path fill="#000000" d="M 126.148438 130.78125 L 130.527344 135.507812 C 131.121094 135.214844 131.558594 134.175781 131.726562 133.652344 C 131.179688 132.867188 128.738281 129.390625 127.996094 128.320312 Z M 130.457031 136.082031 C 130.382812 136.082031 130.3125 136.054688 130.261719 136 L 125.609375 130.976562 C 125.523438 130.882812 125.515625 130.742188 125.59375 130.640625 L 127.792969 127.707031 C 127.84375 127.640625 127.921875 127.601562 128.011719 127.601562 C 128.101562 127.605469 128.179688 127.652344 128.226562 127.722656 C 128.316406 127.867188 131.148438 131.910156 132.234375 133.453125 C 132.277344 133.519531 132.292969 133.601562 132.273438 133.679688 C 132.210938 133.890625 131.652344 135.765625 130.527344 136.074219 C 130.503906 136.078125 130.480469 136.082031 130.457031 136.082031 " fill-opacity="1" fill-rule="nonzero"/><path fill="#ffffff" d="M 134.644531 135.089844 C 134.644531 135.089844 133.476562 139.601562 131.527344 141.917969 C 129.578125 144.238281 126.335938 143.402344 126.335938 143.402344 C 126.335938 143.402344 126.097656 141.441406 126.503906 140.933594 C 126.910156 140.421875 129.15625 137.695312 129.148438 135.246094 L 130.148438 133.734375 L 130.851562 134.644531 L 131.792969 132.714844 L 134.644531 135.089844 " fill-opacity="1" fill-rule="nonzero"/><path fill="#000000" d="M 126.578125 143.183594 C 127.261719 143.308594 129.761719 143.609375 131.324219 141.75 C 133.011719 139.746094 134.117188 136.003906 134.34375 135.183594 L 131.886719 133.132812 L 131.089844 134.761719 C 131.050781 134.839844 130.96875 134.898438 130.878906 134.90625 C 130.789062 134.914062 130.699219 134.878906 130.640625 134.804688 L 130.164062 134.191406 L 129.414062 135.324219 C 129.394531 136.460938 128.90625 138.355469 126.757812 141.042969 L 126.714844 141.097656 C 126.5 141.363281 126.503906 142.417969 126.578125 143.183594 Z M 127.722656 143.820312 C 126.914062 143.820312 126.328125 143.671875 126.269531 143.660156 C 126.164062 143.632812 126.085938 143.542969 126.074219 143.433594 C 126.03125 143.089844 125.847656 141.335938 126.296875 140.769531 L 126.34375 140.714844 C 128.449219 138.082031 128.886719 136.289062 128.886719 135.246094 C 128.886719 135.195312 128.902344 135.144531 128.929688 135.101562 L 129.925781 133.589844 C 129.972656 133.519531 130.050781 133.476562 130.136719 133.472656 C 130.226562 133.46875 130.304688 133.507812 130.355469 133.574219 L 130.800781 134.144531 L 131.558594 132.597656 C 131.59375 132.523438 131.660156 132.472656 131.738281 132.453125 C 131.820312 132.4375 131.902344 132.457031 131.964844 132.511719 L 134.816406 134.886719 C 134.894531 134.953125 134.925781 135.058594 134.902344 135.15625 C 134.851562 135.34375 133.695312 139.75 131.730469 142.089844 C 130.53125 143.515625 128.890625 143.820312 127.722656 143.820312 " fill-opacity="1" fill-rule="nonzero"/><path fill="#ffffff" d="M 133.066406 135.421875 C 133.066406 135.421875 131.839844 142.089844 127.117188 142.585938 L 133.066406 135.421875 " fill-opacity="1" fill-rule="nonzero"/><path fill="#000000" d="M 127.117188 142.847656 C 126.980469 142.847656 126.867188 142.75 126.851562 142.613281 C 126.835938 142.46875 126.941406 142.335938 127.089844 142.320312 C 131.558594 141.851562 132.792969 135.441406 132.804688 135.375 C 132.832031 135.230469 132.972656 135.136719 133.117188 135.164062 C 133.257812 135.191406 133.355469 135.328125 133.328125 135.472656 C 133.277344 135.75 132.007812 142.335938 127.144531 142.847656 C 127.132812 142.847656 127.125 142.847656 127.117188 142.847656 " fill-opacity="1" fill-rule="nonzero"/><path fill="#ffffff" d="M 125.582031 133.171875 C 125.605469 133.410156 125.355469 136.753906 124.316406 138.851562 C 124.316406 138.851562 125.101562 140.40625 126.570312 140.128906 C 126.570312 140.128906 128.394531 136.132812 128.753906 133.085938 L 125.582031 133.171875 " fill-opacity="1" fill-rule="nonzero"/><path fill="#000000" d="M 124.617188 138.84375 C 124.804688 139.152344 125.414062 139.992188 126.390625 139.886719 C 126.691406 139.203125 128.070312 135.972656 128.453125 133.359375 L 125.839844 133.425781 C 125.789062 134.324219 125.480469 137.007812 124.617188 138.84375 Z M 126.234375 140.421875 C 125.125 140.421875 124.355469 139.507812 124.082031 138.972656 C 124.042969 138.898438 124.042969 138.808594 124.082031 138.734375 C 125.058594 136.761719 125.339844 133.515625 125.320312 133.191406 C 125.316406 133.121094 125.339844 133.046875 125.386719 132.996094 C 125.4375 132.941406 125.503906 132.90625 125.578125 132.90625 L 128.75 132.824219 C 128.828125 132.820312 128.898438 132.855469 128.953125 132.910156 C 129.003906 132.964844 129.027344 133.042969 129.019531 133.117188 C 128.660156 136.167969 126.890625 140.070312 126.8125 140.238281 C 126.777344 140.316406 126.707031 140.371094 126.621094 140.386719 C 126.488281 140.414062 126.359375 140.421875 126.234375 140.421875 " fill-opacity="1" fill-rule="nonzero"/><path fill="#ffffff" d="M 127.71875 138.148438 C 127.71875 138.148438 127.992188 141.371094 127.722656 143.074219 C 127.65625 143.503906 127.347656 143.851562 126.933594 143.980469 C 125.617188 144.386719 121.675781 145.628906 117.929688 145.511719 C 117.070312 145.480469 116.613281 144.90625 116.503906 144.582031 C 116.195312 143.683594 116.621094 142.464844 117.949219 141.265625 C 119.882812 139.519531 124.355469 136.890625 124.355469 136.890625 L 125.710938 138.519531 L 125.363281 140.117188 L 127.71875 138.148438 " fill-opacity="1" fill-rule="nonzero"/><path fill="#000000" d="M 124.296875 137.234375 C 123.417969 137.757812 119.792969 139.960938 118.128906 141.460938 C 116.972656 142.503906 116.457031 143.636719 116.753906 144.496094 C 116.824219 144.695312 117.167969 145.222656 117.9375 145.246094 C 121.582031 145.363281 125.367188 144.1875 126.792969 143.746094 L 126.855469 143.726562 C 127.179688 143.625 127.410156 143.359375 127.460938 143.035156 C 127.660156 141.78125 127.554688 139.65625 127.492188 138.683594 L 125.53125 140.320312 C 125.445312 140.390625 125.324219 140.402344 125.226562 140.34375 C 125.128906 140.285156 125.082031 140.171875 125.105469 140.0625 L 125.425781 138.589844 Z M 118.453125 145.78125 C 118.277344 145.78125 118.097656 145.78125 117.921875 145.773438 C 116.890625 145.742188 116.378906 145.035156 116.253906 144.667969 C 115.882812 143.589844 116.433594 142.277344 117.773438 141.070312 C 119.703125 139.328125 124.035156 136.769531 124.21875 136.664062 C 124.332031 136.597656 124.476562 136.621094 124.558594 136.722656 L 125.917969 138.351562 C 125.96875 138.414062 125.988281 138.496094 125.972656 138.574219 L 125.785156 139.417969 L 127.550781 137.945312 C 127.625 137.882812 127.730469 137.867188 127.820312 137.90625 C 127.910156 137.941406 127.972656 138.027344 127.984375 138.125 C 127.992188 138.261719 128.257812 141.402344 127.984375 143.117188 C 127.902344 143.644531 127.53125 144.070312 127.011719 144.230469 L 126.949219 144.25 C 125.570312 144.679688 122.011719 145.78125 118.453125 145.78125 " fill-opacity="1" fill-rule="nonzero"/><path fill="#ffffff" d="M 125.984375 142.96875 C 125.984375 142.96875 122.921875 144.347656 118.171875 144.460938 L 125.984375 142.96875 " fill-opacity="1" fill-rule="nonzero"/><path fill="#000000" d="M 118.171875 144.726562 C 118.027344 144.726562 117.910156 144.613281 117.90625 144.46875 C 117.902344 144.320312 118.019531 144.203125 118.164062 144.199219 C 122.808594 144.085938 125.847656 142.742188 125.875 142.730469 C 126.007812 142.667969 126.164062 142.726562 126.226562 142.859375 C 126.285156 142.992188 126.226562 143.148438 126.09375 143.210938 C 125.964844 143.265625 122.929688 144.609375 118.175781 144.726562 C 118.175781 144.726562 118.171875 144.726562 118.171875 144.726562 " fill-opacity="1" fill-rule="nonzero"/><path fill="#000000" d="M 118.796875 89.429688 C 118.796875 89.429688 112.902344 102.464844 112.878906 111.363281 C 112.859375 120.261719 126.765625 132.539062 126.765625 132.539062 L 129.371094 130.28125 C 129.371094 130.28125 123.738281 122.902344 122.851562 116.257812 C 121.960938 109.617188 125.652344 99.542969 125.652344 99.542969 L 126.660156 90.6875 L 118.796875 89.429688 " fill-opacity="1" fill-rule="nonzero"/><path fill="#000000" d="M 132.921875 89.429688 C 132.921875 89.429688 136.101562 108.984375 129.265625 134.765625 L 124.414062 133.980469 C 124.414062 133.980469 127.101562 111.585938 121.773438 99.667969 L 120.585938 88.902344 L 132.921875 89.429688 " fill-opacity="1" fill-rule="nonzero"/><path fill="#ffffff" d="M 124.355469 111.644531 C 124.210938 111.644531 124.09375 111.523438 124.09375 111.378906 C 124.109375 108.457031 123.28125 102.882812 122.105469 101.164062 C 122.023438 101.042969 122.054688 100.878906 122.175781 100.796875 C 122.296875 100.714844 122.460938 100.746094 122.542969 100.867188 C 123.820312 102.726562 124.640625 108.425781 124.621094 111.382812 C 124.621094 111.527344 124.503906 111.644531 124.355469 111.644531 " fill-opacity="1" fill-rule="nonzero"/><path fill="#99b9ff" d="M 124.761719 128.492188 C 124.757812 128.492188 124.75 128.492188 124.746094 128.492188 C 124.601562 128.484375 124.488281 128.359375 124.496094 128.214844 C 124.648438 125.488281 124.566406 122.046875 124.566406 122.011719 C 124.5625 121.867188 124.679688 121.746094 124.824219 121.742188 C 124.96875 121.746094 125.09375 121.855469 125.09375 122 C 125.097656 122.035156 125.179688 125.496094 125.023438 128.242188 C 125.015625 128.382812 124.902344 128.492188 124.761719 128.492188 " fill-opacity="1" fill-rule="nonzero"/><path fill="#000000" d="M 131.597656 59.507812 C 132.148438 60.613281 131.367188 61.003906 131.75 63.152344 C 132.03125 64.730469 132.597656 65.335938 132.222656 66.121094 C 131.882812 66.828125 131.0625 67.082031 130.523438 67.25 C 128.066406 68.011719 125.699219 66.773438 124.25 66.011719 C 123.074219 65.394531 121.460938 64.546875 121.570312 63.6875 C 121.675781 62.84375 123.339844 62.960938 124.117188 61.542969 C 124.746094 60.398438 124.023438 59.683594 124.6875 58.71875 C 125.542969 57.46875 127.539062 57.519531 127.859375 57.527344 C 129.140625 57.5625 130.917969 58.144531 131.597656 59.507812 " fill-opacity="1" fill-rule="nonzero"/><path fill="#ffffff" d="M 117.878906 66.046875 L 124.335938 67.660156 C 124.453125 67.683594 124.574219 67.621094 124.613281 67.507812 C 125.050781 66.273438 124.367188 64.890625 124.171875 64.53125 C 124.140625 64.476562 124.085938 64.4375 124.023438 64.417969 C 123.703125 64.332031 123.414062 64.21875 123.15625 64.082031 C 122.835938 63.914062 122.703125 63.519531 122.847656 63.191406 C 123.085938 62.65625 123.34375 61.9375 123.488281 61.644531 C 123.523438 61.570312 123.519531 61.484375 123.476562 61.421875 C 123.367188 61.257812 123.195312 61.132812 123.214844 60.890625 C 123.222656 60.796875 123.289062 60.714844 123.378906 60.6875 C 124.1875 60.449219 124.816406 59.234375 125.355469 58.867188 C 125.613281 58.691406 125.789062 58.644531 126.078125 58.484375 C 126.128906 58.457031 126.1875 58.445312 126.238281 58.457031 C 127.617188 58.757812 125.507812 60.464844 127.3125 61.464844 C 127.402344 61.515625 127.457031 61.617188 127.433594 61.714844 C 127.40625 61.867188 127.410156 62.066406 127.429688 62.25 C 127.429688 62.253906 127.429688 62.253906 127.429688 62.257812 C 127.449219 62.441406 127.667969 62.53125 127.8125 62.414062 C 128.085938 62.191406 128.367188 62.128906 128.53125 62.222656 C 128.765625 62.359375 128.75 62.8125 128.667969 63.082031 C 128.5 63.617188 127.941406 63.867188 127.621094 63.96875 C 127.496094 64.003906 127.425781 64.132812 127.460938 64.257812 C 127.675781 64.996094 128.324219 67.308594 128.371094 68.359375 C 128.375 68.46875 128.453125 68.558594 128.558594 68.582031 L 129.789062 68.851562 C 131.644531 69.257812 133.847656 70.375 135.265625 71.636719 C 135.265625 71.636719 137.882812 73.675781 137.75 73.808594 C 133.914062 77.699219 126.378906 75.265625 123.589844 74.03125 C 120.882812 72.835938 117.699219 66.007812 117.878906 66.046875 " fill-opacity="1" fill-rule="nonzero"/><path fill="#000000" d="M 124.398438 67.402344 L 124.402344 67.402344 Z M 118.285156 66.421875 C 118.929688 67.894531 121.496094 72.820312 123.695312 73.792969 C 124.660156 74.21875 133.152344 77.804688 137.410156 73.773438 C 137.078125 73.429688 136.046875 72.582031 135.101562 71.84375 C 133.699219 70.601562 131.546875 69.507812 129.730469 69.109375 L 128.5 68.839844 C 128.277344 68.792969 128.117188 68.601562 128.105469 68.375 C 128.058594 67.347656 127.40625 65.019531 127.207031 64.332031 C 127.132812 64.066406 127.277344 63.796875 127.539062 63.714844 C 127.808594 63.632812 128.28125 63.425781 128.410156 63.003906 C 128.492188 62.742188 128.449219 62.484375 128.394531 62.453125 C 128.363281 62.433594 128.199219 62.441406 127.980469 62.621094 C 127.835938 62.734375 127.640625 62.765625 127.46875 62.691406 C 127.300781 62.621094 127.183594 62.464844 127.164062 62.28125 C 127.140625 62.039062 127.144531 61.839844 127.167969 61.6875 C 126.03125 61.050781 126.246094 60.113281 126.390625 59.492188 C 126.453125 59.230469 126.511719 58.960938 126.441406 58.847656 C 126.398438 58.78125 126.289062 58.742188 126.199219 58.722656 C 126.082031 58.78125 125.988281 58.828125 125.894531 58.871094 C 125.753906 58.9375 125.644531 58.988281 125.503906 59.085938 C 125.328125 59.203125 125.117188 59.457031 124.894531 59.726562 C 124.496094 60.210938 124.042969 60.753906 123.476562 60.933594 C 123.480469 60.996094 123.511719 61.042969 123.59375 61.140625 C 123.628906 61.183594 123.664062 61.226562 123.695312 61.273438 C 123.789062 61.414062 123.800781 61.601562 123.722656 61.761719 C 123.652344 61.90625 123.546875 62.175781 123.433594 62.460938 C 123.328125 62.730469 123.207031 63.035156 123.089844 63.296875 C 123 63.503906 123.082031 63.746094 123.277344 63.851562 C 123.523438 63.980469 123.796875 64.085938 124.089844 64.164062 C 124.222656 64.199219 124.335938 64.289062 124.402344 64.40625 C 124.628906 64.820312 125.332031 66.269531 124.863281 67.597656 C 124.777344 67.832031 124.527344 67.972656 124.28125 67.917969 Z M 131.84375 76.1875 C 127.976562 76.1875 124.121094 74.558594 123.480469 74.273438 C 122.019531 73.628906 120.5 71.492188 119.484375 69.8125 C 118.925781 68.890625 117.507812 66.3125 117.621094 65.96875 C 117.664062 65.839844 117.804688 65.761719 117.933594 65.789062 C 117.9375 65.789062 117.941406 65.789062 117.941406 65.792969 L 124.371094 67.398438 C 124.75 66.292969 124.148438 65.050781 123.945312 64.671875 C 123.617188 64.582031 123.308594 64.464844 123.03125 64.316406 C 122.589844 64.082031 122.402344 63.542969 122.605469 63.085938 C 122.714844 62.832031 122.835938 62.53125 122.941406 62.265625 C 123.058594 61.96875 123.160156 61.710938 123.238281 61.546875 C 123.222656 61.519531 123.203125 61.496094 123.183594 61.472656 C 123.074219 61.339844 122.925781 61.160156 122.953125 60.867188 C 122.96875 60.667969 123.109375 60.492188 123.300781 60.4375 C 123.722656 60.3125 124.128906 59.824219 124.488281 59.390625 C 124.734375 59.09375 124.96875 58.8125 125.207031 58.648438 C 125.382812 58.527344 125.519531 58.460938 125.667969 58.394531 C 125.753906 58.355469 125.84375 58.3125 125.953125 58.253906 C 126.058594 58.195312 126.179688 58.179688 126.296875 58.199219 C 126.578125 58.261719 126.773438 58.382812 126.886719 58.566406 C 127.078125 58.863281 126.996094 59.226562 126.90625 59.609375 C 126.765625 60.214844 126.632812 60.789062 127.441406 61.234375 C 127.632812 61.339844 127.734375 61.5625 127.691406 61.769531 C 127.679688 61.835938 127.667969 61.957031 127.6875 62.175781 C 128.03125 61.914062 128.402344 61.84375 128.664062 61.996094 C 129.042969 62.21875 129.023438 62.8125 128.917969 63.160156 C 128.722656 63.796875 128.097656 64.089844 127.722656 64.210938 C 127.984375 65.121094 128.578125 67.277344 128.632812 68.332031 L 129.847656 68.59375 C 131.742188 69.007812 133.988281 70.152344 135.441406 71.441406 C 137.996094 73.425781 138.007812 73.644531 138.015625 73.777344 C 138.023438 73.851562 137.988281 73.941406 137.9375 73.996094 C 136.308594 75.648438 134.074219 76.1875 131.84375 76.1875 " fill-opacity="1" fill-rule="nonzero"/><path fill="#000000" d="M 125.144531 64.898438 C 124.835938 64.898438 124.476562 64.855469 124.097656 64.714844 C 123.960938 64.660156 123.890625 64.511719 123.945312 64.371094 C 123.996094 64.234375 124.148438 64.167969 124.285156 64.21875 C 125.167969 64.550781 125.933594 64.246094 125.941406 64.246094 C 126.078125 64.1875 126.230469 64.253906 126.285156 64.390625 C 126.339844 64.523438 126.277344 64.679688 126.140625 64.734375 C 126.117188 64.742188 125.714844 64.898438 125.144531 64.898438 " fill-opacity="1" fill-rule="nonzero"/><path fill="#000000" d="M 130.648438 58.9375 C 130.648438 58.9375 131.0625 56.425781 133.058594 57.105469 C 135.054688 57.785156 133.117188 59.847656 131.609375 60.007812 C 130.101562 60.167969 130.648438 58.9375 130.648438 58.9375 " fill-opacity="1" fill-rule="nonzero"/><path fill="#ffffff" d="M 96.628906 56.5625 C 96.628906 56.5625 95.945312 55.121094 95.832031 54.433594 C 95.546875 52.714844 94.945312 50.5625 93.6875 49.125 C 93.238281 48.609375 92.679688 48.214844 91.625 48.113281 C 90.1875 47.972656 88.214844 46.707031 87.9375 48.035156 C 87.703125 49.179688 89.59375 49.003906 90.292969 49.832031 C 90.65625 50.261719 92.238281 52.03125 91.167969 52.917969 C 90.402344 53.554688 89.484375 53.277344 89.25 53.707031 C 89.121094 53.945312 89.183594 54.230469 89.359375 54.4375 C 89.957031 55.136719 91.761719 54.457031 91.761719 54.457031 C 92.128906 54.304688 92.566406 54.753906 92.777344 55.089844 L 94.261719 57.460938 L 96.628906 56.5625 " fill-opacity="1" fill-rule="nonzero"/><path fill="#000000" d="M 91.917969 54.160156 C 92.375 54.160156 92.800781 54.628906 93 54.949219 L 94.371094 57.136719 L 96.269531 56.417969 C 96.0625 55.960938 95.660156 55.019531 95.570312 54.476562 C 95.3125 52.90625 94.738281 50.730469 93.484375 49.296875 C 93.121094 48.878906 92.636719 48.476562 91.597656 48.375 C 91.117188 48.328125 90.59375 48.167969 90.089844 48.011719 C 89.40625 47.800781 88.699219 47.582031 88.390625 47.765625 C 88.328125 47.800781 88.242188 47.875 88.199219 48.085938 C 88.113281 48.5 88.410156 48.648438 89.15625 48.914062 C 89.628906 49.082031 90.164062 49.269531 90.492188 49.664062 L 90.542969 49.71875 C 90.90625 50.148438 91.875 51.285156 91.792969 52.261719 C 91.761719 52.605469 91.609375 52.894531 91.335938 53.121094 C 90.875 53.507812 90.363281 53.597656 89.988281 53.664062 C 89.753906 53.703125 89.53125 53.746094 89.484375 53.832031 C 89.402344 53.988281 89.46875 54.160156 89.5625 54.265625 C 89.949219 54.722656 91.246094 54.371094 91.667969 54.210938 C 91.753906 54.175781 91.835938 54.160156 91.917969 54.160156 Z M 94.152344 57.785156 L 92.554688 55.230469 C 92.335938 54.886719 92.015625 54.640625 91.863281 54.703125 C 91.652344 54.78125 89.855469 55.425781 89.160156 54.609375 C 88.898438 54.304688 88.84375 53.902344 89.019531 53.582031 C 89.1875 53.269531 89.53125 53.207031 89.894531 53.144531 C 90.246094 53.082031 90.644531 53.011719 90.996094 52.71875 C 91.160156 52.582031 91.25 52.417969 91.265625 52.214844 C 91.332031 51.457031 90.433594 50.40625 90.140625 50.0625 L 90.089844 50.003906 C 89.851562 49.71875 89.410156 49.5625 88.980469 49.410156 C 88.316406 49.175781 87.492188 48.882812 87.679688 47.980469 C 87.742188 47.671875 87.890625 47.445312 88.121094 47.3125 C 88.632812 47.007812 89.417969 47.25 90.246094 47.503906 C 90.726562 47.652344 91.222656 47.808594 91.652344 47.847656 C 92.875 47.96875 93.46875 48.472656 93.886719 48.949219 C 95.222656 50.476562 95.824219 52.75 96.09375 54.390625 C 96.199219 55.035156 96.859375 56.4375 96.867188 56.453125 L 96.988281 56.710938 L 94.152344 57.785156 " fill-opacity="1" fill-rule="nonzero"/><path fill="#ffffff" d="M 133.902344 94.496094 C 133.902344 94.496094 131.554688 92.941406 130.292969 92.664062 C 129.523438 92.496094 128.5625 92.929688 128.070312 93.257812 C 127.8125 93.429688 127.839844 93.808594 128.113281 93.945312 C 128.566406 94.167969 129.242188 94.296875 129.570312 94.496094 C 130.371094 94.976562 131.789062 98.421875 135.796875 95.882812 L 135.269531 93.976562 L 133.902344 94.496094 " fill-opacity="1" fill-rule="nonzero"/><path fill="#000000" d="M 129.929688 92.894531 C 129.359375 92.894531 128.671875 93.171875 128.214844 93.476562 C 128.15625 93.515625 128.15625 93.574219 128.15625 93.597656 C 128.15625 93.621094 128.167969 93.679688 128.230469 93.707031 C 128.429688 93.804688 128.6875 93.886719 128.933594 93.96875 C 129.230469 94.0625 129.507812 94.148438 129.707031 94.269531 C 129.90625 94.386719 130.097656 94.613281 130.34375 94.898438 C 131.242188 95.941406 132.589844 97.511719 135.488281 95.761719 L 135.09375 94.328125 L 133.996094 94.742188 C 133.917969 94.773438 133.828125 94.765625 133.757812 94.71875 C 133.734375 94.703125 131.433594 93.183594 130.234375 92.925781 C 130.140625 92.902344 130.035156 92.894531 129.929688 92.894531 Z M 133.121094 97.074219 C 131.515625 97.074219 130.550781 95.949219 129.941406 95.242188 C 129.746094 95.011719 129.558594 94.796875 129.4375 94.722656 C 129.289062 94.632812 129.039062 94.554688 128.773438 94.46875 C 128.507812 94.386719 128.230469 94.296875 127.996094 94.183594 C 127.78125 94.078125 127.644531 93.871094 127.628906 93.632812 C 127.613281 93.394531 127.722656 93.171875 127.921875 93.039062 C 128.527344 92.636719 129.523438 92.230469 130.347656 92.40625 C 131.496094 92.660156 133.441406 93.882812 133.933594 94.203125 L 135.175781 93.730469 C 135.246094 93.703125 135.324219 93.707031 135.390625 93.742188 C 135.457031 93.773438 135.503906 93.835938 135.523438 93.90625 L 136.050781 95.8125 C 136.082031 95.925781 136.035156 96.042969 135.9375 96.105469 C 134.828125 96.808594 133.898438 97.074219 133.121094 97.074219 " fill-opacity="1" fill-rule="nonzero"/><path fill="#ffffff" d="M 93.171875 56.605469 L 96.457031 55.242188 C 96.457031 55.242188 104.226562 60.589844 107.488281 62.046875 C 110.914062 63.582031 119.125 65.839844 121.472656 66.472656 C 121.839844 66.570312 122.089844 66.894531 122.105469 67.269531 C 122.152344 68.605469 122.605469 71.699219 125.714844 72.632812 C 129.867188 73.882812 132.433594 71.675781 133.414062 70.558594 C 133.703125 70.234375 134.1875 70.175781 134.546875 70.421875 C 137.144531 72.214844 146.429688 79.035156 147.257812 85.4375 C 148.140625 93.25 135.371094 96.996094 135.371094 96.996094 L 134.4375 93.675781 C 134.4375 93.675781 138.539062 91.175781 138.058594 87.054688 C 137.257812 84.007812 135.953125 83.203125 135.015625 82.898438 C 134.519531 82.734375 134.058594 83.015625 133.988281 83.535156 C 133.589844 86.410156 133.722656 88.496094 133.882812 89.671875 C 133.96875 90.320312 133.535156 90.921875 132.894531 91.054688 C 124.347656 92.800781 116.523438 89.953125 113.246094 88.339844 C 112.078125 87.765625 111.425781 86.503906 111.625 85.21875 C 112.15625 81.835938 113.242188 77.832031 113.847656 75.734375 C 114.0625 75.003906 113.566406 74.253906 112.808594 74.164062 C 111.15625 73.972656 109.425781 73.578125 107.675781 72.898438 C 96.546875 68.585938 93.171875 56.605469 93.171875 56.605469 " fill-opacity="1" fill-rule="nonzero"/><path fill="#000000" d="M 134.746094 93.789062 L 135.550781 96.660156 C 137.332031 96.078125 147.773438 92.367188 146.992188 85.46875 C 146.183594 79.21875 137.144531 72.539062 134.394531 70.640625 C 134.148438 70.46875 133.8125 70.507812 133.613281 70.734375 C 132.664062 71.816406 129.980469 74.191406 125.640625 72.886719 C 122.355469 71.898438 121.890625 68.636719 121.839844 67.277344 C 121.832031 67.015625 121.65625 66.792969 121.40625 66.726562 C 118.984375 66.074219 110.8125 63.824219 107.382812 62.289062 C 104.316406 60.917969 97.449219 56.246094 96.421875 55.542969 L 93.496094 56.757812 C 94.027344 58.410156 97.730469 68.761719 107.773438 72.652344 C 109.378906 73.277344 111.085938 73.695312 112.839844 73.902344 C 113.277344 73.953125 113.667969 74.195312 113.910156 74.558594 C 114.15625 74.929688 114.226562 75.382812 114.105469 75.808594 C 113.503906 77.890625 112.414062 81.890625 111.886719 85.261719 C 111.703125 86.4375 112.292969 87.582031 113.359375 88.105469 C 115.609375 89.210938 123.664062 92.671875 132.839844 90.796875 C 133.34375 90.691406 133.6875 90.214844 133.621094 89.707031 C 133.449219 88.457031 133.328125 86.363281 133.726562 83.5 C 133.769531 83.171875 133.941406 82.898438 134.199219 82.738281 C 134.460938 82.574219 134.78125 82.542969 135.097656 82.644531 C 136.625 83.148438 137.679688 84.566406 138.316406 86.988281 L 138.324219 87.023438 C 138.761719 90.824219 135.542969 93.253906 134.746094 93.789062 Z M 135.1875 97.324219 L 134.128906 93.554688 L 134.300781 93.449219 C 134.339844 93.425781 138.238281 90.996094 137.800781 87.101562 C 137.015625 84.144531 135.789062 83.429688 134.933594 83.148438 C 134.765625 83.09375 134.605469 83.105469 134.480469 83.183594 C 134.355469 83.261719 134.273438 83.398438 134.25 83.570312 C 133.863281 86.375 133.976562 88.417969 134.144531 89.636719 C 134.25 90.417969 133.722656 91.152344 132.945312 91.3125 C 123.601562 93.21875 115.414062 89.703125 113.125 88.578125 C 111.851562 87.953125 111.144531 86.585938 111.363281 85.179688 C 111.894531 81.78125 112.988281 77.757812 113.59375 75.660156 C 113.675781 75.386719 113.628906 75.089844 113.46875 74.851562 C 113.3125 74.617188 113.058594 74.460938 112.777344 74.425781 C 110.976562 74.214844 109.230469 73.785156 107.578125 73.144531 C 101.761719 70.890625 98.085938 66.535156 96.027344 63.277344 C 93.796875 59.75 92.925781 56.707031 92.917969 56.675781 L 92.855469 56.453125 L 96.488281 54.945312 L 96.605469 55.027344 C 96.683594 55.078125 104.394531 60.375 107.597656 61.808594 C 110.996094 63.328125 119.132812 65.566406 121.542969 66.21875 C 122.019531 66.347656 122.351562 66.765625 122.371094 67.257812 C 122.414062 68.503906 122.835938 71.492188 125.792969 72.378906 C 129.835938 73.597656 132.332031 71.390625 133.214844 70.386719 C 133.59375 69.960938 134.226562 69.882812 134.695312 70.207031 C 137.492188 72.136719 146.679688 78.933594 147.519531 85.40625 C 147.890625 88.710938 145.910156 91.808594 141.785156 94.371094 C 138.707031 96.28125 135.476562 97.238281 135.445312 97.25 L 135.1875 97.324219 " fill-opacity="1" fill-rule="nonzero"/><path fill="#000000" d="M 123.238281 88.230469 C 123.203125 88.230469 123.171875 88.226562 123.136719 88.214844 C 116.261719 85.402344 115.257812 77.660156 115.246094 77.582031 C 115.230469 77.4375 115.332031 77.304688 115.476562 77.285156 C 115.621094 77.273438 115.753906 77.375 115.773438 77.515625 C 115.78125 77.59375 116.757812 85.03125 123.339844 87.722656 C 123.472656 87.78125 123.539062 87.933594 123.484375 88.070312 C 123.441406 88.171875 123.34375 88.230469 123.238281 88.230469 " fill-opacity="1" fill-rule="nonzero"/><path fill="#ffffff" d="M 17.351562 142.351562 L 11.753906 142.351562 L 13.769531 138.421875 L 18.21875 138.808594 L 17.351562 142.351562 " fill-opacity="1" fill-rule="nonzero"/><path fill="#000000" d="M 12.1875 142.089844 L 17.144531 142.089844 L 17.890625 139.046875 L 13.925781 138.699219 Z M 17.351562 142.617188 L 11.753906 142.617188 C 11.664062 142.617188 11.578125 142.570312 11.53125 142.492188 C 11.480469 142.414062 11.476562 142.316406 11.519531 142.234375 L 13.535156 138.300781 C 13.582031 138.203125 13.6875 138.148438 13.792969 138.15625 L 18.242188 138.546875 C 18.320312 138.554688 18.390625 138.59375 18.433594 138.65625 C 18.480469 138.71875 18.496094 138.796875 18.476562 138.871094 L 17.609375 142.414062 C 17.578125 142.535156 17.472656 142.617188 17.351562 142.617188 " fill-opacity="1" fill-rule="nonzero"/><path fill="#ffffff" d="M 13.253906 142.027344 L 15.757812 140.066406 C 16.058594 139.832031 16.148438 139.414062 15.964844 139.101562 C 15.457031 138.238281 14.070312 134.972656 12.359375 133.828125 C 11.894531 133.515625 11.257812 133.632812 10.917969 134.085938 L 3.25 144.316406 C 2.894531 144.785156 3.050781 145.460938 3.578125 145.707031 C 4.207031 146 5.214844 146.144531 6.699219 145.503906 C 9.105469 144.46875 11.859375 142.964844 12.722656 142.484375 C 12.875 142.402344 13.007812 142.292969 13.121094 142.160156 C 13.160156 142.113281 13.203125 142.066406 13.253906 142.027344 " fill-opacity="1" fill-rule="nonzero"/><path fill="#000000" d="M 11.78125 133.917969 C 11.535156 133.917969 11.289062 134.03125 11.128906 134.246094 L 3.460938 144.472656 C 3.335938 144.640625 3.292969 144.847656 3.34375 145.046875 C 3.390625 145.230469 3.515625 145.386719 3.691406 145.464844 C 4.453125 145.824219 5.460938 145.753906 6.597656 145.261719 C 9.007812 144.222656 11.796875 142.699219 12.59375 142.253906 C 12.71875 142.183594 12.828125 142.097656 12.917969 141.988281 C 12.957031 141.945312 13.015625 141.878906 13.089844 141.820312 L 15.59375 139.859375 C 15.789062 139.707031 15.851562 139.433594 15.738281 139.234375 C 15.632812 139.058594 15.496094 138.789062 15.324219 138.453125 C 14.652344 137.132812 13.523438 134.925781 12.214844 134.046875 C 12.082031 133.960938 11.929688 133.917969 11.78125 133.917969 Z M 4.773438 146.21875 C 4.214844 146.21875 3.78125 146.09375 3.464844 145.945312 C 3.148438 145.796875 2.917969 145.515625 2.832031 145.171875 C 2.742188 144.820312 2.816406 144.449219 3.035156 144.160156 L 10.703125 133.929688 C 11.132812 133.359375 11.925781 133.21875 12.507812 133.609375 C 13.933594 134.5625 15.097656 136.847656 15.796875 138.214844 C 15.957031 138.53125 16.097656 138.800781 16.195312 138.96875 C 16.445312 139.394531 16.324219 139.957031 15.921875 140.273438 L 13.414062 142.238281 C 13.386719 142.257812 13.359375 142.289062 13.324219 142.332031 C 13.1875 142.488281 13.03125 142.617188 12.851562 142.714844 C 12.046875 143.160156 9.238281 144.699219 6.804688 145.746094 C 6 146.09375 5.324219 146.21875 4.773438 146.21875 " fill-opacity="1" fill-rule="nonzero"/><path fill="#ffffff" d="M 3.117188 145.09375 C 3.113281 145.097656 3.109375 145.097656 3.105469 145.097656 C 3.03125 145.070312 2.960938 145.039062 2.894531 145.007812 C 2.367188 144.765625 2.210938 144.089844 2.5625 143.621094 L 10.230469 133.390625 C 10.574219 132.9375 11.210938 132.820312 11.675781 133.132812 C 11.765625 133.191406 11.847656 133.253906 11.933594 133.3125 C 11.9375 133.316406 11.9375 133.324219 11.9375 133.328125 L 3.117188 145.09375 " fill-opacity="1" fill-rule="nonzero"/><path fill="#000000" d="M 11.097656 133.21875 C 10.851562 133.21875 10.605469 133.335938 10.445312 133.550781 L 2.777344 143.777344 C 2.652344 143.941406 2.609375 144.152344 2.660156 144.347656 C 2.707031 144.535156 2.832031 144.691406 3.003906 144.769531 C 3.011719 144.773438 3.015625 144.773438 3.023438 144.777344 L 11.566406 133.378906 C 11.554688 133.367188 11.542969 133.359375 11.53125 133.351562 C 11.398438 133.261719 11.246094 133.21875 11.097656 133.21875 Z M 3.101562 145.359375 C 3.074219 145.359375 3.042969 145.355469 3.015625 145.34375 C 2.933594 145.316406 2.855469 145.28125 2.78125 145.25 C 2.464844 145.101562 2.230469 144.820312 2.144531 144.476562 C 2.058594 144.125 2.132812 143.753906 2.351562 143.460938 L 10.019531 133.234375 C 10.449219 132.664062 11.238281 132.523438 11.824219 132.914062 C 11.914062 132.972656 12.003906 133.039062 12.089844 133.101562 C 12.207031 133.1875 12.234375 133.367188 12.148438 133.484375 L 3.328125 145.25 C 3.277344 145.320312 3.191406 145.359375 3.101562 145.359375 " fill-opacity="1" fill-rule="nonzero"/><path fill="#000000" d="M 10.726562 142.125 C 10.589844 142.125 10.476562 142.019531 10.464844 141.882812 L 10.285156 139.878906 C 10.273438 139.734375 10.382812 139.605469 10.527344 139.59375 C 10.671875 139.582031 10.800781 139.6875 10.816406 139.832031 L 10.988281 141.835938 C 11.003906 141.980469 10.894531 142.109375 10.75 142.121094 C 10.742188 142.125 10.734375 142.125 10.726562 142.125 " fill-opacity="1" fill-rule="nonzero"/><path fill="#000000" d="M 9.289062 142.894531 C 9.152344 142.894531 9.039062 142.789062 9.023438 142.652344 L 8.851562 140.648438 C 8.835938 140.503906 8.945312 140.375 9.089844 140.363281 C 9.234375 140.351562 9.363281 140.457031 9.378906 140.601562 L 9.554688 142.605469 C 9.566406 142.75 9.457031 142.878906 9.3125 142.890625 C 9.304688 142.894531 9.296875 142.894531 9.289062 142.894531 " fill-opacity="1" fill-rule="nonzero"/><path fill="#ffffff" d="M 52.511719 138.898438 L 48.277344 138.835938 C 47.976562 138.832031 47.703125 139.015625 47.585938 139.308594 C 47.195312 140.261719 46.398438 142.492188 46.46875 144.625 C 46.488281 145.207031 46.941406 145.667969 47.496094 145.675781 L 59.921875 145.851562 C 60.496094 145.863281 60.9375 145.320312 60.832031 144.730469 C 60.703125 144.023438 60.242188 143.089844 58.894531 142.234375 C 56.707031 140.855469 53.953125 139.464844 53.085938 139.035156 C 52.90625 138.945312 52.710938 138.898438 52.511719 138.898438 " fill-opacity="1" fill-rule="nonzero"/><path fill="#000000" d="M 48.265625 139.097656 C 48.078125 139.097656 47.90625 139.21875 47.828125 139.40625 C 47.476562 140.273438 46.664062 142.511719 46.734375 144.613281 C 46.75 145.054688 47.085938 145.40625 47.5 145.410156 L 59.925781 145.589844 C 60.113281 145.589844 60.289062 145.507812 60.414062 145.363281 C 60.550781 145.203125 60.609375 144.988281 60.570312 144.773438 C 60.414062 143.914062 59.785156 143.113281 58.75 142.457031 C 56.5625 141.078125 53.769531 139.671875 52.96875 139.273438 C 52.824219 139.199219 52.667969 139.164062 52.507812 139.160156 L 48.273438 139.097656 C 48.269531 139.097656 48.269531 139.097656 48.265625 139.097656 Z M 59.9375 146.117188 C 59.929688 146.117188 59.925781 146.117188 59.917969 146.117188 L 47.492188 145.941406 C 46.796875 145.929688 46.230469 145.355469 46.207031 144.632812 C 46.128906 142.425781 46.972656 140.105469 47.339844 139.207031 C 47.5 138.816406 47.871094 138.574219 48.28125 138.570312 L 52.515625 138.632812 C 52.753906 138.636719 52.988281 138.691406 53.203125 138.800781 C 54.011719 139.199219 56.824219 140.617188 59.035156 142.011719 C 60.503906 142.941406 60.964844 143.976562 61.089844 144.683594 C 61.15625 145.050781 61.058594 145.421875 60.816406 145.703125 C 60.59375 145.96875 60.273438 146.117188 59.9375 146.117188 " fill-opacity="1" fill-rule="nonzero"/><path fill="#ffffff" d="M 60.769531 144.492188 C 60.773438 144.492188 60.777344 144.496094 60.777344 144.5 C 60.800781 144.578125 60.816406 144.65625 60.832031 144.730469 C 60.9375 145.320312 60.496094 145.863281 59.921875 145.851562 L 47.496094 145.675781 C 46.941406 145.667969 46.488281 145.207031 46.46875 144.625 C 46.464844 144.515625 46.464844 144.40625 46.464844 144.296875 C 46.464844 144.292969 46.472656 144.285156 46.476562 144.285156 L 60.769531 144.492188 " fill-opacity="1" fill-rule="nonzero"/><path fill="#000000" d="M 46.734375 144.554688 C 46.734375 144.574219 46.734375 144.59375 46.734375 144.613281 C 46.75 145.054688 47.085938 145.40625 47.5 145.410156 L 59.925781 145.589844 C 60.113281 145.589844 60.289062 145.507812 60.414062 145.363281 C 60.550781 145.203125 60.609375 144.988281 60.570312 144.773438 C 60.570312 144.769531 60.566406 144.761719 60.566406 144.753906 Z M 59.9375 146.117188 C 59.929688 146.117188 59.925781 146.117188 59.917969 146.117188 L 47.492188 145.941406 C 46.796875 145.929688 46.230469 145.355469 46.207031 144.632812 C 46.203125 144.519531 46.203125 144.40625 46.203125 144.296875 C 46.203125 144.222656 46.234375 144.148438 46.285156 144.097656 C 46.339844 144.050781 46.414062 144.015625 46.484375 144.023438 L 60.773438 144.226562 C 60.890625 144.230469 61.003906 144.316406 61.035156 144.429688 C 61.058594 144.515625 61.078125 144.601562 61.089844 144.683594 C 61.15625 145.050781 61.058594 145.421875 60.816406 145.703125 C 60.59375 145.96875 60.273438 146.117188 59.9375 146.117188 " fill-opacity="1" fill-rule="nonzero"/><path fill="#000000" d="M 52.410156 141.726562 C 52.339844 141.726562 52.269531 141.695312 52.21875 141.640625 C 52.117188 141.535156 52.121094 141.367188 52.230469 141.269531 L 53.472656 140.105469 C 53.578125 140.003906 53.746094 140.011719 53.84375 140.117188 C 53.945312 140.222656 53.941406 140.390625 53.832031 140.488281 L 52.589844 141.652344 C 52.539062 141.703125 52.476562 141.726562 52.410156 141.726562 " fill-opacity="1" fill-rule="nonzero"/><path fill="#000000" d="M 53.835938 142.460938 C 53.765625 142.460938 53.695312 142.433594 53.644531 142.378906 C 53.542969 142.273438 53.546875 142.105469 53.648438 142.007812 L 54.894531 140.796875 C 55 140.695312 55.167969 140.699219 55.269531 140.804688 C 55.371094 140.90625 55.371094 141.074219 55.265625 141.175781 L 54.019531 142.382812 C 53.96875 142.433594 53.902344 142.460938 53.835938 142.460938 " fill-opacity="1" fill-rule="nonzero"/><path fill="#5479f7" d="M 32.035156 117.828125 C 32.15625 117.738281 41.105469 111.269531 44 112.082031 C 48.945312 113.46875 47.980469 128.144531 47.878906 132.023438 C 47.78125 135.800781 31.59375 124.128906 31.039062 123.132812 C 30.492188 122.148438 32.003906 117.921875 32.035156 117.828125 " fill-opacity="1" fill-rule="nonzero"/><path fill="#5479f7" d="M 47.714844 131.046875 C 47.730469 131.058594 47.75 131.074219 47.765625 131.089844 C 50.867188 133.851562 52.195312 136.0625 51.972656 139.597656 C 51.757812 143.054688 46.777344 146.722656 30.820312 144.921875 C 30.050781 144.875 29.28125 144.824219 28.507812 144.773438 L 15.53125 144.570312 L 15.53125 135.289062 C 15.53125 135.289062 21.800781 134.753906 30.019531 135.144531 C 30.351562 135.160156 30.410156 134.679688 30.085938 134.621094 C 26.015625 133.851562 20.777344 132.65625 19.144531 131.289062 C 15.710938 128.414062 16.074219 124.046875 16.820312 120.9375 C 18.988281 111.859375 32.535156 121.335938 32.628906 121.359375 C 32.65625 121.375 34.464844 122.421875 36.847656 123.859375 L 47.714844 131.046875 " fill-opacity="1" fill-rule="nonzero"/><path fill="#caddff" d="M 40.289062 137.101562 C 40.242188 137.101562 40.195312 137.089844 40.152344 137.0625 C 40.125 137.046875 37.144531 135.308594 30.046875 135.144531 C 29.902344 135.140625 29.785156 135.019531 29.789062 134.871094 C 29.792969 134.730469 29.910156 134.617188 30.054688 134.617188 C 30.054688 134.617188 30.058594 134.617188 30.058594 134.617188 C 37.320312 134.785156 40.304688 136.535156 40.425781 136.609375 C 40.550781 136.6875 40.589844 136.847656 40.515625 136.972656 C 40.464844 137.054688 40.378906 137.101562 40.289062 137.101562 " fill-opacity="1" fill-rule="nonzero"/><path fill="#caddff" d="M 46.828125 130.589844 C 46.773438 130.589844 46.714844 130.574219 46.667969 130.539062 C 44.398438 128.804688 40.972656 126.300781 37.445312 124.527344 C 37.316406 124.460938 37.261719 124.304688 37.328125 124.171875 C 37.394531 124.042969 37.554688 123.992188 37.683594 124.054688 C 41.253906 125.847656 44.703125 128.375 46.988281 130.117188 C 47.105469 130.207031 47.128906 130.371094 47.039062 130.488281 C 46.988281 130.554688 46.90625 130.589844 46.828125 130.589844 " fill-opacity="1" fill-rule="nonzero"/><path fill="#ffffff" d="M 30.535156 86.941406 C 32.113281 85.410156 39.097656 80.222656 51.765625 82.234375 C 51.960938 82.265625 52.15625 82.234375 52.332031 82.144531 C 53.203125 81.6875 56.066406 80.308594 57.738281 80.960938 C 59.675781 81.71875 63.828125 84.109375 57.632812 84.199219 C 57.488281 84.199219 57.433594 84.394531 57.5625 84.46875 C 58.054688 84.757812 58.726562 85.210938 58.609375 85.464844 C 58.332031 86.0625 55.113281 85.582031 53.21875 85.257812 C 51.320312 84.9375 50.585938 84.617188 45.8125 86.140625 C 42.871094 87.078125 38.914062 90.472656 37.328125 91.816406 C 37.328125 91.816406 30.363281 87.105469 30.535156 86.941406 " fill-opacity="1" fill-rule="nonzero"/><path fill="#000000" d="M 30.898438 86.957031 C 31.660156 87.609375 35.054688 89.960938 37.308594 91.488281 C 38.988281 90.0625 42.828125 86.8125 45.730469 85.886719 C 50.21875 84.457031 51.214844 84.636719 52.863281 84.929688 C 52.992188 84.953125 53.125 84.972656 53.261719 85 C 57.289062 85.683594 58.152344 85.480469 58.335938 85.375 C 58.273438 85.292969 58.070312 85.074219 57.425781 84.695312 C 57.265625 84.601562 57.191406 84.417969 57.238281 84.238281 C 57.285156 84.058594 57.445312 83.9375 57.628906 83.933594 C 60.386719 83.894531 60.617188 83.398438 60.636719 83.296875 C 60.71875 82.847656 59.289062 81.855469 57.640625 81.207031 C 56.070312 80.59375 53.273438 81.949219 52.453125 82.378906 C 52.230469 82.496094 51.976562 82.535156 51.726562 82.496094 C 38.949219 80.464844 32.230469 85.761719 30.898438 86.957031 Z M 37.34375 92.148438 L 37.179688 92.035156 C 30.304688 87.382812 30.28125 87.125 30.265625 86.972656 L 30.257812 86.847656 L 30.347656 86.75 C 31.09375 86.03125 38.007812 79.78125 51.808594 81.972656 C 51.949219 81.996094 52.085938 81.972656 52.207031 81.910156 C 53.320312 81.324219 56.101562 80.039062 57.835938 80.714844 C 57.980469 80.773438 61.390625 82.121094 61.15625 83.390625 C 61.039062 84.046875 60.042969 84.386719 58.039062 84.453125 C 58.75 84.917969 58.996094 85.261719 58.851562 85.578125 C 58.648438 86.015625 57.820312 86.308594 53.171875 85.519531 C 53.03125 85.496094 52.898438 85.472656 52.769531 85.449219 C 51.148438 85.160156 50.253906 85 45.890625 86.390625 C 43.070312 87.289062 39.246094 90.539062 37.613281 91.921875 L 37.34375 92.148438 " fill-opacity="1" fill-rule="nonzero"/><path fill="#ffffff" d="M 48.953125 89.121094 C 48.953125 89.121094 54.628906 92.152344 57.226562 91.894531 C 60.878906 91.527344 64.914062 80.421875 65.195312 79.660156 C 65.480469 78.898438 66.265625 74.667969 67.394531 73.433594 C 68.25 72.5 69.050781 70.617188 69.390625 69.765625 C 69.523438 69.421875 69.902344 69.21875 70.25 69.332031 C 70.558594 69.433594 70.789062 69.722656 70.480469 70.488281 C 70.121094 71.371094 69.691406 72.453125 69.394531 73.210938 C 69.300781 73.449219 69.5625 73.664062 69.765625 73.519531 C 70.238281 73.175781 70.835938 72.863281 71.226562 73.082031 C 71.957031 73.492188 72.351562 76.253906 71.167969 78.191406 C 69.984375 80.128906 68.6875 79.675781 68.292969 80.613281 C 67.898438 81.554688 64.625 93.757812 63.28125 95.871094 C 61.347656 98.90625 48.851562 99.25 46.824219 99.191406 C 44.796875 99.132812 48.953125 89.121094 48.953125 89.121094 " fill-opacity="1" fill-rule="nonzero"/><path fill="#000000" d="M 49.085938 89.488281 C 47.773438 92.703125 46.03125 97.863281 46.65625 98.828125 C 46.699219 98.894531 46.75 98.925781 46.832031 98.925781 C 49.902344 99.015625 61.3125 98.46875 63.058594 95.726562 C 63.992188 94.257812 65.933594 87.621094 67.09375 83.65625 C 67.59375 81.933594 67.925781 80.796875 68.046875 80.511719 C 68.253906 80.019531 68.664062 79.835938 69.09375 79.640625 C 69.632812 79.402344 70.304688 79.101562 70.941406 78.054688 C 71.714844 76.789062 71.777344 75.121094 71.511719 74.101562 C 71.386719 73.621094 71.214844 73.378906 71.09375 73.3125 C 70.882812 73.191406 70.457031 73.347656 69.917969 73.734375 C 69.734375 73.867188 69.492188 73.859375 69.3125 73.722656 C 69.125 73.578125 69.0625 73.335938 69.148438 73.113281 C 69.449219 72.355469 69.878906 71.265625 70.234375 70.386719 C 70.402344 69.976562 70.371094 69.785156 70.335938 69.710938 C 70.316406 69.671875 70.28125 69.621094 70.171875 69.582031 C 69.960938 69.515625 69.722656 69.640625 69.636719 69.859375 C 69.242188 70.859375 68.449219 72.667969 67.589844 73.613281 C 66.789062 74.488281 66.140625 77.066406 65.757812 78.605469 C 65.621094 79.152344 65.519531 79.546875 65.445312 79.75 L 65.433594 79.789062 C 64.394531 82.601562 60.746094 91.804688 57.25 92.15625 C 54.898438 92.394531 50.246094 90.085938 49.085938 89.488281 Z M 47.359375 99.460938 C 47.140625 99.460938 46.957031 99.457031 46.816406 99.453125 C 46.5625 99.445312 46.351562 99.328125 46.210938 99.113281 C 45.207031 97.566406 48.347656 89.890625 48.707031 89.019531 L 48.820312 88.75 L 49.078125 88.886719 C 49.132812 88.917969 54.714844 91.875 57.199219 91.628906 C 59.738281 91.375 62.953125 84.996094 64.933594 79.605469 L 64.949219 79.570312 C 65.015625 79.390625 65.113281 78.988281 65.242188 78.480469 C 65.640625 76.890625 66.308594 74.230469 67.199219 73.257812 C 68.03125 72.34375 68.835938 70.441406 69.144531 69.667969 C 69.335938 69.183594 69.855469 68.925781 70.335938 69.082031 C 70.558594 69.152344 70.722656 69.296875 70.816406 69.488281 C 70.941406 69.765625 70.914062 70.125 70.726562 70.585938 C 70.375 71.449219 69.953125 72.519531 69.652344 73.273438 C 70.375 72.765625 70.945312 72.621094 71.355469 72.851562 C 71.722656 73.058594 71.921875 73.574219 72.023438 73.96875 C 72.328125 75.128906 72.25 76.925781 71.394531 78.328125 C 70.671875 79.515625 69.886719 79.867188 69.3125 80.125 C 68.886719 80.316406 68.65625 80.425781 68.535156 80.714844 C 68.425781 80.972656 68.0625 82.222656 67.601562 83.804688 C 66.359375 88.054688 64.480469 94.476562 63.503906 96.011719 C 61.628906 98.953125 50.578125 99.460938 47.359375 99.460938 " fill-opacity="1" fill-rule="nonzero"/><path fill="#ffffff" d="M 30.46875 85.742188 L 31.527344 77.609375 L 36.175781 79.890625 L 36.464844 85.542969 C 36.457031 86.667969 35.527344 87.324219 35.527344 87.324219 C 34.378906 88.234375 32.726562 88.128906 31.503906 87.335938 L 31.21875 87.148438 C 30.742188 86.84375 30.460938 86.308594 30.46875 85.742188 " fill-opacity="1" fill-rule="nonzero"/><path fill="#000000" d="M 30.734375 85.761719 C 30.730469 86.234375 30.964844 86.671875 31.363281 86.929688 L 31.648438 87.113281 C 32.851562 87.894531 34.378906 87.898438 35.363281 87.117188 C 35.382812 87.105469 36.195312 86.511719 36.199219 85.542969 L 35.917969 80.058594 L 31.742188 78.007812 Z M 33.59375 88.238281 C 32.84375 88.238281 32.058594 88.011719 31.359375 87.554688 L 31.074219 87.371094 C 30.519531 87.011719 30.195312 86.402344 30.203125 85.738281 C 30.203125 85.726562 30.207031 85.71875 30.207031 85.707031 L 31.261719 77.574219 C 31.273438 77.488281 31.324219 77.414062 31.398438 77.375 C 31.476562 77.335938 31.566406 77.332031 31.640625 77.371094 L 36.292969 79.652344 C 36.378906 79.695312 36.433594 79.78125 36.4375 79.875 L 36.726562 85.53125 C 36.722656 86.789062 35.722656 87.507812 35.679688 87.539062 C 35.09375 88.003906 34.359375 88.238281 33.59375 88.238281 " fill-opacity="1" fill-rule="nonzero"/><path fill="#000000" d="M 37.050781 69.507812 C 35.683594 69.585938 37.550781 70.789062 32.351562 69.894531 C 30.28125 69.539062 31.558594 71.761719 31.019531 71.671875 C 29.035156 71.335938 29.101562 71.34375 28.191406 71.699219 C 27.589844 71.933594 27.3125 73.121094 27.527344 73.964844 C 27.808594 75.074219 28.773438 75.261719 29.867188 77.550781 C 30.636719 79.160156 30.605469 80.191406 31.308594 80.359375 C 32.015625 80.527344 32.414062 79.5625 33.199219 79.6875 C 34.214844 79.851562 34.214844 81.582031 35.253906 82.179688 C 35.910156 82.554688 37.339844 82.601562 39.476562 81.246094 C 39.820312 81.027344 39.964844 80.589844 39.8125 80.207031 C 39.613281 79.71875 39.363281 79.105469 39.078125 78.535156 C 37.703125 75.828125 36.625 75.304688 36.90625 74.527344 C 37.339844 73.34375 39.539062 73.742188 39.785156 72.78125 C 40.042969 71.78125 38.929688 69.402344 37.050781 69.507812 " fill-opacity="1" fill-rule="nonzero"/><path fill="#ffffff" d="M 32.847656 74.921875 L 33.320312 75.601562 C 33.542969 75.925781 33.742188 76.261719 33.917969 76.609375 C 34.246094 77.261719 34.820312 78.386719 35.191406 78.988281 C 35.734375 79.875 38.59375 78.386719 38.59375 78.386719 L 38.710938 77.789062 L 39.042969 77.609375 C 39.105469 77.574219 39.164062 77.527344 39.203125 77.464844 C 39.296875 77.308594 39.277344 77.117188 39.164062 76.988281 C 38.558594 76.28125 37.28125 74.683594 36.71875 73.183594 C 36.71875 73.183594 34.4375 72.863281 32.847656 74.921875 " fill-opacity="1" fill-rule="nonzero"/><path fill="#000000" d="M 33.179688 74.933594 L 33.539062 75.453125 C 33.765625 75.785156 33.972656 76.132812 34.152344 76.492188 C 34.46875 77.113281 35.046875 78.246094 35.417969 78.851562 C 35.679688 79.277344 37.253906 78.765625 38.359375 78.210938 L 38.449219 77.742188 C 38.464844 77.664062 38.515625 77.597656 38.582031 77.558594 L 38.914062 77.378906 C 38.941406 77.363281 38.964844 77.34375 38.976562 77.324219 C 39.007812 77.273438 39.003906 77.207031 38.964844 77.160156 C 38.300781 76.382812 37.121094 74.890625 36.53125 73.433594 C 36.035156 73.40625 34.425781 73.445312 33.179688 74.933594 Z M 35.882812 79.527344 C 35.480469 79.527344 35.144531 79.417969 34.964844 79.125 C 34.585938 78.507812 34 77.359375 33.679688 76.726562 C 33.511719 76.390625 33.316406 76.0625 33.101562 75.753906 L 32.632812 75.070312 C 32.566406 74.976562 32.570312 74.851562 32.640625 74.761719 C 34.300781 72.605469 36.65625 72.90625 36.757812 72.921875 C 36.851562 72.933594 36.933594 73 36.96875 73.089844 C 37.523438 74.574219 38.832031 76.191406 39.367188 76.816406 C 39.554688 77.035156 39.578125 77.351562 39.425781 77.601562 C 39.367188 77.699219 39.277344 77.78125 39.167969 77.839844 L 38.945312 77.960938 L 38.855469 78.4375 C 38.839844 78.515625 38.789062 78.585938 38.71875 78.625 C 38.347656 78.816406 36.902344 79.527344 35.882812 79.527344 " fill-opacity="1" fill-rule="nonzero"/><path fill="#ffffff" d="M 33.683594 77.394531 C 33.683594 77.394531 32.554688 75.753906 31.917969 76.429688 C 31.285156 77.105469 32.574219 78.878906 33.683594 77.394531 " fill-opacity="1" fill-rule="nonzero"/><path fill="#000000" d="M 20.648438 99.683594 C 20.8125 101.78125 20.667969 108.351562 19.601562 110.390625 C 18.539062 112.410156 17.386719 114.273438 17.015625 119.441406 C 16.992188 119.789062 34.496094 127.636719 36.675781 123.359375 C 36.726562 123.257812 36.738281 123.144531 36.707031 123.039062 C 36.515625 122.40625 35.871094 119.640625 37.140625 114.296875 C 37.996094 110.691406 39.613281 107.5625 42.359375 103.652344 C 42.363281 103.640625 42.371094 103.628906 42.378906 103.621094 C 42.507812 103.390625 44.058594 100.796875 48.136719 99.9375 C 48.230469 99.917969 48.3125 99.871094 48.375 99.796875 C 48.941406 99.125 51.871094 95.441406 52.746094 90.167969 C 52.777344 89.984375 52.679688 89.800781 52.511719 89.71875 C 51.410156 89.183594 47.304688 87.261719 44.300781 86.824219 C 40.800781 86.316406 42.191406 87.101562 39.691406 86.265625 C 39.34375 86.148438 38.304688 85.359375 38.066406 85.1875 C 36.601562 84.121094 33.367188 85.714844 30.285156 84.492188 C 29.925781 84.347656 29.527344 84.335938 29.15625 84.445312 C 28.242188 84.714844 26.417969 85.101562 24.632812 85.101562 C 18.648438 85.109375 20.480469 97.535156 20.648438 99.683594 " fill-opacity="1" fill-rule="nonzero"/><path fill="#ffffff" d="M 22.460938 108.867188 C 22.414062 108.867188 22.367188 108.855469 22.324219 108.828125 C 22.199219 108.753906 22.160156 108.59375 22.238281 108.46875 C 23.363281 106.617188 24.710938 104.035156 25.121094 100.429688 C 25.804688 94.382812 29.105469 89.882812 29.140625 89.835938 C 29.226562 89.71875 29.390625 89.695312 29.507812 89.78125 C 29.628906 89.871094 29.652344 90.035156 29.566406 90.152344 C 29.53125 90.195312 26.316406 94.589844 25.644531 100.492188 C 25.226562 104.195312 23.84375 106.847656 22.6875 108.742188 C 22.640625 108.824219 22.550781 108.867188 22.460938 108.867188 " fill-opacity="1" fill-rule="nonzero"/></svg>