<svg viewBox="0 0 2000 3556" xmlns="http://www.w3.org/2000/svg"><mask id="b" x="0" y="0" width="2000" height="3556"><path fill="url(#a)" d="M0 0h2000v3556H0z"/></mask><path fill="#000336" d="M0 0h2000v3556H0z"/><g style="transform-origin:center center" stroke="#4c4e72" stroke-width="3.556" mask="url(#b)"><path fill="none" d="M0 0h100v100H0z"/><path fill="#4c4e721a" d="M100 0h100v100H100z"/><path fill="none" d="M200 0h100v100H200zM300 0h100v100H300zM400 0h100v100H400zM500 0h100v100H500z"/><path fill="#4c4e7247" d="M600 0h100v100H600z"/><path fill="#4c4e7278" d="M700 0h100v100H700z"/><path fill="none" d="M800 0h100v100H800zM900 0h100v100H900z"/><path fill="#4c4e7228" d="M1000 0h100v100h-100z"/><path fill="none" d="M1100 0h100v100h-100zM1200 0h100v100h-100z"/><path fill="#4c4e72c3" d="M1300 0h100v100h-100z"/><path fill="none" d="M1400 0h100v100h-100zM1500 0h100v100h-100z"/><path fill="#4c4e720d" d="M1600 0h100v100h-100z"/><path fill="#4c4e7223" d="M1700 0h100v100h-100z"/><path fill="none" d="M1800 0h100v100h-100zM1900 0h100v100h-100z"/><path fill="#4c4e720f" d="M0 100h100v100H0z"/><path fill="#4c4e722b" d="M100 100h100v100H100z"/><path fill="none" d="M200 100h100v100H200zM300 100h100v100H300z"/><path fill="#4c4e7203" d="M400 100h100v100H400z"/><path fill="none" d="M500 100h100v100H500zM600 100h100v100H600zM700 100h100v100H700zM800 100h100v100H800z"/><path fill="#4c4e72b6" d="M900 100h100v100H900z"/><path fill="none" d="M1000 100h100v100h-100zM1100 100h100v100h-100zM1200 100h100v100h-100zM1300 100h100v100h-100zM1400 100h100v100h-100zM1500 100h100v100h-100zM1600 100h100v100h-100zM1700 100h100v100h-100zM1800 100h100v100h-100zM1900 100h100v100h-100zM0 200h100v100H0z"/><path fill="#4c4e7259" d="M100 200h100v100H100z"/><path fill="none" d="M200 200h100v100H200zM300 200h100v100H300zM400 200h100v100H400zM500 200h100v100H500z"/><path fill="#4c4e7219" d="M600 200h100v100H600z"/><path fill="#4c4e72f2" d="M700 200h100v100H700z"/><path fill="#4c4e7238" d="M800 200h100v100H800z"/><path fill="none" d="M900 200h100v100H900zM1000 200h100v100h-100zM1100 200h100v100h-100z"/><path fill="#4c4e72f4" d="M1200 200h100v100h-100z"/><path fill="none" d="M1300 200h100v100h-100zM1400 200h100v100h-100zM1500 200h100v100h-100zM1600 200h100v100h-100zM1700 200h100v100h-100z"/><path fill="#4c4e724b" d="M1800 200h100v100h-100z"/><path fill="none" d="M1900 200h100v100h-100zM0 300h100v100H0zM100 300h100v100H100zM200 300h100v100H200z"/><path fill="#4c4e721f" d="M300 300h100v100H300z"/><path fill="#4c4e72dd" d="M400 300h100v100H400z"/><path fill="none" d="M500 300h100v100H500zM600 300h100v100H600z"/><path fill="#4c4e72a5" d="M700 300h100v100H700z"/><path fill="#4c4e7255" d="M800 300h100v100H800z"/><path fill="none" d="M900 300h100v100H900z"/><path fill="#4c4e7246" d="M1000 300h100v100h-100z"/><path fill="none" d="M1100 300h100v100h-100zM1200 300h100v100h-100zM1300 300h100v100h-100z"/><path fill="#4c4e720f" d="M1400 300h100v100h-100z"/><path fill="none" d="M1500 300h100v100h-100zM1600 300h100v100h-100zM1700 300h100v100h-100zM1800 300h100v100h-100z"/><path fill="#4c4e7283" d="M1900 300h100v100h-100z"/><path fill="none" d="M0 400h100v100H0zM100 400h100v100H100z"/><path fill="#4c4e723e" d="M200 400h100v100H200z"/><path fill="none" d="M300 400h100v100H300z"/><path fill="#4c4e724b" d="M400 400h100v100H400z"/><path fill="none" d="M500 400h100v100H500zM600 400h100v100H600zM700 400h100v100H700zM800 400h100v100H800zM900 400h100v100H900zM1000 400h100v100h-100z"/><path fill="#4c4e723c" d="M1100 400h100v100h-100z"/><path fill="none" d="M1200 400h100v100h-100z"/><path fill="#4c4e7256" d="M1300 400h100v100h-100z"/><path fill="none" d="M1400 400h100v100h-100zM1500 400h100v100h-100z"/><path fill="#4c4e723a" d="M1600 400h100v100h-100z"/><path fill="none" d="M1700 400h100v100h-100z"/><path fill="#4c4e726d" d="M1800 400h100v100h-100z"/><path fill="none" d="M1900 400h100v100h-100zM0 500h100v100H0z"/><path fill="#4c4e724b" d="M100 500h100v100H100z"/><path fill="#4c4e729d" d="M200 500h100v100H200z"/><path fill="#4c4e72f4" d="M300 500h100v100H300z"/><path fill="#4c4e7249" d="M400 500h100v100H400z"/><path fill="#4c4e7206" d="M500 500h100v100H500z"/><path fill="#4c4e72f4" d="M600 500h100v100H600z"/><path fill="none" d="M700 500h100v100H700zM800 500h100v100H800zM900 500h100v100H900zM1000 500h100v100h-100zM1100 500h100v100h-100z"/><path fill="#4c4e72c2" d="M1200 500h100v100h-100z"/><path fill="none" d="M1300 500h100v100h-100z"/><path fill="#4c4e7247" d="M1400 500h100v100h-100z"/><path fill="#4c4e72c5" d="M1500 500h100v100h-100z"/><path fill="none" d="M1600 500h100v100h-100zM1700 500h100v100h-100zM1800 500h100v100h-100zM1900 500h100v100h-100z"/><path fill="#4c4e7270" d="M0 600h100v100H0z"/><path fill="none" d="M100 600h100v100H100zM200 600h100v100H200z"/><path fill="#4c4e727b" d="M300 600h100v100H300z"/><path fill="none" d="M400 600h100v100H400zM500 600h100v100H500zM600 600h100v100H600z"/><path fill="#4c4e7269" d="M700 600h100v100H700z"/><path fill="#4c4e7266" d="M800 600h100v100H800z"/><path fill="none" d="M900 600h100v100H900z"/><path fill="#4c4e72f1" d="M1000 600h100v100h-100z"/><path fill="#4c4e725a" d="M1100 600h100v100h-100z"/><path fill="#4c4e72a1" d="M1200 600h100v100h-100z"/><path fill="none" d="M1300 600h100v100h-100zM1400 600h100v100h-100zM1500 600h100v100h-100zM1600 600h100v100h-100zM1700 600h100v100h-100zM1800 600h100v100h-100zM1900 600h100v100h-100zM0 700h100v100H0zM100 700h100v100H100zM200 700h100v100H200zM300 700h100v100H300zM400 700h100v100H400zM500 700h100v100H500zM600 700h100v100H600zM700 700h100v100H700zM800 700h100v100H800zM900 700h100v100H900zM1000 700h100v100h-100zM1100 700h100v100h-100zM1200 700h100v100h-100zM1300 700h100v100h-100z"/><path fill="#4c4e7282" d="M1400 700h100v100h-100z"/><path fill="none" d="M1500 700h100v100h-100zM1600 700h100v100h-100z"/><path fill="#4c4e72a0" d="M1700 700h100v100h-100z"/><path fill="#4c4e7270" d="M1800 700h100v100h-100z"/><path fill="#4c4e72f7" d="M1900 700h100v100h-100z"/><path fill="none" d="M0 800h100v100H0zM100 800h100v100H100zM200 800h100v100H200zM300 800h100v100H300zM400 800h100v100H400zM500 800h100v100H500z"/><path fill="#4c4e72a9" d="M600 800h100v100H600z"/><path fill="#4c4e72fb" d="M700 800h100v100H700z"/><path fill="none" d="M800 800h100v100H800z"/><path fill="#4c4e72d9" d="M900 800h100v100H900z"/><path fill="none" d="M1000 800h100v100h-100zM1100 800h100v100h-100z"/><path fill="#4c4e72c5" d="M1200 800h100v100h-100z"/><path fill="none" d="M1300 800h100v100h-100zM1400 800h100v100h-100zM1500 800h100v100h-100z"/><path fill="#4c4e72ba" d="M1600 800h100v100h-100z"/><path fill="#4c4e729a" d="M1700 800h100v100h-100z"/><path fill="#4c4e7263" d="M1800 800h100v100h-100z"/><path fill="#4c4e7224" d="M1900 800h100v100h-100z"/><path fill="#4c4e7271" d="M0 900h100v100H0z"/><path fill="none" d="M100 900h100v100H100zM200 900h100v100H200zM300 900h100v100H300z"/><path fill="#4c4e7266" d="M400 900h100v100H400z"/><path fill="none" d="M500 900h100v100H500zM600 900h100v100H600z"/><path fill="#4c4e7296" d="M700 900h100v100H700z"/><path fill="none" d="M800 900h100v100H800zM900 900h100v100H900zM1000 900h100v100h-100zM1100 900h100v100h-100zM1200 900h100v100h-100zM1300 900h100v100h-100zM1400 900h100v100h-100zM1500 900h100v100h-100z"/><path fill="#4c4e7267" d="M1600 900h100v100h-100z"/><path fill="none" d="M1700 900h100v100h-100zM1800 900h100v100h-100z"/><path fill="#4c4e72d6" d="M1900 900h100v100h-100z"/><path fill="none" d="M0 1000h100v100H0zM100 1000h100v100H100zM200 1000h100v100H200zM300 1000h100v100H300zM400 1000h100v100H400zM500 1000h100v100H500zM600 1000h100v100H600zM700 1000h100v100H700zM800 1000h100v100H800zM900 1000h100v100H900z"/><path fill="#4c4e72c5" d="M1000 1000h100v100h-100z"/><path fill="none" d="M1100 1000h100v100h-100zM1200 1000h100v100h-100zM1300 1000h100v100h-100zM1400 1000h100v100h-100zM1500 1000h100v100h-100zM1600 1000h100v100h-100zM1700 1000h100v100h-100zM1800 1000h100v100h-100z"/><path fill="#4c4e7236" d="M1900 1000h100v100h-100z"/><path fill="#4c4e72a2" d="M0 1100h100v100H0z"/><path fill="#4c4e728f" d="M100 1100h100v100H100z"/><path fill="none" d="M200 1100h100v100H200zM300 1100h100v100H300zM400 1100h100v100H400zM500 1100h100v100H500z"/><path fill="#4c4e72f9" d="M600 1100h100v100H600z"/><path fill="none" d="M700 1100h100v100H700zM800 1100h100v100H800z"/><path fill="#4c4e72ab" d="M900 1100h100v100H900z"/><path fill="#4c4e72c9" d="M1000 1100h100v100h-100z"/><path fill="none" d="M1100 1100h100v100h-100zM1200 1100h100v100h-100z"/><path fill="#4c4e7244" d="M1300 1100h100v100h-100z"/><path fill="none" d="M1400 1100h100v100h-100zM1500 1100h100v100h-100z"/><path fill="#4c4e729e" d="M1600 1100h100v100h-100z"/><path fill="none" d="M1700 1100h100v100h-100z"/><path fill="#4c4e7222" d="M1800 1100h100v100h-100z"/><path fill="none" d="M1900 1100h100v100h-100z"/><path fill="#4c4e7244" d="M0 1200h100v100H0z"/><path fill="#4c4e72ee" d="M100 1200h100v100H100z"/><path fill="#4c4e72e7" d="M200 1200h100v100H200z"/><path fill="none" d="M300 1200h100v100H300z"/><path fill="#4c4e7298" d="M400 1200h100v100H400z"/><path fill="none" d="M500 1200h100v100H500zM600 1200h100v100H600z"/><path fill="#4c4e7248" d="M700 1200h100v100H700z"/><path fill="none" d="M800 1200h100v100H800zM900 1200h100v100H900z"/><path fill="#4c4e726a" d="M1000 1200h100v100h-100z"/><path fill="none" d="M1100 1200h100v100h-100z"/><path fill="#4c4e7212" d="M1200 1200h100v100h-100z"/><path fill="none" d="M1300 1200h100v100h-100z"/><path fill="#4c4e7265" d="M1400 1200h100v100h-100z"/><path fill="none" d="M1500 1200h100v100h-100z"/><path fill="#4c4e729e" d="M1600 1200h100v100h-100z"/><path fill="none" d="M1700 1200h100v100h-100zM1800 1200h100v100h-100z"/><path fill="#4c4e7213" d="M1900 1200h100v100h-100z"/><path fill="none" d="M0 1300h100v100H0z"/><path fill="#4c4e720a" d="M100 1300h100v100H100z"/><path fill="none" d="M200 1300h100v100H200z"/><path fill="#4c4e7269" d="M300 1300h100v100H300z"/><path fill="none" d="M400 1300h100v100H400z"/><path fill="#4c4e7241" d="M500 1300h100v100H500z"/><path fill="none" d="M600 1300h100v100H600z"/><path fill="#4c4e72d7" d="M700 1300h100v100H700z"/><path fill="none" d="M800 1300h100v100H800z"/><path fill="#4c4e72ac" d="M900 1300h100v100H900z"/><path fill="none" d="M1000 1300h100v100h-100zM1100 1300h100v100h-100zM1200 1300h100v100h-100zM1300 1300h100v100h-100zM1400 1300h100v100h-100z"/><path fill="#4c4e7282" d="M1500 1300h100v100h-100z"/><path fill="#4c4e72a0" d="M1600 1300h100v100h-100z"/><path fill="none" d="M1700 1300h100v100h-100zM1800 1300h100v100h-100z"/><path fill="#4c4e720d" d="M1900 1300h100v100h-100z"/><path fill="none" d="M0 1400h100v100H0zM100 1400h100v100H100zM200 1400h100v100H200zM300 1400h100v100H300zM400 1400h100v100H400zM500 1400h100v100H500zM600 1400h100v100H600zM700 1400h100v100H700z"/><path fill="#4c4e7278" d="M800 1400h100v100H800z"/><path fill="none" d="M900 1400h100v100H900zM1000 1400h100v100h-100zM1100 1400h100v100h-100zM1200 1400h100v100h-100zM1300 1400h100v100h-100zM1400 1400h100v100h-100z"/><path fill="#4c4e7241" d="M1500 1400h100v100h-100z"/><path fill="none" d="M1600 1400h100v100h-100zM1700 1400h100v100h-100zM1800 1400h100v100h-100zM1900 1400h100v100h-100zM0 1500h100v100H0zM100 1500h100v100H100zM200 1500h100v100H200zM300 1500h100v100H300z"/><path fill="#4c4e7257" d="M400 1500h100v100H400z"/><path fill="none" d="M500 1500h100v100H500zM600 1500h100v100H600zM700 1500h100v100H700zM800 1500h100v100H800z"/><path fill="#4c4e72a9" d="M900 1500h100v100H900z"/><path fill="#4c4e72c3" d="M1000 1500h100v100h-100z"/><path fill="none" d="M1100 1500h100v100h-100zM1200 1500h100v100h-100zM1300 1500h100v100h-100zM1400 1500h100v100h-100zM1500 1500h100v100h-100zM1600 1500h100v100h-100zM1700 1500h100v100h-100zM1800 1500h100v100h-100zM1900 1500h100v100h-100z"/><path fill="#4c4e728d" d="M0 1600h100v100H0z"/><path fill="none" d="M100 1600h100v100H100zM200 1600h100v100H200zM300 1600h100v100H300zM400 1600h100v100H400zM500 1600h100v100H500zM600 1600h100v100H600zM700 1600h100v100H700z"/><path fill="#4c4e7258" d="M800 1600h100v100H800z"/><path fill="none" d="M900 1600h100v100H900zM1000 1600h100v100h-100zM1100 1600h100v100h-100zM1200 1600h100v100h-100zM1300 1600h100v100h-100zM1400 1600h100v100h-100zM1500 1600h100v100h-100z"/><path fill="#4c4e7207" d="M1600 1600h100v100h-100z"/><path fill="none" d="M1700 1600h100v100h-100z"/><path fill="#4c4e7256" d="M1800 1600h100v100h-100z"/><path fill="#4c4e72da" d="M1900 1600h100v100h-100z"/><path fill="none" d="M0 1700h100v100H0zM100 1700h100v100H100zM200 1700h100v100H200zM300 1700h100v100H300zM400 1700h100v100H400z"/><path fill="#4c4e72b9" d="M500 1700h100v100H500z"/><path fill="none" d="M600 1700h100v100H600zM700 1700h100v100H700zM800 1700h100v100H800z"/><path fill="#4c4e724a" d="M900 1700h100v100H900z"/><path fill="none" d="M1000 1700h100v100h-100z"/><path fill="#4c4e7243" d="M1100 1700h100v100h-100z"/><path fill="#4c4e72cf" d="M1200 1700h100v100h-100z"/><path fill="none" d="M1300 1700h100v100h-100zM1400 1700h100v100h-100zM1500 1700h100v100h-100zM1600 1700h100v100h-100zM1700 1700h100v100h-100z"/><path fill="#4c4e7238" d="M1800 1700h100v100h-100z"/><path fill="#4c4e72c3" d="M1900 1700h100v100h-100z"/><path fill="none" d="M0 1800h100v100H0zM100 1800h100v100H100zM200 1800h100v100H200z"/><path fill="#4c4e7265" d="M300 1800h100v100H300z"/><path fill="none" d="M400 1800h100v100H400z"/><path fill="#4c4e7289" d="M500 1800h100v100H500z"/><path fill="none" d="M600 1800h100v100H600zM700 1800h100v100H700zM800 1800h100v100H800z"/><path fill="#4c4e7207" d="M900 1800h100v100H900z"/><path fill="none" d="M1000 1800h100v100h-100z"/><path fill="#4c4e720e" d="M1100 1800h100v100h-100z"/><path fill="none" d="M1200 1800h100v100h-100zM1300 1800h100v100h-100zM1400 1800h100v100h-100zM1500 1800h100v100h-100zM1600 1800h100v100h-100zM1700 1800h100v100h-100zM1800 1800h100v100h-100zM1900 1800h100v100h-100zM0 1900h100v100H0zM100 1900h100v100H100z"/><path fill="#4c4e7277" d="M200 1900h100v100H200z"/><path fill="none" d="M300 1900h100v100H300z"/><path fill="#4c4e7235" d="M400 1900h100v100H400z"/><path fill="#4c4e72a7" d="M500 1900h100v100H500z"/><path fill="none" d="M600 1900h100v100H600zM700 1900h100v100H700z"/><path fill="#4c4e72b4" d="M800 1900h100v100H800z"/><path fill="none" d="M900 1900h100v100H900zM1000 1900h100v100h-100zM1100 1900h100v100h-100zM1200 1900h100v100h-100z"/><path fill="#4c4e725f" d="M1300 1900h100v100h-100z"/><path fill="none" d="M1400 1900h100v100h-100zM1500 1900h100v100h-100zM1600 1900h100v100h-100zM1700 1900h100v100h-100z"/><path fill="#4c4e728b" d="M1800 1900h100v100h-100z"/><path fill="none" d="M1900 1900h100v100h-100z"/><path fill="#4c4e7244" d="M0 2000h100v100H0z"/><path fill="none" d="M100 2000h100v100H100z"/><path fill="#4c4e7277" d="M200 2000h100v100H200z"/><path fill="#4c4e72b7" d="M300 2000h100v100H300z"/><path fill="none" d="M400 2000h100v100H400zM500 2000h100v100H500zM600 2000h100v100H600zM700 2000h100v100H700z"/><path fill="#4c4e7229" d="M800 2000h100v100H800z"/><path fill="none" d="M900 2000h100v100H900zM1000 2000h100v100h-100zM1100 2000h100v100h-100z"/><path fill="#4c4e72a4" d="M1200 2000h100v100h-100z"/><path fill="none" d="M1300 2000h100v100h-100zM1400 2000h100v100h-100z"/><path fill="#4c4e7282" d="M1500 2000h100v100h-100z"/><path fill="#4c4e72e9" d="M1600 2000h100v100h-100z"/><path fill="none" d="M1700 2000h100v100h-100zM1800 2000h100v100h-100z"/><path fill="#4c4e72e0" d="M1900 2000h100v100h-100z"/><path fill="#4c4e7271" d="M0 2100h100v100H0z"/><path fill="none" d="M100 2100h100v100H100z"/><path fill="#4c4e72c9" d="M200 2100h100v100H200z"/><path fill="#4c4e723d" d="M300 2100h100v100H300z"/><path fill="none" d="M400 2100h100v100H400zM500 2100h100v100H500zM600 2100h100v100H600zM700 2100h100v100H700zM800 2100h100v100H800z"/><path fill="#4c4e7229" d="M900 2100h100v100H900z"/><path fill="none" d="M1000 2100h100v100h-100zM1100 2100h100v100h-100zM1200 2100h100v100h-100zM1300 2100h100v100h-100z"/><path fill="#4c4e72a4" d="M1400 2100h100v100h-100z"/><path fill="none" d="M1500 2100h100v100h-100z"/><path fill="#4c4e7282" d="M1600 2100h100v100h-100z"/><path fill="none" d="M1700 2100h100v100h-100z"/><path fill="#4c4e721b" d="M1800 2100h100v100h-100z"/><path fill="none" d="M1900 2100h100v100h-100zM0 2200h100v100H0zM100 2200h100v100H100zM200 2200h100v100H200z"/><path fill="#4c4e7273" d="M300 2200h100v100H300z"/><path fill="#4c4e7264" d="M400 2200h100v100H400z"/><path fill="#4c4e721f" d="M500 2200h100v100H500z"/><path fill="none" d="M600 2200h100v100H600zM700 2200h100v100H700z"/><path fill="#4c4e72a8" d="M800 2200h100v100H800z"/><path fill="none" d="M900 2200h100v100H900zM1000 2200h100v100h-100zM1100 2200h100v100h-100zM1200 2200h100v100h-100z"/><path fill="#4c4e7220" d="M1300 2200h100v100h-100z"/><path fill="none" d="M1400 2200h100v100h-100z"/><path fill="#4c4e7276" d="M1500 2200h100v100h-100z"/><path fill="none" d="M1600 2200h100v100h-100zM1700 2200h100v100h-100zM1800 2200h100v100h-100zM1900 2200h100v100h-100zM0 2300h100v100H0zM100 2300h100v100H100zM200 2300h100v100H200zM300 2300h100v100H300zM400 2300h100v100H400zM500 2300h100v100H500zM600 2300h100v100H600zM700 2300h100v100H700z"/><path fill="#4c4e7266" d="M800 2300h100v100H800z"/><path fill="#4c4e7249" d="M900 2300h100v100H900z"/><path fill="none" d="M1000 2300h100v100h-100zM1100 2300h100v100h-100zM1200 2300h100v100h-100z"/><path fill="#4c4e72da" d="M1300 2300h100v100h-100z"/><path fill="none" d="M1400 2300h100v100h-100zM1500 2300h100v100h-100zM1600 2300h100v100h-100zM1700 2300h100v100h-100zM1800 2300h100v100h-100zM1900 2300h100v100h-100zM0 2400h100v100H0zM100 2400h100v100H100zM200 2400h100v100H200z"/><path fill="#4c4e72ab" d="M300 2400h100v100H300z"/><path fill="none" d="M400 2400h100v100H400zM500 2400h100v100H500zM600 2400h100v100H600zM700 2400h100v100H700z"/><path fill="#4c4e7277" d="M800 2400h100v100H800z"/><path fill="none" d="M900 2400h100v100H900zM1000 2400h100v100h-100zM1100 2400h100v100h-100zM1200 2400h100v100h-100zM1300 2400h100v100h-100zM1400 2400h100v100h-100z"/><path fill="#4c4e7263" d="M1500 2400h100v100h-100z"/><path fill="none" d="M1600 2400h100v100h-100zM1700 2400h100v100h-100zM1800 2400h100v100h-100zM1900 2400h100v100h-100zM0 2500h100v100H0z"/><path fill="#4c4e725a" d="M100 2500h100v100H100z"/><path fill="none" d="M200 2500h100v100H200zM300 2500h100v100H300zM400 2500h100v100H400zM500 2500h100v100H500zM600 2500h100v100H600zM700 2500h100v100H700zM800 2500h100v100H800z"/><path fill="#4c4e7211" d="M900 2500h100v100H900z"/><path fill="none" d="M1000 2500h100v100h-100zM1100 2500h100v100h-100zM1200 2500h100v100h-100zM1300 2500h100v100h-100zM1400 2500h100v100h-100zM1500 2500h100v100h-100zM1600 2500h100v100h-100zM1700 2500h100v100h-100zM1800 2500h100v100h-100z"/><path fill="#4c4e720c" d="M1900 2500h100v100h-100z"/><path fill="none" d="M0 2600h100v100H0zM100 2600h100v100H100zM200 2600h100v100H200zM300 2600h100v100H300z"/><path fill="#4c4e729d" d="M400 2600h100v100H400z"/><path fill="#4c4e723f" d="M500 2600h100v100H500z"/><path fill="none" d="M600 2600h100v100H600zM700 2600h100v100H700zM800 2600h100v100H800zM900 2600h100v100H900zM1000 2600h100v100h-100z"/><path fill="#4c4e7239" d="M1100 2600h100v100h-100z"/><path fill="none" d="M1200 2600h100v100h-100z"/><path fill="#4c4e72c1" d="M1300 2600h100v100h-100z"/><path fill="#4c4e72b2" d="M1400 2600h100v100h-100z"/><path fill="#4c4e725e" d="M1500 2600h100v100h-100z"/><path fill="#4c4e727e" d="M1600 2600h100v100h-100z"/><path fill="#4c4e7230" d="M1700 2600h100v100h-100z"/><path fill="#4c4e72f4" d="M1800 2600h100v100h-100z"/><path fill="none" d="M1900 2600h100v100h-100zM0 2700h100v100H0zM100 2700h100v100H100zM200 2700h100v100H200z"/><path fill="#4c4e728a" d="M300 2700h100v100H300z"/><path fill="#4c4e72af" d="M400 2700h100v100H400z"/><path fill="none" d="M500 2700h100v100H500zM600 2700h100v100H600zM700 2700h100v100H700zM800 2700h100v100H800zM900 2700h100v100H900zM1000 2700h100v100h-100zM1100 2700h100v100h-100zM1200 2700h100v100h-100zM1300 2700h100v100h-100zM1400 2700h100v100h-100z"/><path fill="#4c4e7291" d="M1500 2700h100v100h-100z"/><path fill="#4c4e72d3" d="M1600 2700h100v100h-100z"/><path fill="none" d="M1700 2700h100v100h-100zM1800 2700h100v100h-100zM1900 2700h100v100h-100zM0 2800h100v100H0zM100 2800h100v100H100zM200 2800h100v100H200z"/><path fill="#4c4e72cb" d="M300 2800h100v100H300z"/><path fill="none" d="M400 2800h100v100H400zM500 2800h100v100H500z"/><path fill="#4c4e720e" d="M600 2800h100v100H600z"/><path fill="#4c4e7285" d="M700 2800h100v100H700z"/><path fill="#4c4e7276" d="M800 2800h100v100H800z"/><path fill="none" d="M900 2800h100v100H900zM1000 2800h100v100h-100zM1100 2800h100v100h-100zM1200 2800h100v100h-100zM1300 2800h100v100h-100zM1400 2800h100v100h-100z"/><path fill="#4c4e72c0" d="M1500 2800h100v100h-100z"/><path fill="#4c4e72ba" d="M1600 2800h100v100h-100z"/><path fill="none" d="M1700 2800h100v100h-100zM1800 2800h100v100h-100z"/><path fill="#4c4e7211" d="M1900 2800h100v100h-100z"/><path fill="none" d="M0 2900h100v100H0zM100 2900h100v100H100z"/><path fill="#4c4e72be" d="M200 2900h100v100H200z"/><path fill="none" d="M300 2900h100v100H300zM400 2900h100v100H400zM500 2900h100v100H500zM600 2900h100v100H600zM700 2900h100v100H700z"/><path fill="#4c4e727b" d="M800 2900h100v100H800z"/><path fill="none" d="M900 2900h100v100H900zM1000 2900h100v100h-100z"/><path fill="#4c4e726e" d="M1100 2900h100v100h-100z"/><path fill="none" d="M1200 2900h100v100h-100zM1300 2900h100v100h-100zM1400 2900h100v100h-100z"/><path fill="#4c4e72cd" d="M1500 2900h100v100h-100z"/><path fill="none" d="M1600 2900h100v100h-100zM1700 2900h100v100h-100z"/><path fill="#4c4e72a3" d="M1800 2900h100v100h-100z"/><path fill="#4c4e7230" d="M1900 2900h100v100h-100z"/><path fill="none" d="M0 3000h100v100H0zM100 3000h100v100H100zM200 3000h100v100H200zM300 3000h100v100H300zM400 3000h100v100H400zM500 3000h100v100H500zM600 3000h100v100H600zM700 3000h100v100H700zM800 3000h100v100H800zM900 3000h100v100H900zM1000 3000h100v100h-100z"/><path fill="#4c4e72da" d="M1100 3000h100v100h-100z"/><path fill="#4c4e726b" d="M1200 3000h100v100h-100z"/><path fill="none" d="M1300 3000h100v100h-100z"/><path fill="#4c4e7292" d="M1400 3000h100v100h-100z"/><path fill="none" d="M1500 3000h100v100h-100zM1600 3000h100v100h-100zM1700 3000h100v100h-100zM1800 3000h100v100h-100z"/><path fill="#4c4e72fe" d="M1900 3000h100v100h-100z"/><path fill="none" d="M0 3100h100v100H0zM100 3100h100v100H100zM200 3100h100v100H200zM300 3100h100v100H300zM400 3100h100v100H400z"/><path fill="#4c4e7249" d="M500 3100h100v100H500z"/><path fill="none" d="M600 3100h100v100H600zM700 3100h100v100H700zM800 3100h100v100H800zM900 3100h100v100H900zM1000 3100h100v100h-100zM1100 3100h100v100h-100z"/><path fill="#4c4e722f" d="M1200 3100h100v100h-100z"/><path fill="none" d="M1300 3100h100v100h-100z"/><path fill="#4c4e7201" d="M1400 3100h100v100h-100z"/><path fill="none" d="M1500 3100h100v100h-100z"/><path fill="#4c4e7221" d="M1600 3100h100v100h-100z"/><path fill="none" d="M1700 3100h100v100h-100z"/><path fill="#4c4e726c" d="M1800 3100h100v100h-100z"/><path fill="none" d="M1900 3100h100v100h-100zM0 3200h100v100H0z"/><path fill="#4c4e725d" d="M100 3200h100v100H100z"/><path fill="#4c4e72e4" d="M200 3200h100v100H200z"/><path fill="none" d="M300 3200h100v100H300zM400 3200h100v100H400zM500 3200h100v100H500zM600 3200h100v100H600zM700 3200h100v100H700zM800 3200h100v100H800z"/><path fill="#4c4e7279" d="M900 3200h100v100H900z"/><path fill="none" d="M1000 3200h100v100h-100zM1100 3200h100v100h-100z"/><path fill="#4c4e7284" d="M1200 3200h100v100h-100z"/><path fill="none" d="M1300 3200h100v100h-100zM1400 3200h100v100h-100zM1500 3200h100v100h-100z"/><path fill="#4c4e7299" d="M1600 3200h100v100h-100z"/><path fill="none" d="M1700 3200h100v100h-100z"/><path fill="#4c4e727d" d="M1800 3200h100v100h-100z"/><path fill="#4c4e72e9" d="M1900 3200h100v100h-100z"/><path fill="#4c4e720a" d="M0 3300h100v100H0z"/><path fill="none" d="M100 3300h100v100H100zM200 3300h100v100H200zM300 3300h100v100H300zM400 3300h100v100H400z"/><path fill="#4c4e72f9" d="M500 3300h100v100H500z"/><path fill="#4c4e7212" d="M600 3300h100v100H600z"/><path fill="#4c4e72c8" d="M700 3300h100v100H700z"/><path fill="#4c4e72dd" d="M800 3300h100v100H800z"/><path fill="#4c4e7264" d="M900 3300h100v100H900z"/><path fill="#4c4e72f9" d="M1000 3300h100v100h-100z"/><path fill="none" d="M1100 3300h100v100h-100zM1200 3300h100v100h-100z"/><path fill="#4c4e7228" d="M1300 3300h100v100h-100z"/><path fill="#4c4e7236" d="M1400 3300h100v100h-100z"/><path fill="none" d="M1500 3300h100v100h-100zM1600 3300h100v100h-100zM1700 3300h100v100h-100z"/><path fill="#4c4e7232" d="M1800 3300h100v100h-100z"/><path fill="none" d="M1900 3300h100v100h-100zM0 3400h100v100H0zM100 3400h100v100H100zM200 3400h100v100H200zM300 3400h100v100H300zM400 3400h100v100H400z"/><path fill="#4c4e72ee" d="M500 3400h100v100H500z"/><path fill="none" d="M600 3400h100v100H600z"/><path fill="#4c4e7238" d="M700 3400h100v100H700z"/><path fill="none" d="M800 3400h100v100H800zM900 3400h100v100H900zM1000 3400h100v100h-100zM1100 3400h100v100h-100zM1200 3400h100v100h-100z"/><path fill="#4c4e72df" d="M1300 3400h100v100h-100z"/><path fill="none" d="M1400 3400h100v100h-100zM1500 3400h100v100h-100z"/><path fill="#4c4e72d9" d="M1600 3400h100v100h-100z"/><path fill="#4c4e7217" d="M1700 3400h100v100h-100z"/><path fill="none" d="M1800 3400h100v100h-100zM1900 3400h100v100h-100zM0 3500h100v100H0zM100 3500h100v100H100zM200 3500h100v100H200zM300 3500h100v100H300zM400 3500h100v100H400zM500 3500h100v100H500zM600 3500h100v100H600z"/><path fill="#4c4e72e5" d="M700 3500h100v100H700z"/><path fill="none" d="M800 3500h100v100H800zM900 3500h100v100H900zM1000 3500h100v100h-100zM1100 3500h100v100h-100zM1200 3500h100v100h-100z"/><path fill="#4c4e72e1" d="M1300 3500h100v100h-100z"/><path fill="#4c4e72d7" d="M1400 3500h100v100h-100z"/><path fill="none" d="M1500 3500h100v100h-100zM1600 3500h100v100h-100zM1700 3500h100v100h-100zM1800 3500h100v100h-100z"/><path fill="#4c4e728f" d="M1900 3500h100v100h-100z"/></g><defs><radialGradient id="a"><stop offset="0" stop-color="#fff"/><stop offset="1" stop-color="#fff" stop-opacity="0"/></radialGradient></defs></svg>