<svg xmlns="http://www.w3.org/2000/svg" xmlns:xlink="http://www.w3.org/1999/xlink" width="200" zoomAndPan="magnify" viewBox="0 0 150 149.999998" height="200" preserveAspectRatio="xMidYMid meet" version="1.0"><path fill="#caddff" d="M 60.484375 6.941406 C 57.335938 7.921875 43.386719 12.488281 29.453125 24.605469 C 26.078125 27.542969 12.4375 39.40625 6.609375 55.359375 C -3.3125 82.507812 8.558594 123.8125 42.753906 140.410156 C 82.578125 159.746094 132.886719 135.949219 144.363281 104.101562 C 149.453125 89.976562 149.679688 66.550781 136.859375 51.105469 C 126.542969 38.671875 108.898438 32.765625 109.582031 21.007812 C 109.910156 15.34375 114.175781 13.777344 112.992188 10.210938 C 110.1875 1.753906 82.707031 -0.00390625 60.484375 6.941406 " fill-opacity="1" fill-rule="nonzero"/><path fill="#99b9ff" d="M 27.722656 47.019531 C 32.335938 46.378906 36.59375 49.597656 37.234375 54.214844 C 37.878906 58.832031 34.660156 63.09375 30.050781 63.734375 C 25.441406 64.378906 21.179688 61.160156 20.539062 56.542969 C 19.898438 51.925781 23.113281 47.664062 27.722656 47.019531 Z M 11.886719 56.09375 L 12.335938 59.339844 L 15.902344 59.640625 C 16.140625 60.371094 16.433594 61.078125 16.785156 61.746094 L 14.519531 64.507812 L 16.535156 67.09375 L 19.769531 65.570312 C 20.335938 66.078125 20.945312 66.539062 21.585938 66.945312 L 21.003906 70.476562 L 24.039062 71.710938 L 26.078125 68.773438 C 26.816406 68.929688 27.570312 69.019531 28.339844 69.050781 L 29.601562 72.398438 L 32.84375 71.949219 L 33.144531 68.378906 C 33.875 68.140625 34.578125 67.84375 35.246094 67.496094 L 38.007812 69.761719 L 40.589844 67.746094 L 39.066406 64.507812 C 39.574219 63.9375 40.03125 63.332031 40.4375 62.6875 L 43.96875 63.269531 L 45.199219 60.230469 L 42.265625 58.191406 C 42.421875 57.453125 42.511719 56.695312 42.542969 55.925781 L 45.890625 54.664062 L 45.4375 51.417969 L 41.875 51.117188 C 41.632812 50.386719 41.339844 49.679688 40.988281 49.011719 L 43.253906 46.25 L 41.242188 43.664062 L 38.003906 45.1875 C 37.4375 44.679688 36.832031 44.222656 36.1875 43.8125 L 36.769531 40.28125 L 33.734375 39.046875 L 31.695312 41.984375 C 30.960938 41.828125 30.203125 41.738281 29.433594 41.707031 L 28.171875 38.359375 L 24.929688 38.808594 L 24.632812 42.378906 C 23.898438 42.617188 23.195312 42.914062 22.527344 43.261719 L 19.765625 40.996094 L 17.183594 43.011719 L 18.707031 46.25 C 18.203125 46.816406 17.742188 47.425781 17.335938 48.070312 L 13.804688 47.488281 L 12.574219 50.527344 L 15.507812 52.566406 C 15.355469 53.304688 15.261719 54.0625 15.230469 54.832031 L 11.886719 56.09375 " fill-opacity="1" fill-rule="nonzero"/><path fill="#000000" d="M 11.933594 96.832031 C 11.84375 96.832031 11.757812 96.789062 11.710938 96.707031 C 7.265625 89.273438 5.835938 80.671875 7.335938 70.410156 C 7.355469 70.265625 7.488281 70.167969 7.628906 70.1875 C 7.773438 70.210938 7.871094 70.34375 7.851562 70.484375 C 6.371094 80.621094 7.777344 89.109375 12.15625 96.4375 C 12.230469 96.5625 12.191406 96.722656 12.066406 96.796875 C 12.023438 96.820312 11.980469 96.832031 11.933594 96.832031 " fill-opacity="1" fill-rule="nonzero"/><path fill="#000000" d="M 9.230469 95.769531 C 9.160156 95.769531 9.085938 95.738281 9.035156 95.679688 C 7.34375 93.742188 6.003906 90.449219 5.269531 86.402344 C 4.613281 82.785156 4.511719 78.90625 5 76.023438 C 5.027344 75.882812 5.160156 75.785156 5.300781 75.808594 C 5.445312 75.835938 5.539062 75.96875 5.515625 76.113281 C 4.527344 81.941406 5.988281 91.398438 9.425781 95.332031 C 9.523438 95.441406 9.511719 95.605469 9.402344 95.703125 C 9.355469 95.746094 9.292969 95.769531 9.230469 95.769531 " fill-opacity="1" fill-rule="nonzero"/><path fill="#000000" d="M 142.761719 79.242188 C 142.746094 79.242188 142.734375 79.242188 142.71875 79.238281 C 142.578125 79.214844 142.480469 79.082031 142.503906 78.9375 L 142.710938 77.609375 C 142.734375 77.464844 142.871094 77.367188 143.011719 77.390625 C 143.152344 77.414062 143.25 77.546875 143.226562 77.691406 L 143.019531 79.019531 C 143 79.152344 142.886719 79.242188 142.761719 79.242188 " fill-opacity="1" fill-rule="nonzero"/><path fill="#000000" d="M 142.027344 83.902344 C 142.011719 83.902344 142 83.902344 141.988281 83.898438 C 141.84375 83.875 141.746094 83.742188 141.769531 83.601562 L 141.980469 82.269531 C 142 82.125 142.136719 82.027344 142.277344 82.050781 C 142.417969 82.074219 142.515625 82.207031 142.492188 82.347656 L 142.285156 83.679688 C 142.265625 83.808594 142.152344 83.902344 142.027344 83.902344 " fill-opacity="1" fill-rule="nonzero"/><path fill="#000000" d="M 140.863281 80.625 C 140.851562 80.625 140.835938 80.621094 140.820312 80.621094 L 139.515625 80.394531 C 139.371094 80.367188 139.277344 80.234375 139.300781 80.089844 C 139.324219 79.949219 139.460938 79.851562 139.601562 79.878906 L 140.910156 80.105469 C 141.050781 80.128906 141.144531 80.265625 141.121094 80.40625 C 141.101562 80.535156 140.988281 80.625 140.863281 80.625 " fill-opacity="1" fill-rule="nonzero"/><path fill="#000000" d="M 145.441406 81.414062 C 145.425781 81.414062 145.410156 81.414062 145.394531 81.410156 L 144.089844 81.1875 C 143.945312 81.160156 143.851562 81.027344 143.875 80.882812 C 143.898438 80.742188 144.035156 80.644531 144.175781 80.671875 L 145.484375 80.894531 C 145.625 80.921875 145.722656 81.054688 145.695312 81.199219 C 145.675781 81.324219 145.566406 81.414062 145.441406 81.414062 " fill-opacity="1" fill-rule="nonzero"/><path fill="#000000" d="M 8.789062 62.152344 C 8.664062 62.152344 8.539062 62.136719 8.417969 62.105469 C 8.03125 62.003906 7.703125 61.757812 7.5 61.414062 C 7.296875 61.066406 7.238281 60.660156 7.339844 60.273438 C 7.546875 59.472656 8.367188 58.988281 9.167969 59.195312 C 9.308594 59.230469 9.390625 59.371094 9.355469 59.511719 C 9.320312 59.652344 9.175781 59.738281 9.039062 59.699219 C 8.515625 59.566406 7.980469 59.878906 7.84375 60.40625 C 7.78125 60.65625 7.816406 60.921875 7.949219 61.144531 C 8.082031 61.371094 8.292969 61.53125 8.546875 61.597656 C 8.882812 61.683594 9.242188 61.585938 9.488281 61.335938 C 9.589844 61.234375 9.753906 61.234375 9.859375 61.335938 C 9.960938 61.4375 9.960938 61.601562 9.859375 61.707031 C 9.574219 61.992188 9.1875 62.152344 8.789062 62.152344 " fill-opacity="1" fill-rule="nonzero"/><path fill="#000000" d="M 103.789062 138.855469 L 39.390625 138.855469 C 36.613281 138.855469 34.648438 136.617188 35 133.859375 L 50.855469 8.917969 C 51.207031 6.160156 53.742188 3.921875 56.515625 3.921875 L 117.683594 3.210938 C 124.707031 3.210938 125.660156 6.160156 125.308594 8.917969 L 109.449219 133.859375 C 109.101562 136.617188 106.566406 138.855469 103.789062 138.855469 " fill-opacity="1" fill-rule="nonzero"/><path fill="#ffffff" d="M 99.917969 139.117188 L 35.515625 139.117188 C 32.738281 139.117188 30.773438 136.863281 31.125 134.085938 L 46.980469 8.265625 C 47.332031 5.488281 49.863281 3.234375 52.640625 3.234375 L 117.042969 3.234375 C 119.816406 3.234375 121.785156 5.488281 121.433594 8.265625 L 105.574219 134.085938 C 105.226562 136.863281 102.691406 139.117188 99.917969 139.117188 " fill-opacity="1" fill-rule="nonzero"/><path fill="#caddff" d="M 34.792969 134.257812 L 49.933594 14.121094 C 50.015625 13.480469 50.601562 12.960938 51.242188 12.960938 L 115.988281 12.960938 C 116.628906 12.960938 117.085938 13.480469 117.003906 14.121094 L 101.863281 134.257812 C 101.78125 134.898438 101.195312 135.421875 100.554688 135.421875 L 35.808594 135.421875 C 35.167969 135.421875 34.710938 134.898438 34.792969 134.257812 " fill-opacity="1" fill-rule="nonzero"/><path fill="#caddff" d="M 84.035156 9.632812 C 82.996094 9.632812 82.257812 8.789062 82.390625 7.75 C 82.519531 6.707031 83.46875 5.863281 84.511719 5.863281 C 85.550781 5.863281 86.285156 6.707031 86.15625 7.75 C 86.023438 8.789062 85.074219 9.632812 84.035156 9.632812 " fill-opacity="1" fill-rule="nonzero"/><path fill="#000000" d="M 41.039062 83.324219 C 41.027344 83.324219 41.015625 83.324219 41.003906 83.324219 C 40.863281 83.304688 40.761719 83.171875 40.78125 83.03125 L 49.675781 14.089844 C 49.773438 13.320312 50.476562 12.699219 51.242188 12.699219 L 115.988281 12.699219 C 116.375 12.699219 116.71875 12.847656 116.960938 13.125 C 117.203125 13.402344 117.3125 13.765625 117.261719 14.152344 L 110.371094 68.84375 C 110.351562 68.988281 110.222656 69.089844 110.078125 69.074219 C 109.933594 69.054688 109.832031 68.921875 109.851562 68.78125 L 116.742188 14.089844 C 116.773438 13.851562 116.710938 13.632812 116.570312 13.46875 C 116.429688 13.308594 116.222656 13.222656 115.988281 13.222656 L 51.242188 13.222656 C 50.730469 13.222656 50.257812 13.640625 50.195312 14.152344 L 41.296875 83.097656 C 41.28125 83.230469 41.167969 83.324219 41.039062 83.324219 " fill-opacity="1" fill-rule="nonzero"/><path fill="#000000" d="M 111.621094 86.40625 C 111.609375 86.40625 111.597656 86.40625 111.585938 86.40625 C 111.445312 86.386719 111.34375 86.253906 111.359375 86.113281 L 121.171875 8.234375 C 121.335938 6.957031 120.988281 5.765625 120.203125 4.871094 C 119.425781 3.984375 118.300781 3.496094 117.042969 3.496094 L 52.640625 3.496094 C 49.996094 3.496094 47.574219 5.652344 47.238281 8.300781 L 46.433594 14.46875 C 46.414062 14.613281 46.28125 14.714844 46.140625 14.695312 C 45.996094 14.675781 45.894531 14.542969 45.914062 14.402344 L 46.722656 8.230469 C 47.085938 5.332031 49.742188 2.972656 52.640625 2.972656 L 117.042969 2.972656 C 118.453125 2.972656 119.714844 3.523438 120.59375 4.523438 C 121.480469 5.53125 121.871094 6.871094 121.691406 8.300781 L 111.878906 86.179688 C 111.863281 86.308594 111.75 86.40625 111.621094 86.40625 " fill-opacity="1" fill-rule="nonzero"/><path fill="#000000" d="M 42.777344 40.65625 C 42.765625 40.65625 42.753906 40.65625 42.742188 40.652344 C 42.601562 40.636719 42.5 40.503906 42.519531 40.359375 L 43 36.675781 C 43.019531 36.53125 43.152344 36.433594 43.292969 36.449219 C 43.4375 36.46875 43.539062 36.601562 43.519531 36.742188 L 43.035156 40.429688 C 43.019531 40.5625 42.90625 40.65625 42.777344 40.65625 " fill-opacity="1" fill-rule="nonzero"/><path fill="#99b9ff" d="M 122.734375 111.171875 C 121.179688 111.597656 119.574219 110.679688 119.148438 109.121094 C 118.722656 107.566406 119.636719 105.957031 121.191406 105.53125 C 122.746094 105.101562 124.351562 106.019531 124.777344 107.578125 C 125.203125 109.136719 124.289062 110.742188 122.734375 111.171875 Z M 127.769531 107.34375 L 127.46875 106.25 L 126.230469 106.304688 C 126.117188 106.066406 125.984375 105.835938 125.835938 105.621094 L 126.488281 104.570312 L 125.683594 103.773438 L 124.640625 104.441406 C 124.421875 104.292969 124.191406 104.160156 123.953125 104.050781 L 123.996094 102.808594 L 122.902344 102.523438 L 122.332031 103.621094 C 122.070312 103.601562 121.804688 103.601562 121.542969 103.628906 L 120.960938 102.53125 L 119.867188 102.832031 L 119.921875 104.070312 C 119.683594 104.1875 119.453125 104.320312 119.242188 104.46875 L 118.191406 103.8125 L 117.394531 104.621094 L 118.0625 105.667969 C 117.910156 105.882812 117.78125 106.113281 117.671875 106.355469 L 116.433594 106.3125 L 116.144531 107.410156 L 117.242188 107.980469 C 117.222656 108.242188 117.226562 108.503906 117.25 108.769531 L 116.15625 109.355469 L 116.457031 110.449219 L 117.691406 110.394531 C 117.808594 110.632812 117.9375 110.863281 118.089844 111.078125 L 117.433594 112.128906 L 118.242188 112.925781 L 119.285156 112.257812 C 119.5 112.40625 119.730469 112.539062 119.96875 112.648438 L 119.925781 113.890625 L 121.023438 114.175781 L 121.59375 113.078125 C 121.851562 113.097656 122.117188 113.097656 122.382812 113.070312 L 122.964844 114.167969 L 124.058594 113.867188 L 124 112.628906 C 124.242188 112.511719 124.46875 112.378906 124.683594 112.230469 L 125.734375 112.886719 L 126.53125 112.078125 L 125.863281 111.03125 C 126.011719 110.816406 126.144531 110.585938 126.253906 110.347656 L 127.492188 110.390625 L 127.777344 109.289062 L 126.679688 108.71875 C 126.703125 108.460938 126.699219 108.195312 126.675781 107.929688 L 127.769531 107.34375 " fill-opacity="1" fill-rule="nonzero"/><path fill="#99b9ff" d="M 95.0625 141.78125 L 38.101562 141.78125 C 37.121094 141.78125 36.382812 140.976562 36.460938 139.992188 L 36.527344 139.125 C 36.605469 138.140625 37.472656 137.335938 38.453125 137.335938 L 95.414062 137.335938 C 96.394531 137.335938 97.132812 138.140625 97.054688 139.125 L 96.988281 139.992188 C 96.910156 140.976562 96.042969 141.78125 95.0625 141.78125 " fill-opacity="1" fill-rule="nonzero"/><path fill="#5479f7" d="M 73.1875 141.949219 L 38.089844 141.949219 C 37.109375 141.949219 36.371094 141.144531 36.449219 140.164062 L 36.515625 139.292969 C 36.59375 138.3125 37.460938 137.507812 38.441406 137.507812 L 73.535156 137.507812 C 74.515625 137.507812 75.257812 138.3125 75.179688 139.292969 L 75.109375 140.164062 C 75.035156 141.144531 74.167969 141.949219 73.1875 141.949219 " fill-opacity="1" fill-rule="nonzero"/><path fill="#000000" d="M 38.453125 137.597656 C 37.601562 137.597656 36.855469 138.292969 36.789062 139.144531 L 36.722656 140.011719 C 36.691406 140.414062 36.816406 140.792969 37.078125 141.078125 C 37.339844 141.363281 37.703125 141.519531 38.101562 141.519531 L 95.0625 141.519531 C 95.914062 141.519531 96.660156 140.824219 96.726562 139.972656 L 96.796875 139.101562 C 96.828125 138.699219 96.699219 138.320312 96.4375 138.035156 C 96.175781 137.753906 95.8125 137.597656 95.414062 137.597656 Z M 95.0625 142.039062 L 38.101562 142.039062 C 37.558594 142.039062 37.054688 141.824219 36.695312 141.433594 C 36.332031 141.039062 36.15625 140.519531 36.199219 139.972656 L 36.269531 139.101562 C 36.355469 137.984375 37.335938 137.074219 38.453125 137.074219 L 95.414062 137.074219 C 95.960938 137.074219 96.460938 137.289062 96.820312 137.683594 C 97.183594 138.074219 97.359375 138.59375 97.316406 139.144531 L 97.246094 140.011719 C 97.160156 141.128906 96.179688 142.039062 95.0625 142.039062 " fill-opacity="1" fill-rule="nonzero"/><path fill="#99b9ff" d="M 85.347656 104.121094 C 83.472656 106.023438 81.691406 108.03125 80.042969 110.128906 C 85.433594 113.8125 88.695312 120.214844 88.121094 127.488281 C 87.957031 129.59375 87.480469 131.613281 86.742188 133.539062 L 94.667969 133.539062 C 95.242188 131.613281 95.628906 129.566406 95.792969 127.488281 C 96.554688 117.804688 92.359375 109.238281 85.347656 104.121094 " fill-opacity="1" fill-rule="nonzero"/><path fill="#5479f7" d="M 69.738281 99.136719 C 54.140625 99.136719 40.449219 111.871094 39.21875 127.507812 C 39.054688 129.582031 39.117188 131.65625 39.390625 133.574219 L 47.3125 133.574219 C 46.878906 131.65625 46.722656 129.613281 46.886719 127.507812 C 47.785156 116.113281 57.761719 106.835938 69.132812 106.835938 C 73.246094 106.835938 76.984375 108.042969 80.042969 110.132812 C 81.691406 108.035156 83.472656 106.027344 85.347656 104.125 C 81.042969 100.980469 75.675781 99.136719 69.738281 99.136719 " fill-opacity="1" fill-rule="nonzero"/><path fill="#5479f7" d="M 66.972656 123.722656 L 79.546875 116.671875 L 68.828125 126.15625 Z M 66.972656 123.722656 " fill-opacity="1" fill-rule="nonzero"/><path fill="#000000" d="M 67.363281 123.800781 L 68.867188 125.773438 L 77.546875 118.09375 Z M 68.828125 126.417969 C 68.820312 126.417969 68.8125 126.417969 68.804688 126.417969 C 68.730469 126.410156 68.664062 126.371094 68.621094 126.316406 L 66.765625 123.878906 C 66.71875 123.820312 66.703125 123.742188 66.71875 123.667969 C 66.734375 123.59375 66.78125 123.53125 66.847656 123.492188 L 79.421875 116.445312 C 79.539062 116.378906 79.683594 116.410156 79.761719 116.519531 C 79.835938 116.628906 79.820312 116.78125 79.71875 116.867188 L 69 126.351562 C 68.953125 126.394531 68.890625 126.417969 68.828125 126.417969 " fill-opacity="1" fill-rule="nonzero"/><path fill="#5479f7" d="M 70.128906 125.183594 C 69.984375 127.011719 68.386719 128.5 66.558594 128.5 C 64.734375 128.5 63.367188 127.011719 63.511719 125.183594 C 63.65625 123.351562 65.253906 121.867188 67.082031 121.867188 C 68.910156 121.867188 70.273438 123.351562 70.128906 125.183594 " fill-opacity="1" fill-rule="nonzero"/><path fill="#000000" d="M 67.082031 122.128906 C 65.390625 122.128906 63.90625 123.507812 63.773438 125.203125 C 63.707031 126.015625 63.964844 126.78125 64.492188 127.351562 C 65.015625 127.921875 65.75 128.238281 66.558594 128.238281 C 68.25 128.238281 69.734375 126.855469 69.867188 125.160156 C 69.933594 124.347656 69.675781 123.582031 69.148438 123.011719 C 68.625 122.441406 67.890625 122.128906 67.082031 122.128906 Z M 66.558594 128.757812 C 65.605469 128.757812 64.734375 128.386719 64.109375 127.707031 C 63.480469 127.027344 63.175781 126.121094 63.253906 125.160156 C 63.40625 123.199219 65.125 121.605469 67.082031 121.605469 C 68.035156 121.605469 68.90625 121.976562 69.53125 122.65625 C 70.160156 123.335938 70.464844 124.242188 70.386719 125.203125 C 70.234375 127.164062 68.515625 128.757812 66.558594 128.757812 " fill-opacity="1" fill-rule="nonzero"/><path fill="#000000" d="M 87.101562 133.398438 L 94.460938 133.398438 C 95.039062 131.304688 95.378906 129.4375 95.527344 127.53125 C 96.257812 118.269531 92.402344 109.605469 85.21875 104.351562 C 85.210938 104.34375 85.203125 104.339844 85.195312 104.335938 C 80.769531 101.105469 75.421875 99.398438 69.738281 99.398438 C 54.273438 99.398438 40.695312 112.035156 39.472656 127.570312 C 39.316406 129.546875 39.367188 131.554688 39.609375 133.398438 L 46.980469 133.398438 C 46.59375 131.53125 46.46875 129.507812 46.625 127.53125 C 47.535156 115.984375 57.628906 106.59375 69.128906 106.59375 C 73.148438 106.59375 76.953125 107.734375 80.132812 109.890625 C 80.152344 109.898438 80.171875 109.90625 80.1875 109.917969 C 85.878906 113.808594 88.941406 120.40625 88.378906 127.574219 C 88.226562 129.488281 87.832031 131.300781 87.101562 133.398438 Z M 94.65625 133.921875 L 86.734375 133.921875 C 86.648438 133.921875 86.570312 133.878906 86.519531 133.8125 C 86.472656 133.742188 86.460938 133.652344 86.488281 133.574219 C 87.28125 131.367188 87.703125 129.503906 87.855469 127.53125 C 88.40625 120.578125 85.449219 114.175781 79.949219 110.390625 C 79.929688 110.382812 79.910156 110.371094 79.894531 110.359375 C 76.789062 108.238281 73.066406 107.117188 69.128906 107.117188 C 57.894531 107.117188 48.03125 116.292969 47.144531 127.570312 C 46.984375 129.609375 47.128906 131.695312 47.5625 133.601562 C 47.578125 133.679688 47.558594 133.761719 47.511719 133.824219 C 47.460938 133.886719 47.386719 133.921875 47.304688 133.921875 L 39.382812 133.921875 C 39.253906 133.921875 39.144531 133.828125 39.125 133.699219 C 38.847656 131.757812 38.789062 129.625 38.953125 127.527344 C 40.195312 111.730469 54.007812 98.875 69.738281 98.875 C 75.523438 98.875 80.96875 100.609375 85.480469 103.894531 C 85.488281 103.898438 85.496094 103.90625 85.503906 103.910156 C 92.851562 109.273438 96.792969 118.117188 96.050781 127.570312 C 95.890625 129.570312 95.53125 131.527344 94.910156 133.730469 C 94.875 133.84375 94.773438 133.921875 94.65625 133.921875 " fill-opacity="1" fill-rule="nonzero"/><path fill="#5479f7" d="M 105.273438 34.03125 L 32.957031 34.03125 C 31.640625 34.03125 30.953125 32.613281 31.164062 31.3125 L 33.445312 18.417969 C 33.609375 17.378906 34.660156 16.367188 35.710938 16.367188 L 108.027344 16.367188 C 109.34375 16.367188 110.191406 17.800781 109.980469 19.101562 L 107.699219 31.996094 C 107.53125 33.03125 106.320312 34.03125 105.273438 34.03125 " fill-opacity="1" fill-rule="nonzero"/><path fill="#ffffff" d="M 103.144531 33.792969 L 27.96875 33.792969 C 26.652344 33.792969 25.652344 32.609375 25.863281 31.3125 L 28.140625 18.414062 C 28.308594 17.378906 29.203125 16.621094 30.25 16.621094 L 105.425781 16.621094 C 106.742188 16.621094 107.742188 17.800781 107.535156 19.101562 L 105.253906 31.996094 C 105.085938 33.03125 104.191406 33.792969 103.144531 33.792969 " fill-opacity="1" fill-rule="nonzero"/><path fill="#000000" d="M 30.25 16.882812 C 29.324219 16.882812 28.546875 17.542969 28.398438 18.457031 L 26.117188 31.355469 C 26.03125 31.894531 26.183594 32.449219 26.542969 32.867188 C 26.898438 33.289062 27.417969 33.53125 27.96875 33.53125 L 103.144531 33.53125 C 104.070312 33.53125 104.847656 32.867188 104.996094 31.953125 L 107.277344 19.054688 C 107.363281 18.515625 107.210938 17.964844 106.855469 17.542969 C 106.496094 17.121094 105.976562 16.882812 105.425781 16.882812 Z M 103.144531 34.050781 L 27.96875 34.050781 C 27.265625 34.050781 26.601562 33.746094 26.144531 33.207031 C 25.6875 32.671875 25.492188 31.964844 25.605469 31.269531 L 27.882812 18.371094 C 28.074219 17.207031 29.066406 16.359375 30.25 16.359375 L 105.425781 16.359375 C 106.128906 16.359375 106.792969 16.667969 107.25 17.203125 C 107.707031 17.742188 107.902344 18.445312 107.789062 19.140625 L 105.507812 32.042969 C 105.320312 33.203125 104.328125 34.050781 103.144531 34.050781 " fill-opacity="1" fill-rule="nonzero"/><path fill="#5479f7" d="M 35.859375 26.355469 C 34.730469 25.226562 34.730469 23.390625 35.859375 22.257812 C 36.992188 21.128906 38.824219 21.128906 39.953125 22.257812 C 41.082031 23.390625 41.082031 25.226562 39.953125 26.355469 C 38.824219 27.488281 36.992188 27.488281 35.859375 26.355469 Z M 40.632812 21.578125 C 39.128906 20.070312 36.6875 20.070312 35.183594 21.578125 C 33.675781 23.085938 33.675781 25.527344 35.183594 27.035156 C 36.6875 28.542969 39.128906 28.542969 40.632812 27.035156 C 42.136719 25.527344 42.136719 23.085938 40.632812 21.578125 " fill-opacity="1" fill-rule="nonzero"/><path fill="#5479f7" d="M 32.539062 29.671875 C 32.34375 29.476562 32.34375 29.160156 32.539062 28.964844 L 35.15625 26.347656 L 35.859375 27.050781 L 33.246094 29.671875 C 33.050781 29.867188 32.734375 29.867188 32.539062 29.671875 " fill-opacity="1" fill-rule="nonzero"/><path fill="#99b9ff" d="M 77.898438 27 L 49.664062 27 C 48.238281 27 47.082031 25.84375 47.082031 24.417969 C 47.082031 22.988281 48.238281 21.832031 49.664062 21.832031 L 77.898438 21.832031 C 79.328125 21.832031 80.480469 22.988281 80.480469 24.417969 C 80.480469 25.84375 79.328125 27 77.898438 27 " fill-opacity="1" fill-rule="nonzero"/><path fill="#99b9ff" d="M 91.675781 26.960938 L 87.398438 26.960938 C 85.972656 26.960938 84.816406 25.804688 84.816406 24.375 C 84.816406 22.949219 85.972656 21.792969 87.398438 21.792969 L 91.675781 21.792969 C 93.101562 21.792969 94.257812 22.949219 94.257812 24.375 C 94.257812 25.804688 93.101562 26.960938 91.675781 26.960938 " fill-opacity="1" fill-rule="nonzero"/><path fill="#ffffff" d="M 114.296875 98.515625 L 80.363281 98.515625 C 78.441406 98.515625 76.953125 96.828125 77.1875 94.914062 L 83.246094 45.542969 C 83.445312 43.9375 84.808594 42.734375 86.421875 42.734375 L 120.355469 42.734375 C 122.28125 42.734375 123.769531 44.421875 123.535156 46.332031 L 117.472656 95.707031 C 117.273438 97.308594 115.914062 98.515625 114.296875 98.515625 " fill-opacity="1" fill-rule="nonzero"/><path fill="#000000" d="M 86.421875 42.996094 C 84.941406 42.996094 83.6875 44.105469 83.507812 45.574219 L 77.449219 94.949219 C 77.34375 95.785156 77.601562 96.625 78.160156 97.257812 C 78.714844 97.890625 79.519531 98.253906 80.363281 98.253906 L 114.296875 98.253906 C 115.777344 98.253906 117.03125 97.144531 117.214844 95.675781 L 123.273438 46.300781 C 123.378906 45.464844 123.117188 44.625 122.5625 43.992188 C 122.003906 43.359375 121.199219 42.996094 120.355469 42.996094 Z M 114.296875 98.777344 L 80.363281 98.777344 C 79.371094 98.777344 78.425781 98.347656 77.769531 97.605469 C 77.113281 96.859375 76.808594 95.867188 76.929688 94.882812 L 82.988281 45.511719 C 83.203125 43.777344 84.679688 42.472656 86.421875 42.472656 L 120.355469 42.472656 C 121.347656 42.472656 122.292969 42.898438 122.949219 43.644531 C 123.605469 44.390625 123.914062 45.382812 123.792969 46.367188 L 117.730469 95.738281 C 117.515625 97.46875 116.039062 98.777344 114.296875 98.777344 " fill-opacity="1" fill-rule="nonzero"/><path fill="#caddff" d="M 111.089844 76.191406 C 111.171875 75.546875 110.671875 74.980469 110.023438 74.980469 L 87.667969 74.980469 C 87.125 74.980469 86.667969 75.382812 86.597656 75.917969 C 86.519531 76.5625 87.019531 77.132812 87.667969 77.132812 L 110.023438 77.132812 C 110.5625 77.132812 111.023438 76.730469 111.089844 76.191406 " fill-opacity="1" fill-rule="nonzero"/><path fill="#caddff" d="M 100.746094 81.625 C 100.828125 80.980469 100.328125 80.410156 99.679688 80.410156 L 86.976562 80.410156 C 86.433594 80.410156 85.976562 80.8125 85.90625 81.351562 C 85.824219 81.996094 86.328125 82.5625 86.976562 82.5625 L 99.679688 82.5625 C 100.21875 82.5625 100.675781 82.160156 100.746094 81.625 " fill-opacity="1" fill-rule="nonzero"/><path fill="#caddff" d="M 103.253906 87.054688 C 103.335938 86.410156 102.835938 85.84375 102.1875 85.84375 L 86.28125 85.84375 C 85.742188 85.84375 85.285156 86.246094 85.214844 86.78125 C 85.132812 87.425781 85.632812 87.996094 86.28125 87.996094 L 102.1875 87.996094 C 102.730469 87.996094 103.1875 87.59375 103.253906 87.054688 " fill-opacity="1" fill-rule="nonzero"/><path fill="#ffffff" d="M 109.949219 68.464844 L 91.035156 68.464844 C 89.476562 68.464844 88.269531 67.09375 88.46875 65.546875 L 90.152344 52.460938 C 90.320312 51.171875 91.417969 50.203125 92.71875 50.203125 L 111.628906 50.203125 C 113.191406 50.203125 114.394531 51.574219 114.195312 53.125 L 112.511719 66.207031 C 112.347656 67.5 111.25 68.464844 109.949219 68.464844 " fill-opacity="1" fill-rule="nonzero"/><path fill="#5479f7" d="M 88.585938 66 L 88.882812 63.414062 C 88.917969 63.121094 89.050781 62.84375 89.261719 62.636719 L 96.214844 55.714844 C 96.726562 55.207031 97.550781 55.207031 98.058594 55.71875 L 101.425781 59.085938 C 101.917969 59.574219 102.703125 59.597656 103.21875 59.136719 L 103.464844 58.917969 C 104 58.4375 104.816406 58.480469 105.300781 59.011719 L 112.019531 66.375 C 112.257812 66.640625 112.382812 66.996094 112.355469 67.355469 C 112.304688 68.039062 110.359375 68.570312 109.671875 68.5625 L 90.679688 68.375 C 89.414062 68.367188 88.4375 67.257812 88.585938 66 " fill-opacity="1" fill-rule="nonzero"/><path fill="#99b9ff" d="M 111.101562 55.359375 C 111.101562 56.453125 110.214844 57.339844 109.125 57.339844 C 108.03125 57.339844 107.148438 56.453125 107.148438 55.359375 C 107.148438 54.269531 108.03125 53.382812 109.125 53.382812 C 110.214844 53.382812 111.101562 54.269531 111.101562 55.359375 " fill-opacity="1" fill-rule="nonzero"/><path fill="#000000" d="M 92.582031 50.464844 C 91.492188 50.464844 90.570312 51.277344 90.429688 52.359375 L 88.707031 65.753906 C 88.628906 66.375 88.816406 66.996094 89.230469 67.464844 C 89.640625 67.933594 90.234375 68.203125 90.859375 68.203125 L 110.085938 68.203125 C 111.171875 68.203125 112.097656 67.390625 112.238281 66.308594 L 113.960938 52.914062 C 114.039062 52.296875 113.847656 51.671875 113.4375 51.203125 C 113.027344 50.734375 112.433594 50.464844 111.808594 50.464844 Z M 110.085938 68.726562 L 90.859375 68.726562 C 90.085938 68.726562 89.347656 68.394531 88.835938 67.8125 C 88.328125 67.230469 88.089844 66.457031 88.191406 65.6875 L 89.914062 52.292969 C 90.085938 50.953125 91.234375 49.941406 92.582031 49.941406 L 111.808594 49.941406 C 112.582031 49.941406 113.320312 50.277344 113.828125 50.859375 C 114.339844 51.4375 114.574219 52.214844 114.476562 52.980469 L 112.753906 66.375 C 112.582031 67.71875 111.433594 68.726562 110.085938 68.726562 " fill-opacity="1" fill-rule="nonzero"/><path fill="#ffffff" d="M 10.746094 126.316406 L 14.578125 127.613281 L 15.171875 123.828125 L 10.480469 123.84375 L 10.746094 126.316406 " fill-opacity="1" fill-rule="nonzero"/><path fill="#000000" d="M 10.988281 126.121094 L 14.367188 127.269531 L 14.867188 124.089844 L 10.769531 124.101562 Z M 14.578125 127.875 C 14.550781 127.875 14.523438 127.871094 14.496094 127.863281 L 10.664062 126.5625 C 10.566406 126.53125 10.5 126.445312 10.488281 126.34375 L 10.222656 123.871094 C 10.210938 123.796875 10.238281 123.722656 10.285156 123.667969 C 10.335938 123.613281 10.40625 123.582031 10.480469 123.582031 L 15.171875 123.566406 C 15.25 123.566406 15.320312 123.601562 15.371094 123.65625 C 15.421875 123.714844 15.441406 123.792969 15.429688 123.867188 L 14.835938 127.65625 C 14.824219 127.730469 14.777344 127.800781 14.714844 127.839844 C 14.671875 127.863281 14.625 127.875 14.578125 127.875 " fill-opacity="1" fill-rule="nonzero"/><path fill="#000000" d="M 11.992188 135.484375 L 11.871094 141.613281 L 14.167969 140.59375 L 13.929688 139.234375 C 13.921875 139.195312 13.925781 139.152344 13.9375 139.113281 L 15.0625 135.292969 Z M 11.601562 142.277344 C 11.550781 142.277344 11.5 142.265625 11.457031 142.234375 C 11.382812 142.1875 11.339844 142.101562 11.339844 142.011719 L 11.476562 135.234375 C 11.476562 135.097656 11.582031 134.988281 11.71875 134.976562 L 15.402344 134.75 C 15.492188 134.742188 15.570312 134.78125 15.625 134.847656 C 15.675781 134.914062 15.695312 135.003906 15.671875 135.085938 L 14.457031 139.203125 L 14.714844 140.707031 C 14.738281 140.824219 14.675781 140.941406 14.566406 140.992188 L 11.707031 142.257812 C 11.671875 142.273438 11.636719 142.277344 11.601562 142.277344 " fill-opacity="1" fill-rule="nonzero"/><path fill="#5479f7" d="M 8.183594 123.207031 C 8.183594 123.207031 4.417969 127.800781 3.304688 131.554688 C 3.113281 132.1875 3.648438 132.800781 4.304688 132.710938 C 4.679688 132.65625 5.167969 132.554688 5.796875 132.367188 C 8.144531 131.667969 13.007812 127.074219 13.007812 127.074219 L 12.898438 126.054688 C 12.855469 125.699219 12.519531 125.453125 12.167969 125.53125 L 11.695312 125.632812 L 12.152344 124.140625 C 12.257812 123.800781 12.058594 123.441406 11.714844 123.355469 C 11.015625 123.179688 9.765625 122.980469 8.183594 123.207031 " fill-opacity="1" fill-rule="nonzero"/><path fill="#000000" d="M 4.222656 132.394531 C 4.179688 132.394531 4.140625 132.386719 4.097656 132.371094 C 3.917969 132.300781 3.828125 132.101562 3.898438 131.921875 C 5.429688 127.894531 8.628906 123.75 8.765625 123.578125 C 8.882812 123.425781 9.101562 123.398438 9.253906 123.515625 C 9.40625 123.636719 9.433594 123.855469 9.3125 124.007812 C 9.28125 124.046875 6.042969 128.242188 4.546875 132.167969 C 4.496094 132.308594 4.363281 132.394531 4.222656 132.394531 " fill-opacity="1" fill-rule="nonzero"/><path fill="#000000" d="M 8.597656 130.738281 C 8.503906 130.738281 8.410156 130.703125 8.34375 130.625 L 7.222656 129.402344 C 7.09375 129.257812 7.105469 129.039062 7.246094 128.90625 C 7.386719 128.777344 7.609375 128.789062 7.738281 128.929688 L 8.855469 130.15625 C 8.984375 130.296875 8.976562 130.519531 8.832031 130.648438 C 8.765625 130.710938 8.683594 130.738281 8.597656 130.738281 " fill-opacity="1" fill-rule="nonzero"/><path fill="#000000" d="M 9.992188 129.417969 C 9.898438 129.417969 9.804688 129.378906 9.738281 129.304688 L 8.332031 127.761719 C 8.203125 127.621094 8.210938 127.402344 8.355469 127.269531 C 8.496094 127.140625 8.714844 127.152344 8.84375 127.292969 L 10.25 128.832031 C 10.378906 128.972656 10.371094 129.195312 10.226562 129.324219 C 10.160156 129.386719 10.078125 129.417969 9.992188 129.417969 " fill-opacity="1" fill-rule="nonzero"/><path fill="#5479f7" d="M 11.332031 138.746094 C 10.789062 139.183594 9.449219 140.296875 8.5 141.445312 C 8.039062 142 8.179688 142.832031 8.796875 143.199219 C 10.703125 144.324219 14.9375 146.574219 19.476562 147.328125 C 20.144531 147.4375 20.679688 146.78125 20.453125 146.136719 C 20.035156 144.949219 18.804688 143.035156 15.316406 140.664062 L 14.152344 139.898438 L 12.097656 140.675781 C 12.097656 140.675781 12.355469 139.445312 11.949219 138.84375 C 11.8125 138.636719 11.527344 138.59375 11.332031 138.746094 " fill-opacity="1" fill-rule="nonzero"/><path fill="#000000" d="M 19.539062 146.585938 C 19.515625 146.585938 19.488281 146.582031 19.460938 146.574219 C 14.878906 145.53125 9.167969 142.382812 8.925781 142.25 C 8.757812 142.15625 8.695312 141.945312 8.789062 141.777344 C 8.882812 141.605469 9.09375 141.546875 9.261719 141.640625 C 9.320312 141.671875 15.132812 144.875 19.617188 145.894531 C 19.804688 145.9375 19.921875 146.125 19.878906 146.3125 C 19.84375 146.476562 19.699219 146.585938 19.539062 146.585938 " fill-opacity="1" fill-rule="nonzero"/><path fill="#000000" d="M 14.109375 142.925781 C 14.011719 142.925781 13.914062 142.882812 13.84375 142.804688 C 13.71875 142.65625 13.738281 142.4375 13.882812 142.3125 L 15.507812 140.921875 C 15.652344 140.796875 15.871094 140.816406 15.996094 140.960938 C 16.121094 141.109375 16.105469 141.328125 15.957031 141.453125 L 14.335938 142.839844 C 14.269531 142.898438 14.1875 142.925781 14.109375 142.925781 " fill-opacity="1" fill-rule="nonzero"/><path fill="#000000" d="M 15.980469 143.683594 C 15.882812 143.683594 15.785156 143.640625 15.714844 143.5625 C 15.589844 143.414062 15.609375 143.195312 15.753906 143.070312 L 16.921875 142.070312 C 17.066406 141.945312 17.285156 141.960938 17.410156 142.109375 C 17.535156 142.253906 17.519531 142.476562 17.371094 142.601562 L 16.207031 143.601562 C 16.140625 143.65625 16.0625 143.683594 15.980469 143.683594 " fill-opacity="1" fill-rule="nonzero"/><path fill="#000000" d="M 31.449219 99.285156 C 31.449219 99.285156 36.460938 111.707031 34.9375 120.125 C 33.417969 128.542969 19.082031 129.515625 14.078125 128.011719 L 14.574219 123.054688 C 14.574219 123.054688 21.355469 124.601562 25.417969 119.867188 C 29.480469 115.132812 20.578125 108.550781 20.578125 108.550781 L 19.390625 99.777344 L 31.449219 99.285156 " fill-opacity="1" fill-rule="nonzero"/><path fill="#000000" d="M 17.40625 97.679688 C 17.40625 97.679688 17.003906 99.980469 17.003906 102.90625 C 17 105.753906 16.429688 108.570312 15.351562 111.203125 C 13.335938 116.132812 10.386719 125.960938 11.296875 137.074219 L 15.421875 136.820312 C 15.421875 136.820312 24.621094 111.964844 27.152344 107.222656 C 29.6875 102.480469 31.09375 98.804688 31.09375 98.804688 L 17.40625 97.679688 " fill-opacity="1" fill-rule="nonzero"/><path fill="#caddff" d="M 18.714844 128.90625 C 18.683594 128.90625 18.652344 128.902344 18.621094 128.890625 C 18.488281 128.835938 18.421875 128.6875 18.472656 128.550781 L 20.132812 124.203125 C 20.183594 124.066406 20.335938 124 20.46875 124.050781 C 20.605469 124.101562 20.671875 124.253906 20.621094 124.390625 L 18.960938 128.738281 C 18.917969 128.84375 18.820312 128.90625 18.714844 128.90625 " fill-opacity="1" fill-rule="nonzero"/><path fill="#caddff" d="M 24.871094 113.132812 C 24.839844 113.132812 24.808594 113.125 24.777344 113.113281 C 24.644531 113.0625 24.578125 112.910156 24.628906 112.777344 L 25.5625 110.324219 C 25.617188 110.191406 25.765625 110.121094 25.902344 110.175781 C 26.035156 110.226562 26.101562 110.378906 26.050781 110.511719 L 25.117188 112.964844 C 25.074219 113.066406 24.976562 113.132812 24.871094 113.132812 " fill-opacity="1" fill-rule="nonzero"/><path fill="#caddff" d="M 16.792969 103.519531 C 16.792969 103.519531 16.792969 103.519531 16.789062 103.519531 C 16.648438 103.519531 16.53125 103.402344 16.53125 103.257812 L 16.546875 101.953125 C 16.546875 101.808594 16.664062 101.695312 16.808594 101.695312 C 16.953125 101.695312 17.070312 101.8125 17.066406 101.957031 L 17.054688 103.261719 C 17.054688 103.40625 16.9375 103.519531 16.792969 103.519531 " fill-opacity="1" fill-rule="nonzero"/><path fill="#ffffff" d="M 47.378906 67.894531 C 47.378906 67.894531 48.210938 66.277344 48.136719 65.820312 C 48.042969 65.246094 47.574219 63.96875 47.996094 63.082031 C 48.546875 61.933594 49.746094 61.285156 49.949219 61.535156 C 50.15625 61.785156 48.613281 63.953125 49.457031 64.871094 C 49.457031 64.871094 49.996094 64.898438 50.847656 63.707031 C 50.9375 63.574219 51.136719 63.613281 51.195312 63.769531 C 51.277344 63.984375 51.25 64.664062 51.113281 65.171875 C 50.9375 65.820312 50.5 66.183594 50.039062 66.59375 C 49.765625 66.835938 49.507812 68.824219 49.441406 68.792969 L 47.378906 67.894531 " fill-opacity="1" fill-rule="nonzero"/><path fill="#000000" d="M 47.738281 67.765625 L 49.269531 68.433594 C 49.289062 68.347656 49.308594 68.25 49.324219 68.160156 C 49.535156 67.085938 49.660156 66.578125 49.867188 66.398438 L 49.921875 66.347656 C 50.347656 65.972656 50.714844 65.648438 50.859375 65.105469 C 50.96875 64.695312 50.992188 64.207031 50.972656 63.976562 C 50.132812 65.105469 49.554688 65.140625 49.445312 65.132812 L 49.339844 65.128906 L 49.265625 65.050781 C 48.589844 64.3125 49.128906 63.042969 49.484375 62.203125 C 49.546875 62.0625 49.617188 61.894531 49.660156 61.769531 C 49.320312 61.890625 48.613281 62.394531 48.234375 63.195312 C 47.9375 63.8125 48.152344 64.71875 48.296875 65.316406 C 48.335938 65.496094 48.375 65.648438 48.394531 65.78125 C 48.464844 66.203125 48.003906 67.21875 47.738281 67.765625 Z M 49.453125 69.082031 L 47.019531 68.023438 L 47.148438 67.773438 C 47.53125 67.03125 47.914062 66.085938 47.878906 65.863281 C 47.863281 65.75 47.828125 65.605469 47.789062 65.4375 C 47.628906 64.769531 47.386719 63.753906 47.761719 62.96875 C 48.261719 61.925781 49.21875 61.285156 49.71875 61.226562 C 49.96875 61.191406 50.097656 61.300781 50.152344 61.367188 C 50.320312 61.574219 50.203125 61.851562 49.964844 62.410156 C 49.683594 63.074219 49.265625 64.050781 49.566406 64.578125 C 49.734375 64.511719 50.113281 64.285156 50.632812 63.554688 C 50.730469 63.417969 50.890625 63.347656 51.058594 63.367188 C 51.230469 63.390625 51.378906 63.507812 51.441406 63.675781 C 51.558594 63.992188 51.496094 64.753906 51.363281 65.242188 C 51.175781 65.9375 50.714844 66.347656 50.265625 66.742188 L 50.210938 66.789062 C 50.09375 66.933594 49.914062 67.863281 49.835938 68.257812 C 49.714844 68.886719 49.703125 68.953125 49.5625 69.027344 L 49.453125 69.082031 " fill-opacity="1" fill-rule="nonzero"/><path fill="#5479f7" d="M 17.066406 88.292969 C 17.484375 82.925781 17.226562 76.71875 24.878906 73.363281 C 24.910156 73.351562 24.949219 73.296875 25.019531 73.273438 C 27.519531 72.472656 27.65625 72.773438 29.40625 72.746094 C 31.027344 72.71875 31.375 72.652344 33.769531 73.832031 C 37.113281 74.042969 40.480469 73.09375 43.25 70.996094 C 44.898438 69.746094 45.960938 68.945312 47.378906 66.574219 L 50.398438 67.761719 C 50.398438 67.761719 47.734375 83.511719 32.757812 82.046875 C 32.757812 82.046875 30.953125 93.113281 32.566406 100.527344 C 32.566406 100.527344 18.476562 105.132812 14.566406 98.246094 C 14.566406 98.246094 16.632812 93.8125 17.066406 88.292969 " fill-opacity="1" fill-rule="nonzero"/><path fill="#000000" d="M 30.648438 92.625 C 30.621094 92.625 30.59375 92.621094 30.566406 92.609375 C 27.101562 91.46875 25.441406 89.21875 25.640625 85.925781 C 25.648438 85.78125 25.773438 85.671875 25.914062 85.679688 C 26.058594 85.691406 26.167969 85.8125 26.160156 85.957031 C 25.976562 89.027344 27.472656 91.039062 30.730469 92.113281 C 30.867188 92.160156 30.941406 92.304688 30.898438 92.445312 C 30.863281 92.554688 30.757812 92.625 30.648438 92.625 " fill-opacity="1" fill-rule="nonzero"/><path fill="#ffffff" d="M 26.269531 73.21875 L 26.34375 68.648438 L 29.691406 70.257812 L 29.714844 73.144531 C 29.707031 73.785156 29.167969 74.15625 29.167969 74.15625 C 28.503906 74.671875 27.554688 74.601562 26.855469 74.136719 L 26.695312 74.03125 C 26.421875 73.847656 26.261719 73.542969 26.269531 73.21875 " fill-opacity="1" fill-rule="nonzero"/><path fill="#000000" d="M 26.269531 73.21875 L 26.273438 73.21875 Z M 26.597656 69.0625 L 26.53125 73.222656 C 26.527344 73.460938 26.640625 73.679688 26.835938 73.8125 L 27 73.917969 C 27.648438 74.351562 28.476562 74.363281 29.011719 73.949219 C 29.023438 73.941406 29.449219 73.632812 29.457031 73.140625 L 29.429688 70.421875 Z M 28.078125 74.78125 C 27.617188 74.78125 27.140625 74.636719 26.710938 74.355469 L 26.550781 74.246094 C 26.203125 74.015625 26 73.628906 26.011719 73.210938 L 26.085938 68.644531 C 26.085938 68.554688 26.132812 68.472656 26.207031 68.425781 C 26.285156 68.378906 26.378906 68.375 26.457031 68.414062 L 29.800781 70.023438 C 29.890625 70.066406 29.949219 70.15625 29.949219 70.253906 L 29.976562 73.140625 C 29.964844 73.917969 29.34375 74.355469 29.316406 74.375 C 28.964844 74.644531 28.53125 74.78125 28.078125 74.78125 " fill-opacity="1" fill-rule="nonzero"/><path fill="#000000" d="M 31.039062 63.316406 C 30.15625 63.285156 31.285156 64.164062 28 63.285156 C 26.691406 62.9375 27.378906 64.433594 27.042969 64.34375 C 25.785156 64.011719 25.828125 64.023438 25.226562 64.195312 C 24.824219 64.308594 24.578125 65.054688 24.667969 65.605469 C 24.78125 66.332031 25.390625 66.507812 25.960938 68.039062 C 26.359375 69.113281 26.28125 69.773438 26.722656 69.921875 C 27.164062 70.070312 27.476562 69.476562 27.976562 69.601562 C 28.617188 69.765625 28.515625 70.871094 29.148438 71.316406 C 29.546875 71.597656 30.464844 71.710938 31.914062 70.96875 C 32.148438 70.847656 32.265625 70.578125 32.1875 70.324219 C 32.089844 70 31.964844 69.59375 31.8125 69.210938 C 31.089844 67.398438 30.425781 67 30.652344 66.519531 C 31 65.785156 32.386719 66.171875 32.605469 65.570312 C 32.828125 64.945312 32.25 63.359375 31.039062 63.316406 " fill-opacity="1" fill-rule="nonzero"/><path fill="#ffffff" d="M 28.027344 66.53125 L 28.289062 66.996094 C 28.414062 67.214844 28.523438 67.441406 28.613281 67.675781 C 28.789062 68.113281 29.113281 68.855469 29.292969 69.273438 C 29.871094 70.617188 31.515625 69.089844 31.515625 69.089844 L 31.621094 68.714844 L 31.84375 68.617188 C 31.890625 68.597656 31.929688 68.570312 31.957031 68.53125 C 32.027344 68.4375 32.023438 68.316406 31.960938 68.226562 C 31.613281 67.738281 30.886719 66.640625 30.613281 65.648438 C 30.613281 65.648438 29.164062 65.308594 28.027344 66.53125 " fill-opacity="1" fill-rule="nonzero"/><path fill="#000000" d="M 27.765625 66.5 C 27.792969 66.449219 27.824219 66.390625 27.859375 66.339844 C 27.878906 66.3125 27.902344 66.289062 27.921875 66.265625 L 27.953125 66.230469 L 27.96875 66.214844 C 28.015625 66.171875 28.0625 66.125 28.113281 66.082031 C 28.207031 65.996094 28.3125 65.917969 28.421875 65.84375 C 28.636719 65.703125 28.875 65.585938 29.121094 65.5 C 29.367188 65.414062 29.625 65.367188 29.882812 65.347656 C 30.011719 65.339844 30.140625 65.335938 30.269531 65.34375 C 30.402344 65.351562 30.519531 65.359375 30.671875 65.394531 L 30.675781 65.394531 C 30.769531 65.417969 30.839844 65.488281 30.863281 65.578125 C 30.929688 65.851562 31.035156 66.125 31.148438 66.394531 C 31.261719 66.667969 31.394531 66.933594 31.535156 67.195312 C 31.675781 67.457031 31.832031 67.710938 32 67.960938 L 32.066406 68.050781 L 32.113281 68.121094 C 32.121094 68.136719 32.128906 68.148438 32.136719 68.164062 C 32.199219 68.277344 32.207031 68.417969 32.164062 68.539062 C 32.140625 68.601562 32.109375 68.660156 32.0625 68.714844 C 32.019531 68.761719 31.953125 68.808594 31.917969 68.832031 C 31.855469 68.875 31.792969 68.917969 31.726562 68.953125 L 31.871094 68.785156 L 31.765625 69.164062 C 31.753906 69.210938 31.726562 69.253906 31.691406 69.28125 C 31.496094 69.460938 31.304688 69.605469 31.082031 69.742188 C 30.867188 69.878906 30.632812 69.996094 30.355469 70.0625 C 30.21875 70.09375 30.066406 70.113281 29.910156 70.09375 C 29.753906 70.078125 29.589844 70.019531 29.453125 69.925781 C 29.316406 69.828125 29.210938 69.707031 29.136719 69.578125 C 29.097656 69.515625 29.070312 69.449219 29.039062 69.386719 L 28.96875 69.222656 C 28.78125 68.789062 28.589844 68.351562 28.410156 67.90625 C 28.320312 67.679688 28.238281 67.484375 28.136719 67.277344 L 28.054688 67.128906 C 28.019531 67.0625 27.980469 66.992188 27.945312 66.921875 C 27.878906 66.78125 27.820312 66.636719 27.765625 66.5 Z M 28.285156 66.5625 C 28.351562 66.632812 28.40625 66.695312 28.457031 66.761719 C 28.480469 66.792969 28.503906 66.828125 28.523438 66.863281 L 28.613281 67.027344 C 28.730469 67.242188 28.835938 67.484375 28.921875 67.695312 C 29.101562 68.128906 29.292969 68.5625 29.480469 69 C 29.65625 69.457031 29.839844 69.609375 30.234375 69.527344 C 30.609375 69.441406 31.011719 69.171875 31.335938 68.894531 L 31.261719 69.015625 L 31.371094 68.640625 L 31.375 68.628906 C 31.398438 68.554688 31.453125 68.5 31.519531 68.472656 C 31.589844 68.445312 31.664062 68.429688 31.742188 68.414062 C 31.796875 68.410156 31.796875 68.425781 31.820312 68.402344 C 31.832031 68.382812 31.828125 68.359375 31.816406 68.339844 L 31.695312 68.171875 C 31.519531 67.917969 31.347656 67.664062 31.183594 67.40625 C 30.855469 66.882812 30.550781 66.335938 30.363281 65.71875 L 30.554688 65.902344 C 30.46875 65.886719 30.351562 65.875 30.246094 65.871094 C 30.140625 65.867188 30.03125 65.871094 29.925781 65.878906 C 29.707031 65.898438 29.496094 65.949219 29.292969 66.015625 C 29.089844 66.082031 28.898438 66.179688 28.71875 66.296875 C 28.628906 66.355469 28.539062 66.417969 28.457031 66.488281 C 28.414062 66.523438 28.375 66.558594 28.335938 66.597656 L 28.320312 66.609375 C 28.316406 66.613281 28.320312 66.609375 28.320312 66.609375 C 28.320312 66.605469 28.320312 66.601562 28.316406 66.597656 C 28.3125 66.585938 28.304688 66.574219 28.285156 66.5625 " fill-opacity="1" fill-rule="nonzero"/><path fill="#ffffff" d="M 28.417969 68.164062 C 28.417969 68.164062 27.789062 67.046875 27.34375 67.441406 C 26.894531 67.835938 27.621094 69.046875 28.417969 68.164062 " fill-opacity="1" fill-rule="nonzero"/><path fill="#000000" d="M 30.6875 67.074219 C 30.652344 67.074219 30.632812 67.085938 30.625 67.09375 C 30.453125 67.570312 30.59375 67.890625 30.667969 67.972656 C 30.722656 67.96875 30.742188 67.949219 30.75 67.941406 C 30.777344 67.910156 30.867188 67.789062 30.832031 67.367188 C 30.816406 67.160156 30.769531 67.09375 30.753906 67.085938 C 30.726562 67.078125 30.707031 67.074219 30.6875 67.074219 Z M 30.652344 68.496094 C 30.632812 68.496094 30.613281 68.496094 30.597656 68.492188 C 30.453125 68.484375 30.3125 68.390625 30.207031 68.226562 C 30.039062 67.964844 29.933594 67.480469 30.140625 66.902344 C 30.1875 66.773438 30.292969 66.664062 30.429688 66.605469 C 30.589844 66.53125 30.773438 66.53125 30.949219 66.601562 C 31.304688 66.746094 31.339844 67.183594 31.351562 67.324219 C 31.390625 67.789062 31.316406 68.113281 31.121094 68.308594 C 31 68.429688 30.839844 68.496094 30.652344 68.496094 " fill-opacity="1" fill-rule="nonzero"/><path fill="#000000" d="M 27.851562 67.484375 C 27.722656 67.484375 27.613281 67.390625 27.59375 67.261719 C 27.570312 67.121094 27.671875 66.984375 27.8125 66.964844 L 30.566406 66.554688 C 30.710938 66.53125 30.839844 66.632812 30.863281 66.773438 C 30.882812 66.917969 30.785156 67.050781 30.640625 67.074219 L 27.890625 67.484375 C 27.875 67.484375 27.863281 67.484375 27.851562 67.484375 " fill-opacity="1" fill-rule="nonzero"/><path fill="#000000" d="M 31.75 67.6875 Z M 31.691406 67.730469 Z M 31.867188 68.183594 C 31.769531 68.183594 31.675781 68.128906 31.632812 68.035156 C 31.578125 67.925781 31.609375 67.796875 31.699219 67.722656 C 31.75 67.625 31.851562 67.226562 31.6875 66.960938 C 31.679688 66.949219 31.675781 66.945312 31.675781 66.945312 C 31.636719 66.929688 31.476562 66.992188 31.363281 67.082031 C 31.253906 67.175781 31.089844 67.15625 30.996094 67.046875 C 30.90625 66.933594 30.921875 66.769531 31.035156 66.679688 C 31.097656 66.628906 31.425781 66.371094 31.757812 66.425781 C 31.917969 66.453125 32.046875 66.542969 32.132812 66.6875 C 32.394531 67.113281 32.28125 67.617188 32.238281 67.761719 C 32.148438 68.074219 32.023438 68.136719 31.980469 68.15625 C 31.945312 68.175781 31.90625 68.183594 31.867188 68.183594 " fill-opacity="1" fill-rule="nonzero"/><path fill="#ffffff" d="M 70.867188 83.527344 L 37.296875 83.527344 C 35.613281 83.527344 34.304688 82.054688 34.507812 80.378906 L 38.636719 45.847656 C 38.804688 44.433594 40.003906 43.371094 41.425781 43.371094 L 75 43.371094 C 76.683594 43.371094 77.988281 44.84375 77.789062 46.519531 L 73.65625 81.050781 C 73.488281 82.464844 72.289062 83.527344 70.867188 83.527344 " fill-opacity="1" fill-rule="nonzero"/><path fill="#5479f7" d="M 70.976562 53.242188 L 57.824219 53.242188 C 57.488281 53.242188 57.214844 52.96875 57.214844 52.632812 C 57.214844 52.292969 57.488281 52.019531 57.824219 52.019531 L 70.976562 52.019531 C 71.3125 52.019531 71.585938 52.292969 71.585938 52.632812 C 71.585938 52.96875 71.3125 53.242188 70.976562 53.242188 " fill-opacity="1" fill-rule="nonzero"/><path fill="#5479f7" d="M 69.921875 57.5625 L 57.121094 57.5625 C 56.785156 57.5625 56.511719 57.289062 56.511719 56.953125 C 56.511719 56.617188 56.785156 56.34375 57.121094 56.34375 L 69.921875 56.34375 C 70.257812 56.34375 70.53125 56.617188 70.53125 56.953125 C 70.53125 57.289062 70.257812 57.5625 69.921875 57.5625 " fill-opacity="1" fill-rule="nonzero"/><path fill="#5479f7" d="M 69.570312 61.484375 L 66.660156 61.484375 C 66.324219 61.484375 66.050781 61.210938 66.050781 60.875 C 66.050781 60.535156 66.324219 60.265625 66.660156 60.265625 L 69.570312 60.265625 C 69.90625 60.265625 70.179688 60.535156 70.179688 60.875 C 70.179688 61.210938 69.90625 61.484375 69.570312 61.484375 " fill-opacity="1" fill-rule="nonzero"/><path fill="#5479f7" d="M 69.070312 65.605469 L 53.207031 65.605469 C 52.871094 65.605469 52.597656 65.332031 52.597656 64.996094 C 52.597656 64.65625 52.871094 64.382812 53.207031 64.382812 L 69.070312 64.382812 C 69.40625 64.382812 69.675781 64.65625 69.675781 64.996094 C 69.675781 65.332031 69.40625 65.605469 69.070312 65.605469 " fill-opacity="1" fill-rule="nonzero"/><path fill="#caddff" d="M 40.105469 68.425781 L 72.917969 68.53125 L 70.957031 81.289062 L 37.71875 81.691406 L 40.105469 68.425781 " fill-opacity="1" fill-rule="nonzero"/><path fill="#caddff" d="M 50.394531 65.238281 L 39.933594 65.238281 C 39.699219 65.238281 39.523438 65.050781 39.558594 64.847656 L 41.707031 52.40625 C 41.734375 52.242188 41.894531 52.117188 42.082031 52.117188 L 52.542969 52.117188 C 52.777344 52.117188 52.957031 52.304688 52.921875 52.507812 L 50.769531 64.949219 C 50.742188 65.117188 50.582031 65.238281 50.394531 65.238281 " fill-opacity="1" fill-rule="nonzero"/><path fill="#99b9ff" d="M 65.480469 49.226562 L 49.34375 49.226562 C 48.898438 49.226562 48.558594 48.835938 48.617188 48.394531 L 48.730469 47.527344 C 48.777344 47.164062 49.089844 46.890625 49.457031 46.890625 L 65.59375 46.890625 C 66.039062 46.890625 66.378906 47.28125 66.320312 47.71875 L 66.207031 48.585938 C 66.160156 48.953125 65.847656 49.226562 65.480469 49.226562 " fill-opacity="1" fill-rule="nonzero"/><path fill="#000000" d="M 70.867188 83.789062 L 54.667969 83.789062 C 54.523438 83.789062 54.40625 83.671875 54.40625 83.527344 C 54.40625 83.382812 54.523438 83.265625 54.667969 83.265625 L 70.867188 83.265625 C 72.15625 83.265625 73.246094 82.300781 73.398438 81.019531 L 77.53125 46.488281 C 77.617188 45.761719 77.386719 45.035156 76.90625 44.492188 C 76.421875 43.945312 75.726562 43.632812 75 43.632812 L 41.425781 43.632812 C 40.136719 43.632812 39.046875 44.597656 38.894531 45.878906 L 36.03125 68.914062 C 36.015625 69.058594 35.886719 69.160156 35.742188 69.144531 C 35.597656 69.125 35.496094 68.992188 35.515625 68.851562 L 38.378906 45.816406 C 38.5625 44.273438 39.871094 43.109375 41.425781 43.109375 L 75 43.109375 C 75.878906 43.109375 76.714844 43.484375 77.296875 44.144531 C 77.878906 44.800781 78.152344 45.675781 78.046875 46.550781 L 73.917969 81.082031 C 73.730469 82.625 72.421875 83.789062 70.867188 83.789062 " fill-opacity="1" fill-rule="nonzero"/><path fill="#5479f7" d="M 52.605469 76.347656 L 54.34375 78.992188 C 54.34375 78.992188 45.960938 91.410156 28.804688 85.539062 L 31.855469 76.339844 C 31.855469 76.339844 38.90625 83.179688 52.605469 76.347656 " fill-opacity="1" fill-rule="nonzero"/><path fill="#ffffff" d="M 52.53125 77.636719 C 52.425781 77.535156 52.199219 77.292969 52.191406 77.144531 C 52.171875 76.683594 52.324219 75.597656 52.457031 75.269531 C 52.636719 74.839844 52.925781 72.945312 53.269531 72.691406 C 53.613281 72.433594 53.980469 73.34375 53.917969 73.816406 C 53.859375 74.285156 53.574219 75.003906 53.792969 75.097656 C 54.015625 75.195312 56.300781 72.5 56.769531 72.609375 C 57.238281 72.722656 60.3125 72.941406 56.484375 77.5 C 55.953125 78.136719 54.835938 78.839844 54.34375 78.992188 C 54.136719 79.054688 53.914062 79 53.761719 78.851562 L 52.53125 77.636719 " fill-opacity="1" fill-rule="nonzero"/><path fill="#000000" d="M 52.714844 77.449219 L 53.941406 78.664062 C 54.027344 78.746094 54.152344 78.777344 54.265625 78.742188 C 54.710938 78.601562 55.777344 77.9375 56.285156 77.332031 C 58.082031 75.191406 58.242188 74.136719 58.0625 73.632812 C 57.867188 73.085938 57.175781 72.953125 56.84375 72.890625 C 56.800781 72.882812 56.765625 72.878906 56.738281 72.871094 C 56.472656 72.941406 55.566406 73.839844 55.078125 74.324219 C 54.144531 75.253906 53.9375 75.445312 53.691406 75.339844 C 53.335938 75.1875 53.445312 74.730469 53.5625 74.25 C 53.601562 74.085938 53.644531 73.917969 53.660156 73.78125 C 53.695312 73.5 53.527344 73.042969 53.402344 72.925781 C 53.246094 73.136719 53.035156 74.046875 52.933594 74.496094 C 52.839844 74.890625 52.769531 75.199219 52.699219 75.367188 C 52.582031 75.648438 52.433594 76.707031 52.453125 77.132812 C 52.457031 77.144531 52.519531 77.257812 52.714844 77.449219 Z M 54.167969 79.28125 C 53.949219 79.28125 53.738281 79.195312 53.578125 79.035156 L 52.347656 77.824219 C 51.984375 77.460938 51.9375 77.269531 51.929688 77.152344 C 51.910156 76.679688 52.058594 75.550781 52.21875 75.167969 C 52.269531 75.039062 52.34375 74.71875 52.421875 74.378906 C 52.65625 73.367188 52.832031 72.691406 53.113281 72.480469 C 53.273438 72.363281 53.464844 72.351562 53.636719 72.453125 C 53.996094 72.664062 54.234375 73.398438 54.179688 73.847656 C 54.15625 74.011719 54.113281 74.195312 54.070312 74.375 C 54.050781 74.449219 54.03125 74.542969 54.011719 74.632812 C 54.210938 74.449219 54.476562 74.183594 54.710938 73.953125 C 55.992188 72.679688 56.480469 72.273438 56.832031 72.355469 C 56.859375 72.363281 56.894531 72.367188 56.9375 72.378906 C 57.332031 72.453125 58.257812 72.625 58.554688 73.457031 C 58.886719 74.394531 58.277344 75.773438 56.683594 77.667969 C 56.113281 78.351562 54.933594 79.082031 54.421875 79.242188 C 54.335938 79.265625 54.253906 79.28125 54.167969 79.28125 " fill-opacity="1" fill-rule="nonzero"/><path fill="#000000" d="M 41.183594 79.890625 C 38.054688 79.890625 33.511719 78.992188 31.648438 76.496094 C 31.558594 76.378906 31.582031 76.214844 31.699219 76.128906 C 31.8125 76.042969 31.976562 76.066406 32.0625 76.183594 C 34.335938 79.222656 41.144531 79.742188 43.414062 79.148438 C 43.554688 79.113281 43.695312 79.199219 43.730469 79.335938 C 43.769531 79.476562 43.6875 79.621094 43.546875 79.65625 C 42.972656 79.808594 42.144531 79.890625 41.183594 79.890625 " fill-opacity="1" fill-rule="nonzero"/><path fill="#ffffff" d="M 130.320312 23.285156 L 128.394531 23.285156 C 126.835938 23.285156 125.507812 24.40625 125.242188 25.945312 L 123.910156 33.65625 L 131.886719 33.65625 L 131.886719 30.855469 L 130.320312 23.285156 " fill-opacity="1" fill-rule="nonzero"/><path fill="#000000" d="M 124.21875 33.394531 L 131.625 33.394531 L 131.625 30.878906 L 130.109375 23.546875 L 128.394531 23.546875 C 126.960938 23.546875 125.742188 24.574219 125.496094 25.992188 Z M 131.886719 33.917969 L 123.910156 33.917969 C 123.832031 33.917969 123.761719 33.882812 123.710938 33.824219 C 123.660156 33.765625 123.640625 33.6875 123.652344 33.609375 L 124.984375 25.902344 C 125.269531 24.234375 126.707031 23.023438 128.394531 23.023438 L 130.320312 23.023438 C 130.445312 23.023438 130.550781 23.109375 130.578125 23.230469 L 132.140625 30.800781 C 132.144531 30.816406 132.144531 30.835938 132.144531 30.851562 L 132.144531 33.65625 C 132.144531 33.800781 132.027344 33.917969 131.886719 33.917969 " fill-opacity="1" fill-rule="nonzero"/><path fill="#99b9ff" d="M 131.886719 33.65625 C 131.886719 33.980469 130.101562 34.246094 127.898438 34.246094 C 125.695312 34.246094 123.910156 33.980469 123.910156 33.65625 C 123.910156 33.328125 125.695312 33.0625 127.898438 33.0625 C 130.101562 33.0625 131.886719 33.328125 131.886719 33.65625 " fill-opacity="1" fill-rule="nonzero"/><path fill="#000000" d="M 131.660156 33.753906 Z M 124.351562 33.65625 C 124.824219 33.804688 126.011719 33.984375 127.898438 33.984375 C 129.785156 33.984375 130.972656 33.804688 131.441406 33.65625 C 130.972656 33.507812 129.785156 33.324219 127.898438 33.324219 C 126.011719 33.324219 124.824219 33.507812 124.351562 33.65625 Z M 127.898438 34.507812 C 126.820312 34.507812 125.804688 34.445312 125.039062 34.332031 C 124.050781 34.1875 123.648438 33.988281 123.648438 33.65625 C 123.648438 33.316406 124.039062 33.125 125.039062 32.976562 C 125.804688 32.863281 126.820312 32.800781 127.898438 32.800781 C 128.976562 32.800781 129.988281 32.863281 130.757812 32.976562 C 131.757812 33.125 132.144531 33.316406 132.144531 33.65625 C 132.144531 33.988281 131.742188 34.1875 130.757812 34.332031 C 129.988281 34.445312 128.976562 34.507812 127.898438 34.507812 " fill-opacity="1" fill-rule="nonzero"/><path fill="#5479f7" d="M 127.898438 33.410156 C 127.269531 33.410156 126.675781 33.433594 126.148438 33.472656 C 126.105469 34.1875 126.101562 34.96875 126.160156 35.800781 C 126.359375 38.703125 127.199219 41.023438 127.921875 42.566406 C 128.246094 41.9375 128.578125 41.183594 128.863281 40.316406 C 129.257812 39.117188 129.453125 38.027344 129.550781 37.132812 C 129.511719 37.574219 129.511719 38.203125 129.6875 38.921875 C 129.796875 39.359375 129.945312 39.730469 130.085938 40.023438 C 130.339844 39.101562 130.574219 37.957031 130.664062 36.636719 C 130.746094 35.496094 130.703125 34.460938 130.605469 33.570312 C 129.894531 33.472656 128.941406 33.410156 127.898438 33.410156 " fill-opacity="1" fill-rule="nonzero"/><path fill="#ffffff" d="M 140.613281 23.285156 L 142.539062 23.285156 C 144.097656 23.285156 145.429688 24.40625 145.695312 25.945312 L 147.023438 33.65625 L 139.046875 33.65625 L 139.046875 30.855469 L 140.613281 23.285156 " fill-opacity="1" fill-rule="nonzero"/><path fill="#000000" d="M 139.308594 33.394531 L 146.714844 33.394531 L 145.433594 25.992188 C 145.191406 24.574219 143.972656 23.546875 142.539062 23.546875 L 140.824219 23.546875 L 139.308594 30.878906 Z M 147.023438 33.917969 L 139.046875 33.917969 C 138.90625 33.917969 138.789062 33.800781 138.789062 33.65625 L 138.789062 30.855469 C 138.789062 30.835938 138.789062 30.820312 138.792969 30.800781 L 140.359375 23.230469 C 140.382812 23.109375 140.488281 23.023438 140.613281 23.023438 L 142.539062 23.023438 C 144.226562 23.023438 145.664062 24.234375 145.949219 25.902344 L 147.28125 33.609375 C 147.292969 33.6875 147.273438 33.765625 147.222656 33.824219 C 147.171875 33.882812 147.101562 33.917969 147.023438 33.917969 " fill-opacity="1" fill-rule="nonzero"/><path fill="#99b9ff" d="M 139.046875 33.65625 C 139.046875 33.980469 140.832031 34.246094 143.035156 34.246094 C 145.238281 34.246094 147.023438 33.980469 147.023438 33.65625 C 147.023438 33.328125 145.238281 33.0625 143.035156 33.0625 C 140.832031 33.0625 139.046875 33.328125 139.046875 33.65625 " fill-opacity="1" fill-rule="nonzero"/><path fill="#000000" d="M 139.492188 33.65625 C 139.964844 33.804688 141.152344 33.984375 143.035156 33.984375 C 144.921875 33.984375 146.109375 33.804688 146.582031 33.65625 C 146.109375 33.507812 144.921875 33.324219 143.035156 33.324219 C 141.152344 33.324219 139.964844 33.507812 139.492188 33.65625 Z M 143.035156 34.507812 C 141.957031 34.507812 140.945312 34.445312 140.179688 34.332031 C 139.191406 34.1875 138.789062 33.988281 138.789062 33.65625 C 138.789062 33.316406 139.179688 33.125 140.179688 32.980469 C 140.945312 32.863281 141.957031 32.800781 143.035156 32.800781 C 144.113281 32.800781 145.128906 32.863281 145.894531 32.980469 C 146.894531 33.125 147.285156 33.316406 147.285156 33.65625 C 147.285156 33.988281 146.882812 34.1875 145.894531 34.332031 C 145.128906 34.445312 144.113281 34.507812 143.035156 34.507812 " fill-opacity="1" fill-rule="nonzero"/><path fill="#5479f7" d="M 143.035156 33.410156 C 143.664062 33.410156 144.257812 33.433594 144.785156 33.472656 C 144.828125 34.1875 144.828125 34.96875 144.773438 35.800781 C 144.574219 38.703125 143.734375 41.023438 143.011719 42.566406 C 142.6875 41.9375 142.355469 41.183594 142.070312 40.316406 C 141.675781 39.117188 141.480469 38.027344 141.382812 37.132812 C 141.421875 37.574219 141.421875 38.203125 141.246094 38.921875 C 141.136719 39.359375 140.988281 39.730469 140.847656 40.019531 C 140.59375 39.101562 140.359375 37.957031 140.269531 36.636719 C 140.1875 35.496094 140.230469 34.460938 140.328125 33.566406 C 141.039062 33.472656 141.988281 33.410156 143.035156 33.410156 " fill-opacity="1" fill-rule="nonzero"/><path fill="#ffffff" d="M 140.925781 11.667969 L 136.613281 3.277344 C 136.132812 2.34375 134.800781 2.34375 134.320312 3.277344 L 130.007812 11.667969 C 128.816406 13.984375 128.195312 16.550781 128.195312 19.15625 C 128.195312 20.898438 128.472656 22.628906 129.015625 24.28125 L 131.175781 31.21875 C 131.175781 31.570312 133.097656 31.855469 135.46875 31.855469 C 137.835938 31.855469 139.757812 31.570312 139.757812 31.21875 L 141.917969 24.28125 C 142.460938 22.628906 142.738281 20.898438 142.738281 19.15625 C 142.738281 16.550781 142.117188 13.984375 140.925781 11.667969 " fill-opacity="1" fill-rule="nonzero"/><path fill="#000000" d="M 131.425781 31.144531 C 131.65625 31.308594 133.007812 31.59375 135.46875 31.59375 C 137.925781 31.59375 139.277344 31.308594 139.507812 31.144531 C 139.507812 31.140625 139.507812 31.140625 139.511719 31.140625 L 141.667969 24.203125 C 142.207031 22.570312 142.476562 20.875 142.476562 19.15625 C 142.476562 16.605469 141.863281 14.054688 140.695312 11.785156 L 136.382812 3.394531 C 136.203125 3.046875 135.859375 2.839844 135.46875 2.839844 C 135.074219 2.839844 134.734375 3.046875 134.554688 3.394531 L 130.238281 11.785156 C 129.074219 14.054688 128.457031 16.605469 128.457031 19.15625 C 128.457031 20.875 128.730469 22.570312 129.265625 24.199219 L 131.425781 31.140625 C 131.425781 31.140625 131.425781 31.140625 131.425781 31.144531 Z M 135.46875 32.117188 C 134.308594 32.117188 133.21875 32.050781 132.394531 31.925781 C 131.394531 31.777344 130.957031 31.585938 130.917969 31.269531 L 128.765625 24.359375 C 128.214844 22.679688 127.933594 20.929688 127.933594 19.15625 C 127.933594 16.523438 128.570312 13.890625 129.777344 11.546875 L 134.089844 3.15625 C 134.355469 2.636719 134.882812 2.316406 135.46875 2.316406 C 136.050781 2.316406 136.578125 2.636719 136.84375 3.15625 L 141.160156 11.546875 C 142.363281 13.890625 143 16.523438 143 19.15625 C 143 20.929688 142.71875 22.683594 142.164062 24.363281 L 140.015625 31.269531 C 139.976562 31.585938 139.539062 31.777344 138.539062 31.925781 C 137.71875 32.050781 136.625 32.117188 135.46875 32.117188 " fill-opacity="1" fill-rule="nonzero"/><path fill="#99b9ff" d="M 139.453125 31.265625 C 139.453125 31.589844 137.667969 31.855469 135.464844 31.855469 C 133.265625 31.855469 131.480469 31.589844 131.480469 31.265625 C 131.480469 30.9375 133.265625 30.671875 135.464844 30.671875 C 137.667969 30.671875 139.453125 30.9375 139.453125 31.265625 " fill-opacity="1" fill-rule="nonzero"/><path fill="#000000" d="M 139.226562 31.363281 Z M 131.921875 31.265625 C 132.394531 31.414062 133.582031 31.59375 135.464844 31.59375 C 137.351562 31.59375 138.539062 31.414062 139.011719 31.265625 C 138.539062 31.117188 137.351562 30.933594 135.464844 30.933594 C 133.582031 30.933594 132.394531 31.117188 131.921875 31.265625 Z M 135.464844 32.117188 C 134.390625 32.117188 133.375 32.054688 132.609375 31.941406 C 131.609375 31.792969 131.21875 31.601562 131.21875 31.265625 C 131.21875 30.929688 131.621094 30.734375 132.609375 30.585938 C 133.375 30.472656 134.390625 30.410156 135.464844 30.410156 C 136.542969 30.410156 137.558594 30.472656 138.324219 30.585938 C 139.3125 30.734375 139.714844 30.929688 139.714844 31.265625 C 139.714844 31.601562 139.324219 31.792969 138.324219 31.941406 C 137.558594 32.054688 136.542969 32.117188 135.464844 32.117188 " fill-opacity="1" fill-rule="nonzero"/><path fill="#5479f7" d="M 137.957031 31.195312 C 137.261719 31.109375 136.371094 31.058594 135.402344 31.058594 C 134.410156 31.058594 133.503906 31.113281 132.804688 31.199219 C 132.625 32.515625 132.53125 34.027344 132.625 35.699219 C 132.890625 40.492188 134.574219 44.164062 135.777344 46.28125 C 135.789062 42.164062 135.984375 40.089844 136.347656 40.058594 C 136.589844 40.035156 136.898438 40.867188 137.285156 42.550781 C 137.78125 41.453125 138.300781 39.980469 138.546875 38.191406 C 138.949219 35.296875 138.464844 32.84375 137.957031 31.195312 " fill-opacity="1" fill-rule="nonzero"/><path fill="#000000" d="M 139.632812 10.085938 C 139.605469 10.085938 139.582031 10.082031 139.554688 10.074219 C 139.105469 9.9375 138.644531 9.820312 138.195312 9.726562 C 138.054688 9.699219 137.960938 9.558594 137.992188 9.417969 C 138.019531 9.277344 138.15625 9.183594 138.300781 9.214844 C 138.765625 9.308594 139.242188 9.429688 139.707031 9.574219 C 139.84375 9.617188 139.921875 9.761719 139.882812 9.898438 C 139.847656 10.011719 139.746094 10.085938 139.632812 10.085938 " fill-opacity="1" fill-rule="nonzero"/><path fill="#000000" d="M 131.300781 10.085938 C 131.191406 10.085938 131.085938 10.011719 131.050781 9.902344 C 131.011719 9.761719 131.085938 9.617188 131.226562 9.574219 C 132.890625 9.066406 134.578125 8.855469 136.242188 8.949219 C 136.386719 8.957031 136.496094 9.078125 136.488281 9.222656 C 136.480469 9.367188 136.359375 9.472656 136.210938 9.46875 C 134.609375 9.378906 132.980469 9.582031 131.378906 10.074219 C 131.355469 10.082031 131.328125 10.085938 131.300781 10.085938 " fill-opacity="1" fill-rule="nonzero"/><path fill="#5479f7" d="M 139.59375 18.441406 C 139.59375 20.722656 137.746094 22.578125 135.464844 22.578125 C 133.1875 22.578125 131.339844 20.722656 131.339844 18.441406 C 131.339844 16.15625 133.1875 14.304688 135.464844 14.304688 C 137.746094 14.304688 139.59375 16.15625 139.59375 18.441406 " fill-opacity="1" fill-rule="nonzero"/><path fill="#000000" d="M 135.464844 14.566406 C 133.335938 14.566406 131.601562 16.304688 131.601562 18.441406 C 131.601562 20.578125 133.335938 22.316406 135.464844 22.316406 C 137.597656 22.316406 139.332031 20.578125 139.332031 18.441406 C 139.332031 16.304688 137.597656 14.566406 135.464844 14.566406 Z M 135.464844 22.835938 C 133.046875 22.835938 131.078125 20.867188 131.078125 18.441406 C 131.078125 16.015625 133.046875 14.042969 135.464844 14.042969 C 137.886719 14.042969 139.851562 16.015625 139.851562 18.441406 C 139.851562 20.867188 137.886719 22.835938 135.464844 22.835938 " fill-opacity="1" fill-rule="nonzero"/><path fill="#000000" d="M 138.320312 14.445312 C 138.269531 14.445312 138.21875 14.433594 138.175781 14.402344 C 137.621094 14.027344 137.007812 13.777344 136.351562 13.65625 C 136.210938 13.628906 136.117188 13.492188 136.144531 13.351562 C 136.171875 13.207031 136.308594 13.113281 136.449219 13.140625 C 137.175781 13.277344 137.851562 13.554688 138.464844 13.96875 C 138.585938 14.050781 138.617188 14.210938 138.535156 14.332031 C 138.484375 14.40625 138.402344 14.445312 138.320312 14.445312 Z M 132.445312 14.566406 C 132.363281 14.566406 132.285156 14.527344 132.234375 14.460938 C 132.148438 14.34375 132.171875 14.179688 132.289062 14.09375 C 132.886719 13.65625 133.550781 13.347656 134.269531 13.1875 C 134.414062 13.152344 134.550781 13.242188 134.582031 13.382812 C 134.617188 13.523438 134.527344 13.664062 134.386719 13.695312 C 133.738281 13.84375 133.136719 14.117188 132.597656 14.515625 C 132.554688 14.546875 132.5 14.566406 132.445312 14.566406 Z M 140.515625 17.871094 C 140.386719 17.871094 140.277344 17.777344 140.257812 17.648438 C 140.148438 16.992188 139.914062 16.371094 139.550781 15.808594 C 139.472656 15.6875 139.507812 15.527344 139.628906 15.449219 C 139.75 15.371094 139.910156 15.40625 139.988281 15.527344 C 140.390625 16.148438 140.652344 16.835938 140.769531 17.566406 C 140.792969 17.707031 140.699219 17.84375 140.554688 17.867188 C 140.542969 17.867188 140.527344 17.871094 140.515625 17.871094 Z M 130.390625 18.074219 C 130.378906 18.074219 130.367188 18.074219 130.359375 18.074219 C 130.214844 18.054688 130.113281 17.925781 130.128906 17.78125 C 130.222656 17.046875 130.457031 16.351562 130.832031 15.710938 C 130.902344 15.589844 131.0625 15.546875 131.1875 15.621094 C 131.3125 15.691406 131.351562 15.855469 131.28125 15.976562 C 130.941406 16.554688 130.730469 17.179688 130.648438 17.84375 C 130.632812 17.976562 130.519531 18.074219 130.390625 18.074219 Z M 140.160156 20.734375 C 140.128906 20.734375 140.09375 20.730469 140.058594 20.714844 C 139.925781 20.65625 139.867188 20.503906 139.921875 20.371094 C 140.1875 19.757812 140.320312 19.109375 140.320312 18.441406 C 140.320312 18.296875 140.4375 18.179688 140.582031 18.179688 C 140.726562 18.179688 140.839844 18.296875 140.839844 18.441406 C 140.839844 19.183594 140.695312 19.902344 140.402344 20.578125 C 140.359375 20.675781 140.261719 20.734375 140.160156 20.734375 Z M 131.535156 21.976562 C 131.457031 21.976562 131.386719 21.945312 131.332031 21.882812 C 130.859375 21.3125 130.515625 20.664062 130.308594 19.957031 C 130.265625 19.820312 130.347656 19.671875 130.484375 19.632812 C 130.621094 19.59375 130.769531 19.671875 130.808594 19.808594 C 130.996094 20.449219 131.304688 21.035156 131.734375 21.550781 C 131.828125 21.660156 131.8125 21.824219 131.699219 21.917969 C 131.652344 21.957031 131.59375 21.976562 131.535156 21.976562 Z M 137.207031 23.523438 C 137.097656 23.523438 136.996094 23.457031 136.960938 23.351562 C 136.910156 23.214844 136.980469 23.066406 137.117188 23.015625 C 137.742188 22.789062 138.304688 22.441406 138.792969 21.984375 C 138.894531 21.882812 139.0625 21.890625 139.160156 21.996094 C 139.261719 22.101562 139.253906 22.265625 139.148438 22.367188 C 138.609375 22.871094 137.988281 23.257812 137.292969 23.507812 C 137.265625 23.519531 137.234375 23.523438 137.207031 23.523438 Z M 135.152344 23.816406 C 135.148438 23.816406 135.144531 23.816406 135.136719 23.816406 C 134.398438 23.773438 133.691406 23.582031 133.035156 23.246094 C 132.90625 23.179688 132.855469 23.023438 132.921875 22.894531 C 132.984375 22.765625 133.144531 22.714844 133.269531 22.78125 C 133.863281 23.082031 134.503906 23.253906 135.167969 23.296875 C 135.3125 23.304688 135.421875 23.429688 135.414062 23.574219 C 135.40625 23.710938 135.292969 23.816406 135.152344 23.816406 " fill-opacity="1" fill-rule="nonzero"/><path fill="#ffffff" d="M 134.625 40.484375 C 134.480469 40.484375 134.363281 40.367188 134.363281 40.222656 L 134.363281 32.527344 C 134.363281 32.382812 134.480469 32.265625 134.625 32.265625 C 134.769531 32.265625 134.886719 32.382812 134.886719 32.527344 L 134.886719 40.222656 C 134.886719 40.367188 134.769531 40.484375 134.625 40.484375 " fill-opacity="1" fill-rule="nonzero"/><path fill="#ffffff" d="M 135.464844 35.074219 C 135.324219 35.074219 135.207031 34.957031 135.207031 34.8125 L 135.207031 31.691406 C 135.207031 31.546875 135.324219 31.429688 135.464844 31.429688 C 135.609375 31.429688 135.726562 31.546875 135.726562 31.691406 L 135.726562 34.8125 C 135.726562 34.957031 135.609375 35.074219 135.464844 35.074219 " fill-opacity="1" fill-rule="nonzero"/><path fill="#ffffff" d="M 127.441406 38.75 C 127.296875 38.75 127.179688 38.632812 127.179688 38.488281 L 127.179688 33.976562 C 127.179688 33.832031 127.296875 33.714844 127.441406 33.714844 C 127.582031 33.714844 127.699219 33.832031 127.699219 33.976562 L 127.699219 38.488281 C 127.699219 38.632812 127.582031 38.75 127.441406 38.75 " fill-opacity="1" fill-rule="nonzero"/><path fill="#ffffff" d="M 128.195312 37.359375 C 128.050781 37.359375 127.933594 37.242188 127.933594 37.097656 L 127.933594 34.8125 C 127.933594 34.667969 128.050781 34.550781 128.195312 34.550781 C 128.339844 34.550781 128.457031 34.667969 128.457031 34.8125 L 128.457031 37.097656 C 128.457031 37.242188 128.339844 37.359375 128.195312 37.359375 " fill-opacity="1" fill-rule="nonzero"/><path fill="#ffffff" d="M 142.011719 35.796875 C 141.867188 35.796875 141.75 35.679688 141.75 35.535156 L 141.75 34.234375 C 141.75 34.089844 141.867188 33.972656 142.011719 33.972656 C 142.15625 33.972656 142.273438 34.089844 142.273438 34.234375 L 142.273438 35.535156 C 142.273438 35.679688 142.15625 35.796875 142.011719 35.796875 " fill-opacity="1" fill-rule="nonzero"/><path fill="#ffffff" d="M 143.253906 39.789062 C 143.109375 39.789062 142.992188 39.671875 142.992188 39.527344 L 142.992188 34.8125 C 142.992188 34.667969 143.109375 34.550781 143.253906 34.550781 C 143.394531 34.550781 143.511719 34.667969 143.511719 34.8125 L 143.511719 39.527344 C 143.511719 39.671875 143.394531 39.789062 143.253906 39.789062 " fill-opacity="1" fill-rule="nonzero"/><path fill="#99b9ff" d="M 133.070312 19.773438 C 133.003906 19.773438 132.9375 19.746094 132.886719 19.695312 C 132.78125 19.59375 132.78125 19.425781 132.886719 19.324219 L 136.605469 15.597656 C 136.707031 15.496094 136.871094 15.496094 136.972656 15.597656 C 137.074219 15.699219 137.074219 15.863281 136.972656 15.96875 L 133.253906 19.695312 C 133.203125 19.746094 133.136719 19.773438 133.070312 19.773438 " fill-opacity="1" fill-rule="nonzero"/><path fill="#99b9ff" d="M 133.507812 21.425781 C 133.441406 21.425781 133.375 21.402344 133.324219 21.351562 C 133.222656 21.246094 133.222656 21.082031 133.324219 20.980469 L 136.042969 18.253906 C 136.144531 18.152344 136.308594 18.152344 136.414062 18.253906 C 136.515625 18.355469 136.515625 18.523438 136.414062 18.625 L 133.691406 21.351562 C 133.644531 21.402344 133.574219 21.425781 133.507812 21.425781 " fill-opacity="1" fill-rule="nonzero"/><path fill="#5479f7" d="M 137.847656 50.832031 C 137.710938 50.832031 137.59375 50.722656 137.585938 50.582031 C 137.546875 49.898438 137.503906 49.195312 137.453125 48.5 C 137.441406 48.355469 137.550781 48.230469 137.695312 48.222656 C 137.835938 48.207031 137.964844 48.316406 137.972656 48.460938 C 138.023438 49.164062 138.070312 49.867188 138.105469 50.554688 C 138.113281 50.699219 138.003906 50.824219 137.859375 50.832031 C 137.855469 50.832031 137.851562 50.832031 137.847656 50.832031 Z M 137.992188 55.015625 C 137.851562 55.015625 137.738281 54.898438 137.734375 54.757812 C 137.722656 54.066406 137.703125 53.363281 137.679688 52.671875 C 137.675781 52.527344 137.789062 52.402344 137.929688 52.398438 C 138.082031 52.390625 138.195312 52.507812 138.203125 52.652344 C 138.226562 53.347656 138.246094 54.054688 138.253906 54.746094 C 138.257812 54.894531 138.144531 55.011719 138 55.015625 C 137.996094 55.015625 137.996094 55.015625 137.992188 55.015625 Z M 137.980469 59.199219 C 137.976562 59.199219 137.972656 59.199219 137.972656 59.199219 C 137.828125 59.195312 137.714844 59.074219 137.71875 58.929688 C 137.734375 58.242188 137.742188 57.542969 137.746094 56.84375 C 137.746094 56.699219 137.863281 56.582031 138.007812 56.582031 C 138.152344 56.582031 138.269531 56.703125 138.269531 56.84375 C 138.265625 57.546875 138.253906 58.253906 138.238281 58.941406 C 138.234375 59.085938 138.121094 59.199219 137.980469 59.199219 Z M 137.789062 63.378906 C 137.785156 63.378906 137.777344 63.378906 137.773438 63.378906 C 137.628906 63.367188 137.519531 63.242188 137.53125 63.101562 C 137.574219 62.410156 137.613281 61.707031 137.644531 61.015625 C 137.652344 60.871094 137.773438 60.75 137.917969 60.765625 C 138.0625 60.773438 138.171875 60.894531 138.164062 61.039062 C 138.136719 61.738281 138.097656 62.441406 138.050781 63.132812 C 138.042969 63.273438 137.925781 63.378906 137.789062 63.378906 Z M 137.421875 67.546875 C 137.414062 67.546875 137.402344 67.546875 137.394531 67.542969 C 137.25 67.53125 137.148438 67.398438 137.164062 67.257812 C 137.238281 66.570312 137.308594 65.871094 137.367188 65.179688 C 137.382812 65.035156 137.507812 64.929688 137.652344 64.941406 C 137.796875 64.957031 137.902344 65.082031 137.890625 65.226562 C 137.828125 65.921875 137.757812 66.625 137.683594 67.3125 C 137.667969 67.449219 137.554688 67.546875 137.421875 67.546875 Z M 136.871094 71.695312 C 136.855469 71.695312 136.839844 71.691406 136.828125 71.691406 C 136.683594 71.667969 136.589844 71.535156 136.613281 71.394531 C 136.71875 70.710938 136.820312 70.015625 136.910156 69.328125 C 136.929688 69.183594 137.0625 69.082031 137.203125 69.101562 C 137.347656 69.121094 137.449219 69.253906 137.429688 69.398438 C 137.335938 70.089844 137.234375 70.789062 137.125 71.472656 C 137.105469 71.601562 136.996094 71.695312 136.871094 71.695312 Z M 136.121094 75.8125 C 136.105469 75.8125 136.085938 75.808594 136.070312 75.804688 C 135.929688 75.777344 135.835938 75.636719 135.867188 75.496094 C 136.003906 74.824219 136.136719 74.136719 136.261719 73.449219 C 136.289062 73.304688 136.425781 73.210938 136.566406 73.238281 C 136.707031 73.265625 136.800781 73.398438 136.777344 73.542969 C 136.652344 74.234375 136.515625 74.925781 136.378906 75.601562 C 136.351562 75.726562 136.242188 75.8125 136.121094 75.8125 Z M 135.179688 79.886719 C 135.15625 79.886719 135.136719 79.882812 135.113281 79.878906 C 134.972656 79.84375 134.890625 79.699219 134.925781 79.558594 C 135.097656 78.886719 135.265625 78.207031 135.421875 77.535156 C 135.453125 77.394531 135.59375 77.304688 135.734375 77.339844 C 135.875 77.371094 135.960938 77.511719 135.929688 77.652344 C 135.773438 78.328125 135.605469 79.015625 135.429688 79.691406 C 135.402344 79.808594 135.292969 79.886719 135.179688 79.886719 Z M 129.816406 82.160156 C 129.789062 82.160156 129.761719 82.152344 129.734375 82.144531 C 129.0625 81.914062 128.40625 81.796875 127.789062 81.796875 L 127.773438 81.796875 C 127.628906 81.796875 127.511719 81.679688 127.511719 81.539062 C 127.511719 81.390625 127.628906 81.277344 127.773438 81.277344 L 127.785156 81.277344 C 128.464844 81.277344 129.175781 81.402344 129.902344 81.648438 C 130.039062 81.695312 130.109375 81.84375 130.066406 81.980469 C 130.027344 82.089844 129.925781 82.160156 129.816406 82.160156 Z M 123.9375 83.246094 C 123.863281 83.246094 123.785156 83.214844 123.734375 83.152344 C 123.644531 83.039062 123.660156 82.875 123.773438 82.785156 C 124.324219 82.324219 124.957031 81.960938 125.644531 81.699219 C 125.777344 81.648438 125.929688 81.714844 125.980469 81.847656 C 126.03125 81.984375 125.964844 82.136719 125.828125 82.1875 C 125.195312 82.429688 124.613281 82.765625 124.101562 83.1875 C 124.054688 83.226562 123.996094 83.246094 123.9375 83.246094 Z M 133.945312 83.882812 C 133.917969 83.882812 133.886719 83.878906 133.855469 83.867188 C 133.71875 83.816406 133.652344 83.664062 133.703125 83.527344 C 133.941406 82.90625 134.164062 82.246094 134.371094 81.566406 C 134.414062 81.429688 134.5625 81.351562 134.699219 81.390625 C 134.835938 81.433594 134.914062 81.582031 134.871094 81.71875 C 134.660156 82.410156 134.433594 83.082031 134.191406 83.714844 C 134.152344 83.820312 134.050781 83.882812 133.945312 83.882812 Z M 133.375 84.300781 C 133.316406 84.300781 133.253906 84.28125 133.203125 84.238281 C 132.667969 83.769531 132.113281 83.363281 131.558594 83.019531 C 131.4375 82.945312 131.398438 82.785156 131.472656 82.660156 C 131.550781 82.539062 131.710938 82.5 131.832031 82.574219 C 132.410156 82.929688 132.988281 83.359375 133.546875 83.839844 C 133.65625 83.933594 133.667969 84.101562 133.574219 84.210938 C 133.523438 84.269531 133.449219 84.300781 133.375 84.300781 Z M 121.984375 86.816406 C 121.976562 86.816406 121.96875 86.816406 121.964844 86.816406 C 121.820312 86.804688 121.710938 86.679688 121.722656 86.535156 C 121.78125 85.808594 121.996094 85.105469 122.367188 84.445312 C 122.4375 84.316406 122.597656 84.273438 122.722656 84.34375 C 122.847656 84.414062 122.894531 84.574219 122.824219 84.699219 C 122.488281 85.292969 122.292969 85.925781 122.246094 86.574219 C 122.234375 86.710938 122.117188 86.816406 121.984375 86.816406 Z M 136.15625 87.410156 C 136.074219 87.410156 135.996094 87.371094 135.945312 87.296875 C 135.546875 86.730469 135.117188 86.1875 134.667969 85.683594 C 134.570312 85.574219 134.578125 85.410156 134.6875 85.3125 C 134.792969 85.21875 134.960938 85.226562 135.054688 85.332031 C 135.519531 85.855469 135.960938 86.414062 136.371094 87 C 136.453125 87.117188 136.425781 87.28125 136.304688 87.363281 C 136.261719 87.394531 136.207031 87.410156 136.15625 87.410156 Z M 132.125 87.640625 C 132.074219 87.640625 132.027344 87.628906 131.984375 87.601562 C 131.863281 87.523438 131.824219 87.363281 131.902344 87.242188 C 132.246094 86.6875 132.578125 86.082031 132.890625 85.429688 C 132.953125 85.300781 133.109375 85.246094 133.238281 85.308594 C 133.367188 85.371094 133.421875 85.527344 133.359375 85.65625 C 133.039062 86.324219 132.699219 86.949219 132.34375 87.515625 C 132.292969 87.597656 132.207031 87.640625 132.125 87.640625 Z M 123.40625 90.601562 C 123.347656 90.601562 123.289062 90.582031 123.242188 90.539062 C 122.882812 90.234375 122.582031 89.851562 122.347656 89.40625 C 122.226562 89.171875 122.121094 88.933594 122.035156 88.699219 C 121.984375 88.5625 122.054688 88.414062 122.1875 88.363281 C 122.324219 88.3125 122.476562 88.382812 122.523438 88.519531 C 122.605469 88.734375 122.699219 88.949219 122.808594 89.164062 C 123.011719 89.550781 123.269531 89.878906 123.578125 90.140625 C 123.6875 90.234375 123.699219 90.398438 123.609375 90.507812 C 123.558594 90.570312 123.484375 90.601562 123.40625 90.601562 Z M 129.332031 90.710938 C 129.25 90.710938 129.164062 90.667969 129.113281 90.589844 C 129.035156 90.46875 129.070312 90.304688 129.191406 90.226562 C 129.695312 89.90625 130.199219 89.453125 130.691406 88.890625 C 130.789062 88.78125 130.953125 88.769531 131.058594 88.867188 C 131.167969 88.960938 131.179688 89.125 131.085938 89.234375 C 130.558594 89.835938 130.015625 90.316406 129.472656 90.667969 C 129.429688 90.695312 129.382812 90.710938 129.332031 90.710938 Z M 138.136719 91.085938 C 138.035156 91.085938 137.933594 91.023438 137.894531 90.917969 C 137.648438 90.292969 137.355469 89.664062 137.027344 89.050781 C 136.957031 88.925781 137.003906 88.765625 137.132812 88.699219 C 137.257812 88.628906 137.414062 88.675781 137.484375 88.800781 C 137.824219 89.433594 138.128906 90.082031 138.382812 90.726562 C 138.433594 90.863281 138.367188 91.015625 138.234375 91.066406 C 138.203125 91.078125 138.167969 91.085938 138.136719 91.085938 Z M 126.195312 91.480469 C 125.871094 91.480469 125.554688 91.457031 125.261719 91.414062 C 125.121094 91.390625 125.023438 91.257812 125.042969 91.113281 C 125.066406 90.972656 125.199219 90.875 125.339844 90.894531 C 125.925781 90.984375 126.601562 90.976562 127.34375 90.871094 C 127.488281 90.847656 127.621094 90.949219 127.640625 91.089844 C 127.660156 91.234375 127.5625 91.367188 127.417969 91.386719 C 126.988281 91.449219 126.578125 91.480469 126.195312 91.480469 Z M 139.175781 95.128906 C 139.050781 95.128906 138.9375 95.039062 138.917969 94.910156 C 138.8125 94.242188 138.679688 93.558594 138.515625 92.878906 C 138.480469 92.738281 138.566406 92.597656 138.707031 92.5625 C 138.847656 92.527344 138.988281 92.613281 139.023438 92.757812 C 139.1875 93.449219 139.328125 94.148438 139.433594 94.828125 C 139.457031 94.972656 139.359375 95.105469 139.214844 95.125 C 139.203125 95.128906 139.1875 95.128906 139.175781 95.128906 Z M 139.4375 99.300781 C 139.433594 99.300781 139.429688 99.300781 139.425781 99.300781 C 139.28125 99.296875 139.171875 99.175781 139.175781 99.03125 C 139.183594 98.796875 139.1875 98.558594 139.1875 98.316406 C 139.1875 97.871094 139.171875 97.417969 139.144531 96.964844 C 139.136719 96.820312 139.242188 96.695312 139.386719 96.6875 C 139.539062 96.675781 139.65625 96.789062 139.664062 96.929688 C 139.695312 97.394531 139.710938 97.859375 139.710938 98.316406 C 139.710938 98.5625 139.703125 98.808594 139.695312 99.046875 C 139.691406 99.1875 139.574219 99.300781 139.4375 99.300781 Z M 138.863281 103.433594 C 138.839844 103.433594 138.820312 103.429688 138.796875 103.425781 C 138.660156 103.390625 138.574219 103.246094 138.609375 103.109375 C 138.773438 102.445312 138.902344 101.761719 139 101.082031 C 139.019531 100.941406 139.152344 100.839844 139.292969 100.859375 C 139.433594 100.878906 139.535156 101.011719 139.515625 101.15625 C 139.417969 101.851562 139.285156 102.554688 139.113281 103.234375 C 139.085938 103.351562 138.976562 103.433594 138.863281 103.433594 Z M 137.4375 107.355469 C 137.398438 107.355469 137.359375 107.34375 137.320312 107.328125 C 137.191406 107.265625 137.136719 107.109375 137.199219 106.976562 C 137.5 106.355469 137.773438 105.71875 138.003906 105.078125 C 138.054688 104.941406 138.203125 104.875 138.339844 104.921875 C 138.476562 104.972656 138.542969 105.121094 138.496094 105.257812 C 138.257812 105.914062 137.980469 106.570312 137.671875 107.207031 C 137.625 107.300781 137.53125 107.355469 137.4375 107.355469 Z M 135.269531 110.921875 C 135.21875 110.921875 135.164062 110.90625 135.117188 110.871094 C 135 110.785156 134.976562 110.621094 135.0625 110.503906 C 135.476562 109.945312 135.863281 109.367188 136.210938 108.789062 C 136.289062 108.667969 136.449219 108.628906 136.570312 108.703125 C 136.695312 108.777344 136.734375 108.941406 136.660156 109.0625 C 136.296875 109.652344 135.902344 110.242188 135.480469 110.816406 C 135.429688 110.886719 135.351562 110.921875 135.269531 110.921875 Z M 132.539062 114.078125 C 132.472656 114.078125 132.402344 114.050781 132.351562 114 C 132.25 113.898438 132.253906 113.734375 132.355469 113.632812 C 132.847656 113.136719 133.324219 112.628906 133.769531 112.117188 C 133.863281 112.011719 134.027344 112 134.136719 112.09375 C 134.246094 112.1875 134.257812 112.351562 134.160156 112.460938 C 133.710938 112.980469 133.226562 113.5 132.722656 114 C 132.671875 114.054688 132.605469 114.078125 132.539062 114.078125 Z M 129.398438 116.832031 C 129.320312 116.832031 129.242188 116.796875 129.191406 116.730469 C 129.101562 116.617188 129.121094 116.449219 129.238281 116.363281 C 129.792969 115.933594 130.328125 115.488281 130.839844 115.042969 C 130.949219 114.949219 131.113281 114.960938 131.207031 115.070312 C 131.300781 115.179688 131.289062 115.34375 131.179688 115.4375 C 130.664062 115.890625 130.117188 116.339844 129.554688 116.777344 C 129.507812 116.8125 129.453125 116.832031 129.398438 116.832031 Z M 125.96875 119.21875 C 125.882812 119.21875 125.796875 119.171875 125.746094 119.09375 C 125.671875 118.972656 125.707031 118.808594 125.832031 118.734375 C 126.425781 118.359375 127.007812 117.976562 127.566406 117.589844 C 127.683594 117.507812 127.84375 117.539062 127.925781 117.65625 C 128.011719 117.773438 127.980469 117.9375 127.863281 118.019531 C 127.300781 118.410156 126.707031 118.800781 126.105469 119.175781 C 126.066406 119.203125 126.015625 119.21875 125.96875 119.21875 Z M 122.335938 121.28125 C 122.242188 121.28125 122.152344 121.230469 122.105469 121.140625 C 122.039062 121.011719 122.089844 120.855469 122.21875 120.789062 C 122.839844 120.464844 123.453125 120.132812 124.046875 119.796875 C 124.171875 119.726562 124.332031 119.769531 124.402344 119.898438 C 124.472656 120.023438 124.429688 120.183594 124.304688 120.253906 C 123.707031 120.59375 123.085938 120.929688 122.457031 121.253906 C 122.417969 121.273438 122.378906 121.28125 122.335938 121.28125 Z M 118.554688 123.058594 C 118.453125 123.058594 118.355469 123 118.3125 122.902344 C 118.257812 122.765625 118.320312 122.613281 118.453125 122.558594 C 119.089844 122.285156 119.730469 122 120.351562 121.707031 C 120.480469 121.644531 120.636719 121.699219 120.699219 121.832031 C 120.757812 121.964844 120.703125 122.117188 120.570312 122.179688 C 119.945312 122.472656 119.300781 122.761719 118.65625 123.039062 C 118.621094 123.050781 118.589844 123.058594 118.554688 123.058594 Z M 115.097656 124.417969 C 114.992188 124.417969 114.890625 124.351562 114.855469 124.246094 C 114.804688 124.109375 114.875 123.960938 115.011719 123.910156 C 115.515625 123.726562 116.027344 123.539062 116.527344 123.34375 C 116.660156 123.292969 116.8125 123.359375 116.863281 123.492188 C 116.914062 123.628906 116.847656 123.777344 116.714844 123.832031 C 116.210938 124.027344 115.699219 124.21875 115.1875 124.402344 C 115.15625 124.414062 115.128906 124.417969 115.097656 124.417969 " fill-opacity="1" fill-rule="nonzero"/></svg>