<svg xmlns="http://www.w3.org/2000/svg" xmlns:xlink="http://www.w3.org/1999/xlink" width="300" zoomAndPan="magnify" viewBox="0 0 224.87999 225" height="300" preserveAspectRatio="xMidYMid meet" version="1.0"><defs><clipPath id="2347d527c4"><path d="M 4 45 L 224.761719 45 L 224.761719 221 L 4 221 Z M 4 45 " clip-rule="nonzero"/></clipPath><clipPath id="bd3d5b717b"><path d="M 224.871094 46.097656 L 152.5625 254.277344 L -34.375 189.347656 L 37.933594 -18.835938 Z M 224.871094 46.097656 " clip-rule="nonzero"/></clipPath><clipPath id="cfd1918e66"><path d="M 224.871094 46.097656 L 152.5625 254.277344 L -34.375 189.347656 L 37.933594 -18.835938 Z M 224.871094 46.097656 " clip-rule="nonzero"/></clipPath><clipPath id="9da6ef495b"><path d="M 224.871094 46.097656 L 152.5625 254.277344 L -34.375 189.347656 L 37.933594 -18.835938 Z M 224.871094 46.097656 " clip-rule="nonzero"/></clipPath><clipPath id="3435040e75"><path d="M 4 108 L 43 108 L 43 139 L 4 139 Z M 4 108 " clip-rule="nonzero"/></clipPath><clipPath id="13904f8fd5"><path d="M 224.871094 46.097656 L 152.5625 254.277344 L -34.375 189.347656 L 37.933594 -18.835938 Z M 224.871094 46.097656 " clip-rule="nonzero"/></clipPath><clipPath id="231679dc6a"><path d="M 224.871094 46.097656 L 152.5625 254.277344 L -34.375 189.347656 L 37.933594 -18.835938 Z M 224.871094 46.097656 " clip-rule="nonzero"/></clipPath><clipPath id="e749c9c658"><path d="M 224.871094 46.097656 L 152.5625 254.277344 L -34.375 189.347656 L 37.933594 -18.835938 Z M 224.871094 46.097656 " clip-rule="nonzero"/></clipPath><clipPath id="5a122e03a0"><path d="M 4 46 L 224.761719 46 L 224.761719 166 L 4 166 Z M 4 46 " clip-rule="nonzero"/></clipPath><clipPath id="a015513b3c"><path d="M 224.871094 46.097656 L 152.5625 254.277344 L -34.375 189.347656 L 37.933594 -18.835938 Z M 224.871094 46.097656 " clip-rule="nonzero"/></clipPath><clipPath id="6e3c3768f5"><path d="M 224.871094 46.097656 L 152.5625 254.277344 L -34.375 189.347656 L 37.933594 -18.835938 Z M 224.871094 46.097656 " clip-rule="nonzero"/></clipPath><clipPath id="adfe08914d"><path d="M 224.871094 46.097656 L 152.5625 254.277344 L -34.375 189.347656 L 37.933594 -18.835938 Z M 224.871094 46.097656 " clip-rule="nonzero"/></clipPath></defs><g clip-path="url(#2347d527c4)"><g clip-path="url(#bd3d5b717b)"><g clip-path="url(#cfd1918e66)"><g clip-path="url(#9da6ef495b)"><path fill="#f2f2f2" d="M 224.84375 46.085938 L 15.554688 45.8125 L 33.578125 108.367188 L 4.335938 117.886719 L 51.917969 165.195312 L 56.421875 220.886719 L 224.839844 46.085938 Z M 224.84375 46.085938 " fill-opacity="1" fill-rule="evenodd"/></g></g></g></g><g clip-path="url(#3435040e75)"><g clip-path="url(#13904f8fd5)"><g clip-path="url(#231679dc6a)"><g clip-path="url(#e749c9c658)"><path fill="#000000" d="M 42.191406 138.257812 L 33.578125 108.363281 L 4.335938 117.886719 L 42.191406 138.261719 Z M 42.191406 138.257812 " fill-opacity="0.503" fill-rule="evenodd"/></g></g></g></g><g clip-path="url(#5a122e03a0)"><g clip-path="url(#a015513b3c)"><g clip-path="url(#6e3c3768f5)"><g clip-path="url(#adfe08914d)"><path fill="#000000" d="M 224.84375 46.085938 L 51.917969 165.191406 L 4.335938 117.886719 L 42.195312 138.257812 Z M 224.84375 46.085938 " fill-opacity="0.172" fill-rule="evenodd"/></g></g></g></g></svg>