<svg xmlns="http://www.w3.org/2000/svg" xmlns:xlink="http://www.w3.org/1999/xlink" width="500" zoomAndPan="magnify" viewBox="0 0 375 374.999991" height="500" preserveAspectRatio="xMidYMid meet" version="1.0"><path fill="#caddff" d="M 252.230469 19.609375 C 234.765625 11.71875 201.332031 0.0390625 159.75 4.734375 C 106.398438 10.757812 84.109375 25.285156 59.3125 53.308594 C 6.074219 113.476562 -0.0078125 184.976562 1.632812 262.582031 C 2.8125 318.351562 21.140625 363.714844 70.371094 367.519531 C 166.765625 374.957031 182.171875 327.484375 235.890625 310.984375 C 284.777344 295.96875 305.363281 302.390625 327.09375 288.347656 C 374.242188 257.890625 373.472656 178.277344 350.867188 117.78125 C 342.1875 94.542969 316.132812 48.484375 252.230469 19.609375 " fill-opacity="1" fill-rule="nonzero"/><path fill="#5479f7" d="M 36.757812 72.023438 C 31.808594 72.148438 27.746094 68.144531 27.683594 63.074219 C 27.625 58.007812 31.585938 53.796875 36.535156 53.667969 C 41.484375 53.539062 45.546875 57.542969 45.609375 62.613281 C 45.667969 67.679688 41.707031 71.894531 36.757812 72.023438 Z M 54.675781 64.160156 L 54.632812 60.59375 L 50.914062 59.835938 C 50.761719 59.015625 50.542969 58.214844 50.261719 57.453125 L 53.019531 54.742188 L 51.242188 51.699219 L 47.625 52.953125 C 47.09375 52.332031 46.515625 51.757812 45.890625 51.238281 L 46.976562 47.492188 L 43.941406 45.789062 L 41.398438 48.710938 C 40.640625 48.457031 39.855469 48.261719 39.046875 48.136719 L 38.164062 44.359375 L 34.683594 44.449219 L 33.894531 48.265625 C 33.089844 48.4375 32.308594 48.667969 31.558594 48.96875 L 28.945312 46.175781 L 25.953125 48.039062 L 27.128906 51.726562 C 26.519531 52.277344 25.953125 52.878906 25.4375 53.523438 L 21.792969 52.460938 L 20.089844 55.59375 L 22.910156 58.160156 C 22.648438 58.9375 22.449219 59.746094 22.316406 60.574219 L 18.617188 61.527344 L 18.660156 65.09375 L 22.378906 65.851562 C 22.535156 66.675781 22.75 67.472656 23.03125 68.238281 L 20.273438 70.945312 L 22.050781 73.988281 L 25.667969 72.738281 C 26.199219 73.355469 26.777344 73.929688 27.402344 74.449219 L 26.316406 78.195312 L 29.351562 79.902344 L 31.894531 76.976562 C 32.652344 77.234375 33.4375 77.429688 34.246094 77.554688 L 35.128906 81.332031 L 38.609375 81.238281 L 39.398438 77.421875 C 40.203125 77.253906 40.984375 77.019531 41.734375 76.722656 L 44.347656 79.511719 L 47.339844 77.652344 L 46.164062 73.964844 C 46.777344 73.410156 47.339844 72.808594 47.855469 72.164062 L 51.5 73.226562 L 53.207031 70.09375 L 50.382812 67.53125 C 50.644531 66.75 50.84375 65.941406 50.980469 65.113281 L 54.675781 64.160156 " fill-opacity="1" fill-rule="nonzero"/><path fill="#5479f7" d="M 76.613281 51.40625 C 70.042969 53.253906 63.257812 49.28125 61.460938 42.53125 C 59.660156 35.777344 63.527344 28.808594 70.097656 26.957031 C 76.667969 25.109375 83.453125 29.082031 85.25 35.835938 C 87.050781 42.585938 83.183594 49.558594 76.613281 51.40625 Z M 97.894531 34.832031 L 96.628906 30.082031 L 91.402344 30.328125 C 90.917969 29.28125 90.355469 28.289062 89.71875 27.363281 L 92.488281 22.808594 L 89.082031 19.34375 L 84.671875 22.242188 C 83.753906 21.59375 82.785156 21.027344 81.777344 20.546875 L 81.957031 15.167969 L 77.324219 13.921875 L 74.917969 18.6875 C 73.816406 18.601562 72.703125 18.609375 71.578125 18.714844 L 69.121094 13.96875 L 64.5 15.269531 L 64.738281 20.640625 C 63.71875 21.136719 62.753906 21.714844 61.851562 22.367188 L 57.417969 19.523438 L 54.050781 23.019531 L 56.871094 27.554688 C 56.242188 28.496094 55.6875 29.492188 55.21875 30.53125 L 49.988281 30.34375 L 48.773438 35.105469 L 53.414062 37.578125 C 53.328125 38.707031 53.335938 39.855469 53.4375 41.007812 L 48.820312 43.535156 L 50.082031 48.285156 L 55.3125 48.039062 C 55.796875 49.085938 56.355469 50.074219 56.992188 51.003906 L 54.222656 55.558594 L 57.628906 59.019531 L 62.039062 56.125 C 62.957031 56.769531 63.925781 57.335938 64.933594 57.820312 L 64.753906 63.195312 L 69.390625 64.445312 L 71.792969 59.675781 C 72.894531 59.765625 74.007812 59.753906 75.132812 59.652344 L 77.589844 64.398438 L 82.210938 63.097656 L 81.972656 57.726562 C 82.992188 57.230469 83.957031 56.652344 84.859375 56 L 89.292969 58.84375 L 92.660156 55.34375 L 89.839844 50.8125 C 90.46875 49.871094 91.023438 48.871094 91.492188 47.835938 L 96.722656 48.019531 L 97.9375 43.257812 L 93.296875 40.785156 C 93.382812 39.65625 93.375 38.511719 93.273438 37.359375 L 97.894531 34.832031 " fill-opacity="1" fill-rule="nonzero"/><path fill="#ffffff" d="M 26.816406 295.171875 L 22.070312 320.171875 L 33.121094 317.519531 L 35.898438 314.59375 C 35.898438 314.59375 32.230469 312.933594 35.488281 304.921875 L 39.515625 296.277344 L 26.816406 295.171875 " fill-opacity="1" fill-rule="nonzero"/><path fill="#000000" d="M 27.355469 295.878906 L 22.910156 319.292969 L 32.773438 316.925781 L 34.910156 314.679688 C 33.863281 313.667969 32.316406 310.96875 34.875 304.675781 L 38.519531 296.851562 Z M 22.070312 320.832031 C 21.902344 320.832031 21.738281 320.765625 21.613281 320.648438 C 21.453125 320.492188 21.378906 320.269531 21.421875 320.046875 L 26.167969 295.046875 C 26.230469 294.714844 26.535156 294.480469 26.875 294.511719 L 39.574219 295.617188 C 39.789062 295.636719 39.980469 295.757812 40.089844 295.945312 C 40.195312 296.128906 40.207031 296.359375 40.113281 296.554688 L 36.085938 305.203125 C 33.160156 312.398438 36.152344 313.984375 36.179688 314 C 36.371094 314.089844 36.507812 314.269531 36.542969 314.476562 C 36.582031 314.683594 36.523438 314.898438 36.378906 315.050781 L 33.597656 317.976562 C 33.511719 318.066406 33.398438 318.132812 33.273438 318.164062 L 22.222656 320.8125 C 22.171875 320.824219 22.121094 320.832031 22.070312 320.832031 " fill-opacity="1" fill-rule="nonzero"/><path fill="#5479f7" d="M 21.277344 311.953125 C 20.425781 314.003906 18.917969 317.820312 17.960938 321.34375 C 17.359375 323.554688 18.773438 325.402344 20.644531 326.710938 C 24.457031 329.375 28.980469 330.894531 34.160156 332.285156 C 38.6875 333.496094 43.695312 334.695312 49.445312 335.320312 C 51.007812 335.488281 54.34375 335.320312 56.050781 333.621094 C 61.195312 328.488281 47.699219 322.273438 35.910156 313.863281 C 35.449219 313.535156 34.839844 313.5 34.347656 313.78125 L 32.578125 314.789062 C 30.808594 315.796875 28.613281 315.644531 27.003906 314.398438 L 23.191406 311.441406 C 22.542969 310.9375 21.59375 311.191406 21.277344 311.953125 " fill-opacity="1" fill-rule="nonzero"/><path fill="#000000" d="M 21.886719 312.207031 C 21.066406 314.179688 19.550781 318.007812 18.597656 321.515625 C 18.039062 323.570312 19.605469 325.179688 21.023438 326.167969 C 24.703125 328.742188 29.003906 330.21875 34.332031 331.644531 C 38.582031 332.785156 43.710938 334.035156 49.519531 334.664062 C 51.167969 334.839844 54.144531 334.585938 55.582031 333.152344 C 56.28125 332.453125 56.582031 331.746094 56.503906 330.984375 C 56.1875 327.980469 50.140625 324.058594 43.738281 319.90625 C 41.046875 318.15625 38.261719 316.351562 35.527344 314.402344 C 35.273438 314.222656 34.9375 314.203125 34.671875 314.355469 L 32.902344 315.363281 C 30.898438 316.507812 28.421875 316.332031 26.601562 314.921875 L 22.785156 311.960938 C 22.640625 311.851562 22.457031 311.8125 22.28125 311.859375 C 22.101562 311.90625 21.957031 312.035156 21.886719 312.207031 Z M 50.476562 336.03125 C 50.054688 336.03125 49.683594 336.007812 49.375 335.976562 C 43.480469 335.335938 38.289062 334.074219 33.988281 332.921875 C 29.265625 331.65625 24.332031 330.089844 20.265625 327.25 C 17.773438 325.511719 16.730469 323.351562 17.324219 321.167969 C 18.296875 317.589844 19.835938 313.699219 20.664062 311.703125 C 20.898438 311.144531 21.363281 310.738281 21.945312 310.582031 C 22.523438 310.429688 23.125 310.554688 23.59375 310.917969 L 27.410156 313.875 C 28.808594 314.960938 30.707031 315.09375 32.25 314.214844 L 34.019531 313.210938 C 34.730469 312.804688 35.625 312.847656 36.292969 313.328125 C 39.003906 315.257812 41.777344 317.058594 44.457031 318.796875 C 51.707031 323.503906 57.433594 327.214844 57.816406 330.847656 C 57.9375 332.015625 57.5 333.105469 56.515625 334.089844 C 54.96875 335.628906 52.300781 336.03125 50.476562 336.03125 " fill-opacity="1" fill-rule="nonzero"/><path fill="#ffffff" d="M 18.507812 319.671875 C 18.507812 319.671875 18.007812 321.171875 17.960938 321.34375 C 17.808594 321.894531 17.808594 322.484375 17.890625 323.058594 C 18.152344 324.90625 19.355469 326.492188 21.003906 327.367188 C 21.402344 327.578125 21.9375 327.839844 22.554688 328.128906 C 28.945312 331.132812 35.714844 333.253906 42.667969 334.507812 C 46.195312 335.144531 53.933594 336.292969 56.050781 333.621094 C 56.703125 332.796875 56.660156 330.960938 56.660156 330.960938 C 56.660156 330.960938 55.394531 332.4375 49.847656 331.65625 C 40.472656 330.335938 33.535156 327.664062 25.109375 324.507812 C 23.449219 323.886719 22.226562 323.222656 20.914062 322.378906 C 19.878906 321.714844 19.042969 320.78125 18.507812 319.671875 " fill-opacity="1" fill-rule="nonzero"/><path fill="#000000" d="M 18.691406 321.222656 C 18.640625 321.375 18.605469 321.480469 18.597656 321.515625 C 18.484375 321.933594 18.464844 322.421875 18.542969 322.964844 C 18.769531 324.558594 19.808594 325.984375 21.3125 326.78125 C 21.683594 326.976562 22.195312 327.226562 22.835938 327.53125 C 29.085938 330.46875 35.796875 332.597656 42.785156 333.859375 C 52.09375 335.539062 54.765625 334.171875 55.53125 333.210938 C 55.722656 332.96875 55.84375 332.542969 55.914062 332.105469 C 54.84375 332.476562 52.957031 332.761719 49.753906 332.308594 C 40.613281 331.023438 33.699219 328.433594 25.691406 325.433594 L 24.878906 325.128906 C 23.347656 324.554688 22.09375 323.921875 20.558594 322.933594 C 19.835938 322.472656 19.207031 321.890625 18.691406 321.222656 Z M 50.167969 335.964844 C 48.078125 335.964844 45.539062 335.699219 42.550781 335.160156 C 35.449219 333.875 28.628906 331.710938 22.273438 328.726562 C 21.613281 328.414062 21.082031 328.152344 20.695312 327.949219 C 18.816406 326.953125 17.523438 325.160156 17.238281 323.152344 C 17.132812 322.429688 17.160156 321.761719 17.324219 321.167969 C 17.371094 320.992188 17.761719 319.816406 17.882812 319.460938 C 17.964844 319.207031 18.199219 319.027344 18.464844 319.011719 C 18.738281 318.996094 18.984375 319.140625 19.101562 319.382812 C 19.582031 320.378906 20.332031 321.222656 21.269531 321.824219 C 22.722656 322.753906 23.902344 323.351562 25.339844 323.890625 L 26.152344 324.195312 C 34.085938 327.167969 40.941406 329.734375 49.9375 331 C 54.894531 331.699219 56.167969 330.519531 56.179688 330.507812 C 56.355469 330.300781 56.632812 330.234375 56.894531 330.328125 C 57.148438 330.417969 57.316406 330.671875 57.320312 330.945312 C 57.324219 331.15625 57.347656 333.046875 56.566406 334.03125 C 55.542969 335.320312 53.398438 335.964844 50.167969 335.964844 " fill-opacity="1" fill-rule="nonzero"/><path fill="#000000" d="M 36.976562 322.761719 C 36.75 322.761719 36.53125 322.644531 36.40625 322.433594 C 36.222656 322.121094 36.324219 321.714844 36.640625 321.53125 L 42.433594 318.105469 C 42.746094 317.917969 43.152344 318.023438 43.335938 318.335938 C 43.523438 318.648438 43.417969 319.054688 43.105469 319.242188 L 37.3125 322.667969 C 37.207031 322.730469 37.089844 322.761719 36.976562 322.761719 " fill-opacity="1" fill-rule="nonzero"/><path fill="#000000" d="M 41.363281 324.414062 C 41.140625 324.414062 40.925781 324.300781 40.800781 324.097656 C 40.609375 323.785156 40.707031 323.378906 41.015625 323.191406 L 45.683594 320.308594 C 45.992188 320.117188 46.398438 320.210938 46.589844 320.523438 C 46.78125 320.835938 46.6875 321.242188 46.375 321.433594 L 41.710938 324.3125 C 41.601562 324.378906 41.480469 324.414062 41.363281 324.414062 " fill-opacity="1" fill-rule="nonzero"/><path fill="#ffffff" d="M 15.855469 285.835938 C 18.894531 282.40625 23.023438 279.558594 27.589844 279.964844 L 36.257812 281.765625 L 33.722656 270.195312 L 16.164062 269.980469 L 15.855469 285.835938 " fill-opacity="1" fill-rule="nonzero"/><path fill="#000000" d="M 16.8125 270.648438 L 16.546875 284.144531 C 20.058594 280.6875 23.953125 278.980469 27.648438 279.308594 C 27.671875 279.3125 27.699219 279.316406 27.722656 279.320312 L 35.394531 280.910156 L 33.191406 270.847656 Z M 15.855469 286.5 C 15.773438 286.5 15.691406 286.484375 15.613281 286.453125 C 15.355469 286.351562 15.1875 286.101562 15.195312 285.824219 L 15.507812 269.96875 C 15.515625 269.605469 15.808594 269.320312 16.167969 269.320312 C 16.167969 269.320312 16.171875 269.320312 16.175781 269.320312 L 33.730469 269.535156 C 34.039062 269.539062 34.300781 269.753906 34.367188 270.054688 L 36.902344 281.625 C 36.949219 281.839844 36.882812 282.070312 36.726562 282.230469 C 36.570312 282.386719 36.339844 282.457031 36.121094 282.414062 L 27.492188 280.621094 C 22.535156 280.203125 18.382812 283.980469 16.347656 286.273438 C 16.21875 286.421875 16.039062 286.5 15.855469 286.5 " fill-opacity="1" fill-rule="nonzero"/><path fill="#5479f7" d="M 16.867188 269.132812 C 14.648438 269.144531 10.546875 269.242188 6.929688 269.730469 C 4.65625 270.035156 2.992188 272.011719 3.03125 274.292969 C 3.140625 280.738281 4.355469 295.21875 7.261719 307.28125 C 7.460938 308.105469 8.292969 309.496094 10.453125 309.597656 C 17.710938 309.945312 17.648438 297.488281 20.804688 283.355469 C 20.929688 282.800781 20.722656 282.226562 20.273438 281.878906 L 18.65625 280.644531 C 17.039062 279.40625 16.324219 277.324219 16.847656 275.359375 L 18.085938 270.695312 C 18.296875 269.898438 17.691406 269.125 16.867188 269.132812 " fill-opacity="1" fill-rule="nonzero"/><path fill="#000000" d="M 16.867188 269.132812 L 16.871094 269.132812 Z M 16.871094 269.789062 C 14.738281 269.804688 10.625 269.898438 7.019531 270.386719 C 5.089844 270.644531 3.65625 272.320312 3.691406 274.28125 C 3.804688 280.9375 5.023438 295.175781 7.902344 307.125 C 7.972656 307.410156 8.421875 308.839844 10.484375 308.941406 C 15.453125 309.171875 16.664062 302.289062 18.332031 292.757812 C 18.867188 289.699219 19.417969 286.539062 20.160156 283.210938 C 20.230469 282.910156 20.117188 282.59375 19.871094 282.40625 L 18.253906 281.167969 C 16.421875 279.765625 15.617188 277.417969 16.207031 275.191406 L 17.445312 270.523438 C 17.492188 270.347656 17.457031 270.164062 17.34375 270.019531 C 17.230469 269.875 17.074219 269.796875 16.871094 269.789062 Z M 10.757812 310.265625 C 10.644531 310.265625 10.535156 310.261719 10.421875 310.257812 C 8.09375 310.144531 6.917969 308.667969 6.621094 307.433594 C 3.714844 295.382812 2.488281 281.019531 2.371094 274.304688 C 2.324219 271.671875 4.246094 269.429688 6.839844 269.078125 C 10.523438 268.578125 14.699219 268.484375 16.863281 268.46875 C 16.867188 268.46875 16.871094 268.46875 16.875 268.46875 C 17.472656 268.46875 18.023438 268.738281 18.390625 269.210938 C 18.753906 269.683594 18.875 270.285156 18.722656 270.863281 L 17.484375 275.527344 C 17.03125 277.242188 17.648438 279.042969 19.054688 280.121094 L 20.671875 281.355469 C 21.324219 281.855469 21.628906 282.695312 21.449219 283.5 C 20.714844 286.796875 20.164062 289.941406 19.632812 292.984375 C 17.949219 302.617188 16.609375 310.265625 10.757812 310.265625 " fill-opacity="1" fill-rule="nonzero"/><path fill="#ffffff" d="M 7.472656 269.660156 C 7.472656 269.660156 7.105469 269.707031 6.929688 269.730469 C 4.65625 270.035156 2.992188 272.011719 3.03125 274.292969 C 3.140625 280.738281 4.355469 295.21875 7.261719 307.28125 C 7.460938 308.105469 8.292969 309.496094 10.453125 309.597656 C 11.117188 309.628906 12.265625 309.382812 12.265625 309.382812 L 12.09375 308.519531 C 9.671875 296.257812 8.152344 283.835938 7.554688 271.351562 L 7.472656 269.660156 " fill-opacity="1" fill-rule="nonzero"/><path fill="#000000" d="M 6.847656 270.410156 C 5.003906 270.746094 3.660156 272.378906 3.691406 274.28125 C 3.804688 280.9375 5.023438 295.175781 7.902344 307.125 C 7.972656 307.410156 8.421875 308.839844 10.484375 308.941406 C 10.746094 308.953125 11.144531 308.90625 11.488281 308.855469 L 11.445312 308.652344 C 9.023438 296.394531 7.492188 283.855469 6.894531 271.382812 Z M 10.574219 310.261719 C 10.523438 310.261719 10.472656 310.261719 10.421875 310.257812 C 8.09375 310.144531 6.917969 308.667969 6.621094 307.433594 C 3.714844 295.382812 2.488281 281.019531 2.371094 274.304688 C 2.324219 271.671875 4.246094 269.429688 6.839844 269.078125 C 7.019531 269.050781 7.390625 269.003906 7.390625 269.003906 C 7.574219 268.984375 7.757812 269.039062 7.898438 269.15625 C 8.039062 269.273438 8.125 269.445312 8.132812 269.628906 L 8.214844 271.320312 C 8.808594 283.730469 10.332031 296.203125 12.742188 308.394531 L 12.914062 309.253906 C 12.980469 309.609375 12.757812 309.953125 12.40625 310.027344 C 12.285156 310.054688 11.296875 310.261719 10.574219 310.261719 " fill-opacity="1" fill-rule="nonzero"/><path fill="#000000" d="M 19.046875 292.207031 C 18.910156 292.207031 18.773438 292.164062 18.65625 292.074219 L 13.246094 288.074219 C 12.953125 287.855469 12.890625 287.445312 13.105469 287.148438 C 13.324219 286.855469 13.738281 286.796875 14.03125 287.011719 L 19.441406 291.015625 C 19.734375 291.230469 19.796875 291.644531 19.578125 291.9375 C 19.449219 292.113281 19.25 292.207031 19.046875 292.207031 " fill-opacity="1" fill-rule="nonzero"/><path fill="#000000" d="M 18.292969 296.0625 C 18.160156 296.0625 18.027344 296.023438 17.910156 295.941406 L 13.441406 292.765625 C 13.144531 292.554688 13.074219 292.140625 13.285156 291.84375 C 13.496094 291.546875 13.910156 291.476562 14.207031 291.6875 L 18.675781 294.863281 C 18.972656 295.074219 19.042969 295.488281 18.832031 295.785156 C 18.703125 295.96875 18.5 296.0625 18.292969 296.0625 " fill-opacity="1" fill-rule="nonzero"/><path fill="#000000" d="M 82.679688 192.695312 C 82.679688 192.695312 51.421875 186.035156 57.191406 176.316406 C 60.859375 170.136719 81.769531 181.96875 87.796875 185.710938 C 88.828125 186.347656 115.925781 190.257812 115.925781 190.257812 L 105.199219 203.015625 L 82.679688 192.695312 " fill-opacity="1" fill-rule="nonzero"/><path fill="#000000" d="M 114.359375 178.167969 C 114.359375 178.167969 121.195312 223.042969 113.550781 251.511719 C 109.421875 266.894531 64.492188 282.253906 29.039062 283.339844 C 26.859375 283.40625 25.035156 281.707031 24.949219 279.53125 L 24.601562 270.601562 C 24.523438 268.671875 25.84375 266.972656 27.734375 266.570312 C 37.992188 264.390625 69.710938 256.917969 83.265625 245.222656 C 99.550781 231.167969 72.507812 204.1875 72.507812 204.1875 L 72.914062 173.691406 L 114.359375 178.167969 " fill-opacity="1" fill-rule="nonzero"/><path fill="#000000" d="M 67.21875 165.519531 C 67.21875 165.519531 64.644531 173.21875 63.152344 183.230469 C 61.71875 192.871094 58.363281 202.101562 53.359375 210.460938 C 44.25 225.671875 31.472656 261.921875 23.558594 302.851562 C 23.144531 304.984375 24.671875 307.011719 26.839844 307.199219 L 33.871094 307.8125 C 35.328125 307.9375 36.71875 307.1875 37.414062 305.898438 C 44.769531 292.214844 85.574219 216.53125 95.636719 203.019531 C 106.707031 188.152344 113.382812 176.351562 113.382812 176.351562 L 67.21875 165.519531 " fill-opacity="1" fill-rule="nonzero"/><path fill="#caddff" d="M 56.339844 272.367188 C 56.226562 272.367188 56.113281 272.339844 56.011719 272.28125 C 55.695312 272.097656 55.585938 271.695312 55.765625 271.378906 L 66.660156 252.421875 C 66.839844 252.105469 67.246094 251.996094 67.5625 252.179688 C 67.878906 252.359375 67.984375 252.765625 67.804688 253.078125 L 56.910156 272.039062 C 56.789062 272.25 56.566406 272.367188 56.339844 272.367188 " fill-opacity="1" fill-rule="nonzero"/><path fill="#caddff" d="M 84.964844 221.761719 C 84.851562 221.761719 84.742188 221.734375 84.640625 221.675781 C 84.320312 221.496094 84.210938 221.097656 84.386719 220.777344 L 88.835938 212.902344 C 89.015625 212.582031 89.417969 212.472656 89.734375 212.648438 C 90.050781 212.828125 90.164062 213.230469 89.984375 213.550781 L 85.539062 221.425781 C 85.417969 221.640625 85.195312 221.761719 84.964844 221.761719 " fill-opacity="1" fill-rule="nonzero"/><path fill="#caddff" d="M 61.765625 187.863281 C 61.722656 187.863281 61.679688 187.859375 61.632812 187.851562 C 61.277344 187.78125 61.046875 187.433594 61.117188 187.074219 L 62.527344 179.996094 C 62.597656 179.636719 62.949219 179.40625 63.300781 179.476562 C 63.660156 179.546875 63.890625 179.894531 63.820312 180.253906 L 62.410156 187.332031 C 62.347656 187.648438 62.074219 187.863281 61.765625 187.863281 " fill-opacity="1" fill-rule="nonzero"/><path fill="#ffffff" d="M 125.980469 112.367188 C 125.980469 112.367188 137.226562 125.976562 145.121094 128.164062 C 153.019531 130.347656 171.804688 123.964844 176.566406 120.609375 C 180.363281 117.941406 183.246094 116.65625 186.167969 116.953125 C 193.527344 117.695312 201.203125 125.929688 198.984375 127.59375 C 196.636719 129.355469 191.136719 126.695312 188.269531 125.515625 C 187.671875 125.269531 188.214844 126.519531 188.96875 127.8125 C 189.855469 129.335938 188.070312 131.269531 186.371094 129.300781 L 183.867188 125.910156 C 183.347656 125.207031 182.339844 125.101562 181.6875 125.683594 L 181.28125 126.050781 C 167.855469 139.589844 146.164062 153.605469 129.449219 143.457031 C 110.738281 132.09375 113.882812 127.488281 113.882812 127.488281 L 125.980469 112.367188 " fill-opacity="1" fill-rule="nonzero"/><path fill="#000000" d="M 114.421875 127.867188 C 114.335938 128.066406 112.632812 132.472656 129.789062 142.890625 C 145.375 152.351562 166.363281 140.15625 180.8125 125.589844 L 181.242188 125.195312 C 181.695312 124.789062 182.292969 124.59375 182.894531 124.65625 C 183.496094 124.722656 184.042969 125.035156 184.398438 125.515625 L 186.886719 128.890625 C 187.367188 129.433594 187.863281 129.613281 188.210938 129.359375 C 188.523438 129.140625 188.679688 128.625 188.402344 128.148438 C 187.097656 125.917969 187.257812 125.429688 187.554688 125.085938 C 187.640625 124.988281 187.972656 124.679688 188.519531 124.90625 C 188.824219 125.03125 189.15625 125.171875 189.507812 125.324219 C 192.234375 126.480469 196.792969 128.414062 198.589844 127.066406 C 198.769531 126.929688 198.722656 126.589844 198.648438 126.328125 C 197.9375 123.773438 192.011719 118.207031 186.105469 117.609375 C 183.535156 117.351562 180.886719 118.378906 176.945312 121.148438 C 172.339844 124.394531 153.230469 131.089844 144.945312 128.800781 C 137.824219 126.828125 128.332031 116.140625 125.992188 113.40625 Z M 142.113281 147.605469 C 137.386719 147.605469 133.042969 146.410156 129.105469 144.019531 C 116.933594 136.628906 113.695312 131.925781 113.125 129.285156 C 112.832031 127.945312 113.25 127.242188 113.335938 127.117188 C 113.34375 127.101562 113.355469 127.089844 113.367188 127.074219 L 125.464844 111.953125 C 125.589844 111.796875 125.773438 111.707031 125.972656 111.707031 C 126.183594 111.699219 126.363281 111.789062 126.488281 111.945312 C 126.597656 112.078125 137.691406 125.421875 145.296875 127.527344 C 152.941406 129.640625 171.617188 123.289062 176.1875 120.070312 C 180.414062 117.09375 183.324219 116 186.238281 116.296875 C 192.371094 116.914062 199.003906 122.679688 199.921875 125.976562 C 200.269531 127.230469 199.730469 127.859375 199.382812 128.121094 C 196.988281 129.917969 192.214844 127.90625 189.039062 126.554688 C 189.164062 126.808594 189.328125 127.113281 189.539062 127.480469 C 190.128906 128.492188 189.882812 129.789062 188.980469 130.4375 C 188.265625 130.945312 187.027344 131.070312 185.871094 129.734375 C 185.863281 129.722656 185.851562 129.707031 185.84375 129.695312 L 183.335938 126.300781 C 183.199219 126.113281 182.992188 125.996094 182.761719 125.972656 C 182.523438 125.949219 182.300781 126.019531 182.128906 126.175781 L 181.722656 126.542969 C 177.191406 131.113281 167.898438 139.523438 156.855469 144.242188 C 151.609375 146.484375 146.683594 147.605469 142.113281 147.605469 " fill-opacity="1" fill-rule="nonzero"/><path fill="#5479f7" d="M 92.210938 104.671875 C 92.210938 104.671875 80.140625 110.90625 75.335938 121.382812 C 72.453125 127.667969 72.757812 138.667969 71.617188 144.859375 C 68.578125 161.378906 57.089844 176.351562 57.089844 176.351562 C 57.089844 176.351562 59.117188 173.871094 65.570312 179.210938 C 71.585938 184.183594 77.191406 187.976562 90.125 188.640625 C 101.820312 189.246094 108.894531 188.34375 112.9375 187.382812 C 115.617188 186.746094 117.40625 184.234375 117.113281 181.492188 C 116.683594 177.542969 116.214844 171.371094 116.601562 165.550781 C 117.144531 157.382812 123.421875 142.363281 123.421875 142.363281 C 123.421875 142.363281 139.871094 134.394531 141.511719 124.394531 C 141.511719 124.394531 132.769531 109.375 118.042969 106.875 C 102.742188 104.273438 92.210938 104.671875 92.210938 104.671875 " fill-opacity="1" fill-rule="nonzero"/><path fill="#ffffff" d="M 88.851562 147.109375 C 88.851562 147.109375 101.476562 161.378906 118.066406 161.796875 C 126.925781 162.019531 135.210938 160.011719 140.636719 158.273438 C 143.890625 157.230469 146.9375 155.636719 149.710938 153.640625 C 150.710938 152.921875 151.796875 152.292969 152.601562 152.242188 C 153.875 152.160156 154.679688 152.808594 154.679688 152.808594 L 153.179688 154.429688 C 152.550781 155.113281 153.011719 156.226562 153.941406 156.257812 L 161.433594 156.519531 C 162.605469 156.558594 163.570312 157.550781 163.457031 158.71875 C 163.296875 160.40625 162.167969 163.800781 156.980469 164.742188 C 153.847656 165.3125 147.214844 165.035156 144.378906 164.597656 C 143.574219 164.476562 142.757812 164.675781 142.101562 165.160156 C 138.117188 168.121094 124.828125 176.703125 105.671875 174.542969 C 76.832031 171.296875 68.003906 153.742188 68.003906 153.742188 L 88.851562 147.109375 " fill-opacity="1" fill-rule="nonzero"/><path fill="#000000" d="M 68.988281 154.125 C 70.980469 157.347656 80.851562 171.085938 105.746094 173.886719 C 124.167969 175.964844 137.035156 168.105469 141.710938 164.628906 C 142.503906 164.039062 143.488281 163.796875 144.476562 163.945312 C 147.289062 164.378906 153.871094 164.636719 156.863281 164.089844 C 161.839844 163.1875 162.675781 159.988281 162.800781 158.652344 C 162.835938 158.304688 162.71875 157.960938 162.476562 157.683594 C 162.207031 157.378906 161.820312 157.191406 161.414062 157.179688 L 153.917969 156.917969 C 153.230469 156.894531 152.632812 156.480469 152.367188 155.84375 C 152.101562 155.203125 152.226562 154.492188 152.699219 153.984375 L 153.597656 153.007812 C 153.34375 152.929688 153.023438 152.878906 152.644531 152.902344 C 152.328125 152.921875 151.574219 153.113281 150.097656 154.175781 C 147.179688 156.277344 144.0625 157.867188 140.835938 158.902344 C 135.386719 160.648438 127.015625 162.683594 118.050781 162.457031 C 102.761719 162.070312 90.671875 149.996094 88.65625 147.863281 Z M 111.8125 175.550781 C 109.816406 175.550781 107.746094 175.441406 105.597656 175.199219 C 90.539062 173.503906 80.976562 167.867188 75.601562 163.433594 C 69.75 158.609375 67.507812 154.222656 67.414062 154.039062 C 67.328125 153.867188 67.320312 153.664062 67.394531 153.484375 C 67.472656 153.308594 67.621094 153.171875 67.804688 153.113281 L 88.652344 146.480469 C 88.902344 146.398438 89.175781 146.476562 89.347656 146.671875 C 89.472656 146.8125 101.980469 160.730469 118.082031 161.136719 C 126.867188 161.359375 135.082031 159.359375 140.4375 157.644531 C 143.527344 156.652344 146.519531 155.125 149.324219 153.105469 C 150.671875 152.132812 151.730469 151.636719 152.5625 151.582031 C 154.070312 151.484375 155.054688 152.257812 155.097656 152.292969 C 155.238281 152.410156 155.324219 152.574219 155.339844 152.757812 C 155.355469 152.941406 155.289062 153.121094 155.167969 153.253906 L 153.667969 154.878906 C 153.496094 155.058594 153.554688 155.257812 153.585938 155.335938 C 153.617188 155.410156 153.71875 155.589844 153.964844 155.597656 L 161.457031 155.859375 C 162.230469 155.886719 162.960938 156.234375 163.46875 156.8125 C 163.953125 157.367188 164.183594 158.0625 164.113281 158.777344 C 163.992188 160.054688 163.128906 164.292969 157.097656 165.390625 C 153.929688 165.96875 147.238281 165.707031 144.277344 165.25 C 143.636719 165.15625 143.007812 165.308594 142.496094 165.691406 C 138.242188 168.851562 127.378906 175.550781 111.8125 175.550781 " fill-opacity="1" fill-rule="nonzero"/><path fill="#5479f7" d="M 92.132812 132.035156 C 92.132812 132.035156 86.101562 141.121094 93.683594 147.105469 L 62.863281 156.21875 L 60.792969 142.691406 C 58.253906 125.085938 69.957031 108.371094 87.464844 105.242188 C 89.160156 104.9375 90.875 104.746094 92.582031 104.667969 L 92.132812 132.035156 " fill-opacity="1" fill-rule="nonzero"/><path fill="#000000" d="M 92.023438 147.765625 C 91.820312 147.765625 91.625 147.671875 91.492188 147.5 C 86.886719 141.335938 89.980469 126.125 90.117188 125.484375 C 90.191406 125.125 90.539062 124.898438 90.898438 124.96875 C 91.253906 125.046875 91.484375 125.394531 91.410156 125.753906 C 91.378906 125.902344 88.300781 141.019531 92.550781 146.707031 C 92.769531 147 92.710938 147.414062 92.417969 147.632812 C 92.300781 147.722656 92.160156 147.765625 92.023438 147.765625 " fill-opacity="1" fill-rule="nonzero"/><path fill="#ffffff" d="M 100.398438 105.3125 L 106.46875 88.179688 L 117.3125 94.554688 L 113.648438 105.375 C 113.132812 106.949219 113.738281 108.675781 115.128906 109.578125 L 116.382812 110.394531 C 117.027344 110.8125 116.796875 111.808594 116.03125 111.898438 L 110.132812 112.601562 C 104.480469 113.273438 98.761719 112.066406 93.863281 109.167969 C 93.160156 108.753906 93.324219 107.691406 94.121094 107.511719 C 96.558594 106.964844 100.128906 106.046875 100.398438 105.3125 " fill-opacity="1" fill-rule="nonzero"/><path fill="#000000" d="M 100.398438 105.3125 L 100.402344 105.3125 Z M 106.824219 89.15625 L 101.019531 105.53125 C 101.019531 105.535156 101.019531 105.535156 101.019531 105.539062 C 100.863281 105.957031 100.578125 106.738281 94.265625 108.15625 C 94.128906 108.1875 94.089844 108.292969 94.082031 108.351562 C 94.074219 108.414062 94.074219 108.527344 94.199219 108.601562 C 98.945312 111.410156 104.578125 112.59375 110.054688 111.945312 L 115.953125 111.246094 C 116.027344 111.238281 116.074219 111.195312 116.09375 111.121094 C 116.109375 111.046875 116.085938 110.988281 116.023438 110.945312 L 114.769531 110.132812 C 113.128906 109.066406 112.410156 107.027344 113.019531 105.167969 L 116.515625 94.851562 Z M 107.109375 113.441406 C 102.359375 113.441406 97.628906 112.164062 93.527344 109.738281 C 92.972656 109.40625 92.679688 108.785156 92.777344 108.148438 C 92.878906 107.511719 93.347656 107.011719 93.976562 106.867188 C 98.78125 105.789062 99.65625 105.164062 99.796875 105.035156 L 105.847656 87.960938 C 105.910156 87.773438 106.058594 87.625 106.242188 87.558594 C 106.425781 87.492188 106.632812 87.511719 106.800781 87.609375 L 117.648438 93.984375 C 117.917969 94.144531 118.039062 94.472656 117.9375 94.765625 L 114.273438 105.589844 C 113.851562 106.871094 114.351562 108.285156 115.488281 109.023438 L 116.742188 109.839844 C 117.273438 110.183594 117.523438 110.804688 117.378906 111.417969 C 117.234375 112.039062 116.738281 112.484375 116.109375 112.558594 L 110.210938 113.257812 C 109.179688 113.378906 108.144531 113.441406 107.109375 113.441406 " fill-opacity="1" fill-rule="nonzero"/><path fill="#000000" d="M 132.015625 77.5 C 129.226562 75.859375 131.339844 80.675781 122.28125 72.105469 C 118.675781 68.691406 118.308594 74.738281 117.367188 73.855469 C 113.90625 70.59375 112.941406 69.746094 110.691406 69.246094 C 109.207031 68.917969 105.109375 70.085938 104.644531 72.082031 C 103.128906 78.589844 106.472656 78.382812 105.65625 84.320312 C 105.082031 88.488281 105.527344 90.078125 106.683594 91.324219 C 107.855469 92.582031 109.890625 91.203125 111.273438 92.484375 C 113.058594 94.136719 110.816406 97.53125 112.085938 100.074219 C 112.882812 101.671875 115.636719 103.640625 121.585938 103.769531 C 122.550781 103.792969 123.390625 103.117188 123.585938 102.167969 C 123.835938 100.953125 124.140625 99.414062 124.308594 97.917969 C 125.117188 90.789062 123.675781 88.34375 125.234375 87.191406 C 127.621094 85.425781 131.417969 89.09375 133.152344 87.523438 C 134.953125 85.898438 135.839844 79.753906 132.015625 77.5 " fill-opacity="1" fill-rule="nonzero"/><path fill="#ffffff" d="M 116.753906 82.644531 L 116.796875 84.605469 C 116.816406 85.527344 116.773438 86.449219 116.667969 87.363281 C 116.46875 89.085938 116.242188 92.050781 116.09375 93.714844 C 115.617188 99.070312 123.554688 96.996094 123.554688 96.996094 L 124.554688 95.96875 L 125.441406 96.046875 C 125.609375 96.0625 125.785156 96.042969 125.941406 95.96875 C 126.332031 95.789062 126.539062 95.386719 126.488281 94.988281 C 126.214844 92.800781 125.773438 87.988281 126.609375 84.300781 C 126.609375 84.300781 122.535156 80.679688 116.753906 82.644531 " fill-opacity="1" fill-rule="nonzero"/><path fill="#000000" d="M 117.425781 83.128906 L 117.457031 84.589844 C 117.476562 85.542969 117.433594 86.5 117.324219 87.441406 C 117.179688 88.675781 117.019531 90.597656 116.890625 92.144531 C 116.839844 92.753906 116.792969 93.3125 116.75 93.773438 C 116.660156 94.769531 116.894531 95.484375 117.457031 95.960938 C 118.828125 97.121094 121.921875 96.703125 123.210938 96.402344 L 124.082031 95.507812 C 124.21875 95.367188 124.414062 95.296875 124.613281 95.3125 L 125.496094 95.390625 C 125.566406 95.394531 125.625 95.390625 125.664062 95.371094 C 125.78125 95.316406 125.847656 95.195312 125.832031 95.070312 C 125.53125 92.675781 125.152344 88.203125 125.878906 84.558594 C 124.921875 83.851562 121.742188 81.867188 117.425781 83.128906 Z M 120.402344 98.050781 C 119.0625 98.050781 117.601562 97.808594 116.605469 96.96875 C 115.703125 96.207031 115.308594 95.09375 115.433594 93.65625 C 115.476562 93.199219 115.523438 92.640625 115.574219 92.035156 C 115.703125 90.476562 115.867188 88.546875 116.011719 87.289062 C 116.113281 86.410156 116.15625 85.511719 116.136719 84.621094 L 116.09375 82.660156 C 116.085938 82.371094 116.269531 82.113281 116.542969 82.023438 C 122.617188 79.957031 126.867188 83.648438 127.046875 83.808594 C 127.226562 83.964844 127.304688 84.210938 127.25 84.445312 C 126.425781 88.089844 126.898438 92.972656 127.140625 94.902344 C 127.230469 95.601562 126.859375 96.269531 126.222656 96.570312 C 125.972656 96.683594 125.683594 96.734375 125.382812 96.707031 L 124.808594 96.65625 L 124.027344 97.457031 C 123.941406 97.542969 123.835938 97.605469 123.71875 97.636719 C 123.609375 97.664062 122.101562 98.050781 120.402344 98.050781 " fill-opacity="1" fill-rule="nonzero"/><path fill="#ffffff" d="M 115.195312 88.605469 C 115.195312 88.605469 115.097656 83.894531 112.976562 84.390625 C 110.855469 84.886719 111.089844 90.070312 115.195312 88.605469 " fill-opacity="1" fill-rule="nonzero"/><path fill="#000000" d="M 122.5 92.125 Z M 122.488281 92.105469 C 122.800781 92.292969 123.007812 92.265625 123.132812 92.226562 C 123.402344 92.144531 123.945312 91.789062 124.574219 90.355469 C 124.742188 89.96875 124.992188 89.273438 124.757812 88.992188 C 124.550781 88.738281 124.324219 88.6875 124.210938 88.679688 C 124.066406 88.667969 123.980469 88.710938 123.964844 88.730469 C 122.34375 90.175781 122.285156 91.773438 122.488281 92.105469 Z M 122.949219 93.574219 C 122.546875 93.574219 122.140625 93.449219 121.75 93.203125 C 121.382812 92.972656 121.152344 92.507812 121.101562 91.894531 C 121.011719 90.824219 121.484375 89.175781 123.082031 87.746094 C 123.394531 87.464844 123.839844 87.324219 124.308594 87.359375 C 124.867188 87.402344 125.390625 87.683594 125.777344 88.148438 C 126.304688 88.789062 126.308594 89.683594 125.785156 90.882812 C 125.132812 92.367188 124.394531 93.21875 123.523438 93.488281 C 123.332031 93.546875 123.140625 93.574219 122.949219 93.574219 " fill-opacity="1" fill-rule="nonzero"/><path fill="#000000" d="M 124.527344 88.707031 C 124.453125 88.707031 124.375 88.691406 124.300781 88.664062 L 114.730469 85.1875 C 114.386719 85.0625 114.210938 84.683594 114.335938 84.339844 C 114.460938 84 114.835938 83.820312 115.179688 83.945312 L 124.75 87.425781 C 125.09375 87.546875 125.269531 87.925781 125.144531 88.269531 C 125.050781 88.535156 124.796875 88.707031 124.527344 88.707031 " fill-opacity="1" fill-rule="nonzero"/><path fill="#000000" d="M 126.699219 93.164062 Z M 126.679688 94.484375 C 126.667969 94.484375 126.65625 94.484375 126.648438 94.484375 C 126.285156 94.46875 126 94.160156 126.011719 93.800781 C 126.027344 93.472656 126.273438 93.210938 126.582031 93.171875 C 126.964844 92.976562 128.132812 91.707031 128.058594 90.394531 C 128.050781 90.210938 127.988281 90.136719 127.921875 90.085938 C 127.59375 89.828125 126.777344 89.882812 126.457031 89.945312 C 126.101562 90.015625 125.753906 89.785156 125.679688 89.429688 C 125.609375 89.070312 125.84375 88.722656 126.199219 88.652344 C 126.363281 88.621094 127.839844 88.351562 128.730469 89.042969 C 129.125 89.347656 129.347656 89.789062 129.378906 90.316406 C 129.472656 92.042969 128.292969 93.386719 127.929688 93.757812 C 127.457031 94.242188 127.035156 94.484375 126.679688 94.484375 " fill-opacity="1" fill-rule="nonzero"/><path fill="#5479f7" d="M 314.539062 222.699219 L 210.464844 283.230469 L 106.472656 222.625 L 211.644531 161.367188 L 314.539062 222.699219 " fill-opacity="1" fill-rule="nonzero"/><path fill="#000000" d="M 107.785156 222.625 L 210.460938 282.464844 L 313.238281 222.695312 L 211.636719 162.132812 Z M 210.460938 283.890625 C 210.347656 283.890625 210.234375 283.859375 210.128906 283.800781 L 106.140625 223.195312 C 105.9375 223.078125 105.8125 222.859375 105.8125 222.625 C 105.8125 222.390625 105.9375 222.171875 106.140625 222.054688 L 211.308594 160.796875 C 211.515625 160.675781 211.773438 160.675781 211.980469 160.800781 L 314.878906 222.132812 C 315.078125 222.253906 315.203125 222.472656 315.199219 222.703125 C 315.199219 222.9375 315.074219 223.15625 314.871094 223.273438 L 210.792969 283.800781 C 210.691406 283.859375 210.578125 283.890625 210.460938 283.890625 " fill-opacity="1" fill-rule="nonzero"/><path fill="#99b9ff" d="M 210.367188 369.035156 L 210.367188 283.347656 L 314.539062 222.699219 L 314.539062 308.386719 L 210.367188 369.035156 " fill-opacity="1" fill-rule="nonzero"/><path fill="#000000" d="M 211.03125 283.726562 L 211.03125 367.886719 L 313.882812 308.007812 L 313.882812 223.847656 Z M 210.371094 369.695312 C 210.257812 369.695312 210.140625 369.667969 210.039062 369.605469 C 209.835938 369.488281 209.707031 369.273438 209.707031 369.035156 L 209.707031 283.347656 C 209.707031 283.113281 209.835938 282.894531 210.039062 282.777344 L 314.210938 222.128906 C 314.414062 222.011719 314.664062 222.011719 314.871094 222.128906 C 315.078125 222.246094 315.203125 222.464844 315.203125 222.699219 L 315.203125 308.386719 C 315.203125 308.621094 315.078125 308.839844 314.875 308.960938 L 210.703125 369.605469 C 210.597656 369.667969 210.480469 369.695312 210.371094 369.695312 " fill-opacity="1" fill-rule="nonzero"/><path fill="#ffffff" d="M 210.308594 368.902344 L 210.308594 283.21875 L 106.433594 222.714844 L 106.433594 308.398438 L 210.308594 368.902344 " fill-opacity="1" fill-rule="nonzero"/><path fill="#000000" d="M 107.09375 308.019531 L 209.648438 367.753906 L 209.648438 283.597656 L 107.09375 223.863281 Z M 210.308594 369.566406 C 210.195312 369.566406 210.078125 369.535156 209.976562 369.476562 L 106.101562 308.972656 C 105.898438 308.851562 105.773438 308.636719 105.773438 308.398438 L 105.773438 222.714844 C 105.773438 222.476562 105.902344 222.257812 106.105469 222.140625 C 106.3125 222.023438 106.5625 222.023438 106.765625 222.144531 L 210.640625 282.648438 C 210.84375 282.765625 210.96875 282.984375 210.96875 283.21875 L 210.96875 368.902344 C 210.96875 369.140625 210.84375 369.359375 210.636719 369.476562 C 210.535156 369.535156 210.421875 369.566406 210.308594 369.566406 " fill-opacity="1" fill-rule="nonzero"/><path fill="#000000" d="M 209.699219 326.679688 C 209.585938 326.679688 209.472656 326.652344 209.367188 326.589844 L 106.128906 266.527344 C 105.8125 266.347656 105.707031 265.941406 105.886719 265.625 C 106.070312 265.3125 106.476562 265.203125 106.789062 265.386719 L 210.03125 325.449219 C 210.347656 325.632812 210.453125 326.035156 210.269531 326.351562 C 210.148438 326.5625 209.925781 326.679688 209.699219 326.679688 " fill-opacity="1" fill-rule="nonzero"/><path fill="#000000" d="M 173.335938 347.113281 C 172.972656 347.113281 172.675781 346.820312 172.675781 346.453125 L 172.675781 262.375 C 172.675781 262.011719 172.972656 261.714844 173.335938 261.714844 C 173.699219 261.714844 173.996094 262.011719 173.996094 262.375 L 173.996094 346.453125 C 173.996094 346.820312 173.699219 347.113281 173.335938 347.113281 " fill-opacity="1" fill-rule="nonzero"/><path fill="#000000" d="M 138.125 326.867188 C 137.761719 326.867188 137.464844 326.570312 137.464844 326.207031 L 137.464844 242.566406 C 137.464844 242.203125 137.761719 241.90625 138.125 241.90625 C 138.488281 241.90625 138.785156 242.203125 138.785156 242.566406 L 138.785156 326.207031 C 138.785156 326.570312 138.488281 326.867188 138.125 326.867188 " fill-opacity="1" fill-rule="nonzero"/><path fill="#000000" d="M 211.28125 326.679688 C 211.050781 326.679688 210.832031 326.5625 210.707031 326.351562 C 210.523438 326.035156 210.632812 325.632812 210.945312 325.449219 L 314.121094 265.324219 C 314.433594 265.140625 314.835938 265.246094 315.019531 265.5625 C 315.207031 265.878906 315.097656 266.28125 314.78125 266.464844 L 211.609375 326.589844 C 211.503906 326.652344 211.394531 326.679688 211.28125 326.679688 " fill-opacity="1" fill-rule="nonzero"/><path fill="#000000" d="M 247.71875 347.113281 C 247.355469 347.113281 247.058594 346.820312 247.058594 346.453125 L 247.058594 262.375 C 247.058594 262.011719 247.355469 261.714844 247.71875 261.714844 C 248.085938 261.714844 248.382812 262.011719 248.382812 262.375 L 248.382812 346.453125 C 248.382812 346.820312 248.085938 347.113281 247.71875 347.113281 " fill-opacity="1" fill-rule="nonzero"/><path fill="#000000" d="M 282.933594 326.867188 C 282.570312 326.867188 282.273438 326.570312 282.273438 326.207031 L 282.273438 241.171875 C 282.273438 240.808594 282.570312 240.515625 282.933594 240.515625 C 283.296875 240.515625 283.59375 240.808594 283.59375 241.171875 L 283.59375 326.207031 C 283.59375 326.570312 283.296875 326.867188 282.933594 326.867188 " fill-opacity="1" fill-rule="nonzero"/><path fill="#5479f7" d="M 313.496094 165.996094 L 239.242188 240.257812 L 110.554688 197.257812 L 184.257812 123.546875 L 313.496094 165.996094 " fill-opacity="1" fill-rule="nonzero"/><path fill="#000000" d="M 111.773438 196.972656 L 239.066406 239.5 L 312.269531 166.289062 L 184.4375 124.300781 Z M 239.246094 240.917969 C 239.175781 240.917969 239.105469 240.90625 239.035156 240.882812 L 110.34375 197.886719 C 110.128906 197.816406 109.964844 197.632812 109.910156 197.414062 C 109.859375 197.191406 109.925781 196.957031 110.085938 196.792969 L 183.789062 123.082031 C 183.964844 122.902344 184.230469 122.839844 184.464844 122.917969 L 313.703125 165.367188 C 313.921875 165.441406 314.085938 165.621094 314.140625 165.84375 C 314.191406 166.066406 314.125 166.300781 313.964844 166.464844 L 239.714844 240.722656 C 239.585938 240.851562 239.417969 240.917969 239.246094 240.917969 " fill-opacity="1" fill-rule="nonzero"/><path fill="#99b9ff" d="M 313.539062 166.046875 L 313.539062 210.210938 L 239.359375 284.089844 L 239.359375 240.179688 L 313.539062 166.046875 " fill-opacity="1" fill-rule="nonzero"/><path fill="#000000" d="M 240.015625 240.453125 L 240.015625 282.5 L 312.875 209.9375 L 312.875 167.640625 Z M 239.355469 284.75 C 239.269531 284.75 239.183594 284.734375 239.101562 284.703125 C 238.855469 284.601562 238.699219 284.359375 238.699219 284.09375 L 238.699219 240.179688 C 238.699219 240.003906 238.769531 239.835938 238.890625 239.714844 L 313.066406 165.582031 C 313.257812 165.390625 313.539062 165.335938 313.789062 165.4375 C 314.035156 165.539062 314.195312 165.78125 314.195312 166.046875 L 314.195312 210.210938 C 314.195312 210.386719 314.125 210.558594 314 210.679688 L 239.820312 284.558594 C 239.699219 284.6875 239.527344 284.75 239.355469 284.75 " fill-opacity="1" fill-rule="nonzero"/><path fill="#ffffff" d="M 239.355469 284.34375 L 110.375 241.417969 C 110.8125 241.851562 110.488281 197.25 110.488281 197.25 L 239.355469 240.179688 C 239.355469 240.179688 239.355469 284.597656 239.355469 284.34375 " fill-opacity="1" fill-rule="nonzero"/><path fill="#000000" d="M 111.113281 240.96875 L 238.699219 283.429688 L 238.699219 240.65625 L 111.15625 198.171875 C 111.175781 201.046875 111.234375 210.199219 111.253906 219.269531 C 111.269531 225.667969 111.265625 230.777344 111.238281 234.449219 C 111.214844 238.195312 111.195312 240.035156 111.113281 240.96875 Z M 239.355469 285.003906 C 239.273438 285.003906 239.1875 284.988281 239.113281 284.957031 L 110.167969 242.042969 C 110.070312 242.011719 109.980469 241.957031 109.910156 241.882812 C 109.710938 241.6875 109.660156 241.390625 109.777344 241.140625 C 110.03125 239.078125 109.949219 213.929688 109.828125 197.257812 C 109.828125 197.042969 109.929688 196.84375 110.101562 196.71875 C 110.273438 196.59375 110.496094 196.558594 110.699219 196.625 L 239.566406 239.550781 C 239.835938 239.644531 240.019531 239.894531 240.019531 240.179688 L 240.019531 284.34375 C 240.019531 284.710938 239.722656 285.003906 239.355469 285.003906 " fill-opacity="1" fill-rule="nonzero"/><path fill="#000000" d="M 197.542969 270.519531 C 197.179688 270.519531 196.882812 270.222656 196.882812 269.859375 L 196.882812 226.28125 C 196.882812 225.914062 197.179688 225.621094 197.542969 225.621094 C 197.910156 225.621094 198.203125 225.914062 198.203125 226.28125 L 198.203125 269.859375 C 198.203125 270.222656 197.910156 270.519531 197.542969 270.519531 " fill-opacity="1" fill-rule="nonzero"/><path fill="#000000" d="M 153.972656 255.992188 C 153.605469 255.992188 153.308594 255.699219 153.308594 255.332031 L 153.308594 211.753906 C 153.308594 211.386719 153.605469 211.09375 153.972656 211.09375 C 154.335938 211.09375 154.628906 211.386719 154.628906 211.753906 L 154.628906 255.332031 C 154.628906 255.699219 154.335938 255.992188 153.972656 255.992188 " fill-opacity="1" fill-rule="nonzero"/><path fill="#000000" d="M 264.449219 259.515625 C 264.082031 259.515625 263.789062 259.21875 263.789062 258.851562 L 263.789062 214.832031 C 263.789062 214.46875 264.082031 214.175781 264.449219 214.175781 C 264.8125 214.175781 265.109375 214.46875 265.109375 214.832031 L 265.109375 258.851562 C 265.109375 259.21875 264.8125 259.515625 264.449219 259.515625 " fill-opacity="1" fill-rule="nonzero"/><path fill="#000000" d="M 289.535156 233.980469 C 289.171875 233.980469 288.875 233.6875 288.875 233.324219 L 288.875 189.742188 C 288.875 189.378906 289.171875 189.082031 289.535156 189.082031 C 289.898438 189.082031 290.195312 189.378906 290.195312 189.742188 L 290.195312 233.324219 C 290.195312 233.6875 289.898438 233.980469 289.535156 233.980469 " fill-opacity="1" fill-rule="nonzero"/><path fill="#000000" d="M 263.140625 215.675781 C 263.074219 215.675781 263.003906 215.664062 262.933594 215.640625 L 134.855469 173.332031 C 134.511719 173.214844 134.320312 172.84375 134.4375 172.496094 C 134.550781 172.148438 134.921875 171.960938 135.269531 172.078125 L 263.347656 214.386719 C 263.691406 214.5 263.882812 214.875 263.769531 215.222656 C 263.675781 215.5 263.417969 215.675781 263.140625 215.675781 " fill-opacity="1" fill-rule="nonzero"/><path fill="#000000" d="M 289.214844 190.441406 C 289.148438 190.441406 289.078125 190.429688 289.011719 190.40625 L 160.421875 147.949219 C 160.074219 147.835938 159.886719 147.460938 160 147.117188 C 160.113281 146.769531 160.488281 146.582031 160.832031 146.695312 L 289.421875 189.152344 C 289.769531 189.265625 289.957031 189.640625 289.84375 189.988281 C 289.75 190.265625 289.492188 190.441406 289.214844 190.441406 " fill-opacity="1" fill-rule="nonzero"/><path fill="#000000" d="M 198.378906 226.914062 C 198.203125 226.914062 198.035156 226.851562 197.90625 226.71875 C 197.648438 226.460938 197.652344 226.042969 197.914062 225.785156 L 271.996094 152.535156 C 272.257812 152.28125 272.675781 152.28125 272.929688 152.539062 C 273.1875 152.800781 273.183594 153.21875 272.925781 153.476562 L 198.839844 226.722656 C 198.710938 226.851562 198.542969 226.914062 198.378906 226.914062 " fill-opacity="1" fill-rule="nonzero"/><path fill="#000000" d="M 153.796875 212.195312 C 153.628906 212.195312 153.457031 212.128906 153.332031 212 C 153.074219 211.742188 153.074219 211.324219 153.335938 211.066406 L 227.417969 137.8125 C 227.679688 137.558594 228.097656 137.5625 228.351562 137.820312 C 228.609375 138.078125 228.609375 138.496094 228.347656 138.753906 L 154.261719 212.003906 C 154.132812 212.128906 153.96875 212.195312 153.796875 212.195312 " fill-opacity="1" fill-rule="nonzero"/><path fill="#ffffff" d="M 166.019531 138.59375 C 172.253906 134.773438 176.527344 130.84375 181.28125 126.050781 L 181.6875 125.683594 C 182.339844 125.101562 183.347656 125.207031 183.867188 125.910156 L 186.371094 129.300781 C 188.070312 131.269531 189.855469 129.335938 188.96875 127.8125 C 188.214844 126.519531 187.671875 125.269531 188.269531 125.515625 C 191.136719 126.695312 196.636719 129.355469 198.984375 127.59375 C 201.203125 125.929688 193.527344 117.695312 186.167969 116.953125 C 183.246094 116.65625 180.363281 117.941406 176.566406 120.609375 C 175.417969 121.421875 174.875 121.980469 172.441406 122.984375 L 166.019531 138.59375 " fill-opacity="1" fill-rule="nonzero"/><path fill="#000000" d="M 165.417969 139.605469 C 165.199219 139.605469 164.988281 139.496094 164.859375 139.296875 C 164.664062 138.988281 164.757812 138.582031 165.066406 138.386719 C 170.425781 134.996094 175.871094 130.570312 180.8125 125.589844 L 181.242188 125.195312 C 181.695312 124.789062 182.292969 124.59375 182.894531 124.65625 C 183.496094 124.722656 184.042969 125.035156 184.398438 125.515625 L 186.886719 128.890625 C 187.367188 129.433594 187.863281 129.613281 188.210938 129.359375 C 188.523438 129.140625 188.679688 128.625 188.402344 128.148438 C 187.097656 125.917969 187.257812 125.429688 187.554688 125.085938 C 187.640625 124.988281 187.972656 124.679688 188.519531 124.90625 C 188.824219 125.03125 189.15625 125.171875 189.507812 125.324219 C 192.234375 126.480469 196.792969 128.414062 198.589844 127.066406 C 198.769531 126.929688 198.722656 126.589844 198.648438 126.328125 C 197.9375 123.773438 192.011719 118.207031 186.105469 117.609375 C 183.535156 117.355469 180.886719 118.378906 176.945312 121.148438 C 175.839844 121.929688 174.039062 122.855469 171.742188 123.820312 C 171.40625 123.960938 171.019531 123.804688 170.878906 123.46875 C 170.738281 123.128906 170.894531 122.746094 171.230469 122.601562 C 173.410156 121.6875 175.171875 120.789062 176.1875 120.070312 C 180.414062 117.09375 183.324219 116 186.238281 116.296875 C 192.371094 116.914062 199.003906 122.679688 199.921875 125.976562 C 200.269531 127.230469 199.730469 127.859375 199.382812 128.121094 C 196.988281 129.917969 192.214844 127.90625 189.039062 126.554688 C 189.164062 126.808594 189.328125 127.113281 189.539062 127.480469 C 190.128906 128.492188 189.882812 129.789062 188.980469 130.4375 C 188.265625 130.945312 187.027344 131.066406 185.871094 129.734375 C 185.863281 129.722656 185.851562 129.707031 185.84375 129.695312 L 183.335938 126.300781 C 183.199219 126.113281 182.992188 125.996094 182.761719 125.972656 C 182.523438 125.949219 182.300781 126.019531 182.128906 126.175781 L 181.722656 126.542969 C 176.738281 131.566406 171.214844 136.058594 165.769531 139.503906 C 165.664062 139.574219 165.539062 139.605469 165.417969 139.605469 " fill-opacity="1" fill-rule="nonzero"/><path fill="#ffffff" d="M 138.636719 167.46875 C 140.144531 166.5625 141.308594 165.75 142.101562 165.160156 C 142.757812 164.675781 143.574219 164.476562 144.378906 164.597656 C 147.214844 165.035156 153.847656 165.3125 156.980469 164.742188 C 162.167969 163.800781 163.296875 160.40625 163.457031 158.71875 C 163.570312 157.550781 162.605469 156.558594 161.433594 156.519531 L 153.941406 156.257812 C 153.011719 156.226562 152.550781 155.113281 153.179688 154.429688 L 154.679688 152.808594 C 154.679688 152.808594 153.875 152.160156 152.601562 152.242188 C 151.796875 152.292969 150.710938 152.921875 149.710938 153.640625 C 146.9375 155.636719 143.890625 157.230469 140.636719 158.273438 C 139.644531 158.59375 138.554688 158.917969 137.382812 159.242188 L 138.636719 167.46875 " fill-opacity="1" fill-rule="nonzero"/><path fill="#000000" d="M 133.898438 170.648438 C 133.648438 170.648438 133.414062 170.507812 133.300781 170.269531 C 133.144531 169.9375 133.289062 169.542969 133.621094 169.390625 C 137.351562 167.652344 140.078125 165.84375 141.710938 164.628906 C 142.503906 164.039062 143.488281 163.796875 144.476562 163.945312 C 147.289062 164.378906 153.871094 164.636719 156.863281 164.089844 C 161.839844 163.1875 162.675781 159.988281 162.800781 158.652344 C 162.835938 158.304688 162.71875 157.960938 162.476562 157.683594 C 162.207031 157.378906 161.820312 157.191406 161.414062 157.179688 L 153.917969 156.917969 C 153.230469 156.894531 152.632812 156.480469 152.367188 155.84375 C 152.101562 155.203125 152.226562 154.492188 152.699219 153.984375 L 153.597656 153.007812 C 153.34375 152.929688 153.023438 152.878906 152.644531 152.902344 C 152.328125 152.921875 151.574219 153.113281 150.097656 154.175781 C 147.179688 156.277344 144.0625 157.867188 140.835938 158.902344 C 138.914062 159.519531 136.945312 160.070312 134.988281 160.535156 C 134.636719 160.621094 134.277344 160.402344 134.195312 160.046875 C 134.109375 159.691406 134.328125 159.335938 134.683594 159.25 C 136.605469 158.789062 138.542969 158.25 140.4375 157.644531 C 143.527344 156.652344 146.519531 155.125 149.324219 153.105469 C 150.671875 152.132812 151.730469 151.636719 152.5625 151.582031 C 154.070312 151.484375 155.054688 152.257812 155.097656 152.292969 C 155.238281 152.410156 155.324219 152.574219 155.339844 152.757812 C 155.355469 152.941406 155.289062 153.121094 155.167969 153.253906 L 153.667969 154.878906 C 153.496094 155.058594 153.554688 155.257812 153.585938 155.335938 C 153.617188 155.410156 153.71875 155.589844 153.964844 155.597656 L 161.457031 155.859375 C 162.230469 155.886719 162.960938 156.234375 163.46875 156.8125 C 163.953125 157.367188 164.183594 158.0625 164.113281 158.777344 C 163.992188 160.054688 163.128906 164.292969 157.097656 165.390625 C 153.929688 165.96875 147.238281 165.707031 144.277344 165.25 C 143.636719 165.15625 143.007812 165.308594 142.496094 165.691406 C 140.816406 166.9375 138.007812 168.804688 134.175781 170.585938 C 134.085938 170.628906 133.992188 170.648438 133.898438 170.648438 " fill-opacity="1" fill-rule="nonzero"/><path fill="#ffffff" d="M 208.164062 75.425781 C 208.152344 68.683594 202.730469 63.355469 196.113281 63.679688 C 189.660156 63.996094 184.632812 69.492188 184.738281 76.109375 C 184.792969 79.296875 186.03125 82.160156 188.058594 84.238281 C 189.617188 85.832031 190.503906 87.992188 190.507812 90.269531 L 190.507812 91.621094 C 190.511719 92.742188 191.394531 93.628906 192.484375 93.605469 L 200.445312 93.4375 C 201.535156 93.414062 202.417969 92.488281 202.417969 91.371094 L 202.414062 90.027344 C 202.414062 87.777344 203.234375 85.578125 204.78125 83.957031 C 206.890625 81.742188 208.167969 78.730469 208.164062 75.425781 " fill-opacity="1" fill-rule="nonzero"/><path fill="#000000" d="M 196.683594 64.328125 C 196.503906 64.328125 196.324219 64.332031 196.144531 64.34375 C 190.015625 64.640625 185.296875 69.808594 185.398438 76.101562 C 185.445312 79.035156 186.558594 81.761719 188.53125 83.78125 C 190.226562 85.515625 191.160156 87.824219 191.164062 90.269531 L 191.167969 91.625 C 191.167969 91.996094 191.308594 92.339844 191.566406 92.585938 C 191.808594 92.828125 192.132812 92.957031 192.46875 92.945312 L 200.429688 92.78125 C 201.160156 92.765625 201.757812 92.132812 201.753906 91.375 L 201.75 90.027344 C 201.75 87.585938 202.679688 85.207031 204.300781 83.503906 C 206.367188 81.335938 207.503906 78.46875 207.5 75.433594 C 207.496094 72.285156 206.265625 69.386719 204.042969 67.277344 C 202.035156 65.363281 199.4375 64.328125 196.683594 64.328125 Z M 192.441406 94.269531 C 191.765625 94.269531 191.128906 94.007812 190.640625 93.53125 C 190.132812 93.03125 189.847656 92.355469 189.847656 91.625 L 189.84375 90.273438 C 189.839844 88.171875 189.039062 86.191406 187.582031 84.703125 C 185.375 82.441406 184.132812 79.394531 184.078125 76.125 C 183.964844 69.109375 189.234375 63.355469 196.078125 63.023438 C 199.394531 62.859375 202.546875 64.03125 204.953125 66.316406 C 207.441406 68.683594 208.8125 71.921875 208.820312 75.429688 C 208.824219 78.808594 207.558594 82 205.257812 84.417969 C 203.867188 85.875 203.070312 87.917969 203.074219 90.027344 L 203.078125 91.375 C 203.078125 92.847656 201.902344 94.070312 200.457031 94.101562 L 192.5 94.269531 C 192.480469 94.269531 192.460938 94.269531 192.441406 94.269531 " fill-opacity="1" fill-rule="nonzero"/><path fill="#ffffff" d="M 196.492188 101.710938 C 193.777344 101.765625 191.570312 99.554688 191.566406 96.769531 L 191.558594 93.496094 L 201.394531 93.289062 L 201.402344 96.5625 C 201.40625 99.347656 199.207031 101.652344 196.492188 101.710938 " fill-opacity="1" fill-rule="nonzero"/><path fill="#000000" d="M 192.21875 94.144531 L 192.222656 96.769531 C 192.226562 97.960938 192.683594 99.066406 193.515625 99.878906 C 194.3125 100.65625 195.355469 101.074219 196.476562 101.050781 C 198.832031 101 200.742188 98.992188 200.738281 96.566406 L 200.734375 93.964844 Z M 196.386719 102.371094 C 194.960938 102.371094 193.617188 101.824219 192.589844 100.820312 C 191.507812 99.757812 190.90625 98.324219 190.902344 96.773438 L 190.898438 92.851562 L 202.054688 92.617188 L 202.058594 96.5625 C 202.066406 99.703125 199.570312 102.308594 196.503906 102.371094 C 196.464844 102.371094 196.425781 102.371094 196.386719 102.371094 " fill-opacity="1" fill-rule="nonzero"/><path fill="#000000" d="M 196.609375 55.660156 C 196.25 55.660156 195.953125 55.367188 195.953125 55.003906 L 195.914062 43.09375 C 195.914062 42.726562 196.207031 42.429688 196.570312 42.429688 L 196.574219 42.429688 C 196.9375 42.429688 197.234375 42.726562 197.234375 43.089844 L 197.269531 55 C 197.273438 55.363281 196.976562 55.660156 196.613281 55.660156 C 196.609375 55.660156 196.609375 55.660156 196.609375 55.660156 " fill-opacity="1" fill-rule="nonzero"/><path fill="#000000" d="M 160.660156 79.308594 C 160.292969 79.308594 160 79.011719 159.996094 78.648438 C 159.996094 78.285156 160.292969 77.988281 160.65625 77.988281 L 176.167969 77.945312 C 176.171875 77.945312 176.171875 77.945312 176.171875 77.945312 C 176.535156 77.945312 176.832031 78.242188 176.832031 78.605469 C 176.832031 78.96875 176.535156 79.265625 176.171875 79.265625 L 160.660156 79.308594 " fill-opacity="1" fill-rule="nonzero"/><path fill="#000000" d="M 231.898438 79.613281 C 231.898438 79.613281 231.894531 79.613281 231.894531 79.613281 L 215.949219 79.476562 C 215.585938 79.472656 215.292969 79.179688 215.296875 78.8125 C 215.300781 78.445312 215.578125 78.148438 215.964844 78.15625 L 231.90625 78.292969 C 232.269531 78.296875 232.5625 78.59375 232.5625 78.960938 C 232.558594 79.324219 232.261719 79.613281 231.898438 79.613281 " fill-opacity="1" fill-rule="nonzero"/><path fill="#000000" d="M 180.621094 63.554688 C 180.453125 63.554688 180.28125 63.488281 180.152344 63.359375 L 170.597656 53.667969 C 170.339844 53.410156 170.34375 52.992188 170.601562 52.734375 C 170.859375 52.480469 171.277344 52.480469 171.535156 52.742188 L 181.089844 62.429688 C 181.347656 62.691406 181.347656 63.109375 181.085938 63.363281 C 180.957031 63.492188 180.789062 63.554688 180.621094 63.554688 " fill-opacity="1" fill-rule="nonzero"/><path fill="#000000" d="M 211.746094 64.226562 C 211.578125 64.226562 211.40625 64.164062 211.277344 64.03125 C 211.023438 63.773438 211.023438 63.355469 211.28125 63.097656 L 221.445312 52.957031 C 221.703125 52.699219 222.121094 52.699219 222.378906 52.957031 C 222.636719 53.21875 222.636719 53.636719 222.378906 53.890625 L 212.214844 64.03125 C 212.085938 64.164062 211.914062 64.226562 211.746094 64.226562 " fill-opacity="1" fill-rule="nonzero"/><path fill="#ffffff" d="M 348.683594 131.988281 C 350.589844 141.09375 344.753906 150.019531 335.648438 151.921875 C 326.546875 153.828125 317.625 147.988281 315.71875 138.886719 C 313.816406 129.78125 319.652344 120.859375 328.753906 118.953125 C 337.855469 117.046875 346.78125 122.886719 348.683594 131.988281 " fill-opacity="1" fill-rule="nonzero"/><path fill="#000000" d="M 332.234375 119.25 C 331.125 119.25 330.007812 119.367188 328.890625 119.597656 C 320.160156 121.425781 314.539062 130.015625 316.367188 138.75 C 318.195312 147.480469 326.789062 153.101562 335.519531 151.273438 C 339.75 150.390625 343.382812 147.910156 345.742188 144.292969 C 348.109375 140.675781 348.925781 136.351562 348.039062 132.125 C 347.15625 127.890625 344.675781 124.257812 341.058594 121.894531 C 338.394531 120.152344 335.347656 119.25 332.234375 119.25 Z M 332.199219 152.941406 C 324.09375 152.941406 316.800781 147.261719 315.074219 139.019531 C 313.101562 129.574219 319.175781 120.28125 328.621094 118.304688 C 333.191406 117.347656 337.871094 118.230469 341.78125 120.789062 C 345.695312 123.347656 348.375 127.277344 349.332031 131.855469 C 350.289062 136.429688 349.410156 141.101562 346.847656 145.015625 C 344.292969 148.929688 340.363281 151.609375 335.789062 152.566406 C 334.585938 152.816406 333.382812 152.941406 332.199219 152.941406 " fill-opacity="1" fill-rule="nonzero"/><path fill="#000000" d="M 332.175781 149.988281 C 329.375 149.988281 326.636719 149.175781 324.246094 147.609375 C 320.992188 145.484375 318.761719 142.21875 317.96875 138.414062 C 316.324219 130.5625 321.375 122.839844 329.226562 121.199219 C 333.964844 120.203125 338.867188 121.628906 342.34375 125.003906 C 342.605469 125.257812 342.613281 125.675781 342.359375 125.9375 C 342.105469 126.199219 341.6875 126.207031 341.425781 125.953125 C 338.265625 122.882812 333.804688 121.589844 329.496094 122.488281 C 322.359375 123.984375 317.765625 131.007812 319.257812 138.144531 C 319.984375 141.601562 322.007812 144.570312 324.96875 146.503906 C 327.921875 148.441406 331.453125 149.105469 334.910156 148.382812 C 338.371094 147.660156 341.339844 145.632812 343.273438 142.675781 C 345.207031 139.71875 345.875 136.183594 345.148438 132.726562 C 345.078125 132.371094 345.300781 132.019531 345.660156 131.945312 C 346.015625 131.875 346.367188 132.101562 346.441406 132.457031 C 347.238281 136.261719 346.503906 140.148438 344.378906 143.398438 C 342.25 146.652344 338.988281 148.878906 335.183594 149.675781 C 334.179688 149.886719 333.175781 149.988281 332.175781 149.988281 " fill-opacity="1" fill-rule="nonzero"/><path fill="#5479f7" d="M 332.828125 143.5 L 332.445312 141.671875 C 331.144531 141.886719 329.820312 141.800781 329 141.53125 L 329.105469 139.15625 C 330.007812 139.429688 331.226562 139.597656 332.480469 139.335938 C 333.574219 139.105469 334.238281 138.527344 334.074219 137.757812 C 333.921875 137.023438 333.207031 136.691406 331.683594 136.507812 C 329.480469 136.246094 327.875 135.578125 327.488281 133.710938 C 327.132812 132.019531 328.046875 130.441406 330.023438 129.605469 L 329.640625 127.78125 L 331.523438 127.382812 L 331.878906 129.078125 C 333.179688 128.863281 334.101562 128.953125 334.800781 129.128906 L 334.699219 131.417969 C 334.152344 131.3125 333.175781 131.054688 331.789062 131.347656 C 330.539062 131.605469 330.25 132.230469 330.363281 132.769531 C 330.492188 133.402344 331.25 133.667969 333.015625 133.941406 C 335.476562 134.269531 336.621094 135.132812 336.980469 136.867188 C 337.339844 138.582031 336.433594 140.296875 334.304688 141.144531 L 334.714844 143.105469 L 332.828125 143.5 " fill-opacity="1" fill-rule="nonzero"/><path fill="#ffffff" d="M 290.277344 17.554688 L 313.480469 42.871094 L 346.996094 32.777344 L 290.277344 17.554688 " fill-opacity="1" fill-rule="nonzero"/><path fill="#000000" d="M 292.296875 18.777344 L 313.6875 42.117188 L 344.585938 32.8125 Z M 313.484375 43.53125 C 313.300781 43.53125 313.125 43.457031 313 43.316406 L 289.796875 17.996094 C 289.59375 17.78125 289.5625 17.460938 289.714844 17.207031 C 289.867188 16.957031 290.167969 16.839844 290.449219 16.914062 L 347.171875 32.136719 C 347.453125 32.210938 347.652344 32.46875 347.65625 32.761719 C 347.664062 33.058594 347.472656 33.320312 347.1875 33.40625 L 313.675781 43.503906 C 313.613281 43.519531 313.546875 43.53125 313.484375 43.53125 " fill-opacity="1" fill-rule="nonzero"/><path fill="#99b9ff" d="M 296.285156 39.3125 L 298.601562 26.636719 L 337.71875 32.425781 L 302.679688 31.085938 L 307.527344 36.378906 L 296.285156 39.3125 " fill-opacity="1" fill-rule="nonzero"/><path fill="#000000" d="M 299.132812 27.382812 L 297.121094 38.414062 L 306.300781 36.015625 L 302.191406 31.53125 C 302.011719 31.335938 301.96875 31.050781 302.082031 30.808594 C 302.191406 30.566406 302.417969 30.414062 302.703125 30.425781 L 325.621094 31.300781 Z M 296.285156 39.972656 C 296.121094 39.972656 295.960938 39.910156 295.835938 39.796875 C 295.671875 39.640625 295.59375 39.414062 295.632812 39.195312 L 297.949219 26.519531 C 298.015625 26.167969 298.347656 25.933594 298.695312 25.984375 L 337.816406 31.773438 C 338.164062 31.824219 338.410156 32.136719 338.378906 32.488281 C 338.34375 32.835938 338.035156 33.089844 337.691406 33.085938 L 304.234375 31.808594 L 308.015625 35.933594 C 308.171875 36.105469 308.226562 36.34375 308.164062 36.566406 C 308.09375 36.789062 307.917969 36.960938 307.695312 37.019531 L 296.453125 39.953125 C 296.398438 39.964844 296.34375 39.972656 296.285156 39.972656 " fill-opacity="1" fill-rule="nonzero"/><path fill="#000000" d="M 298.53125 37.035156 C 298.398438 37.035156 298.265625 36.992188 298.15625 36.90625 C 297.886719 36.699219 297.839844 36.3125 298.046875 36.046875 L 302.195312 30.710938 C 302.402344 30.441406 302.789062 30.394531 303.054688 30.601562 C 303.324219 30.808594 303.371094 31.195312 303.160156 31.460938 L 299.015625 36.800781 C 298.894531 36.953125 298.710938 37.035156 298.53125 37.035156 " fill-opacity="1" fill-rule="nonzero"/><path fill="#000000" d="M 341.9375 69.003906 C 341.769531 69.003906 341.597656 68.941406 341.472656 68.808594 L 339.519531 66.847656 C 339.265625 66.589844 339.265625 66.171875 339.523438 65.917969 C 339.78125 65.660156 340.199219 65.660156 340.457031 65.917969 L 342.40625 67.882812 C 342.664062 68.136719 342.664062 68.554688 342.402344 68.8125 C 342.277344 68.941406 342.105469 69.003906 341.9375 69.003906 " fill-opacity="1" fill-rule="nonzero"/><path fill="#000000" d="M 348.765625 75.871094 C 348.597656 75.871094 348.429688 75.804688 348.296875 75.675781 L 346.347656 73.710938 C 346.089844 73.457031 346.09375 73.035156 346.351562 72.78125 C 346.609375 72.523438 347.027344 72.523438 347.285156 72.78125 L 349.234375 74.746094 C 349.492188 75.003906 349.488281 75.421875 349.230469 75.675781 C 349.105469 75.804688 348.9375 75.871094 348.765625 75.871094 " fill-opacity="1" fill-rule="nonzero"/><path fill="#000000" d="M 339.988281 75.875 C 339.820312 75.875 339.652344 75.808594 339.523438 75.679688 C 339.265625 75.421875 339.265625 75.007812 339.519531 74.746094 L 341.472656 72.785156 C 341.730469 72.527344 342.144531 72.523438 342.402344 72.78125 C 342.664062 73.039062 342.664062 73.457031 342.40625 73.714844 L 340.457031 75.679688 C 340.328125 75.808594 340.15625 75.875 339.988281 75.875 " fill-opacity="1" fill-rule="nonzero"/><path fill="#000000" d="M 346.816406 69.003906 C 346.648438 69.003906 346.480469 68.941406 346.351562 68.8125 C 346.09375 68.554688 346.089844 68.136719 346.347656 67.878906 L 348.296875 65.917969 C 348.554688 65.65625 348.972656 65.65625 349.230469 65.914062 C 349.488281 66.171875 349.492188 66.589844 349.234375 66.847656 L 347.285156 68.808594 C 347.15625 68.9375 346.988281 69.003906 346.816406 69.003906 " fill-opacity="1" fill-rule="nonzero"/><path fill="#000000" d="M 339.882812 316.007812 C 339.714844 316.007812 339.542969 315.945312 339.414062 315.816406 L 337.929688 314.324219 C 337.667969 314.070312 337.667969 313.652344 337.929688 313.390625 C 338.183594 313.136719 338.601562 313.136719 338.863281 313.390625 L 340.347656 314.882812 C 340.605469 315.136719 340.605469 315.554688 340.347656 315.816406 C 340.222656 315.945312 340.050781 316.007812 339.882812 316.007812 " fill-opacity="1" fill-rule="nonzero"/><path fill="#000000" d="M 347.007812 323.132812 C 346.839844 323.132812 346.667969 323.070312 346.539062 322.941406 L 345.050781 321.453125 C 344.792969 321.195312 344.792969 320.777344 345.050781 320.519531 C 345.308594 320.261719 345.726562 320.261719 345.984375 320.519531 L 347.472656 322.007812 C 347.730469 322.265625 347.730469 322.683594 347.472656 322.941406 C 347.34375 323.070312 347.175781 323.132812 347.007812 323.132812 " fill-opacity="1" fill-rule="nonzero"/><path fill="#000000" d="M 338.394531 323.132812 C 338.226562 323.132812 338.058594 323.066406 337.929688 322.941406 C 337.667969 322.683594 337.667969 322.265625 337.929688 322.007812 L 339.414062 320.519531 C 339.675781 320.261719 340.09375 320.261719 340.347656 320.519531 C 340.605469 320.777344 340.605469 321.195312 340.347656 321.453125 L 338.863281 322.941406 C 338.730469 323.066406 338.5625 323.132812 338.394531 323.132812 " fill-opacity="1" fill-rule="nonzero"/><path fill="#000000" d="M 345.515625 316.007812 C 345.347656 316.007812 345.179688 315.945312 345.050781 315.816406 C 344.792969 315.554688 344.792969 315.136719 345.050781 314.882812 L 346.539062 313.394531 C 346.796875 313.136719 347.214844 313.136719 347.472656 313.394531 C 347.730469 313.652344 347.730469 314.070312 347.472656 314.324219 L 345.984375 315.816406 C 345.855469 315.945312 345.6875 316.007812 345.515625 316.007812 " fill-opacity="1" fill-rule="nonzero"/><path fill="#000000" d="M 326.882812 333.183594 C 325.140625 333.183594 323.730469 334.597656 323.730469 336.335938 C 323.730469 338.074219 325.140625 339.492188 326.882812 339.492188 C 328.617188 339.492188 330.035156 338.074219 330.035156 336.335938 C 330.035156 334.597656 328.617188 333.183594 326.882812 333.183594 Z M 326.882812 340.808594 C 324.414062 340.808594 322.410156 338.804688 322.410156 336.335938 C 322.410156 333.871094 324.414062 331.863281 326.882812 331.863281 C 329.347656 331.863281 331.355469 333.871094 331.355469 336.335938 C 331.355469 338.804688 329.347656 340.808594 326.882812 340.808594 " fill-opacity="1" fill-rule="nonzero"/><path fill="#000000" d="M 306.425781 346.273438 C 305.34375 346.273438 304.464844 347.15625 304.464844 348.234375 C 304.464844 349.320312 305.34375 350.199219 306.425781 350.199219 C 307.507812 350.199219 308.390625 349.320312 308.390625 348.234375 C 308.390625 347.15625 307.507812 346.273438 306.425781 346.273438 Z M 306.425781 351.519531 C 304.617188 351.519531 303.140625 350.046875 303.140625 348.234375 C 303.140625 346.425781 304.617188 344.953125 306.425781 344.953125 C 308.238281 344.953125 309.710938 346.425781 309.710938 348.234375 C 309.710938 350.046875 308.238281 351.519531 306.425781 351.519531 " fill-opacity="1" fill-rule="nonzero"/><path fill="#000000" d="M 92.101562 347.183594 C 91.019531 347.183594 90.140625 348.066406 90.140625 349.148438 C 90.140625 350.230469 91.019531 351.109375 92.101562 351.109375 C 93.183594 351.109375 94.066406 350.230469 94.066406 349.148438 C 94.066406 348.066406 93.183594 347.183594 92.101562 347.183594 Z M 92.101562 352.433594 C 90.292969 352.433594 88.820312 350.960938 88.820312 349.148438 C 88.820312 347.335938 90.292969 345.863281 92.101562 345.863281 C 93.914062 345.863281 95.386719 347.335938 95.386719 349.148438 C 95.386719 350.960938 93.914062 352.433594 92.101562 352.433594 " fill-opacity="1" fill-rule="nonzero"/><path fill="#000000" d="M 118.859375 23.078125 C 117.464844 23.078125 116.328125 24.210938 116.328125 25.609375 C 116.328125 27.003906 117.464844 28.136719 118.859375 28.136719 C 120.253906 28.136719 121.390625 27.003906 121.390625 25.609375 C 121.390625 24.210938 120.253906 23.078125 118.859375 23.078125 Z M 118.859375 29.457031 C 116.738281 29.457031 115.007812 27.730469 115.007812 25.609375 C 115.007812 23.484375 116.738281 21.757812 118.859375 21.757812 C 120.980469 21.757812 122.710938 23.484375 122.710938 25.609375 C 122.710938 27.730469 120.980469 29.457031 118.859375 29.457031 " fill-opacity="1" fill-rule="nonzero"/><path fill="#000000" d="M 20.703125 257.96875 C 20.445312 257.96875 20.195312 257.816406 20.09375 257.558594 C 1.375 211.402344 12.703125 151.871094 48.953125 105.898438 C 72.003906 76.664062 104.152344 54.148438 141.929688 40.78125 C 185.558594 25.34375 236.089844 21.808594 292.121094 30.277344 C 292.480469 30.332031 292.726562 30.664062 292.671875 31.027344 C 292.617188 31.386719 292.28125 31.632812 291.921875 31.582031 C 149.886719 10.117188 79.378906 69.441406 49.988281 106.71875 C 14.03125 152.324219 2.773438 211.335938 21.316406 257.0625 C 21.453125 257.398438 21.289062 257.785156 20.953125 257.921875 C 20.871094 257.953125 20.789062 257.96875 20.703125 257.96875 " fill-opacity="1" fill-rule="nonzero"/><path fill="#000000" d="M 148.265625 340.472656 C 148.253906 340.472656 148.242188 340.472656 148.234375 340.472656 C 133.0625 339.773438 117.414062 337.226562 101.726562 332.898438 C 80.539062 327.054688 61.226562 315.167969 45.878906 298.527344 C 45.632812 298.261719 45.648438 297.84375 45.917969 297.59375 C 46.183594 297.347656 46.601562 297.363281 46.847656 297.632812 C 62.03125 314.09375 81.128906 325.847656 102.078125 331.625 C 117.671875 335.925781 133.222656 338.460938 148.292969 339.152344 C 148.660156 339.167969 148.9375 339.476562 148.921875 339.84375 C 148.90625 340.195312 148.613281 340.472656 148.265625 340.472656 " fill-opacity="1" fill-rule="nonzero"/><path fill="#000000" d="M 319.746094 250.457031 C 319.578125 250.457031 319.410156 250.390625 319.28125 250.261719 C 319.019531 250.007812 319.019531 249.589844 319.28125 249.328125 C 336.054688 232.550781 345.296875 210.246094 345.296875 186.515625 C 345.296875 174.851562 343.066406 163.507812 338.675781 152.808594 C 338.539062 152.46875 338.699219 152.082031 339.035156 151.949219 C 339.371094 151.808594 339.757812 151.96875 339.898438 152.308594 C 344.355469 163.164062 346.613281 174.675781 346.613281 186.515625 C 346.613281 210.597656 337.238281 233.238281 320.214844 250.261719 C 320.082031 250.390625 319.914062 250.457031 319.746094 250.457031 " fill-opacity="1" fill-rule="nonzero"/><path fill="#000000" d="M 316.882812 121.15625 C 316.722656 121.15625 316.5625 121.097656 316.4375 120.984375 C 314.324219 119.050781 312.097656 117.203125 309.816406 115.484375 C 309.523438 115.265625 309.464844 114.847656 309.683594 114.558594 C 309.90625 114.265625 310.320312 114.207031 310.609375 114.425781 C 312.925781 116.167969 315.1875 118.046875 317.328125 120.007812 C 317.597656 120.253906 317.617188 120.671875 317.367188 120.941406 C 317.238281 121.082031 317.058594 121.15625 316.882812 121.15625 " fill-opacity="1" fill-rule="nonzero"/><path fill="#000000" d="M 201.835938 116.308594 C 201.636719 116.308594 201.441406 116.21875 201.3125 116.050781 C 201.089844 115.761719 201.144531 115.347656 201.429688 115.125 C 217.320312 102.855469 236.351562 96.367188 256.472656 96.367188 C 261.515625 96.367188 266.574219 96.789062 271.507812 97.617188 C 271.867188 97.675781 272.109375 98.015625 272.046875 98.378906 C 271.988281 98.738281 271.644531 98.976562 271.289062 98.917969 C 266.429688 98.101562 261.445312 97.6875 256.472656 97.6875 C 236.644531 97.6875 217.890625 104.078125 202.238281 116.167969 C 202.117188 116.261719 201.972656 116.308594 201.835938 116.308594 " fill-opacity="1" fill-rule="nonzero"/></svg>