<svg xmlns="http://www.w3.org/2000/svg" xmlns:xlink="http://www.w3.org/1999/xlink" width="500" zoomAndPan="magnify" viewBox="0 0 375 374.999991" height="500" preserveAspectRatio="xMidYMid meet" version="1.0"><path fill="#caddff" d="M 89.09375 92.347656 C 126.082031 54.972656 115.492188 31.550781 140.800781 14.246094 C 179.746094 -12.382812 252.425781 10.527344 295.308594 47.148438 C 347.824219 92.003906 374.921875 173.902344 344.054688 247.996094 C 311.183594 326.902344 224.691406 367.859375 147.515625 355.519531 C 78.597656 344.496094 10.847656 289.964844 4.058594 224.558594 C 3.324219 217.472656 0.0742188 179.152344 22.855469 146.113281 C 41.6875 118.808594 59.773438 121.972656 89.09375 92.347656 " fill-opacity="1" fill-rule="nonzero"/><path fill="#5479f7" d="M 348.898438 238.019531 L 38.894531 238.019531 C 33.695312 238.019531 29.738281 233.328125 30.566406 228.160156 L 30.558594 9.941406 C 31.21875 5.824219 34.746094 2.800781 38.882812 2.800781 L 348.890625 2.800781 C 354.085938 2.800781 357.097656 6.394531 357.214844 12.664062 L 357.226562 230.878906 C 357.007812 235.472656 353.039062 238.019531 348.898438 238.019531 " fill-opacity="1" fill-rule="nonzero"/><path fill="#ffffff" d="M 340.804688 238.28125 L 30.796875 238.28125 C 25.601562 238.28125 21.640625 233.578125 22.472656 228.394531 L 22.460938 10.390625 C 23.125 6.265625 26.652344 3.230469 30.789062 3.230469 L 340.792969 3.230469 C 345.992188 3.230469 349 6.835938 349.121094 13.121094 L 349.128906 231.121094 C 348.910156 235.730469 344.941406 238.28125 340.804688 238.28125 " fill-opacity="1" fill-rule="nonzero"/><path fill="#000000" d="M 340.804688 238.40625 L 333.957031 238.40625 C 333.601562 238.40625 333.316406 238.117188 333.316406 237.765625 C 333.316406 237.40625 333.601562 237.121094 333.957031 237.121094 L 340.804688 237.121094 C 344.355469 237.121094 348.273438 235.078125 348.488281 230.589844 L 348.476562 13.097656 C 348.367188 7.152344 345.636719 3.871094 340.796875 3.871094 L 30.789062 3.871094 C 26.964844 3.871094 23.738281 6.625 23.105469 10.425781 L 23.113281 157.894531 C 23.113281 158.25 22.824219 158.535156 22.46875 158.535156 C 22.113281 158.535156 21.828125 158.25 21.828125 157.894531 L 21.820312 10.375 C 21.820312 10.34375 21.824219 10.308594 21.828125 10.273438 C 22.542969 5.820312 26.3125 2.589844 30.789062 2.589844 L 340.796875 2.589844 C 346.363281 2.589844 349.632812 6.414062 349.761719 13.085938 L 349.773438 230.617188 C 349.527344 235.742188 345.078125 238.40625 340.804688 238.40625 " fill-opacity="1" fill-rule="nonzero"/><path fill="#ffffff" d="M 64.617188 84.449219 C 64.457031 78.808594 59.773438 74.46875 54.214844 74.890625 C 48.792969 75.300781 44.6875 80.019531 44.929688 85.550781 C 45.046875 88.21875 46.152344 90.582031 47.90625 92.277344 C 49.253906 93.578125 50.046875 95.367188 50.101562 97.273438 L 50.136719 98.402344 C 50.164062 99.339844 50.929688 100.0625 51.84375 100.015625 L 58.539062 99.699219 C 59.457031 99.652344 60.175781 98.859375 60.148438 97.921875 L 60.117188 96.796875 C 60.0625 94.917969 60.707031 93.058594 61.96875 91.664062 C 63.691406 89.765625 64.699219 87.214844 64.617188 84.449219 " fill-opacity="1" fill-rule="nonzero"/><path fill="#000000" d="M 54.960938 75.507812 C 54.726562 75.507812 54.496094 75.515625 54.261719 75.53125 C 49.160156 75.917969 45.34375 80.308594 45.570312 85.523438 C 45.675781 87.953125 46.664062 90.191406 48.351562 91.820312 C 49.835938 93.25 50.683594 95.179688 50.746094 97.253906 L 50.777344 98.386719 C 50.785156 98.671875 50.902344 98.933594 51.105469 99.117188 C 51.296875 99.300781 51.546875 99.390625 51.8125 99.378906 L 58.507812 99.058594 C 59.074219 99.03125 59.523438 98.53125 59.507812 97.945312 L 59.472656 96.816406 C 59.414062 94.75 60.148438 92.714844 61.492188 91.234375 C 63.167969 89.390625 64.046875 86.988281 63.976562 84.46875 C 63.902344 81.875 62.820312 79.503906 60.929688 77.800781 C 59.269531 76.308594 57.171875 75.507812 54.960938 75.507812 Z M 51.765625 100.664062 C 51.195312 100.664062 50.652344 100.453125 50.230469 100.0625 C 49.773438 99.640625 49.511719 99.058594 49.492188 98.421875 L 49.460938 97.289062 C 49.410156 95.554688 48.699219 93.9375 47.460938 92.742188 C 45.535156 90.882812 44.40625 88.339844 44.289062 85.578125 C 44.027344 79.667969 48.367188 74.691406 54.164062 74.253906 C 56.988281 74.039062 59.695312 74.960938 61.789062 76.847656 C 63.941406 78.785156 65.175781 81.480469 65.261719 84.433594 C 65.34375 87.285156 64.34375 90.007812 62.441406 92.097656 C 61.320312 93.332031 60.707031 95.039062 60.757812 96.777344 L 60.789062 97.90625 C 60.828125 99.191406 59.832031 100.28125 58.566406 100.339844 L 51.875 100.660156 C 51.835938 100.660156 51.800781 100.664062 51.765625 100.664062 " fill-opacity="1" fill-rule="nonzero"/><path fill="#ffffff" d="M 55.398438 106.710938 C 53.113281 106.820312 51.207031 105.019531 51.140625 102.6875 L 51.0625 99.949219 L 59.332031 99.554688 L 59.414062 102.292969 C 59.480469 104.625 57.683594 106.601562 55.398438 106.710938 " fill-opacity="1" fill-rule="nonzero"/><path fill="#000000" d="M 51.722656 100.558594 L 51.785156 102.667969 C 51.8125 103.636719 52.210938 104.527344 52.90625 105.167969 C 53.578125 105.792969 54.453125 106.109375 55.367188 106.070312 C 57.300781 105.976562 58.828125 104.289062 58.773438 102.308594 L 58.710938 100.226562 Z M 55.199219 107.355469 C 54.019531 107.355469 52.902344 106.917969 52.03125 106.113281 C 51.082031 105.230469 50.539062 104.019531 50.5 102.703125 L 50.402344 99.335938 L 59.957031 98.878906 L 60.054688 102.273438 C 60.132812 104.949219 58.058594 107.226562 55.429688 107.351562 C 55.355469 107.355469 55.277344 107.355469 55.199219 107.355469 " fill-opacity="1" fill-rule="nonzero"/><path fill="#000000" d="M 54.433594 68.257812 C 54.09375 68.257812 53.808594 67.988281 53.792969 67.644531 L 53.492188 60.894531 C 53.476562 60.539062 53.75 60.238281 54.105469 60.222656 C 54.464844 60.207031 54.757812 60.484375 54.773438 60.835938 L 55.078125 67.585938 C 55.09375 67.941406 54.820312 68.242188 54.464844 68.257812 C 54.457031 68.257812 54.445312 68.257812 54.433594 68.257812 " fill-opacity="1" fill-rule="nonzero"/><path fill="#000000" d="M 37.777344 88.476562 L 34.109375 88.472656 C 33.753906 88.46875 33.464844 88.183594 33.464844 87.828125 C 33.464844 87.472656 33.753906 87.1875 34.109375 87.1875 L 37.777344 87.191406 C 38.132812 87.191406 38.421875 87.480469 38.421875 87.832031 C 38.421875 88.1875 38.132812 88.476562 37.777344 88.476562 " fill-opacity="1" fill-rule="nonzero"/><path fill="#000000" d="M 41.164062 75.226562 C 41.007812 75.226562 40.847656 75.171875 40.726562 75.054688 L 36.585938 71.179688 C 36.328125 70.9375 36.3125 70.53125 36.554688 70.273438 C 36.796875 70.015625 37.207031 70 37.464844 70.242188 L 41.601562 74.117188 C 41.863281 74.359375 41.875 74.765625 41.632812 75.023438 C 41.503906 75.160156 41.335938 75.226562 41.164062 75.226562 " fill-opacity="1" fill-rule="nonzero"/><path fill="#000000" d="M 71.929688 88.476562 C 71.578125 88.476562 71.289062 88.1875 71.289062 87.832031 C 71.289062 87.480469 71.574219 87.191406 71.929688 87.191406 L 75.601562 87.1875 C 75.953125 87.1875 76.242188 87.472656 76.242188 87.828125 C 76.242188 88.183594 75.957031 88.46875 75.601562 88.472656 L 71.929688 88.476562 " fill-opacity="1" fill-rule="nonzero"/><path fill="#000000" d="M 68.542969 75.226562 C 68.371094 75.226562 68.203125 75.160156 68.074219 75.023438 C 67.832031 74.765625 67.847656 74.359375 68.105469 74.117188 L 72.242188 70.242188 C 72.503906 70 72.910156 70.015625 73.152344 70.273438 C 73.394531 70.53125 73.378906 70.9375 73.121094 71.179688 L 68.984375 75.054688 C 68.859375 75.171875 68.703125 75.226562 68.542969 75.226562 " fill-opacity="1" fill-rule="nonzero"/><path fill="#caddff" d="M 161.460938 52.800781 C 161.445312 69.019531 148.34375 82.15625 132.191406 82.144531 C 116.039062 82.128906 102.953125 68.972656 102.964844 52.757812 C 102.980469 36.539062 116.082031 23.402344 132.234375 23.417969 C 148.386719 23.429688 161.472656 36.585938 161.460938 52.800781 " fill-opacity="1" fill-rule="nonzero"/><path fill="#99b9ff" d="M 132.726562 52.894531 L 148.199219 77.285156 C 156.105469 72.035156 161.324219 63.03125 161.332031 52.804688 C 161.335938 46.320312 159.246094 40.328125 155.703125 35.464844 L 132.726562 52.894531 " fill-opacity="1" fill-rule="nonzero"/><path fill="#5479f7" d="M 138.476562 24.128906 L 132.726562 52.894531 L 155.707031 35.472656 C 151.589844 29.824219 145.511719 25.703125 138.476562 24.128906 " fill-opacity="1" fill-rule="nonzero"/><path fill="#ffffff" d="M 141.125 52.789062 C 141.121094 57.730469 137.128906 61.730469 132.207031 61.730469 C 127.28125 61.726562 123.296875 57.714844 123.300781 52.773438 C 123.304688 47.832031 127.296875 43.832031 132.21875 43.835938 C 137.140625 43.835938 141.128906 47.847656 141.125 52.789062 " fill-opacity="1" fill-rule="nonzero"/><path fill="#000000" d="M 209.683594 95.613281 C 209.511719 95.613281 209.351562 95.542969 209.230469 95.421875 L 196.929688 83.078125 C 196.679688 82.824219 196.679688 82.417969 196.933594 82.171875 C 197.1875 81.917969 197.59375 81.921875 197.839844 82.171875 L 209.683594 94.058594 L 264.503906 39.058594 C 264.753906 38.804688 265.164062 38.804688 265.414062 39.054688 C 265.664062 39.304688 265.667969 39.710938 265.414062 39.964844 L 210.140625 95.425781 C 210.015625 95.542969 209.855469 95.613281 209.683594 95.613281 " fill-opacity="1" fill-rule="nonzero"/><path fill="#000000" d="M 83.246094 151.050781 C 83.082031 151.050781 82.917969 150.988281 82.792969 150.867188 C 82.542969 150.617188 82.539062 150.207031 82.792969 149.957031 L 114.867188 117.753906 C 115.109375 117.511719 115.539062 117.511719 115.777344 117.753906 L 132.652344 134.695312 L 184.542969 82.597656 C 184.792969 82.34375 185.199219 82.34375 185.453125 82.59375 C 185.703125 82.847656 185.703125 83.25 185.453125 83.503906 L 133.109375 136.054688 C 132.867188 136.296875 132.4375 136.296875 132.195312 136.054688 L 115.324219 119.113281 L 83.703125 150.863281 C 83.574219 150.988281 83.410156 151.050781 83.246094 151.050781 " fill-opacity="1" fill-rule="nonzero"/><path fill="#5479f7" d="M 112.199219 118.207031 C 112.199219 116.472656 113.597656 115.066406 115.324219 115.066406 C 117.050781 115.066406 118.449219 116.472656 118.449219 118.207031 C 118.449219 119.9375 117.050781 121.34375 115.324219 121.34375 C 113.597656 121.34375 112.199219 119.9375 112.199219 118.207031 " fill-opacity="1" fill-rule="nonzero"/><path fill="#000000" d="M 115.324219 113.78125 C 112.890625 113.78125 110.914062 115.765625 110.914062 118.207031 C 110.914062 120.644531 112.890625 122.628906 115.324219 122.628906 C 117.757812 122.628906 119.734375 120.644531 119.734375 118.207031 C 119.734375 115.765625 117.757812 113.78125 115.324219 113.78125 Z M 115.324219 115.066406 C 117.050781 115.066406 118.449219 116.472656 118.449219 118.207031 C 118.449219 119.9375 117.050781 121.34375 115.324219 121.34375 C 113.597656 121.34375 112.199219 119.9375 112.199219 118.207031 C 112.199219 116.472656 113.597656 115.066406 115.324219 115.066406 " fill-opacity="1" fill-rule="nonzero"/><path fill="#99b9ff" d="M 206.652344 94.839844 C 206.652344 93.109375 208.054688 91.703125 209.78125 91.703125 C 211.507812 91.703125 212.90625 93.109375 212.90625 94.839844 C 212.90625 96.574219 211.507812 97.980469 209.78125 97.980469 C 208.054688 97.980469 206.652344 96.574219 206.652344 94.839844 " fill-opacity="1" fill-rule="nonzero"/><path fill="#000000" d="M 209.78125 90.417969 C 207.347656 90.417969 205.371094 92.402344 205.371094 94.839844 C 205.371094 97.28125 207.347656 99.265625 209.78125 99.265625 C 212.214844 99.265625 214.191406 97.28125 214.191406 94.839844 C 214.191406 92.402344 212.214844 90.417969 209.78125 90.417969 Z M 209.78125 91.703125 C 211.507812 91.703125 212.90625 93.109375 212.90625 94.839844 C 212.90625 96.574219 211.507812 97.980469 209.78125 97.980469 C 208.054688 97.980469 206.652344 96.574219 206.652344 94.839844 C 206.652344 93.109375 208.054688 91.703125 209.78125 91.703125 " fill-opacity="1" fill-rule="nonzero"/><path fill="#5479f7" d="M 262.5625 39.203125 C 262.5625 37.46875 263.964844 36.066406 265.6875 36.066406 C 267.414062 36.066406 268.816406 37.46875 268.816406 39.203125 C 268.816406 40.9375 267.414062 42.34375 265.6875 42.34375 C 263.964844 42.34375 262.5625 40.9375 262.5625 39.203125 " fill-opacity="1" fill-rule="nonzero"/><path fill="#000000" d="M 265.6875 34.78125 C 263.253906 34.78125 261.277344 36.765625 261.277344 39.207031 C 261.277344 41.644531 263.253906 43.628906 265.6875 43.628906 C 268.121094 43.628906 270.097656 41.644531 270.097656 39.207031 C 270.097656 36.765625 268.121094 34.78125 265.6875 34.78125 Z M 265.6875 36.066406 C 267.414062 36.066406 268.816406 37.472656 268.816406 39.207031 C 268.816406 40.941406 267.414062 42.34375 265.6875 42.34375 C 263.960938 42.34375 262.558594 40.941406 262.558594 39.207031 C 262.558594 37.472656 263.960938 36.066406 265.6875 36.066406 " fill-opacity="1" fill-rule="nonzero"/><path fill="#99b9ff" d="M 129.816406 135.238281 C 129.816406 133.503906 131.214844 132.097656 132.941406 132.097656 C 134.667969 132.097656 136.070312 133.503906 136.070312 135.238281 C 136.070312 136.972656 134.667969 138.378906 132.941406 138.378906 C 131.214844 138.378906 129.816406 136.972656 129.816406 135.238281 " fill-opacity="1" fill-rule="nonzero"/><path fill="#000000" d="M 132.941406 130.816406 C 130.507812 130.816406 128.53125 132.800781 128.53125 135.238281 C 128.53125 137.675781 130.507812 139.660156 132.941406 139.660156 C 135.375 139.660156 137.351562 137.675781 137.351562 135.238281 C 137.351562 132.800781 135.375 130.816406 132.941406 130.816406 Z M 132.941406 132.097656 C 134.667969 132.097656 136.070312 133.503906 136.070312 135.238281 C 136.070312 136.972656 134.667969 138.378906 132.941406 138.378906 C 131.214844 138.378906 129.816406 136.972656 129.816406 135.238281 C 129.816406 133.503906 131.214844 132.097656 132.941406 132.097656 " fill-opacity="1" fill-rule="nonzero"/><path fill="#5479f7" d="M 188.269531 76.863281 C 188.269531 75.128906 189.671875 73.726562 191.398438 73.726562 C 193.125 73.726562 194.523438 75.128906 194.523438 76.863281 C 194.523438 78.597656 193.125 80.003906 191.398438 80.003906 C 189.671875 80.003906 188.269531 78.597656 188.269531 76.863281 " fill-opacity="1" fill-rule="nonzero"/><path fill="#000000" d="M 191.398438 72.4375 C 188.964844 72.4375 186.988281 74.421875 186.988281 76.863281 C 186.988281 79.300781 188.964844 81.285156 191.398438 81.285156 C 193.832031 81.285156 195.808594 79.300781 195.808594 76.863281 C 195.808594 74.421875 193.832031 72.4375 191.398438 72.4375 Z M 191.398438 73.726562 C 193.125 73.726562 194.527344 75.128906 194.527344 76.863281 C 194.527344 78.597656 193.125 80 191.398438 80 C 189.671875 80 188.273438 78.597656 188.273438 76.863281 C 188.273438 75.128906 189.671875 73.726562 191.398438 73.726562 " fill-opacity="1" fill-rule="nonzero"/><path fill="#99b9ff" d="M 79.414062 150.652344 C 79.414062 148.921875 80.8125 147.511719 82.539062 147.511719 C 84.269531 147.511719 85.667969 148.921875 85.667969 150.652344 C 85.667969 152.386719 84.269531 153.792969 82.539062 153.792969 C 80.8125 153.792969 79.414062 152.386719 79.414062 150.652344 " fill-opacity="1" fill-rule="nonzero"/><path fill="#000000" d="M 82.539062 146.230469 C 80.109375 146.230469 78.128906 148.214844 78.128906 150.652344 C 78.128906 153.09375 80.109375 155.078125 82.539062 155.078125 C 84.972656 155.078125 86.953125 153.09375 86.953125 150.652344 C 86.953125 148.214844 84.972656 146.230469 82.539062 146.230469 Z M 82.539062 147.511719 C 84.269531 147.511719 85.667969 148.921875 85.667969 150.652344 C 85.667969 152.386719 84.269531 153.792969 82.539062 153.792969 C 80.8125 153.792969 79.414062 152.386719 79.414062 150.652344 C 79.414062 148.921875 80.8125 147.511719 82.539062 147.511719 " fill-opacity="1" fill-rule="nonzero"/><path fill="#caddff" d="M 107.675781 195.996094 L 102.65625 195.890625 C 100.449219 195.84375 98.6875 194.03125 98.691406 191.820312 L 98.738281 167.628906 C 98.742188 165.359375 100.59375 163.53125 102.855469 163.570312 L 107.828125 163.652344 C 110.039062 163.691406 111.808594 165.496094 111.808594 167.71875 C 111.808594 173.886719 111.808594 185.671875 111.808594 191.933594 C 111.808594 194.210938 109.945312 196.042969 107.675781 195.996094 " fill-opacity="1" fill-rule="nonzero"/><path fill="#caddff" d="M 125.453125 195.996094 L 120.429688 195.890625 C 118.226562 195.84375 116.464844 194.03125 116.46875 191.820312 L 116.519531 152.359375 C 116.523438 150.089844 118.375 148.261719 120.636719 148.300781 L 125.605469 148.382812 C 127.816406 148.421875 129.589844 150.226562 129.589844 152.445312 C 129.589844 161.375 129.589844 182.867188 129.589844 191.933594 C 129.589844 194.214844 127.722656 196.042969 125.453125 195.996094 " fill-opacity="1" fill-rule="nonzero"/><path fill="#caddff" d="M 143.234375 195.996094 L 138.210938 195.890625 C 136.007812 195.84375 134.246094 194.03125 134.25 191.820312 L 134.300781 160.496094 C 134.300781 158.226562 136.152344 156.398438 138.414062 156.4375 L 143.386719 156.519531 C 145.597656 156.554688 147.371094 158.363281 147.371094 160.582031 C 147.371094 168.105469 147.371094 184.292969 147.371094 191.933594 C 147.371094 194.210938 145.503906 196.042969 143.234375 195.996094 " fill-opacity="1" fill-rule="nonzero"/><path fill="#caddff" d="M 161.011719 195.996094 L 155.988281 195.890625 C 153.785156 195.84375 152.023438 194.035156 152.023438 191.820312 L 152.082031 130.203125 C 152.082031 127.9375 153.9375 126.109375 156.199219 126.144531 L 161.167969 126.226562 C 163.375 126.265625 165.148438 128.070312 165.148438 130.292969 C 165.148438 142.542969 165.148438 179.484375 165.148438 191.933594 C 165.148438 194.214844 163.28125 196.042969 161.011719 195.996094 " fill-opacity="1" fill-rule="nonzero"/><path fill="#caddff" d="M 178.792969 195.996094 L 173.765625 195.890625 C 171.5625 195.84375 169.800781 194.035156 169.804688 191.820312 L 169.859375 114.34375 C 169.863281 112.070312 171.714844 110.242188 173.976562 110.28125 L 178.945312 110.363281 C 181.15625 110.398438 182.929688 112.203125 182.929688 114.421875 C 182.929688 128.738281 182.929688 177.371094 182.929688 191.933594 C 182.929688 194.210938 181.0625 196.042969 178.792969 195.996094 " fill-opacity="1" fill-rule="nonzero"/><path fill="#99b9ff" d="M 196.574219 195.996094 L 191.546875 195.890625 C 189.34375 195.84375 187.582031 194.035156 187.582031 191.820312 L 187.640625 102.542969 C 187.640625 100.273438 189.496094 98.445312 191.757812 98.480469 L 196.726562 98.566406 C 198.933594 98.601562 200.707031 100.410156 200.707031 102.625 C 200.707031 118.355469 200.707031 175.929688 200.707031 191.929688 C 200.707031 194.210938 198.839844 196.042969 196.574219 195.996094 " fill-opacity="1" fill-rule="nonzero"/><path fill="#caddff" d="M 214.351562 195.996094 L 209.328125 195.890625 C 207.121094 195.84375 205.359375 194.035156 205.363281 191.820312 L 205.417969 128.402344 C 205.421875 126.132812 207.273438 124.304688 209.535156 124.339844 L 214.503906 124.421875 C 216.714844 124.460938 218.484375 126.269531 218.484375 128.488281 C 218.484375 140.984375 218.484375 179.234375 218.484375 191.933594 C 218.484375 194.214844 216.621094 196.042969 214.351562 195.996094 " fill-opacity="1" fill-rule="nonzero"/><path fill="#caddff" d="M 232.132812 195.996094 L 227.105469 195.890625 C 224.902344 195.84375 223.140625 194.035156 223.144531 191.820312 L 223.199219 107.664062 C 223.203125 105.394531 225.054688 103.566406 227.316406 103.601562 L 232.285156 103.6875 C 234.496094 103.722656 236.265625 105.53125 236.265625 107.75 C 236.265625 122.882812 236.265625 176.550781 236.265625 191.933594 C 236.265625 194.210938 234.402344 196.042969 232.132812 195.996094 " fill-opacity="1" fill-rule="nonzero"/><path fill="#caddff" d="M 249.910156 196 L 244.882812 195.890625 C 242.679688 195.84375 240.921875 194.035156 240.921875 191.824219 L 240.976562 82.394531 C 240.980469 80.125 242.832031 78.292969 245.097656 78.332031 L 250.0625 78.414062 C 252.269531 78.453125 254.042969 80.261719 254.042969 82.480469 C 254.042969 100.449219 254.042969 173.65625 254.042969 191.933594 C 254.042969 194.214844 252.179688 196.042969 249.910156 196 " fill-opacity="1" fill-rule="nonzero"/><path fill="#99b9ff" d="M 267.933594 195.996094 L 262.90625 195.890625 C 260.699219 195.84375 258.941406 194.035156 258.941406 191.824219 L 259 65.414062 C 259 63.140625 260.855469 61.308594 263.117188 61.347656 L 268.082031 61.429688 C 270.292969 61.46875 272.066406 63.277344 272.066406 65.496094 C 272.066406 85.203125 272.066406 171.882812 272.066406 191.933594 C 272.066406 194.210938 270.199219 196.042969 267.933594 195.996094 " fill-opacity="1" fill-rule="nonzero"/><path fill="#caddff" d="M 310.8125 28.765625 L 286.03125 28.765625 C 285.527344 28.765625 285.121094 28.359375 285.121094 27.855469 L 285.121094 23.820312 C 285.121094 23.316406 285.527344 22.910156 286.03125 22.910156 L 310.8125 22.910156 C 311.316406 22.910156 311.722656 23.316406 311.722656 23.820312 L 311.722656 27.855469 C 311.722656 28.359375 311.316406 28.765625 310.8125 28.765625 " fill-opacity="1" fill-rule="nonzero"/><path fill="#caddff" d="M 334.011719 28.765625 L 320.160156 28.765625 C 319.65625 28.765625 319.25 28.359375 319.25 27.855469 L 319.25 23.820312 C 319.25 23.316406 319.65625 22.910156 320.160156 22.910156 L 334.011719 22.910156 C 334.515625 22.910156 334.925781 23.316406 334.925781 23.820312 L 334.925781 27.855469 C 334.925781 28.359375 334.515625 28.765625 334.011719 28.765625 " fill-opacity="1" fill-rule="nonzero"/><path fill="#caddff" d="M 334.363281 41.648438 L 286.617188 41.648438 C 286.113281 41.648438 285.703125 41.238281 285.703125 40.734375 L 285.703125 36.703125 C 285.703125 36.199219 286.113281 35.792969 286.617188 35.792969 L 334.363281 35.792969 C 334.867188 35.792969 335.273438 36.199219 335.273438 36.703125 L 335.273438 40.734375 C 335.273438 41.238281 334.867188 41.648438 334.363281 41.648438 " fill-opacity="1" fill-rule="nonzero"/><path fill="#caddff" d="M 334.949219 54.527344 L 296.464844 54.527344 C 295.960938 54.527344 295.554688 54.117188 295.554688 53.617188 L 295.554688 49.582031 C 295.554688 49.082031 295.960938 48.671875 296.464844 48.671875 L 334.949219 48.671875 C 335.453125 48.671875 335.859375 49.082031 335.859375 49.582031 L 335.859375 53.617188 C 335.859375 54.117188 335.453125 54.527344 334.949219 54.527344 " fill-opacity="1" fill-rule="nonzero"/><path fill="#caddff" d="M 329.160156 67.410156 L 287.78125 67.410156 C 287.277344 67.410156 286.871094 67 286.871094 66.496094 L 286.871094 62.464844 C 286.871094 61.960938 287.277344 61.554688 287.78125 61.554688 L 329.160156 61.554688 C 329.664062 61.554688 330.070312 61.960938 330.070312 62.464844 L 330.070312 66.496094 C 330.070312 67 329.664062 67.410156 329.160156 67.410156 " fill-opacity="1" fill-rule="nonzero"/><path fill="#caddff" d="M 334.121094 79.941406 L 296.730469 79.941406 C 296.226562 79.941406 295.816406 79.53125 295.816406 79.027344 L 295.816406 74.996094 C 295.816406 74.492188 296.226562 74.082031 296.730469 74.082031 L 334.121094 74.082031 C 334.628906 74.082031 335.039062 74.492188 335.039062 74.996094 L 335.039062 79.027344 C 335.039062 79.53125 334.628906 79.941406 334.121094 79.941406 " fill-opacity="1" fill-rule="nonzero"/><path fill="#ffffff" d="M 247.132812 87.636719 C 247.148438 77.679688 255.199219 69.574219 265.113281 69.53125 C 275.035156 69.488281 283.0625 77.523438 283.046875 87.476562 C 283.035156 97.433594 274.984375 105.539062 265.066406 105.585938 C 255.148438 105.628906 247.121094 97.59375 247.132812 87.636719 " fill-opacity="1" fill-rule="nonzero"/><path fill="#000000" d="M 247.777344 87.636719 C 247.769531 92.292969 249.574219 96.660156 252.851562 99.929688 C 256.097656 103.164062 260.40625 104.941406 264.984375 104.941406 C 265.011719 104.941406 265.039062 104.941406 265.066406 104.941406 C 274.613281 104.898438 282.394531 97.066406 282.40625 87.476562 C 282.414062 82.820312 280.609375 78.457031 277.328125 75.183594 C 274.085938 71.953125 269.777344 70.175781 265.195312 70.175781 C 265.167969 70.175781 265.144531 70.175781 265.117188 70.175781 C 255.570312 70.214844 247.789062 78.050781 247.777344 87.636719 Z M 264.984375 106.226562 C 260.058594 106.226562 255.433594 104.316406 251.945312 100.839844 C 248.421875 97.324219 246.484375 92.636719 246.492188 87.636719 C 246.503906 77.34375 254.859375 68.933594 265.109375 68.890625 C 265.140625 68.890625 265.167969 68.890625 265.195312 68.890625 C 270.117188 68.890625 274.746094 70.800781 278.234375 74.277344 C 281.757812 77.792969 283.699219 82.480469 283.6875 87.480469 C 283.675781 97.769531 275.320312 106.179688 265.070312 106.226562 C 265.042969 106.226562 265.011719 106.226562 264.984375 106.226562 " fill-opacity="1" fill-rule="nonzero"/><path fill="#5479f7" d="M 274.199219 79.191406 L 268.726562 82.417969 C 268.445312 82.585938 268.4375 82.996094 268.710938 83.171875 L 269.519531 83.695312 C 269.726562 83.828125 269.785156 84.101562 269.65625 84.304688 L 267.117188 88.277344 C 266.984375 88.484375 266.710938 88.542969 266.507812 88.414062 L 261.800781 85.378906 C 261.597656 85.246094 261.324219 85.308594 261.191406 85.511719 L 255.527344 94.324219 C 255.398438 94.53125 255.457031 94.804688 255.660156 94.9375 L 257.382812 96.042969 C 257.585938 96.175781 257.859375 96.117188 257.988281 95.910156 L 262.074219 89.574219 C 262.207031 89.367188 262.480469 89.308594 262.6875 89.4375 L 267.390625 92.46875 C 267.59375 92.601562 267.867188 92.542969 268 92.335938 L 272.113281 85.898438 C 272.242188 85.691406 272.519531 85.632812 272.726562 85.765625 L 273.597656 86.328125 C 273.875 86.507812 274.242188 86.328125 274.273438 85.996094 L 274.863281 79.613281 C 274.894531 79.253906 274.511719 79.007812 274.199219 79.191406 " fill-opacity="1" fill-rule="nonzero"/><path fill="#5479f7" d="M 68.722656 194.09375 L 68.722656 205.6875 C 68.722656 222.300781 81.789062 235.773438 97.910156 235.773438 C 114.027344 235.773438 127.097656 249.242188 127.097656 265.855469 C 127.097656 267.335938 125.902344 268.535156 124.429688 268.535156 L 47.167969 268.535156 C 23.003906 268.535156 3.414062 248.34375 3.414062 223.4375 L 3.414062 192.582031 C 3.414062 182.675781 11.203125 174.644531 20.816406 174.644531 L 49.851562 174.644531 C 60.273438 174.644531 68.722656 183.351562 68.722656 194.09375 " fill-opacity="1" fill-rule="nonzero"/><path fill="#5479f7" d="M 68.835938 354.09375 L 76.96875 354.09375 L 76.96875 265.9375 L 68.835938 265.9375 L 68.835938 354.09375 " fill-opacity="1" fill-rule="nonzero"/><path fill="#5479f7" d="M 111.015625 352.785156 L 75.027344 349.613281 L 71.726562 349.613281 L 34.988281 352.785156 L 34.988281 355.300781 L 111.015625 355.300781 L 111.015625 352.785156 " fill-opacity="1" fill-rule="nonzero"/><path fill="#ffffff" d="M 59.820312 270.089844 L 48.796875 277.496094 L 54.378906 284.117188 L 67.074219 277.894531 L 59.820312 270.089844 " fill-opacity="1" fill-rule="nonzero"/><path fill="#000000" d="M 49.75 277.625 L 54.546875 283.320312 L 66.015625 277.699219 L 59.722656 270.929688 Z M 54.378906 284.757812 C 54.195312 284.757812 54.015625 284.679688 53.890625 284.53125 L 48.304688 277.910156 C 48.1875 277.769531 48.136719 277.585938 48.160156 277.40625 C 48.183594 277.222656 48.285156 277.0625 48.4375 276.960938 L 59.460938 269.554688 C 59.722656 269.382812 60.074219 269.421875 60.289062 269.652344 L 67.542969 277.457031 C 67.683594 277.605469 67.742188 277.8125 67.707031 278.011719 C 67.667969 278.210938 67.539062 278.382812 67.355469 278.472656 L 54.664062 284.691406 C 54.574219 284.738281 54.476562 284.757812 54.378906 284.757812 " fill-opacity="1" fill-rule="nonzero"/><path fill="#5479f7" d="M 50.691406 274.15625 C 49.027344 275.179688 45.984375 277.128906 43.484375 279.15625 C 41.914062 280.429688 41.570312 282.691406 42.644531 284.402344 C 45.683594 289.246094 53.238281 299.6875 60.960938 307.515625 C 61.488281 308.050781 62.75 308.726562 64.425781 307.816406 C 70.164062 304.699219 64.035156 294.925781 59.914062 282.375 L 56.960938 282.042969 C 55.390625 281.867188 54.078125 280.761719 53.628906 279.238281 L 52.320312 274.785156 C 52.117188 274.089844 51.308594 273.773438 50.691406 274.15625 " fill-opacity="1" fill-rule="nonzero"/><path fill="#000000" d="M 50.691406 274.15625 L 50.695312 274.15625 Z M 51.027344 274.703125 C 49.429688 275.6875 46.375 277.640625 43.890625 279.65625 C 42.578125 280.71875 42.277344 282.613281 43.1875 284.0625 C 46.324219 289.0625 53.769531 299.3125 61.417969 307.0625 C 61.59375 307.246094 62.558594 308.101562 64.117188 307.253906 C 67.925781 305.183594 65.679688 299.421875 62.570312 291.445312 C 61.570312 288.878906 60.441406 285.984375 59.4375 282.964844 L 56.890625 282.679688 C 55.058594 282.476562 53.535156 281.195312 53.015625 279.421875 L 51.707031 274.96875 C 51.664062 274.828125 51.5625 274.714844 51.425781 274.664062 C 51.347656 274.636719 51.195312 274.601562 51.027344 274.703125 Z M 62.808594 308.902344 C 61.820312 308.902344 61.007812 308.476562 60.503906 307.964844 C 52.785156 300.140625 45.269531 289.792969 42.101562 284.746094 C 40.84375 282.746094 41.265625 280.128906 43.082031 278.65625 C 45.625 276.597656 48.730469 274.609375 50.351562 273.609375 C 50.820312 273.320312 51.378906 273.269531 51.886719 273.464844 C 52.398438 273.660156 52.78125 274.078125 52.9375 274.605469 L 54.246094 279.058594 C 54.621094 280.335938 55.714844 281.257812 57.03125 281.402344 L 60.398438 281.78125 L 60.527344 282.171875 C 61.550781 285.296875 62.726562 288.316406 63.765625 290.980469 C 66.988281 299.246094 69.53125 305.773438 64.730469 308.382812 C 64.046875 308.753906 63.398438 308.902344 62.808594 308.902344 " fill-opacity="1" fill-rule="nonzero"/><path fill="#ffffff" d="M 43.863281 278.855469 C 43.863281 278.855469 43.605469 279.058594 43.484375 279.15625 C 41.914062 280.429688 41.570312 282.691406 42.644531 284.402344 C 45.683594 289.246094 53.238281 299.6875 60.960938 307.515625 C 61.488281 308.050781 62.75 308.726562 64.425781 307.816406 C 64.9375 307.539062 65.6875 306.824219 65.6875 306.824219 L 65.167969 306.25 C 57.71875 298.046875 50.878906 289.308594 44.699219 280.101562 L 43.863281 278.855469 " fill-opacity="1" fill-rule="nonzero"/><path fill="#000000" d="M 43.722656 279.800781 C 42.554688 280.886719 42.316406 282.675781 43.1875 284.0625 C 46.324219 289.0625 53.769531 299.3125 61.417969 307.0625 C 61.59375 307.246094 62.558594 308.101562 64.117188 307.253906 C 64.304688 307.152344 64.554688 306.960938 64.777344 306.773438 L 64.691406 306.679688 C 57.246094 298.484375 50.339844 289.660156 44.164062 280.460938 Z M 62.808594 308.902344 C 61.820312 308.902344 61.007812 308.476562 60.503906 307.964844 C 52.785156 300.140625 45.269531 289.792969 42.101562 284.746094 C 40.84375 282.746094 41.265625 280.128906 43.082031 278.65625 C 43.203125 278.558594 43.460938 278.351562 43.460938 278.351562 C 43.601562 278.242188 43.785156 278.195312 43.960938 278.222656 C 44.136719 278.25 44.296875 278.347656 44.394531 278.496094 L 45.234375 279.746094 C 51.371094 288.894531 58.238281 297.664062 65.640625 305.816406 L 66.164062 306.390625 C 66.398438 306.652344 66.386719 307.050781 66.132812 307.289062 C 66.046875 307.371094 65.300781 308.070312 64.730469 308.382812 C 64.046875 308.753906 63.398438 308.902344 62.808594 308.902344 " fill-opacity="1" fill-rule="nonzero"/><path fill="#000000" d="M 61.921875 290.21875 C 61.902344 290.21875 61.886719 290.21875 61.871094 290.21875 L 56.265625 289.777344 C 55.910156 289.746094 55.648438 289.4375 55.675781 289.082031 C 55.703125 288.730469 56.011719 288.464844 56.367188 288.496094 L 61.96875 288.9375 C 62.324219 288.964844 62.589844 289.273438 62.558594 289.628906 C 62.535156 289.964844 62.253906 290.21875 61.921875 290.21875 " fill-opacity="1" fill-rule="nonzero"/><path fill="#000000" d="M 58.339844 294.113281 C 57.984375 294.113281 57.699219 293.824219 57.699219 293.46875 C 57.695312 293.113281 57.984375 292.828125 58.339844 292.824219 L 63.808594 292.8125 C 64.183594 292.8125 64.453125 293.097656 64.453125 293.449219 C 64.457031 293.808594 64.167969 294.09375 63.8125 294.097656 L 58.34375 294.113281 C 58.339844 294.113281 58.339844 294.113281 58.339844 294.113281 " fill-opacity="1" fill-rule="nonzero"/><path fill="#000000" d="M 138.488281 221.417969 C 143.011719 221.4375 158.359375 223.988281 158.808594 238.046875 C 158.964844 242.839844 162.796875 251.679688 134.089844 257.285156 C 99.863281 263.976562 74.40625 276.984375 68.671875 280.078125 C 67.835938 280.53125 66.855469 280.628906 65.949219 280.351562 C 63.078125 279.464844 57.019531 277.007812 56.257812 271.800781 C 56.089844 270.632812 56.609375 269.46875 57.558594 268.777344 L 64.625 263.636719 L 57.925781 260.050781 C 50.277344 255.957031 44.230469 249.214844 41.484375 240.957031 C 39.027344 233.570312 37.8125 220.929688 37.8125 220.929688 L 138.488281 221.417969 " fill-opacity="1" fill-rule="nonzero"/><path fill="#ffffff" d="M 264.769531 355.835938 L 235.746094 255.21875 L 206.722656 355.835938 L 199.765625 355.835938 L 231.652344 242.300781 L 239.835938 242.289062 L 271.726562 355.835938 L 264.769531 355.835938 " fill-opacity="1" fill-rule="nonzero"/><path fill="#ffffff" d="M 143.617188 330.398438 C 144.710938 334.523438 144.988281 338.820312 144.429688 343.050781 L 160.90625 340.300781 C 156.832031 338.765625 153.710938 335.402344 152.480469 331.210938 L 151.539062 328.015625 L 143.617188 330.398438 " fill-opacity="1" fill-rule="nonzero"/><path fill="#000000" d="M 144.390625 330.835938 C 145.3125 334.589844 145.578125 338.433594 145.167969 342.277344 L 158.753906 340.007812 C 155.453125 338.167969 152.945312 335.066406 151.863281 331.394531 L 151.105469 328.816406 Z M 144.429688 343.695312 C 144.265625 343.695312 144.105469 343.628906 143.984375 343.511719 C 143.835938 343.371094 143.765625 343.167969 143.792969 342.96875 C 144.34375 338.796875 144.074219 334.625 142.996094 330.5625 C 142.90625 330.230469 143.097656 329.882812 143.429688 329.785156 L 151.355469 327.398438 C 151.515625 327.347656 151.695312 327.371094 151.84375 327.449219 C 151.996094 327.53125 152.105469 327.667969 152.152344 327.832031 L 153.09375 331.03125 C 154.261719 335.007812 157.265625 338.246094 161.132812 339.699219 C 161.402344 339.800781 161.574219 340.074219 161.546875 340.363281 C 161.519531 340.652344 161.296875 340.886719 161.011719 340.933594 L 144.535156 343.683594 C 144.5 343.691406 144.464844 343.695312 144.429688 343.695312 " fill-opacity="1" fill-rule="nonzero"/><path fill="#5479f7" d="M 143.824219 337.753906 C 143.292969 339.8125 142.203125 345.597656 141.765625 349.070312 C 141.496094 351.253906 142.917969 353.28125 145.042969 353.808594 C 151.046875 355.292969 165.324219 354.929688 177.222656 355.207031 C 178.039062 355.226562 179.53125 354.796875 180.160156 352.820312 C 182.308594 346.042969 169.46875 344.273438 156.847656 337.578125 C 156.847656 337.578125 156.117188 338.195312 155.035156 338.785156 C 153.21875 339.769531 150.238281 339.679688 148.445312 338.65625 L 145.574219 337.015625 C 144.890625 336.625 144.023438 336.988281 143.824219 337.753906 " fill-opacity="1" fill-rule="nonzero"/><path fill="#000000" d="M 144.445312 337.917969 C 143.90625 339.996094 142.820312 345.820312 142.40625 349.152344 C 142.171875 351 143.375 352.734375 145.195312 353.183594 C 149.589844 354.269531 158.84375 354.355469 167.796875 354.433594 C 170.9375 354.464844 174.1875 354.492188 177.238281 354.566406 C 177.519531 354.570312 178.949219 354.507812 179.546875 352.628906 C 180.789062 348.710938 176.199219 346.628906 167.980469 343.285156 C 164.582031 341.902344 160.746094 340.339844 156.914062 338.339844 C 156.582031 338.589844 156.03125 338.972656 155.339844 339.347656 C 153.367188 340.417969 150.132812 340.359375 148.128906 339.214844 L 145.253906 337.574219 C 145.101562 337.488281 144.925781 337.476562 144.765625 337.542969 C 144.605469 337.613281 144.492188 337.746094 144.445312 337.917969 Z M 177.277344 355.847656 C 177.253906 355.847656 177.230469 355.847656 177.210938 355.847656 C 174.164062 355.777344 170.921875 355.75 167.785156 355.71875 C 158.34375 355.636719 149.425781 355.554688 144.886719 354.429688 C 142.433594 353.824219 140.816406 351.488281 141.128906 348.992188 C 141.5625 345.527344 142.652344 339.730469 143.203125 337.59375 C 143.347656 337.035156 143.734375 336.585938 144.265625 336.359375 C 144.796875 336.136719 145.390625 336.171875 145.890625 336.457031 L 148.765625 338.097656 C 150.398438 339.03125 153.128906 339.085938 154.726562 338.21875 C 155.734375 337.671875 156.425781 337.09375 156.429688 337.085938 L 156.761719 336.808594 L 157.144531 337.007812 C 161.042969 339.078125 164.984375 340.679688 168.464844 342.097656 C 176.265625 345.269531 182.433594 347.777344 180.769531 353.015625 C 180.105469 355.113281 178.488281 355.847656 177.277344 355.847656 " fill-opacity="1" fill-rule="nonzero"/><path fill="#ffffff" d="M 141.4375 350.648438 C 141.429688 350.710938 141.421875 350.753906 141.417969 350.769531 C 141.148438 352.953125 143.25 354.246094 145.25 355.128906 C 151.308594 357.8125 175.867188 355.609375 175.867188 355.609375 C 175.867188 355.609375 179.160156 355.644531 180.039062 353.660156 C 180.167969 353.371094 180.226562 352.9375 180.257812 352.578125 C 180.285156 352.1875 180.25 351.796875 180.15625 351.421875 L 179.9375 350.535156 C 176.597656 351.867188 161.550781 352.882812 150.632812 351.523438 C 146.050781 350.953125 143.398438 348.972656 141.871094 348.214844 C 141.871094 348.214844 141.65625 349.402344 141.4375 350.648438 " fill-opacity="1" fill-rule="nonzero"/><path fill="#000000" d="M 142.070312 350.761719 L 142.054688 350.851562 C 141.878906 352.269531 142.945312 353.410156 145.511719 354.542969 C 151.347656 357.125 175.566406 354.992188 175.8125 354.972656 C 175.835938 354.96875 175.855469 354.96875 175.875 354.96875 C 176.675781 354.980469 178.875 354.703125 179.449219 353.402344 C 179.484375 353.320312 179.570312 353.078125 179.613281 352.523438 C 179.640625 352.21875 179.613281 351.898438 179.53125 351.574219 L 179.480469 351.359375 C 175.050781 352.59375 160.902344 353.449219 150.554688 352.160156 C 146.71875 351.6875 144.210938 350.261719 142.554688 349.320312 C 142.484375 349.28125 142.414062 349.242188 142.347656 349.203125 C 142.269531 349.640625 142.171875 350.195312 142.070312 350.761719 Z M 157.832031 357.105469 C 152.464844 357.105469 147.386719 356.777344 144.988281 355.71875 C 143.023438 354.847656 140.445312 353.378906 140.78125 350.691406 C 140.785156 350.667969 140.792969 350.617188 140.808594 350.539062 C 141.027344 349.292969 141.238281 348.101562 141.238281 348.101562 C 141.273438 347.902344 141.402344 347.730469 141.582031 347.640625 C 141.761719 347.546875 141.976562 347.546875 142.15625 347.636719 C 142.460938 347.792969 142.796875 347.980469 143.1875 348.203125 C 144.757812 349.09375 147.128906 350.441406 150.710938 350.886719 C 161.515625 352.230469 176.421875 351.246094 179.699219 349.9375 C 179.871094 349.867188 180.066406 349.875 180.234375 349.960938 C 180.398438 350.046875 180.519531 350.199219 180.5625 350.378906 L 180.78125 351.265625 C 180.894531 351.726562 180.929688 352.183594 180.894531 352.628906 C 180.851562 353.175781 180.761719 353.613281 180.625 353.921875 C 179.632812 356.167969 176.300781 356.25 175.898438 356.25 C 175.066406 356.324219 166.109375 357.105469 157.832031 357.105469 " fill-opacity="1" fill-rule="nonzero"/><path fill="#000000" d="M 158.214844 343.800781 C 158.023438 343.800781 157.839844 343.71875 157.710938 343.558594 C 157.492188 343.277344 157.539062 342.875 157.816406 342.65625 L 161.367188 339.847656 C 161.644531 339.628906 162.046875 339.675781 162.269531 339.953125 C 162.488281 340.230469 162.441406 340.632812 162.164062 340.855469 L 158.613281 343.664062 C 158.496094 343.753906 158.355469 343.800781 158.214844 343.800781 " fill-opacity="1" fill-rule="nonzero"/><path fill="#000000" d="M 163.046875 345.65625 C 162.855469 345.65625 162.667969 345.570312 162.539062 345.410156 C 162.320312 345.128906 162.371094 344.726562 162.652344 344.507812 L 165.757812 342.085938 C 166.035156 341.867188 166.4375 341.917969 166.660156 342.199219 C 166.875 342.476562 166.824219 342.882812 166.546875 343.101562 L 163.4375 345.519531 C 163.324219 345.613281 163.183594 345.65625 163.046875 345.65625 " fill-opacity="1" fill-rule="nonzero"/><path fill="#000000" d="M 108.945312 243.375 C 108.945312 243.375 121.488281 246.148438 130.824219 252.609375 C 138.914062 258.207031 147.441406 268.914062 155.210938 325.019531 C 155.734375 328.789062 152.519531 331.484375 150.320312 331.996094 C 147.203125 332.726562 144.640625 332.441406 142.007812 330.730469 C 137.519531 327.816406 120.570312 284.660156 110.46875 275.503906 C 100.367188 266.34375 57.699219 264.386719 49.46875 252.730469 C 41.238281 241.078125 61.441406 241.078125 61.441406 241.078125 L 108.945312 243.375 " fill-opacity="1" fill-rule="nonzero"/><path fill="#caddff" d="M 85.710938 273.273438 C 85.472656 273.273438 85.246094 273.140625 85.132812 272.914062 C 84.976562 272.59375 85.109375 272.207031 85.429688 272.050781 C 86.253906 271.648438 87.042969 271.257812 87.8125 270.878906 C 97.96875 265.875 104.101562 262.855469 122.675781 259.601562 C 123.023438 259.542969 123.359375 259.777344 123.417969 260.125 C 123.480469 260.472656 123.246094 260.808594 122.898438 260.867188 C 104.503906 264.089844 98.433594 267.078125 88.382812 272.03125 C 87.613281 272.414062 86.816406 272.804688 85.992188 273.207031 C 85.902344 273.25 85.804688 273.273438 85.710938 273.273438 " fill-opacity="1" fill-rule="nonzero"/><path fill="#99b9ff" d="M 199.390625 232.25 L 117.210938 232.25 C 116.441406 232.25 115.816406 231.625 115.816406 230.855469 L 115.816406 227.671875 L 200.785156 227.671875 L 200.785156 230.855469 C 200.785156 231.625 200.160156 232.25 199.390625 232.25 " fill-opacity="1" fill-rule="nonzero"/><path fill="#000000" d="M 116.457031 228.3125 L 116.457031 229.179688 C 116.457031 230.519531 117.546875 231.605469 118.886719 231.605469 L 197.714844 231.605469 C 199.054688 231.605469 200.144531 230.519531 200.144531 229.179688 L 200.144531 228.3125 Z M 197.714844 232.894531 L 118.886719 232.894531 C 116.839844 232.894531 115.171875 231.226562 115.171875 229.179688 L 115.171875 227.671875 C 115.171875 227.316406 115.460938 227.027344 115.816406 227.027344 L 200.785156 227.027344 C 201.140625 227.027344 201.425781 227.316406 201.425781 227.671875 L 201.425781 229.179688 C 201.425781 231.226562 199.761719 232.894531 197.714844 232.894531 " fill-opacity="1" fill-rule="nonzero"/><path fill="#99b9ff" d="M 200.785156 227.753906 L 152.167969 227.753906 L 166.550781 185.296875 C 167.472656 183.871094 169.085938 183.003906 170.816406 183.003906 L 211.917969 183.003906 C 213.78125 183.003906 214.980469 184.820312 214.375 186.421875 C 214.128906 187.0625 200.785156 227.753906 200.785156 227.753906 " fill-opacity="1" fill-rule="nonzero"/><path fill="#000000" d="M 153.0625 227.109375 L 200.320312 227.109375 C 201.84375 222.46875 213.539062 186.8125 213.773438 186.195312 C 213.984375 185.636719 213.902344 184.996094 213.550781 184.488281 C 213.183594 183.953125 212.585938 183.644531 211.917969 183.644531 L 170.816406 183.644531 C 169.320312 183.644531 167.949219 184.367188 167.132812 185.582031 Z M 200.785156 228.394531 L 152.167969 228.394531 C 151.960938 228.394531 151.765625 228.296875 151.644531 228.128906 C 151.523438 227.957031 151.492188 227.742188 151.558594 227.546875 L 165.941406 185.09375 C 165.960938 185.042969 165.980469 184.992188 166.011719 184.949219 C 167.0625 183.328125 168.859375 182.359375 170.816406 182.359375 L 211.917969 182.359375 C 213.011719 182.359375 213.996094 182.871094 214.609375 183.757812 C 215.199219 184.617188 215.335938 185.695312 214.972656 186.652344 C 214.75 187.257812 205.996094 213.929688 201.394531 227.953125 C 201.308594 228.214844 201.0625 228.394531 200.785156 228.394531 " fill-opacity="1" fill-rule="nonzero"/><path fill="#ffffff" d="M 197.695312 223.789062 L 157.691406 223.789062 L 170.019531 187.050781 L 209.910156 186.996094 L 197.695312 223.789062 " fill-opacity="1" fill-rule="nonzero"/><path fill="#caddff" d="M 168.425781 219.183594 L 163.75 219.183594 L 165.191406 214.890625 L 169.851562 214.882812 L 168.425781 219.183594 " fill-opacity="1" fill-rule="nonzero"/><path fill="#99b9ff" d="M 177.101562 219.183594 L 172.09375 219.183594 L 175.863281 207.945312 L 180.835938 207.929688 L 177.101562 219.183594 " fill-opacity="1" fill-rule="nonzero"/><path fill="#5479f7" d="M 186.796875 219.183594 L 181.40625 219.183594 L 188.867188 196.960938 L 194.183594 196.925781 L 186.796875 219.183594 " fill-opacity="1" fill-rule="nonzero"/><path fill="#ffffff" d="M 19.9375 169.75 C 22.058594 165.058594 27.710938 162.027344 32.101562 160.308594 C 35.136719 159.117188 38.355469 158.46875 41.613281 158.339844 L 53.128906 157.886719 C 57.476562 157.574219 62.601562 157.777344 68.195312 158.773438 C 75.625 160.097656 82.292969 164.167969 87.035156 170.066406 C 89.175781 172.730469 91.066406 175.039062 91.222656 175.089844 C 97.449219 183.863281 98.289062 185.410156 102.789062 188.683594 C 110.304688 194.152344 123.457031 189.695312 123.457031 189.695312 C 127.839844 189.035156 129.429688 192.320312 130.226562 194.144531 C 131.1875 196.335938 130.257812 199.011719 129.410156 200.730469 C 128.871094 201.828125 127.945312 202.6875 126.816406 203.148438 C 121.175781 205.457031 101.996094 212.648438 93.203125 207.644531 C 85.871094 203.472656 80.945312 194.765625 77.019531 190.492188 C 76.621094 190.058594 75.914062 190.378906 75.964844 190.964844 C 76.792969 200.570312 84.679688 211.976562 87.082031 215.25 C 87.511719 215.835938 88.160156 216.214844 88.882812 216.296875 L 106.238281 218.28125 C 106.476562 218.296875 106.734375 218.398438 106.992188 218.535156 C 108.128906 219.148438 108.871094 220.308594 109.042969 221.59375 C 109.316406 223.644531 109.144531 227.492188 108.515625 228.730469 L 107.921875 229.90625 C 107.441406 230.855469 106.480469 231.460938 105.417969 231.476562 C 96.195312 231.628906 54.621094 231.640625 43.328125 231.578125 C 33.007812 231.519531 28.859375 226.410156 23.347656 211.957031 C 21.160156 206.210938 14.273438 182.273438 19.9375 169.75 " fill-opacity="1" fill-rule="nonzero"/><path fill="#000000" d="M 20.523438 170.015625 C 14.957031 182.316406 21.925781 206.421875 23.949219 211.726562 C 29.675781 226.753906 33.84375 230.878906 43.332031 230.933594 C 54.726562 231 96.238281 230.984375 105.410156 230.832031 C 106.230469 230.820312 106.972656 230.355469 107.347656 229.617188 L 107.941406 228.441406 C 108.488281 227.363281 108.667969 223.65625 108.40625 221.679688 C 108.257812 220.5625 107.617188 219.597656 106.691406 219.101562 C 106.421875 218.957031 106.261719 218.925781 106.191406 218.921875 L 88.808594 216.933594 C 87.914062 216.832031 87.09375 216.359375 86.5625 215.628906 C 84.140625 212.324219 76.167969 200.785156 75.324219 191.019531 C 75.277344 190.472656 75.570312 189.976562 76.070312 189.757812 C 76.566406 189.535156 77.125 189.65625 77.492188 190.058594 C 78.644531 191.3125 79.886719 192.949219 81.203125 194.683594 C 84.417969 198.914062 88.414062 204.179688 93.519531 207.085938 C 102.050781 211.9375 120.976562 204.84375 126.574219 202.554688 C 127.5625 202.148438 128.367188 201.398438 128.835938 200.445312 C 129.667969 198.753906 130.484375 196.332031 129.640625 194.402344 C 128.628906 192.101562 127.125 189.820312 123.605469 190.320312 C 122.527344 190.679688 109.933594 194.675781 102.410156 189.203125 C 98.289062 186.203125 97.167969 184.617188 92.453125 177.941406 C 91.929688 177.199219 91.363281 176.394531 90.738281 175.519531 C 90.363281 175.175781 89.457031 174.109375 86.535156 170.46875 C 81.828125 164.617188 75.277344 160.6875 68.082031 159.40625 C 62.980469 158.496094 57.824219 158.191406 53.171875 158.527344 L 41.636719 158.980469 C 38.394531 159.109375 35.265625 159.753906 32.335938 160.90625 C 28.070312 162.578125 22.558594 165.515625 20.523438 170.015625 Z M 64.386719 232.253906 C 55.410156 232.253906 47.421875 232.242188 43.328125 232.21875 C 32.230469 232.15625 28.011719 225.988281 22.75 212.183594 C 20.554688 206.429688 13.550781 182.316406 19.351562 169.488281 C 21.566406 164.59375 27.378906 161.46875 31.867188 159.707031 C 34.929688 158.507812 38.199219 157.832031 41.585938 157.699219 L 53.101562 157.246094 C 57.839844 156.902344 63.101562 157.210938 68.308594 158.140625 C 75.808594 159.476562 82.636719 163.570312 87.535156 169.664062 C 90.484375 173.332031 91.308594 174.277344 91.539062 174.511719 L 91.617188 174.535156 L 91.746094 174.714844 C 92.382812 175.617188 92.964844 176.441406 93.503906 177.199219 C 98.117188 183.734375 99.214844 185.289062 103.167969 188.164062 C 110.328125 193.378906 123.121094 189.128906 123.25 189.085938 L 123.359375 189.058594 C 128.371094 188.304688 130.148438 192.359375 130.816406 193.886719 C 131.859375 196.269531 130.941406 199.078125 129.988281 201.011719 C 129.378906 202.25 128.339844 203.21875 127.058594 203.742188 C 122.769531 205.496094 110.816406 210.003906 101.289062 210.003906 C 98.085938 210.003906 95.15625 209.496094 92.882812 208.203125 C 87.550781 205.167969 83.464844 199.785156 80.179688 195.460938 C 78.90625 193.785156 77.703125 192.195312 76.609375 190.996094 C 77.472656 200.414062 85.234375 211.644531 87.597656 214.871094 C 87.921875 215.3125 88.414062 215.597656 88.953125 215.660156 L 106.3125 217.644531 C 106.597656 217.664062 106.929688 217.773438 107.296875 217.96875 C 108.585938 218.660156 109.476562 219.984375 109.679688 221.507812 C 109.949219 223.53125 109.820312 227.578125 109.089844 229.023438 L 108.492188 230.195312 C 107.902344 231.359375 106.730469 232.097656 105.429688 232.117188 C 99.550781 232.214844 80.394531 232.253906 64.386719 232.253906 " fill-opacity="1" fill-rule="nonzero"/><path fill="#5479f7" d="M 113.023438 231.914062 L 133.167969 231.914062 L 133.167969 227.628906 C 133.167969 226.558594 132.300781 225.695312 131.230469 225.695312 L 114.957031 225.695312 C 113.886719 225.695312 113.023438 226.558594 113.023438 227.628906 L 113.023438 231.914062 " fill-opacity="1" fill-rule="nonzero"/><path fill="#000000" d="M 113.699219 231.273438 L 132.488281 231.273438 C 132.167969 228.492188 129.8125 226.335938 126.960938 226.335938 L 119.230469 226.335938 C 116.375 226.335938 114.011719 228.5 113.699219 231.273438 Z M 133.167969 232.558594 L 113.023438 232.558594 C 112.667969 232.558594 112.378906 232.269531 112.378906 231.914062 L 112.378906 231.902344 C 112.378906 228.125 115.453125 225.050781 119.230469 225.050781 L 126.960938 225.050781 C 130.738281 225.050781 133.808594 228.125 133.808594 231.902344 C 133.808594 232.257812 133.523438 232.558594 133.167969 232.558594 " fill-opacity="1" fill-rule="nonzero"/><path fill="#ffffff" d="M 104.300781 222.402344 C 104.65625 221.703125 105.253906 221.152344 105.988281 220.886719 C 106.515625 220.695312 107.035156 220.445312 107.53125 220.179688 L 114.386719 216.535156 C 115.671875 215.902344 117.507812 217.375 118.839844 217.8125 C 122.863281 219.136719 131.191406 222.261719 130.503906 225.191406 C 129.765625 228.355469 122.605469 226.855469 120.066406 226.21875 C 119.484375 226.074219 114.226562 227.984375 112.5625 228.109375 C 110.265625 228.285156 109.734375 227.699219 108.613281 227.105469 C 108.097656 226.835938 107.527344 226.714844 106.910156 226.710938 C 105.964844 226.703125 105.0625 226.308594 104.46875 225.566406 L 104.457031 225.546875 C 103.804688 224.730469 103.6875 223.601562 104.164062 222.667969 L 104.300781 222.402344 " fill-opacity="1" fill-rule="nonzero"/><path fill="#000000" d="M 104.300781 222.402344 L 104.304688 222.402344 Z M 115.09375 217.023438 C 114.9375 217.023438 114.796875 217.050781 114.667969 217.113281 L 107.832031 220.75 C 107.214844 221.078125 106.695312 221.3125 106.207031 221.492188 C 105.636719 221.695312 105.164062 222.125 104.871094 222.695312 L 104.738281 222.960938 C 104.375 223.667969 104.464844 224.527344 104.957031 225.148438 C 105.425781 225.734375 106.136719 226.066406 106.914062 226.066406 C 107.65625 226.074219 108.328125 226.230469 108.910156 226.539062 C 109.097656 226.636719 109.265625 226.730469 109.429688 226.828125 C 110.210938 227.277344 110.777344 227.601562 112.515625 227.46875 C 113.308594 227.410156 115.195312 226.847656 116.710938 226.394531 C 119.15625 225.667969 119.828125 225.496094 120.222656 225.597656 C 124.453125 226.65625 127.808594 226.785156 129.199219 225.9375 C 129.570312 225.710938 129.792969 225.417969 129.878906 225.042969 C 130.265625 223.398438 125.851562 220.800781 118.640625 218.421875 C 118.195312 218.277344 117.734375 218.042969 117.25 217.800781 C 116.515625 217.429688 115.703125 217.023438 115.09375 217.023438 Z M 111.808594 228.78125 C 110.253906 228.78125 109.542969 228.371094 108.789062 227.941406 C 108.640625 227.855469 108.484375 227.765625 108.3125 227.675781 C 107.910156 227.460938 107.449219 227.355469 106.90625 227.355469 C 105.738281 227.347656 104.667969 226.839844 103.96875 225.964844 C 103.144531 224.933594 103.003906 223.53125 103.59375 222.375 L 103.726562 222.113281 C 104.167969 221.246094 104.894531 220.597656 105.773438 220.28125 C 106.203125 220.125 106.664062 219.914062 107.230469 219.617188 L 114.085938 215.96875 C 115.292969 215.375 116.636719 216.054688 117.824219 216.652344 C 118.269531 216.875 118.6875 217.085938 119.039062 217.203125 C 127.660156 220.042969 131.730469 222.777344 131.128906 225.335938 C 130.964844 226.054688 130.539062 226.625 129.867188 227.035156 C 127.546875 228.449219 122.6875 227.535156 119.957031 226.855469 C 119.601562 226.875 118.207031 227.289062 117.078125 227.625 C 115.339844 228.144531 113.542969 228.679688 112.613281 228.75 C 112.320312 228.773438 112.054688 228.78125 111.808594 228.78125 " fill-opacity="1" fill-rule="nonzero"/><path fill="#ffffff" d="M 154.621094 195.050781 C 155.007812 194.585938 154.835938 193.871094 154.28125 193.625 L 142.117188 188.292969 C 140.390625 187.539062 138.449219 187.464844 136.699219 188.101562 C 134.902344 188.757812 132.3125 189.621094 129.347656 190.375 C 121.6875 192.316406 121.113281 202.433594 129.035156 198.535156 C 131.554688 197.296875 133.070312 196.359375 133.070312 196.359375 C 133.050781 196.367188 135.949219 200.257812 140.585938 198.5 C 142.699219 197.703125 144.050781 196.746094 144.851562 196.03125 C 145.523438 195.429688 146.460938 195.203125 147.335938 195.429688 C 149.429688 195.980469 152.511719 197.597656 154.621094 195.050781 " fill-opacity="1" fill-rule="nonzero"/><path fill="#000000" d="M 154.621094 195.050781 L 154.625 195.050781 Z M 139.15625 188.3125 C 138.398438 188.3125 137.644531 188.445312 136.921875 188.707031 C 135.230469 189.324219 132.570312 190.222656 129.503906 190.996094 C 126.3125 191.808594 124.472656 194.125 124.070312 196.066406 C 123.851562 197.109375 124.054688 197.964844 124.628906 198.410156 C 125.417969 199.023438 126.921875 198.859375 128.753906 197.960938 C 131.210938 196.753906 132.71875 195.824219 132.734375 195.8125 C 132.964844 195.671875 133.261719 195.691406 133.472656 195.859375 C 133.53125 195.90625 133.578125 195.960938 133.617188 196.023438 C 133.773438 196.226562 136.304688 199.4375 140.359375 197.902344 C 142.421875 197.121094 143.707031 196.195312 144.421875 195.554688 C 145.257812 194.804688 146.40625 194.527344 147.496094 194.8125 C 147.855469 194.90625 148.234375 195.027344 148.628906 195.152344 C 150.976562 195.902344 152.742188 196.304688 154.125 194.640625 C 154.199219 194.550781 154.191406 194.453125 154.179688 194.402344 C 154.167969 194.351562 154.128906 194.261719 154.023438 194.214844 L 141.859375 188.882812 C 140.988281 188.5 140.074219 188.3125 139.15625 188.3125 Z M 125.894531 200.070312 C 124.945312 200.070312 124.285156 199.773438 123.839844 199.425781 C 122.863281 198.667969 122.488281 197.347656 122.8125 195.800781 C 123.296875 193.472656 125.457031 190.699219 129.1875 189.753906 C 132.203125 188.988281 134.816406 188.105469 136.480469 187.5 C 138.390625 186.804688 140.484375 186.878906 142.375 187.707031 L 154.539062 193.039062 C 154.992188 193.234375 155.316406 193.625 155.429688 194.109375 C 155.542969 194.589844 155.429688 195.082031 155.113281 195.460938 C 153.070312 197.925781 150.277344 197.027344 148.238281 196.375 C 147.855469 196.253906 147.496094 196.140625 147.171875 196.054688 C 146.5 195.878906 145.792969 196.050781 145.277344 196.511719 C 144.484375 197.222656 143.0625 198.253906 140.816406 199.105469 C 137.355469 200.410156 134.785156 198.84375 133.558594 197.796875 C 133.289062 197.5625 133.082031 197.363281 132.921875 197.199219 C 132.28125 197.570312 131.035156 198.269531 129.320312 199.113281 C 127.890625 199.8125 126.769531 200.070312 125.894531 200.070312 " fill-opacity="1" fill-rule="nonzero"/><path fill="#000000" d="M 136.285156 195.445312 C 135.0625 195.445312 133.984375 194.671875 133.464844 194.097656 C 133.226562 193.832031 133.246094 193.425781 133.511719 193.191406 C 133.773438 192.949219 134.179688 192.972656 134.417969 193.234375 C 134.472656 193.296875 135.863281 194.78125 137.238281 193.851562 C 138.21875 193.183594 139.671875 192.621094 140.800781 193.0625 C 143.277344 194.027344 144.242188 193.554688 144.40625 193.289062 C 144.582031 192.949219 144.519531 192.769531 144.496094 192.710938 C 144.410156 192.449219 144.074219 192.175781 143.558594 191.9375 L 140.085938 190.515625 C 139.757812 190.382812 139.597656 190.007812 139.734375 189.679688 C 139.867188 189.351562 140.242188 189.191406 140.570312 189.328125 L 144.070312 190.757812 C 144.957031 191.167969 145.503906 191.679688 145.710938 192.292969 C 145.886719 192.792969 145.832031 193.328125 145.546875 193.878906 C 145.464844 194.0625 144.503906 195.882812 140.332031 194.257812 C 139.804688 194.050781 138.828125 194.320312 137.957031 194.910156 C 137.394531 195.296875 136.828125 195.445312 136.285156 195.445312 " fill-opacity="1" fill-rule="nonzero"/><path fill="#000000" d="M 88.882812 216.9375 C 88.851562 216.9375 88.824219 216.9375 88.796875 216.933594 C 87.75 216.792969 86.425781 216.660156 84.894531 216.507812 C 78.175781 215.84375 68.027344 214.835938 58.339844 211.027344 C 46.601562 206.410156 38.953125 198.875 35.605469 188.632812 C 35.496094 188.296875 35.679688 187.933594 36.019531 187.824219 C 36.355469 187.710938 36.71875 187.898438 36.828125 188.234375 C 44.332031 211.195312 71.8125 213.921875 85.019531 215.230469 C 86.5625 215.382812 87.898438 215.515625 88.96875 215.660156 C 89.316406 215.707031 89.566406 216.03125 89.515625 216.382812 C 89.472656 216.707031 89.199219 216.9375 88.882812 216.9375 " fill-opacity="1" fill-rule="nonzero"/><path fill="#ffffff" d="M 55.203125 154.570312 C 55.390625 153.914062 55.96875 153.453125 56.644531 153.425781 L 61.699219 153.257812 C 62.347656 153.230469 62.898438 152.769531 63.046875 152.132812 L 64.410156 146.355469 L 66.6875 145.320312 C 66.867188 145.238281 66.949219 145.03125 66.875 144.847656 L 65.085938 140.535156 C 64.550781 138.949219 64.570312 135.546875 63.746094 135.53125 C 63.746094 135.53125 48.300781 128.785156 44.945312 136.496094 C 44.441406 137.664062 44.410156 138.988281 44.8125 140.191406 L 45.636719 142.652344 C 46.460938 145.113281 46.464844 147.820312 45.460938 150.21875 C 45.25 150.71875 44.464844 152.339844 43.179688 154.285156 C 42.09375 155.925781 39.828125 157.628906 38.195312 158.722656 C 37.273438 159.34375 37.214844 160.683594 38.078125 161.378906 C 39.75 162.734375 42.273438 164.636719 44.09375 165.375 C 48.394531 167.109375 50.5625 167.5625 52.757812 167.320312 C 54.890625 167.082031 56.101562 164.890625 55.363281 162.867188 C 53.832031 158.65625 55.203125 154.570312 55.203125 154.570312 " fill-opacity="1" fill-rule="nonzero"/><path fill="#000000" d="M 55.203125 154.570312 L 55.207031 154.570312 Z M 52.035156 133.4375 C 48.675781 133.4375 46.496094 134.546875 45.535156 136.753906 C 45.101562 137.753906 45.0625 138.902344 45.421875 139.988281 L 46.246094 142.449219 C 47.15625 145.160156 47.085938 148.007812 46.050781 150.464844 C 45.796875 151.070312 44.984375 152.71875 43.714844 154.640625 C 42.582031 156.355469 40.28125 158.097656 38.554688 159.257812 C 38.285156 159.4375 38.125 159.722656 38.109375 160.046875 C 38.09375 160.375 38.230469 160.679688 38.480469 160.878906 C 40.914062 162.851562 42.992188 164.234375 44.335938 164.777344 C 48.4375 166.4375 50.542969 166.917969 52.683594 166.679688 C 53.464844 166.59375 54.125 166.183594 54.535156 165.519531 C 54.980469 164.804688 55.0625 163.914062 54.761719 163.085938 C 53.203125 158.800781 54.484375 154.699219 54.589844 154.378906 C 54.855469 153.460938 55.671875 152.820312 56.617188 152.78125 L 61.679688 152.613281 C 62.03125 152.601562 62.339844 152.34375 62.421875 151.984375 L 63.785156 146.207031 C 63.832031 146.015625 63.964844 145.855469 64.144531 145.769531 L 66.175781 144.847656 L 64.492188 140.78125 C 64.484375 140.769531 64.480469 140.753906 64.476562 140.738281 C 64.253906 140.082031 64.128906 139.1875 64.003906 138.324219 C 63.898438 137.578125 63.742188 136.46875 63.554688 136.144531 C 63.53125 136.136719 63.511719 136.128906 63.488281 136.121094 C 63.449219 136.101562 59.632812 134.449219 55.476562 133.753906 C 54.21875 133.542969 53.070312 133.4375 52.035156 133.4375 Z M 51.65625 168.023438 C 49.648438 168.023438 47.472656 167.429688 43.855469 165.96875 C 41.988281 165.214844 39.460938 163.328125 37.671875 161.878906 C 37.101562 161.417969 36.792969 160.730469 36.824219 159.992188 C 36.859375 159.253906 37.226562 158.601562 37.835938 158.1875 C 39.46875 157.09375 41.628906 155.46875 42.644531 153.933594 C 43.90625 152.023438 44.675781 150.425781 44.867188 149.96875 C 45.78125 147.796875 45.835938 145.273438 45.027344 142.855469 L 44.207031 140.394531 C 43.742188 139.011719 43.796875 137.535156 44.359375 136.242188 C 45.050781 134.652344 46.257812 133.507812 47.945312 132.839844 C 53.5625 130.632812 62.816406 134.4375 63.910156 134.902344 C 64.835938 135.050781 65.03125 136.425781 65.277344 138.144531 C 65.390625 138.941406 65.507812 139.765625 65.6875 140.3125 L 67.464844 144.601562 C 67.675781 145.105469 67.449219 145.679688 66.953125 145.90625 L 64.964844 146.8125 L 63.671875 152.28125 C 63.457031 153.195312 62.65625 153.859375 61.726562 153.898438 L 56.664062 154.066406 C 56.273438 154.082031 55.929688 154.355469 55.820312 154.746094 C 55.816406 154.753906 55.8125 154.765625 55.8125 154.773438 C 55.796875 154.8125 54.535156 158.710938 55.96875 162.648438 C 56.40625 163.847656 56.28125 165.144531 55.625 166.199219 C 55.011719 167.1875 53.992188 167.828125 52.828125 167.957031 C 52.4375 168 52.050781 168.023438 51.65625 168.023438 " fill-opacity="1" fill-rule="nonzero"/><path fill="#000000" d="M 68.039062 123.328125 C 64.414062 122.015625 67.917969 127.222656 55.46875 119.136719 C 50.507812 115.917969 51.371094 123.128906 50.082031 122.296875 C 45.324219 119.222656 45.488281 119.324219 42.75 119.238281 C 40.933594 119.183594 38.914062 121.984375 38.542969 124.414062 C 38.050781 127.621094 40.917969 135.339844 43.160156 141.253906 C 44.316406 144.300781 48.542969 145.851562 50.417969 142.269531 C 50.933594 141.28125 48.71875 138.144531 50.433594 136.859375 C 53.585938 134.5 53.660156 139.40625 56.101562 138.730469 C 58.445312 138.078125 59.5 137.519531 62.148438 136.265625 C 65.355469 134.746094 68.488281 139.59375 71.507812 134.890625 C 73.082031 132.4375 73 125.132812 68.039062 123.328125 " fill-opacity="1" fill-rule="nonzero"/><path fill="#ffffff" d="M 67.324219 355.023438 L 38.300781 254.390625 L 9.277344 355.023438 L 2.320312 355.023438 L 34.210938 241.476562 L 42.390625 241.464844 L 74.28125 355.023438 L 67.324219 355.023438 " fill-opacity="1" fill-rule="nonzero"/><path fill="#000000" d="M 67.808594 354.378906 L 73.433594 354.378906 L 41.902344 242.105469 L 34.695312 242.117188 L 3.167969 354.378906 L 8.796875 354.378906 L 38.300781 252.078125 Z M 75.128906 355.667969 L 66.839844 355.667969 L 66.707031 355.203125 L 38.300781 256.710938 L 9.761719 355.667969 L 1.472656 355.667969 L 33.722656 240.832031 L 42.878906 240.820312 L 43.007812 241.289062 L 75.128906 355.667969 " fill-opacity="1" fill-rule="nonzero"/><path fill="#ffffff" d="M 2.257812 243.175781 L 270.96875 243.175781 L 270.96875 232.242188 L 2.257812 232.242188 L 2.257812 243.175781 " fill-opacity="1" fill-rule="nonzero"/><path fill="#000000" d="M 2.898438 242.535156 L 270.324219 242.535156 L 270.324219 232.886719 L 2.898438 232.886719 Z M 271.609375 243.820312 L 1.613281 243.820312 L 1.613281 231.601562 L 271.609375 231.601562 L 271.609375 243.820312 " fill-opacity="1" fill-rule="nonzero"/><path fill="#5479f7" d="M 67.101562 241.25 C 66.746094 241.25 66.460938 240.960938 66.460938 240.609375 L 66.460938 234.519531 C 66.460938 234.164062 66.746094 233.875 67.101562 233.875 C 67.457031 233.875 67.746094 234.164062 67.746094 234.519531 L 67.746094 240.609375 C 67.746094 240.960938 67.457031 241.25 67.101562 241.25 " fill-opacity="1" fill-rule="nonzero"/><path fill="#ffffff" d="M 215.324219 329.707031 L 216.882812 347.410156 L 200.183594 349.167969 L 205.371094 342.078125 C 206.75 340.1875 207.226562 337.773438 206.660156 335.496094 L 205.242188 329.78125 L 215.324219 329.707031 " fill-opacity="1" fill-rule="nonzero"/><path fill="#000000" d="M 206.0625 330.417969 L 207.285156 335.339844 C 207.894531 337.8125 207.386719 340.40625 205.886719 342.457031 L 201.558594 348.375 L 216.1875 346.835938 L 214.734375 330.355469 Z M 198.808594 349.957031 L 204.851562 341.699219 C 206.125 339.953125 206.558594 337.75 206.035156 335.648438 L 204.425781 329.144531 L 215.914062 329.0625 L 217.574219 347.980469 L 198.808594 349.957031 " fill-opacity="1" fill-rule="nonzero"/><path fill="#5479f7" d="M 218.035156 344.382812 L 219.429688 351.664062 C 219.429688 351.664062 219.621094 354.324219 216.914062 354.789062 C 213.390625 355.394531 199.691406 357.273438 189.980469 355.511719 C 187.753906 355.105469 186.75 353.707031 186.566406 352.976562 C 186.054688 350.960938 187.347656 348.070312 191.410156 346.566406 C 198.65625 343.886719 201.421875 343.007812 204.949219 340.617188 C 205.730469 340.085938 206.914062 340.648438 207.449219 341.359375 C 207.449219 341.359375 208.726562 343.226562 208.707031 345.195312 C 208.699219 345.898438 209.433594 346.371094 210.082031 346.09375 L 216.261719 343.4375 C 217.019531 343.113281 217.878906 343.570312 218.035156 344.382812 " fill-opacity="1" fill-rule="nonzero"/><path fill="#000000" d="M 205.667969 341.050781 C 205.535156 341.050781 205.410156 341.082031 205.308594 341.148438 C 202.113281 343.316406 199.546875 344.257812 193.921875 346.324219 C 193.210938 346.585938 192.449219 346.867188 191.632812 347.171875 C 187.941406 348.535156 186.742188 351.054688 187.1875 352.816406 C 187.296875 353.234375 188.054688 354.507812 190.09375 354.878906 C 198.746094 356.449219 211.351562 355.09375 216.804688 354.15625 C 218.796875 353.8125 218.800781 352.015625 218.789062 351.742188 L 217.402344 344.503906 C 217.367188 344.308594 217.246094 344.140625 217.070312 344.050781 C 216.898438 343.957031 216.695312 343.949219 216.515625 344.027344 L 210.332031 346.683594 C 209.824219 346.902344 209.246094 346.851562 208.785156 346.542969 C 208.328125 346.238281 208.0625 345.734375 208.066406 345.1875 C 208.082031 343.457031 206.929688 341.738281 206.917969 341.71875 C 206.640625 341.355469 206.097656 341.050781 205.667969 341.050781 Z M 199.597656 356.894531 C 196.285156 356.894531 192.910156 356.695312 189.867188 356.140625 C 187.246094 355.667969 186.15625 353.96875 185.945312 353.132812 C 185.359375 350.832031 186.75 347.605469 191.1875 345.964844 C 192.003906 345.664062 192.769531 345.378906 193.480469 345.121094 C 199.003906 343.089844 201.523438 342.164062 204.589844 340.085938 C 205.65625 339.359375 207.195312 339.957031 207.960938 340.96875 C 208.035156 341.078125 209.371094 343.058594 209.347656 345.199219 C 209.347656 345.351562 209.441406 345.4375 209.496094 345.472656 C 209.542969 345.503906 209.671875 345.570312 209.824219 345.503906 L 216.007812 342.847656 C 216.546875 342.613281 217.152344 342.640625 217.675781 342.914062 C 218.191406 343.191406 218.554688 343.679688 218.667969 344.261719 L 220.070312 351.617188 C 220.152344 352.738281 219.621094 354.976562 217.023438 355.421875 C 216.550781 355.503906 208.300781 356.894531 199.597656 356.894531 " fill-opacity="1" fill-rule="nonzero"/><path fill="#000000" d="M 199.882812 354.273438 C 196.960938 354.273438 193.859375 354.121094 190.769531 353.703125 C 190.417969 353.65625 190.171875 353.332031 190.21875 352.980469 C 190.265625 352.628906 190.585938 352.382812 190.941406 352.433594 C 203.097656 354.070312 215.523438 351.609375 215.648438 351.585938 C 215.996094 351.515625 216.332031 351.738281 216.40625 352.089844 C 216.476562 352.433594 216.25 352.773438 215.902344 352.84375 C 215.808594 352.863281 208.667969 354.273438 199.882812 354.273438 " fill-opacity="1" fill-rule="nonzero"/><path fill="#ffffff" d="M 251.519531 324.214844 C 251.867188 328.660156 254.015625 333.808594 255.785156 336.4375 L 247.949219 342.378906 L 242.023438 336.507812 C 243.410156 334.617188 244.644531 330.179688 242.78125 324.332031 L 251.519531 324.214844 " fill-opacity="1" fill-rule="nonzero"/><path fill="#000000" d="M 242.851562 336.425781 L 248.007812 341.53125 L 254.921875 336.285156 C 253.191406 333.5 251.390625 328.941406 250.9375 324.863281 L 243.640625 324.960938 C 245.074219 330.132812 244.191406 334.222656 242.851562 336.425781 Z M 247.894531 343.226562 L 241.179688 336.578125 L 241.507812 336.128906 C 242.632812 334.585938 244.042969 330.40625 242.167969 324.527344 L 241.902344 323.703125 L 252.113281 323.566406 L 252.160156 324.164062 C 252.492188 328.378906 254.546875 333.445312 256.316406 336.078125 L 256.652344 336.582031 L 247.894531 343.226562 " fill-opacity="1" fill-rule="nonzero"/><path fill="#5479f7" d="M 256.050781 334.757812 L 259.292969 340.492188 C 259.292969 340.492188 260.453125 342.964844 258.035156 344.410156 C 255.757812 345.769531 248.359375 350.0625 240.933594 352.816406 C 238.121094 353.859375 229.941406 354.40625 228.015625 351.894531 C 226.726562 350.203125 227.21875 348.003906 230.601562 346.195312 C 238.15625 342.148438 239.910156 335.875 241 334.410156 C 242.660156 332.167969 245.492188 336.082031 246.257812 339.070312 C 246.441406 339.785156 247.296875 340.070312 247.867188 339.605469 L 254.238281 334.414062 C 254.820312 333.941406 255.683594 334.105469 256.050781 334.757812 " fill-opacity="1" fill-rule="nonzero"/><path fill="#000000" d="M 242.148438 334.386719 C 241.972656 334.386719 241.757812 334.464844 241.511719 334.789062 C 241.328125 335.042969 241.09375 335.511719 240.792969 336.109375 C 239.507812 338.667969 237.117188 343.433594 230.902344 346.761719 C 229.257812 347.640625 228.269531 348.652344 228.050781 349.671875 C 227.914062 350.296875 228.074219 350.914062 228.527344 351.503906 C 230.136719 353.605469 237.878906 353.261719 240.707031 352.214844 C 247.875 349.554688 254.984375 345.484375 257.707031 343.859375 C 259.5 342.789062 258.839844 341.0625 258.71875 340.785156 L 255.492188 335.070312 C 255.378906 334.871094 255.199219 334.8125 255.101562 334.792969 C 255.003906 334.773438 254.820312 334.765625 254.640625 334.910156 L 248.273438 340.101562 C 247.835938 340.460938 247.253906 340.566406 246.722656 340.390625 C 246.183594 340.214844 245.777344 339.78125 245.636719 339.230469 C 245.066406 337.011719 243.40625 334.621094 242.292969 334.402344 C 242.246094 334.394531 242.199219 334.386719 242.148438 334.386719 Z M 234.550781 354.34375 C 231.613281 354.34375 228.679688 353.8125 227.507812 352.285156 C 226.824219 351.394531 226.578125 350.398438 226.792969 349.402344 C 227.09375 348 228.308594 346.695312 230.296875 345.628906 C 236.152344 342.492188 238.425781 337.964844 239.644531 335.53125 C 239.972656 334.882812 240.230469 334.367188 240.480469 334.027344 C 241.019531 333.300781 241.75 332.988281 242.539062 333.144531 C 244.5 333.527344 246.320312 336.738281 246.878906 338.910156 C 246.925781 339.089844 247.0625 339.152344 247.121094 339.171875 C 247.191406 339.195312 247.328125 339.214844 247.460938 339.105469 L 253.832031 333.917969 C 254.253906 333.570312 254.800781 333.429688 255.339844 333.53125 C 255.878906 333.632812 256.339844 333.964844 256.605469 334.441406 L 259.875 340.222656 C 260.363281 341.257812 260.671875 343.582031 258.367188 344.960938 C 255.613281 346.605469 248.421875 350.722656 241.15625 353.417969 C 239.800781 353.921875 237.175781 354.34375 234.550781 354.34375 " fill-opacity="1" fill-rule="nonzero"/><path fill="#000000" d="M 234.070312 351.132812 C 233.152344 351.132812 232.269531 351.066406 231.507812 350.902344 C 231.160156 350.828125 230.9375 350.488281 231.015625 350.140625 C 231.089844 349.792969 231.429688 349.574219 231.777344 349.644531 C 233.773438 350.074219 236.953125 349.769531 239.066406 349.25 C 248.53125 346.929688 255.621094 341.019531 255.691406 340.957031 C 255.964844 340.730469 256.367188 340.761719 256.597656 341.035156 C 256.824219 341.304688 256.792969 341.710938 256.519531 341.941406 C 256.222656 342.191406 249.140625 348.101562 239.371094 350.5 C 237.914062 350.855469 235.917969 351.132812 234.070312 351.132812 " fill-opacity="1" fill-rule="nonzero"/><path fill="#ffffff" d="M 224.433594 267.964844 C 223.171875 281.824219 234.710938 313.964844 238.976562 324.296875 C 239.453125 325.457031 240.511719 326.335938 241.867188 326.335938 L 251.691406 326.335938 C 253.355469 326.335938 254.699219 325.089844 254.683594 323.554688 C 254.574219 312.660156 249.628906 281.914062 256.941406 270.476562 C 261.171875 263.855469 273.746094 266.648438 278.933594 263.496094 C 291.375 255.933594 286.691406 231.304688 286.691406 231.304688 C 286.691406 231.304688 226.199219 248.644531 224.433594 267.964844 " fill-opacity="1" fill-rule="nonzero"/><path fill="#000000" d="M 225.074219 268.023438 C 223.894531 280.953125 234.328125 311.355469 239.570312 324.054688 C 239.894531 324.847656 240.671875 325.695312 241.863281 325.695312 L 251.691406 325.695312 C 252.359375 325.695312 253 325.4375 253.445312 324.984375 C 253.835938 324.59375 254.046875 324.085938 254.042969 323.5625 C 254.015625 321.046875 253.726562 317.4375 253.398438 313.261719 C 252.3125 299.652344 250.675781 279.085938 256.398438 270.128906 C 259.128906 265.859375 265.035156 265.273438 270.242188 264.757812 C 273.550781 264.425781 276.679688 264.117188 278.597656 262.949219 C 289.363281 256.40625 286.804688 236.160156 286.175781 232.125 C 279.480469 234.128906 226.679688 250.457031 225.074219 268.023438 Z M 251.691406 326.980469 L 241.863281 326.980469 C 240.335938 326.980469 239.003906 326.046875 238.382812 324.542969 C 234.183594 314.371094 222.496094 282.132812 223.796875 267.90625 C 225.578125 248.375 284.027344 231.402344 286.515625 230.6875 L 287.191406 230.496094 L 287.320312 231.1875 C 287.515625 232.207031 291.941406 256.339844 279.265625 264.046875 C 277.09375 265.367188 273.828125 265.691406 270.371094 266.03125 C 265.210938 266.546875 259.875 267.074219 257.480469 270.820312 C 251.988281 279.414062 253.605469 299.722656 254.675781 313.160156 C 255.007812 317.359375 255.300781 320.988281 255.324219 323.546875 C 255.335938 324.421875 254.988281 325.25 254.359375 325.886719 C 253.671875 326.582031 252.699219 326.980469 251.691406 326.980469 " fill-opacity="1" fill-rule="nonzero"/><path fill="#ffffff" d="M 244.394531 233.925781 C 244.394531 233.925781 203.367188 234.265625 190.429688 248.589844 C 178.804688 261.460938 196.042969 319.839844 199.648438 331.179688 C 200.023438 332.355469 201.191406 333.160156 202.519531 333.160156 L 217.933594 333.160156 C 218.257812 333.160156 218.519531 332.917969 218.519531 332.617188 L 216.070312 310.421875 C 213.441406 280.964844 216.644531 274.738281 216.644531 274.738281 C 219.238281 266.40625 241.449219 266.761719 253.523438 266.84375 C 291.863281 267.109375 280.597656 233.433594 280.597656 233.433594 L 244.394531 233.925781 " fill-opacity="1" fill-rule="nonzero"/><path fill="#000000" d="M 244.390625 233.925781 L 244.394531 233.925781 Z M 244.394531 234.566406 C 243.988281 234.570312 203.503906 235.070312 190.90625 249.019531 C 186.191406 254.238281 185.863281 268.527344 189.957031 290.339844 C 193.632812 309.925781 199.59375 328.886719 200.261719 330.988281 C 200.546875 331.886719 201.472656 332.519531 202.519531 332.519531 L 217.859375 332.519531 L 215.425781 310.492188 C 212.914062 282.289062 215.707031 275.230469 216.042969 274.5 C 218.78125 265.949219 240 266.105469 252.683594 266.195312 L 253.523438 266.203125 C 265.097656 266.285156 273.238281 263.238281 277.652344 257.148438 C 283.847656 248.613281 280.828125 236.539062 280.121094 234.085938 Z M 217.929688 333.804688 L 202.519531 333.804688 C 200.898438 333.804688 199.496094 332.828125 199.035156 331.375 C 198.367188 329.269531 192.382812 310.234375 188.695312 290.578125 C 184.460938 268.039062 184.886719 253.765625 189.949219 248.160156 C 202.925781 233.792969 242.699219 233.296875 244.386719 233.285156 L 281.058594 232.785156 L 281.203125 233.230469 C 281.402344 233.824219 285.976562 247.859375 278.699219 257.898438 C 274.023438 264.34375 265.539062 267.566406 253.515625 267.488281 L 252.675781 267.480469 C 241.128906 267.398438 219.648438 267.242188 217.257812 274.929688 L 217.214844 275.03125 C 217.183594 275.089844 214.148438 281.667969 216.707031 310.367188 L 219.160156 332.617188 C 219.160156 333.269531 218.609375 333.804688 217.929688 333.804688 " fill-opacity="1" fill-rule="nonzero"/><path fill="#ffffff" d="M 215.722656 208.085938 C 215.464844 208.019531 209.625 208.304688 209.070312 208.121094 C 206.316406 207.183594 200.511719 205.078125 197.777344 205.058594 C 194.699219 205.039062 191.769531 204.53125 190 204.152344 C 188.933594 203.925781 188.167969 204.355469 187.964844 205.046875 C 187.789062 205.660156 187.976562 207.066406 189.558594 207.421875 C 191.386719 207.839844 193.207031 208.300781 194.765625 208.667969 C 195.257812 208.785156 195.761719 208.800781 195.300781 208.964844 C 194.222656 209.34375 193.054688 209.953125 192.980469 210.824219 C 192.839844 212.464844 196.890625 216.195312 201.34375 216.46875 C 205.160156 216.703125 206.214844 214.824219 207.671875 214.550781 C 207.914062 214.503906 214.269531 214.660156 214.550781 214.601562 C 217.429688 214.003906 217.273438 208.492188 215.722656 208.085938 " fill-opacity="1" fill-rule="nonzero"/><path fill="#000000" d="M 189.453125 204.734375 C 189.003906 204.734375 188.671875 204.914062 188.582031 205.230469 C 188.53125 205.410156 188.527344 205.800781 188.738281 206.15625 C 188.925781 206.480469 189.25 206.695312 189.699219 206.796875 C 190.855469 207.058594 192.003906 207.339844 193.089844 207.605469 C 193.722656 207.757812 194.335938 207.90625 194.914062 208.042969 C 195.019531 208.066406 195.125 208.085938 195.21875 208.105469 C 195.5625 208.171875 196.082031 208.269531 196.121094 208.808594 C 196.140625 209.050781 196.050781 209.382812 195.511719 209.570312 C 194.160156 210.046875 193.648438 210.558594 193.621094 210.878906 C 193.601562 211.109375 193.796875 211.628906 194.410156 212.34375 C 195.753906 213.898438 198.507812 215.652344 201.378906 215.828125 C 203.75 215.972656 204.902344 215.273438 205.921875 214.65625 C 206.457031 214.335938 206.960938 214.03125 207.550781 213.917969 C 207.699219 213.890625 208.015625 213.886719 210.824219 213.933594 C 212.226562 213.957031 214.136719 213.984375 214.449219 213.964844 C 215.671875 213.691406 216.144531 212.140625 216.175781 210.886719 C 216.207031 209.625 215.828125 208.835938 215.589844 208.722656 C 215.34375 208.710938 214.441406 208.738281 213.644531 208.757812 C 210.453125 208.847656 209.25 208.859375 208.867188 208.730469 C 208.574219 208.628906 208.246094 208.515625 207.890625 208.394531 C 204.980469 207.394531 200.113281 205.71875 197.773438 205.703125 C 194.722656 205.683594 191.789062 205.191406 189.867188 204.78125 C 189.71875 204.75 189.582031 204.734375 189.453125 204.734375 Z M 201.980469 217.132812 C 201.761719 217.132812 201.539062 217.125 201.300781 217.109375 C 198.039062 216.910156 195 214.996094 193.4375 213.183594 C 192.894531 212.554688 192.265625 211.628906 192.339844 210.769531 C 192.398438 210.117188 192.820312 209.539062 193.601562 209.046875 C 193.332031 208.984375 193.0625 208.917969 192.785156 208.851562 C 191.707031 208.589844 190.5625 208.308594 189.417969 208.050781 C 188.410156 207.820312 187.890625 207.25 187.628906 206.8125 C 187.210938 206.101562 187.214844 205.320312 187.347656 204.871094 C 187.660156 203.796875 188.808594 203.242188 190.132812 203.527344 C 192 203.921875 194.839844 204.398438 197.78125 204.417969 C 200.328125 204.433594 205.132812 206.085938 208.3125 207.179688 C 208.660156 207.300781 208.984375 207.414062 209.277344 207.511719 C 209.644531 207.589844 212.226562 207.515625 213.609375 207.476562 C 215.554688 207.421875 215.722656 207.421875 215.886719 207.464844 C 217.027344 207.761719 217.496094 209.414062 217.460938 210.917969 C 217.414062 212.652344 216.660156 214.820312 214.679688 215.230469 C 214.503906 215.269531 214.03125 215.269531 210.804688 215.21875 C 209.5625 215.199219 208.027344 215.175781 207.761719 215.1875 C 207.40625 215.261719 207.042969 215.480469 206.585938 215.757812 C 205.613281 216.34375 204.3125 217.132812 201.980469 217.132812 " fill-opacity="1" fill-rule="nonzero"/><path fill="#000000" d="M 246.820312 172.738281 C 238.734375 179.078125 236.089844 197.425781 230.914062 201.566406 C 226.429688 205.160156 210.359375 206.300781 210.359375 206.300781 L 210.238281 216.597656 L 224.261719 217.144531 C 232.699219 217.464844 240.777344 214.035156 243.765625 211.230469 C 253.703125 201.894531 274.359375 182.152344 279.574219 168.980469 L 265.070312 167.457031 C 265.070312 167.457031 255.785156 165.714844 246.820312 172.738281 " fill-opacity="1" fill-rule="nonzero"/><path fill="#000000" d="M 248.550781 204.886719 C 248.550781 204.886719 247.738281 208.648438 249.25 213.269531 C 251.128906 219.019531 249.796875 225.363281 245.472656 229.59375 C 243.660156 231.371094 241.628906 232.945312 239.519531 233.847656 C 239.519531 233.847656 240.535156 240.148438 250.089844 241.03125 C 253.976562 241.390625 264.238281 242.257812 271.90625 242.1875 C 282.375 242.09375 290.175781 240.53125 290.175781 240.53125 L 291.667969 192.0625 C 291.667969 192.0625 293.207031 171.714844 279.171875 168.941406 L 258.941406 167.675781 L 248.550781 204.886719 " fill-opacity="1" fill-rule="nonzero"/><path fill="#caddff" d="M 247.261719 209.429688 C 247.105469 209.429688 246.949219 209.371094 246.828125 209.257812 C 246.5625 209.015625 246.546875 208.609375 246.789062 208.351562 C 251.171875 203.601562 254.570312 198.621094 256.628906 193.945312 C 256.769531 193.621094 257.148438 193.472656 257.472656 193.613281 C 257.796875 193.757812 257.945312 194.136719 257.800781 194.460938 C 255.691406 199.265625 252.207031 204.371094 247.730469 209.21875 C 247.605469 209.359375 247.433594 209.429688 247.261719 209.429688 " fill-opacity="1" fill-rule="nonzero"/><path fill="#000000" d="M 247.433594 144.675781 C 247.433594 144.675781 242.339844 144.832031 243.050781 135.78125 C 243.769531 126.675781 253.734375 127.222656 257.171875 126.019531 C 260.609375 124.8125 266.292969 117.464844 268.484375 115.507812 C 270.671875 113.546875 277.414062 105.394531 291.339844 113.128906 C 291.339844 113.128906 293.792969 115.4375 303.191406 112.910156 C 311.367188 110.714844 326.859375 112.839844 323.941406 124.84375 C 323.101562 128.300781 321.007812 131.230469 318.175781 133.128906 C 317.664062 133.476562 317.097656 133.820312 316.472656 134.160156 C 314.667969 135.132812 313.472656 137.015625 313.351562 139.179688 C 312.964844 146.234375 309.324219 160.378906 285.144531 151.285156 C 283.320312 150.597656 281.339844 150.835938 279.761719 151.898438 C 277.820312 153.210938 276.160156 157.199219 265.777344 157.5625 C 259.105469 157.792969 255.800781 151.023438 253.519531 148.085938 C 250.84375 144.640625 247.433594 144.675781 247.433594 144.675781 " fill-opacity="1" fill-rule="nonzero"/><path fill="#ffffff" d="M 248.925781 144.679688 C 248.925781 144.679688 248.90625 146.296875 248.886719 147.011719 C 248.867188 147.6875 249.078125 149.859375 247.875 152.46875 C 247.757812 152.71875 247.859375 153.015625 248.089844 153.164062 L 249.878906 154.289062 C 250 154.363281 250.085938 154.488281 250.113281 154.632812 C 250.273438 155.523438 250.882812 158.792969 251.097656 159.382812 C 251.34375 160.070312 252.019531 160.597656 252.324219 160.703125 C 253.128906 160.976562 256.246094 160.003906 256.246094 160.003906 C 256.246094 160.003906 255.785156 159.417969 258.265625 163.703125 C 260.011719 166.722656 256.28125 171.664062 256.28125 171.664062 C 256.28125 171.664062 270.339844 177.339844 278.222656 170.550781 C 278.710938 170.128906 278.496094 169.253906 277.871094 169.097656 C 270.417969 167.253906 269.429688 163.5 266.492188 157.675781 C 266.355469 157.398438 266.027344 157.273438 265.71875 157.246094 C 264.464844 157.132812 261.171875 157.257812 260.058594 151.984375 C 260.03125 151.847656 260.039062 151.703125 260.078125 151.574219 C 260.429688 150.476562 261.929688 145.136719 257.117188 147.386719 C 253.9375 148.871094 252.144531 146.769531 251.496094 145.746094 C 251.285156 145.410156 250.945312 145.175781 250.558594 145.082031 L 248.925781 144.679688 " fill-opacity="1" fill-rule="nonzero"/><path fill="#000000" d="M 249.539062 154.828125 L 249.542969 154.828125 Z M 257.28125 171.34375 C 260.265625 172.371094 271.335938 175.636719 277.804688 170.058594 C 277.871094 170.003906 277.847656 169.898438 277.84375 169.875 C 277.828125 169.8125 277.789062 169.738281 277.71875 169.71875 C 270.8125 168.007812 269.152344 164.585938 266.851562 159.847656 C 266.558594 159.246094 266.253906 158.617188 265.921875 157.964844 C 265.910156 157.945312 265.820312 157.894531 265.664062 157.882812 C 265.589844 157.878906 265.503906 157.871094 265.410156 157.863281 C 263.964844 157.761719 260.578125 157.527344 259.429688 152.113281 C 259.378906 151.867188 259.394531 151.613281 259.46875 151.378906 C 260.035156 149.605469 260.09375 148.066406 259.605469 147.636719 C 259.269531 147.34375 258.464844 147.464844 257.390625 147.964844 C 253.632812 149.722656 251.515625 146.972656 250.953125 146.085938 C 250.835938 145.902344 250.636719 145.757812 250.40625 145.703125 L 249.554688 145.492188 C 249.550781 146.007812 249.542969 146.648438 249.527344 147.023438 C 249.527344 147.105469 249.527344 147.210938 249.53125 147.335938 C 249.542969 148.296875 249.570312 150.285156 248.496094 152.65625 L 250.222656 153.742188 C 250.496094 153.914062 250.6875 154.195312 250.746094 154.515625 C 251.199219 156.988281 251.578125 158.8125 251.703125 159.164062 C 251.882812 159.65625 252.402344 160.042969 252.535156 160.09375 C 252.863281 160.191406 254.371094 159.898438 255.839844 159.457031 C 255.84375 159.453125 255.851562 159.449219 255.855469 159.445312 C 256.136719 159.253906 256.546875 159.339844 256.75 159.609375 C 256.824219 159.699219 256.871094 159.8125 256.882812 159.925781 C 257.019531 160.203125 257.457031 161.019531 258.824219 163.382812 C 260.359375 166.035156 258.289062 169.792969 257.28125 171.34375 Z M 267.820312 174.546875 C 261.824219 174.546875 256.40625 172.402344 256.042969 172.257812 C 255.855469 172.183594 255.71875 172.027344 255.664062 171.835938 C 255.609375 171.644531 255.652344 171.4375 255.769531 171.273438 C 256.734375 169.992188 258.964844 166.191406 257.710938 164.023438 C 256.882812 162.589844 256.289062 161.542969 255.949219 160.914062 C 255.929688 160.871094 255.90625 160.824219 255.882812 160.785156 C 254.726562 161.117188 252.882812 161.566406 252.121094 161.308594 C 251.65625 161.152344 250.820312 160.5 250.496094 159.601562 C 250.285156 159.015625 249.78125 156.367188 249.492188 154.800781 L 247.75 153.703125 C 247.242188 153.386719 247.042969 152.738281 247.292969 152.195312 C 248.28125 150.054688 248.257812 148.226562 248.246094 147.347656 C 248.246094 147.203125 248.242188 147.085938 248.246094 146.988281 C 248.265625 146.28125 248.285156 144.667969 248.285156 144.667969 C 248.289062 144.472656 248.378906 144.289062 248.53125 144.167969 C 248.6875 144.050781 248.890625 144.007812 249.078125 144.054688 L 250.714844 144.457031 C 251.269531 144.59375 251.738281 144.929688 252.039062 145.402344 C 252.707031 146.449219 254.214844 148.03125 256.847656 146.800781 C 258.472656 146.042969 259.6875 146 260.453125 146.675781 C 261.722656 147.789062 261.148438 150.34375 260.691406 151.769531 C 260.6875 151.792969 260.6875 151.820312 260.691406 151.847656 C 261.632812 156.3125 264.148438 156.488281 265.503906 156.582031 C 265.601562 156.589844 265.691406 156.597656 265.777344 156.605469 C 266.375 156.65625 266.847656 156.941406 267.070312 157.382812 C 267.402344 158.042969 267.710938 158.679688 268.007812 159.289062 C 270.3125 164.039062 271.707031 166.910156 278.027344 168.472656 C 278.550781 168.601562 278.960938 169.027344 279.09375 169.578125 C 279.222656 170.125 279.050781 170.683594 278.644531 171.035156 C 275.535156 173.710938 271.566406 174.546875 267.820312 174.546875 " fill-opacity="1" fill-rule="nonzero"/><path fill="#000000" d="M 258.019531 151.808594 Z M 258.492188 153.109375 C 257.828125 153.109375 257.167969 152.863281 256.9375 152.5 C 256.746094 152.199219 256.835938 151.800781 257.136719 151.613281 C 257.402344 151.441406 257.746094 151.492188 257.953125 151.71875 C 258.074219 151.78125 258.503906 151.90625 258.898438 151.753906 C 259.261719 151.617188 259.515625 151.265625 259.65625 150.714844 C 259.742188 150.371094 260.09375 150.160156 260.4375 150.246094 C 260.78125 150.335938 260.988281 150.683594 260.902344 151.027344 C 260.503906 152.597656 259.472656 152.984375 258.886719 153.082031 C 258.757812 153.101562 258.625 153.109375 258.492188 153.109375 " fill-opacity="1" fill-rule="nonzero"/><path fill="#000000" d="M 247.460938 152.75 C 246.753906 152.75 246.125 152.519531 245.625 152.066406 C 243.960938 150.566406 244.128906 147.179688 244.152344 146.796875 C 244.171875 146.464844 244.445312 146.203125 244.78125 146.195312 L 256.675781 145.945312 C 257.027344 145.933594 257.324219 146.21875 257.332031 146.574219 C 257.339844 146.929688 257.058594 147.222656 256.703125 147.230469 L 245.421875 147.46875 C 245.4375 148.5625 245.640625 150.355469 246.480469 151.113281 C 246.832031 151.425781 247.273438 151.53125 247.839844 151.4375 C 248.191406 151.375 248.519531 151.609375 248.582031 151.960938 C 248.644531 152.308594 248.40625 152.640625 248.054688 152.699219 C 247.855469 152.734375 247.652344 152.75 247.460938 152.75 " fill-opacity="1" fill-rule="nonzero"/><path fill="#5479f7" d="M 257.894531 154.613281 C 257.84375 154.125 258.195312 153.695312 258.671875 153.652344 C 259.152344 153.605469 259.582031 153.960938 259.628906 154.449219 C 259.679688 154.9375 259.328125 155.367188 258.847656 155.410156 C 258.367188 155.453125 257.941406 155.097656 257.894531 154.613281 " fill-opacity="1" fill-rule="nonzero"/><path fill="#5479f7" d="M 264.289062 195.324219 L 264.289062 206.921875 C 264.289062 223.535156 251.226562 237.003906 235.105469 237.003906 L 235.101562 237.003906 C 218.984375 237.003906 205.917969 250.472656 205.917969 267.085938 C 205.917969 268.566406 207.109375 269.765625 208.585938 269.765625 L 285.84375 269.765625 C 310.011719 269.765625 329.601562 249.574219 329.601562 224.667969 L 329.601562 193.8125 C 329.601562 183.90625 321.808594 175.878906 312.195312 175.878906 L 283.160156 175.878906 C 272.738281 175.878906 264.289062 184.585938 264.289062 195.324219 " fill-opacity="1" fill-rule="nonzero"/><path fill="#caddff" d="M 223.542969 258.601562 C 223.417969 258.601562 223.285156 258.5625 223.175781 258.484375 C 222.886719 258.28125 222.8125 257.878906 223.019531 257.589844 C 227.113281 251.757812 233.644531 248.414062 242.4375 247.652344 C 247.652344 247.203125 252.707031 245.8125 256.300781 243.835938 C 265.308594 238.882812 277.28125 230.113281 277.28125 211.195312 L 277.28125 209.011719 C 277.28125 189.890625 283.886719 188.921875 294.664062 188.921875 C 295.019531 188.921875 295.304688 189.207031 295.304688 189.5625 C 295.304688 189.917969 295.019531 190.207031 294.664062 190.207031 C 284.085938 190.207031 278.566406 191.042969 278.566406 209.011719 L 278.566406 211.195312 C 278.566406 230.796875 266.210938 239.851562 256.917969 244.960938 C 253.171875 247.019531 247.9375 248.46875 242.550781 248.933594 C 234.035156 249.667969 227.992188 252.742188 224.066406 258.328125 C 223.945312 258.507812 223.746094 258.601562 223.542969 258.601562 " fill-opacity="1" fill-rule="nonzero"/><path fill="#5479f7" d="M 276.105469 355.523438 L 267.976562 355.523438 L 267.976562 267.367188 L 276.105469 267.367188 L 276.105469 355.523438 " fill-opacity="1" fill-rule="nonzero"/><path fill="#5479f7" d="M 233.929688 354.214844 L 269.917969 351.042969 L 273.214844 351.042969 L 309.953125 354.214844 L 309.953125 356.730469 L 233.929688 356.730469 L 233.929688 354.214844 " fill-opacity="1" fill-rule="nonzero"/><path fill="#000000" d="M 176.113281 26.445312 C 175.945312 26.445312 175.78125 26.378906 175.65625 26.25 L 174.429688 25.003906 C 174.179688 24.75 174.183594 24.34375 174.433594 24.097656 C 174.6875 23.847656 175.09375 23.851562 175.34375 24.105469 L 176.570312 25.351562 C 176.820312 25.601562 176.816406 26.011719 176.566406 26.257812 C 176.4375 26.382812 176.273438 26.445312 176.113281 26.445312 " fill-opacity="1" fill-rule="nonzero"/><path fill="#000000" d="M 181.996094 32.421875 C 181.832031 32.421875 181.664062 32.355469 181.539062 32.226562 L 180.308594 30.980469 C 180.0625 30.726562 180.066406 30.320312 180.316406 30.070312 C 180.570312 29.824219 180.976562 29.824219 181.226562 30.078125 L 182.457031 31.328125 C 182.703125 31.578125 182.699219 31.984375 182.445312 32.234375 C 182.324219 32.359375 182.160156 32.421875 181.996094 32.421875 " fill-opacity="1" fill-rule="nonzero"/><path fill="#000000" d="M 174.886719 32.421875 C 174.722656 32.421875 174.558594 32.359375 174.433594 32.234375 C 174.183594 31.984375 174.179688 31.578125 174.429688 31.328125 L 175.65625 30.078125 C 175.902344 29.824219 176.3125 29.824219 176.5625 30.070312 C 176.816406 30.320312 176.820312 30.726562 176.570312 30.980469 L 175.34375 32.226562 C 175.214844 32.355469 175.050781 32.421875 174.886719 32.421875 " fill-opacity="1" fill-rule="nonzero"/><path fill="#000000" d="M 180.769531 26.445312 C 180.605469 26.445312 180.441406 26.382812 180.316406 26.257812 C 180.066406 26.007812 180.0625 25.601562 180.308594 25.351562 L 181.539062 24.105469 C 181.789062 23.851562 182.195312 23.847656 182.445312 24.097656 C 182.699219 24.34375 182.703125 24.75 182.453125 25.003906 L 181.226562 26.25 C 181.101562 26.378906 180.933594 26.445312 180.769531 26.445312 " fill-opacity="1" fill-rule="nonzero"/><path fill="#000000" d="M 326.582031 298.488281 C 326.582031 298.488281 326.578125 298.488281 326.578125 298.488281 L 324.828125 298.480469 C 324.476562 298.476562 324.1875 298.1875 324.191406 297.832031 C 324.195312 297.480469 324.480469 297.195312 324.832031 297.195312 C 324.835938 297.195312 324.835938 297.195312 324.835938 297.195312 L 326.585938 297.203125 C 326.941406 297.207031 327.226562 297.496094 327.222656 297.851562 C 327.21875 298.203125 326.933594 298.488281 326.582031 298.488281 " fill-opacity="1" fill-rule="nonzero"/><path fill="#000000" d="M 334.949219 298.539062 C 334.949219 298.539062 334.949219 298.539062 334.945312 298.539062 L 333.199219 298.527344 C 332.847656 298.527344 332.558594 298.234375 332.558594 297.878906 C 332.5625 297.53125 332.847656 297.242188 333.203125 297.242188 C 333.207031 297.242188 333.207031 297.242188 333.207031 297.242188 L 334.953125 297.253906 C 335.308594 297.253906 335.59375 297.542969 335.59375 297.902344 C 335.589844 298.25 335.304688 298.539062 334.949219 298.539062 " fill-opacity="1" fill-rule="nonzero"/><path fill="#000000" d="M 329.921875 303.585938 C 329.570312 303.585938 329.28125 303.300781 329.28125 302.949219 L 329.269531 301.191406 C 329.269531 300.839844 329.554688 300.550781 329.910156 300.546875 C 330.28125 300.550781 330.550781 300.832031 330.554688 301.183594 L 330.5625 302.941406 C 330.566406 303.292969 330.28125 303.585938 329.929688 303.585938 C 329.925781 303.585938 329.925781 303.585938 329.921875 303.585938 " fill-opacity="1" fill-rule="nonzero"/><path fill="#000000" d="M 329.875 295.183594 C 329.519531 295.183594 329.234375 294.902344 329.230469 294.546875 L 329.21875 292.792969 C 329.21875 292.4375 329.503906 292.148438 329.859375 292.144531 C 329.859375 292.144531 329.859375 292.144531 329.863281 292.144531 C 330.214844 292.144531 330.503906 292.429688 330.503906 292.785156 L 330.515625 294.539062 C 330.519531 294.894531 330.230469 295.183594 329.878906 295.183594 C 329.875 295.183594 329.875 295.183594 329.875 295.183594 " fill-opacity="1" fill-rule="nonzero"/><path fill="#caddff" d="M 350.558594 288.210938 C 350.558594 290.480469 348.722656 292.324219 346.457031 292.324219 C 344.195312 292.324219 342.359375 290.480469 342.359375 288.210938 C 342.359375 285.9375 344.195312 284.09375 346.457031 284.09375 C 348.722656 284.09375 350.558594 285.9375 350.558594 288.210938 " fill-opacity="1" fill-rule="nonzero"/></svg>